<svg width="72" height="72" viewBox="0 0 72 72" fill="none" xmlns="http://www.w3.org/2000/svg">
<mask id="mask0_818_5632" style="mask-type:alpha" maskUnits="userSpaceOnUse" x="0" y="0" width="72" height="72">
<rect width="72" height="72" fill="#C4C4C4"/>
</mask>
<g mask="url(#mask0_818_5632)">
<path d="M70.8 63.6H64.8V10.8C66.7858 10.7941 68.3941 9.18576 68.4 7.2V1.2C68.4 0.537258 67.8627 0 67.2 0H4.8C4.13726 0 3.6 0.537258 3.6 1.2V7.2C3.60593 9.18576 5.21424 10.7941 7.2 10.8V63.6H1.2C0.537258 63.6 0 64.1373 0 64.8V70.8C0 71.4627 0.537258 72 1.2 72H70.8C71.4627 72 72 71.4627 72 70.8V64.8C72 64.1373 71.4627 63.6 70.8 63.6ZM6 7.2V2.4H66V7.2C66 7.86274 65.4627 8.4 64.8 8.4H7.2C6.53726 8.4 6 7.86274 6 7.2ZM62.4 10.8V63.6H9.6V10.8H62.4ZM69.6 69.6H2.4V66H69.6V69.6Z" fill="#0033A0"/>
<path d="M60 12H12C11.3373 12 10.8 12.5373 10.8 13.2V61.2C10.8 61.8627 11.3373 62.4 12 62.4H60C60.6628 62.4 61.2001 61.8627 61.2001 61.2V13.2C61.2001 12.5373 60.6628 12 60 12ZM34.8001 60H13.2V37.2H34.8001V60ZM34.8001 34.8H13.2V14.4H34.8001V34.8ZM58.8 60H37.2001V37.2H58.8V60ZM58.8 34.8H37.2001V14.4H58.8V34.8Z" fill="#00AEC7"/>
<path d="M15.9475 21.951L20.7469 17.1517L22.4437 18.8485L17.6443 23.6478L15.9475 21.951Z" fill="#00AEC7"/>
<path d="M15.9475 27.951L26.7459 17.1526L28.4427 18.8494L17.6443 29.6478L15.9475 27.951Z" fill="#00AEC7"/>
</g>
</svg>
