<svg width="72" height="72" viewBox="0 0 72 72" fill="none" xmlns="http://www.w3.org/2000/svg">
<path d="M53.4189 32.5749V12.2927L41.1261 0H0V65.0314H37.2343C40.8561 69.2897 46.242 72 52.2566 72C63.144 72 72 63.144 72 52.2579C72 41.7639 63.765 33.1817 53.4189 32.5749ZM41.8063 3.96514L49.455 11.6126H41.8063V3.96514ZM2.322 62.7094V2.322H39.4843V13.9359H51.0969V32.5749C40.752 33.1817 32.5157 41.7639 32.5157 52.2591C32.5157 56.0983 33.6343 59.6739 35.5397 62.7094H2.322ZM52.2591 69.678C42.6536 69.678 34.8377 61.8634 34.8377 52.2579C34.8377 42.6536 42.6536 34.839 52.2591 34.839C61.8634 34.839 69.678 42.6536 69.678 52.2579C69.678 61.8621 61.8634 69.678 52.2579 69.678H52.2591Z" fill="#0033A0"/>
<path d="M6.83977 14.3999C6.24319 14.3999 5.75977 13.9164 5.75977 13.3199C5.75977 12.7233 6.24319 12.2399 6.83977 12.2399H34.9198C35.5163 12.2399 35.9998 12.7233 35.9998 13.3199C35.9998 13.9164 35.5163 14.3999 34.9198 14.3999H6.83977ZM6.83977 20.6999C6.24319 20.6999 5.75977 20.2164 5.75977 19.6199C5.75977 19.0233 6.24319 18.5399 6.83977 18.5399H34.9198C35.5163 18.5399 35.9998 19.0233 35.9998 19.6199C35.9998 20.2164 35.5163 20.6999 34.9198 20.6999H6.83977ZM6.83977 27.8999C6.24319 27.8999 5.75977 27.4164 5.75977 26.8199C5.75977 26.2233 6.24319 25.7399 6.83977 25.7399H34.9198C35.5163 25.7399 35.9998 26.2233 35.9998 26.8199C35.9998 27.4164 35.5163 27.8999 34.9198 27.8999H6.83977ZM6.83977 35.0999C6.24319 35.0999 5.75977 34.6164 5.75977 34.0199C5.75977 33.4233 6.24319 32.9399 6.83977 32.9399H24.8398C25.4363 32.9399 25.9198 33.4233 25.9198 34.0199C25.9198 34.6164 25.4363 35.0999 24.8398 35.0999H6.83977ZM59.2236 39.3877H45.3881C43.4813 39.3877 41.9295 40.9434 41.9295 42.8527V47.4736C41.9295 49.3842 43.4813 50.9386 45.3881 50.9386H48.8466V61.3349C48.8466 63.2454 50.3985 64.7999 52.3052 64.7999C54.2119 64.7999 55.7638 63.2442 55.7638 61.3349V50.9386H59.2223C61.1303 50.9386 62.6809 49.3829 62.6809 47.4736V42.8527C62.6809 40.9434 61.1303 39.3877 59.2223 39.3877H59.2236ZM55.7651 41.6982V48.6282H48.8479V41.6982H55.7651ZM44.2348 47.4736V42.8527C44.2348 42.2176 44.7529 41.6982 45.3881 41.6982H46.5413V48.6282H45.3881C44.7529 48.6282 44.2348 48.11 44.2348 47.4736ZM53.4585 61.3336C53.4585 61.9713 52.9403 62.4907 52.3052 62.4907C51.6701 62.4907 51.1532 61.9713 51.1532 61.3336V50.9399H53.4585V61.3362V61.3336ZM60.3756 47.4736C60.3756 48.11 59.8588 48.6282 59.2236 48.6282H58.0703V41.6982H59.2236C59.8588 41.6982 60.3756 42.2176 60.3756 42.8527V47.4736Z" fill="#00AEC7"/>
<path d="M11.435 43.9997C12.7207 43.9997 13.7647 45.0347 13.7647 46.3063H16.0944C16.0944 44.1643 14.603 42.372 12.5999 41.8577V39.3892H10.2701V41.8577C8.267 42.372 6.77686 44.1643 6.77686 46.3063C6.77686 48.8494 8.86614 50.9182 11.435 50.9182C12.7207 50.9182 13.7647 51.9519 13.7647 53.2234C13.7647 54.4963 12.7194 55.53 11.435 55.53C10.1493 55.53 9.10528 54.495 9.10528 53.2234H6.77686C6.77686 55.3654 8.267 57.1564 10.2701 57.672V60.1406H12.5999V57.672C14.603 57.1564 16.0944 55.3654 16.0944 53.2234C16.0944 50.6803 14.0051 48.6116 11.435 48.6116C10.1493 48.6116 9.10528 47.5779 9.10528 46.3063C9.10528 45.0334 10.1506 43.9997 11.435 43.9997Z" fill="#0033A0"/>
</svg>
