<svg width="72" height="72" viewBox="0 0 72 72" fill="none" xmlns="http://www.w3.org/2000/svg">
<path d="M72 15.3042C72 13.1645 70.2592 11.4169 68.1203 11.4085L59.073 11.3656V6.22547C59.073 4.07939 57.3278 2.33184 55.1831 2.32973L45.5941 2.31652C44.8339 0.936984 43.3655 0 41.6821 0H30.3179C28.6446 0 27.1842 0.925875 26.4201 2.29177L16.8289 2.27855C16.8263 2.27855 16.8241 2.27855 16.8216 2.27855C15.7826 2.27855 14.8058 2.68256 14.0705 3.41663C13.3331 4.15266 12.927 5.13211 12.927 6.17428V11.3655L3.88055 11.4083C1.7408 11.4171 0 13.1645 0 15.3042V25.8412C0 26.4239 0.472078 26.8959 1.05469 26.8959C1.6373 26.8959 2.10938 26.4239 2.10938 25.8412V22.5653H15.0581V60.2452C15.0581 60.8278 15.5302 61.2998 16.1128 61.2998C16.6954 61.2998 17.1675 60.8278 17.1675 60.2452V13.4737H25.8539V15.8282C25.8539 18.2897 27.8564 20.2922 30.3179 20.2922H41.6821C44.1436 20.2922 46.1461 18.2897 46.1461 15.8282V13.4737H54.8325V69.8906H43.6839V57.3081C43.6839 56.7255 43.2118 56.2534 42.6292 56.2534H29.3709C28.7883 56.2534 28.3162 56.7255 28.3162 57.3081V69.8906H17.1675V65.167C17.1675 64.5844 16.6954 64.1123 16.1128 64.1123C15.5302 64.1123 15.0581 64.5844 15.0581 65.167V69.8906H2.10938V30.7631C2.10938 30.1805 1.6373 29.7084 1.05469 29.7084C0.472078 29.7084 0 30.1805 0 30.7631V70.9453C0 71.5279 0.472078 72 1.05469 72H70.9453C71.5279 72 72 71.5279 72 70.9453V31.3538C72 30.7711 71.5279 30.2991 70.9453 30.2991C70.3627 30.2991 69.8906 30.7711 69.8906 31.3538V69.8906H56.9419V22.5653H69.8906V26.4319C69.8906 27.0145 70.3627 27.4866 70.9453 27.4866C71.5279 27.4866 72 27.0145 72 26.4319V15.3042ZM55.1807 4.43897C56.1638 4.43995 56.9638 5.24123 56.9638 6.22533V6.81862H46.1461V4.464C46.1461 4.45148 46.1453 4.43911 46.1451 4.42659L55.1807 4.43897ZM15.5606 4.9095C15.8977 4.57298 16.3454 4.38792 16.8221 4.38792H16.8254L25.8555 4.4003C25.8552 4.42153 25.8539 4.44263 25.8539 4.464V6.81862H15.0363V6.17428C15.0363 5.6963 15.2225 5.247 15.5606 4.9095ZM2.10938 20.4559V18.0197H15.0581V20.4559H2.10938ZM15.0581 15.9103H2.10938V15.3042C2.10938 14.3231 2.9077 13.5217 3.88955 13.5179L15.0581 13.4738V15.9103ZM15.0363 11.3643V8.928H25.8539V11.3643H15.0363ZM44.0367 15.8283C44.0367 17.1266 42.9803 18.183 41.6821 18.183H30.3179C29.0197 18.183 27.9633 17.1266 27.9633 15.8283V4.464C27.9633 3.16575 29.0197 2.10938 30.3179 2.10938H41.6821C42.9803 2.10938 44.0367 3.16575 44.0367 4.464V15.8283ZM46.1461 8.928H56.9637V11.3643H46.1461V8.928ZM68.1113 13.5179C69.0923 13.5217 69.8906 14.3232 69.8906 15.3042V15.9103H56.9419V13.4737L68.1113 13.5179ZM30.4255 58.3628H34.9453V69.8906H30.4255V58.3628ZM37.0547 69.8906V58.3628H41.5745V69.8906H37.0547ZM56.9419 20.4559V18.0197H69.8906V20.4559H56.9419Z" fill="#0033A0"/>
<path d="M6.31079 36.4864H10.8565C11.4391 36.4864 11.9112 36.0143 11.9112 35.4317V26.3403C11.9112 25.7577 11.4391 25.2856 10.8565 25.2856H6.31079C5.72818 25.2856 5.2561 25.7577 5.2561 26.3403V35.4317C5.2561 36.0143 5.72818 36.4864 6.31079 36.4864ZM7.36548 27.395H9.80181V34.3771H7.36548V27.395Z" fill="#00AEC7"/>
<path d="M5.2561 49.0689C5.2561 49.6516 5.72818 50.1236 6.31079 50.1236H10.8565C11.4391 50.1236 11.9112 49.6516 11.9112 49.0689V39.9775C11.9112 39.3949 11.4391 38.9229 10.8565 38.9229H6.31079C5.72818 38.9229 5.2561 39.3949 5.2561 39.9775V49.0689ZM7.36548 41.0321H9.80181V48.0141H7.36548V41.0321Z" fill="#00AEC7"/>
<path d="M5.2561 62.7062C5.2561 63.2888 5.72818 63.7608 6.31079 63.7608H10.8565C11.4391 63.7608 11.9112 63.2888 11.9112 62.7062V53.6147C11.9112 53.0321 11.4391 52.5601 10.8565 52.5601H6.31079C5.72818 52.5601 5.2561 53.0321 5.2561 53.6147V62.7062ZM7.36548 54.6694H9.80181V61.6515H7.36548V54.6694Z" fill="#00AEC7"/>
<path d="M20.6582 36.4864H25.2039C25.7865 36.4864 26.2586 36.0143 26.2586 35.4317V26.3403C26.2586 25.7577 25.7865 25.2856 25.2039 25.2856H20.6582C20.0756 25.2856 19.6035 25.7577 19.6035 26.3403V35.4317C19.6035 36.0143 20.0757 36.4864 20.6582 36.4864ZM21.7129 27.395H24.1492V34.3771H21.7129V27.395Z" fill="#00AEC7"/>
<path d="M29.3708 36.4864H33.9166C34.4992 36.4864 34.9712 36.0143 34.9712 35.4317V26.3403C34.9712 25.7577 34.4992 25.2856 33.9166 25.2856H29.3708C28.7882 25.2856 28.3162 25.7577 28.3162 26.3403V35.4317C28.3162 36.0143 28.7884 36.4864 29.3708 36.4864ZM30.4255 27.395H32.8619V34.3771H30.4255V27.395Z" fill="#00AEC7"/>
<path d="M38.0833 36.4864H42.629C43.2116 36.4864 43.6836 36.0143 43.6836 35.4317V26.3403C43.6836 25.7577 43.2116 25.2856 42.629 25.2856H38.0833C37.5006 25.2856 37.0286 25.7577 37.0286 26.3403V35.4317C37.0286 36.0143 37.5008 36.4864 38.0833 36.4864ZM39.1379 27.395H41.5743V34.3771H39.1379V27.395Z" fill="#00AEC7"/>
<path d="M46.7961 36.4864H51.3418C51.9245 36.4864 52.3965 36.0143 52.3965 35.4317V26.3403C52.3965 25.7577 51.9245 25.2856 51.3418 25.2856H46.7961C46.2135 25.2856 45.7415 25.7577 45.7415 26.3403V35.4317C45.7415 36.0143 46.2137 36.4864 46.7961 36.4864ZM47.8508 27.395H50.2872V34.3771H47.8508V27.395Z" fill="#00AEC7"/>
<path d="M66.7439 26.3403C66.7439 25.7577 66.2719 25.2856 65.6893 25.2856H61.1436C60.5609 25.2856 60.0889 25.7577 60.0889 26.3403V35.4317C60.0889 36.0143 60.5609 36.4864 61.1436 36.4864H65.6893C66.2719 36.4864 66.7439 36.0143 66.7439 35.4317V26.3403ZM64.6346 34.3771H62.1982V27.395H64.6346V34.3771Z" fill="#00AEC7"/>
<path d="M66.7439 39.9774C66.7439 39.3948 66.2719 38.9227 65.6893 38.9227H61.1436C60.5609 38.9227 60.0889 39.3948 60.0889 39.9774V49.0688C60.0889 49.6514 60.5609 50.1235 61.1436 50.1235H65.6893C66.2719 50.1235 66.7439 49.6514 66.7439 49.0688V39.9774ZM64.6346 48.0143H62.1982V41.0322H64.6346V48.0143Z" fill="#00AEC7"/>
<path d="M65.6893 52.5601H61.1436C60.5609 52.5601 60.0889 53.0321 60.0889 53.6147V62.7062C60.0889 63.2888 60.5609 63.7608 61.1436 63.7608H65.6893C66.2719 63.7608 66.7439 63.2888 66.7439 62.7062V53.6147C66.7439 53.0321 66.2719 52.5601 65.6893 52.5601ZM64.6346 61.6515H62.1982V54.6694H64.6346V61.6515Z" fill="#00AEC7"/>
<path d="M19.6035 49.0689C19.6035 49.6516 20.0756 50.1236 20.6582 50.1236H25.2039C25.7865 50.1236 26.2586 49.6516 26.2586 49.0689V39.9775C26.2586 39.3949 25.7865 38.9229 25.2039 38.9229H20.6582C20.0756 38.9229 19.6035 39.3949 19.6035 39.9775V49.0689ZM21.7129 41.0321H24.1492V48.0141H21.7129V41.0321Z" fill="#00AEC7"/>
<path d="M28.3162 49.0689C28.3162 49.6516 28.7882 50.1236 29.3708 50.1236H33.9166C34.4992 50.1236 34.9712 49.6516 34.9712 49.0689V39.9775C34.9712 39.3949 34.4992 38.9229 33.9166 38.9229H29.3708C28.7882 38.9229 28.3162 39.3949 28.3162 39.9775V49.0689ZM30.4255 41.0321H32.8619V48.0141H30.4255V41.0321Z" fill="#00AEC7"/>
<path d="M37.0286 49.0689C37.0286 49.6516 37.5006 50.1236 38.0833 50.1236H42.629C43.2116 50.1236 43.6836 49.6516 43.6836 49.0689V39.9775C43.6836 39.3949 43.2116 38.9229 42.629 38.9229H38.0833C37.5006 38.9229 37.0286 39.3949 37.0286 39.9775V49.0689ZM39.1379 41.0321H41.5743V48.0141H39.1379V41.0321Z" fill="#00AEC7"/>
<path d="M45.7415 49.0689C45.7415 49.6516 46.2135 50.1236 46.7961 50.1236H51.3418C51.9245 50.1236 52.3965 49.6516 52.3965 49.0689V39.9775C52.3965 39.3949 51.9245 38.9229 51.3418 38.9229H46.7961C46.2135 38.9229 45.7415 39.3949 45.7415 39.9775V49.0689ZM47.8508 41.0321H50.2872V48.0141H47.8508V41.0321Z" fill="#00AEC7"/>
<path d="M39.1455 4.54565C38.5629 4.54565 38.0908 5.01773 38.0908 5.60034V8.93554H33.9089V5.60034C33.9089 5.01773 33.4369 4.54565 32.8542 4.54565C32.2716 4.54565 31.7996 5.01773 31.7996 5.60034V14.6917C31.7996 15.2744 32.2716 15.7464 32.8542 15.7464C33.4369 15.7464 33.9089 15.2744 33.9089 14.6917V11.0449H38.0908V14.6919C38.0908 15.2745 38.5629 15.7466 39.1455 15.7466C39.7281 15.7466 40.2002 15.2745 40.2002 14.6919V5.60048C40.2002 5.01787 39.7281 4.54565 39.1455 4.54565Z" fill="#00AEC7"/>
</svg>
