<svg width="72" height="72" viewBox="0 0 72 72" fill="none" xmlns="http://www.w3.org/2000/svg">
<path d="M69.5463 27.4661L55.8971 22.8821C54.5166 22.4179 52.9929 22.831 52.036 23.928C51.0791 25.0255 50.878 26.5916 51.5257 27.8956C51.5542 27.9528 51.5949 28 51.6256 28.0555L50.5638 31.2162C49.5284 34.2902 50.36 37.6849 52.699 39.9321L52.0552 41.8454C51.7344 42.8116 51.8399 43.8685 52.3458 44.7523L48.2556 56.9251C45.464 52.14 40.34 49.1985 34.8002 49.1996H30.0004V45.0303C36.5427 43.6339 41.8122 38.7984 43.7644 32.3994H45.6002C47.5876 32.3972 49.1982 30.7872 49.2004 28.7998C49.1977 27.2771 48.2347 25.922 46.7983 25.4183C46.7999 25.0425 46.7999 24.6904 46.7999 24.5998C46.7922 23.5094 46.7 22.4212 46.5242 21.3446C46.7016 21.0611 46.7972 20.7343 46.7999 20.3997V17.9998C46.7889 8.06333 38.7366 0.0109862 28.8001 0H21.6003C11.6638 0.0109862 3.61147 8.06333 3.60049 17.9998V20.3997C3.60378 20.7343 3.69936 21.0611 3.87679 21.3446C3.70101 22.4212 3.60873 23.5094 3.60049 24.5998C3.60049 24.6899 3.60049 25.0414 3.60268 25.4155C3.10007 25.5863 2.64414 25.8714 2.27061 26.2483C1.58177 26.9179 1.19561 27.8391 1.20055 28.7998C1.20275 30.7872 2.81333 32.3972 4.80073 32.3994H6.63598C8.58768 38.7984 13.8578 43.6345 20.4006 45.0303V49.1996H15.6007C14.2654 49.2045 12.9371 49.3814 11.6473 49.7263C11.6034 49.7351 11.5605 49.7467 11.5183 49.7599C4.72932 51.6055 0.0129393 57.7639 0.000854492 64.7994V68.3991C0.00305173 70.3865 1.61308 71.997 3.60049 71.9992H46.7999C47.0339 71.9965 47.2674 71.9707 47.4965 71.9212C49.274 72.3003 51.0505 71.2747 51.6108 69.5455L59.1721 47.0397C59.2286 47.0155 59.2891 47.0051 59.3445 46.977C60.2015 46.5546 60.854 45.8076 61.1567 44.9012L61.7961 42.9962C65.0162 42.6067 67.7265 40.4029 68.7641 37.3301L69.827 34.1655C69.8842 34.1408 69.9457 34.1303 70.0017 34.1023C71.3058 33.4541 72.0913 32.0847 71.9913 30.6318C71.8913 29.1788 70.9262 27.9291 69.5458 27.465L69.5463 27.4661ZM55.8509 41.8542L58.1262 42.6183C58.5079 42.7424 58.8985 42.8391 59.294 42.9083L58.8809 44.1382C58.7798 44.4398 58.5629 44.6892 58.2778 44.8309C57.9927 44.9726 57.6631 44.9946 57.3615 44.8924L56.7924 44.7018L55.0868 44.1283C54.4595 43.9168 54.1211 43.2368 54.331 42.6089L54.7435 41.3812C55.1011 41.5652 55.4713 41.7229 55.8509 41.8542ZM47.1575 60.1924L44.7856 67.2521C44.5318 68.0162 44.5445 68.8435 44.8213 69.5993H42.0001V64.7994C41.999 63.4745 40.9251 62.4011 39.6001 62.3995V52.5081C43.1014 53.8725 45.8518 56.6691 47.1575 60.1924ZM18.0007 62.3995V58.1511C19.3163 59.3404 21.0268 59.999 22.8005 59.9996H27.6004C29.3741 59.999 31.0842 59.3404 32.4003 58.1511V62.3995H18.0007ZM13.2008 51.8291C13.9918 51.6791 14.7954 51.6022 15.6007 51.5995V62.3995H13.2008V51.8291ZM34.8002 52.7992V51.5995C35.6055 51.6022 36.4092 51.6786 37.2002 51.8275V62.3995H34.8002V52.7992ZM6.00043 25.1996C6.00043 24.9156 6.00043 24.6717 6.00043 24.5998C6.00043 24.0626 6.02789 23.5286 6.07513 22.9919C6.26849 23.0771 6.47448 23.1611 6.69695 23.2435C6.5426 23.7571 6.40307 24.3032 6.28442 24.8937C6.26574 24.9958 6.2586 25.098 6.24212 25.1996H6.00043ZM6.53545 20.5277C8.61844 19.004 14.4768 15.5999 25.2005 15.5999C36.1125 15.5999 42.0402 19.1775 44.0045 20.6387C42.7872 21.2457 38.3471 22.7997 25.2005 22.7997C12.2351 22.7997 7.90653 21.3034 6.53545 20.5277ZM44.3258 22.9919C44.3736 23.5292 44.4 24.0631 44.4 24.5998V25.1996H44.1583C44.1402 25.0898 44.133 24.9821 44.1127 24.8717C43.9979 24.3026 43.8589 23.7571 43.704 23.2441C43.9265 23.1606 44.1325 23.0765 44.3258 22.9919ZM45.6002 29.9995H44.2605C44.2698 29.9248 44.2885 29.8523 44.2973 29.777C44.3648 29.1689 44.3989 28.5576 44.4 27.9456C44.4 27.8319 44.3863 27.7138 44.3841 27.5996H45.6002C45.9232 27.599 46.2325 27.7314 46.4544 27.9665C46.678 28.1857 46.8032 28.4867 46.7999 28.7998C46.7994 29.4623 46.2627 29.999 45.6002 29.9995ZM21.6003 2.39994H28.8001C37.4045 2.40983 44.3802 9.37783 44.3994 17.9817C41.4886 16.0986 35.3605 13.1999 25.2005 13.1999C24.5523 13.1999 23.942 13.2258 23.3273 13.2477C23.3065 13.2466 23.2894 13.2356 23.2686 13.2356H23.2444C23.2164 13.2356 23.1933 13.2499 23.1658 13.2521C14.2247 13.6081 8.71072 16.2283 6.00152 17.9817C6.02075 9.37728 12.9964 2.40983 21.6003 2.39994ZM4.80073 29.9995C4.13826 29.999 3.60104 29.4623 3.60049 28.7998C3.59994 28.4763 3.73287 28.1665 3.96798 27.944C4.191 27.7188 4.49586 27.5946 4.81282 27.5996H6.01691C6.01416 27.7144 6.00043 27.8319 6.00043 27.9456C6.00207 28.5592 6.03668 29.1728 6.10425 29.7831C6.11249 29.8567 6.13061 29.927 6.1405 29.9995H4.80073ZM8.4899 29.52C8.33225 28.1291 8.38334 26.7234 8.64151 25.3479C8.73764 24.8667 8.85739 24.3888 8.99692 23.9285L9.00131 23.9186C14.3395 24.9266 19.7705 25.3562 25.2005 25.1996C30.631 25.3562 36.0631 24.9261 41.4013 23.9175C41.5414 24.3801 41.6622 24.8618 41.7551 25.3249C42.016 26.7053 42.0687 28.117 41.9111 29.5134C41.0316 37.3158 33.8472 43.1994 25.2005 43.1994C16.5538 43.1994 9.36935 37.3158 8.4899 29.52ZM21.6003 55.1997C22.2633 55.1997 22.8005 54.6619 22.8005 53.9994V45.4467C23.597 45.5433 24.3979 45.5944 25.2005 45.5994C26.0025 45.5944 26.8039 45.5433 27.6004 45.4467V53.9994C27.6004 54.6619 28.1376 55.1997 28.8001 55.1997C29.4631 55.1997 30.0004 54.6619 30.0004 53.9994V51.5995H32.4003V52.7992C32.3976 55.4491 30.2503 57.5969 27.6004 57.5996H22.8005C20.1507 57.5969 18.0034 55.4491 18.0007 52.7992V51.5995H20.4006V53.9994C20.4006 54.6619 20.9378 55.1997 21.6003 55.1997ZM2.40079 68.3991V64.7994C2.40958 59.3673 5.7417 54.4944 10.8003 52.5163V62.3995C9.47591 62.4011 8.40201 63.4745 8.40036 64.7994V69.5993H3.60049C2.93802 69.5988 2.40134 69.0615 2.40079 68.3991ZM37.2002 69.5993V68.3991C37.2002 67.7366 36.6629 67.1994 36.0005 67.1994C35.3375 67.1994 34.8002 67.7366 34.8002 68.3991V69.5993H15.6007V68.3991C15.6007 67.7366 15.0635 67.1994 14.4005 67.1994C13.738 67.1994 13.2008 67.7366 13.2008 68.3991V69.5993H10.8003V64.7994H39.6001V69.5993H37.2002ZM49.3361 68.7814C49.1219 69.4071 48.444 69.7438 47.8162 69.5361C47.1877 69.3247 46.8494 68.6446 47.0603 68.0162L54.3216 46.4041L56.5969 47.1682L49.3361 68.7814ZM66.4889 36.5671C65.4298 39.7047 62.0307 41.3933 58.8903 40.3425L56.6145 39.5784C53.4757 38.5204 51.786 35.1207 52.838 31.9803L53.6026 29.7056L61.5654 32.3813C61.9719 32.5181 62.4207 32.4269 62.742 32.1435C63.0634 31.8595 63.2089 31.4255 63.1238 31.0053C63.0387 30.5851 62.736 30.2423 62.3295 30.1055L54.3667 27.4298C53.9069 27.2749 53.5861 26.8585 53.5526 26.3746C53.5196 25.8907 53.7806 25.4347 54.2151 25.2183C54.4996 25.0749 54.8298 25.0524 55.1313 25.1562L68.7817 29.7419C69.4096 29.9534 69.7474 30.6334 69.5364 31.2618C69.3244 31.8891 68.6444 32.227 68.0165 32.0166L66.88 31.6343C66.2516 31.4233 65.571 31.7617 65.36 32.3901C65.1491 33.0185 65.4875 33.6991 66.1159 33.91L67.2524 34.2918L66.4889 36.5671Z" fill="#0033A0"/>
</svg>
