<svg width="72" height="72" viewBox="0 0 72 72" fill="none" xmlns="http://www.w3.org/2000/svg">
<path d="M62.4685 47.4069C60.915 47.4069 59.4578 48.0082 58.3654 49.1001C57.2729 50.1921 56.6719 51.6482 56.673 53.2001C56.6756 56.3996 59.2756 59.0053 62.4688 59.0087H62.4692C64.0247 59.0087 65.4811 58.4051 66.5771 57.3092C67.6731 56.213 68.2765 54.7561 68.2762 53.2069C68.2756 50.0132 65.674 47.4113 62.4768 47.4069L62.4685 47.3333V47.4069ZM31.8622 70.9367C28.772 70.9367 25.7508 69.7989 23.3554 67.7321C20.9163 65.6279 19.3962 62.7734 19.075 59.6944C18.8644 57.6754 18.8813 55.6007 18.8978 53.594C18.905 52.704 18.9125 51.7838 18.9 50.8811C18.8929 50.3687 18.8947 49.8551 18.8966 49.3113C18.8975 49.074 18.8982 48.8304 18.8984 48.5781C18.8073 48.5783 18.718 48.5789 18.6306 48.5797C18.5237 48.5806 18.4194 48.5814 18.316 48.5814C18.1897 48.5814 18.0655 48.5801 17.9411 48.5761C17.0315 48.5467 16.565 48.0761 16.5544 47.1772C16.5441 46.3059 16.5463 45.4156 16.5486 44.5545C16.5495 44.1961 16.5505 43.8363 16.5505 43.4743C13.5578 42.8958 11.0202 41.8478 8.7947 40.2712C3.24713 36.3412 0.32121 30.9027 0.0983354 24.1071C0.0624165 23.0135 0.617835 22.6712 1.08993 22.5766C1.18297 22.558 1.27542 22.5486 1.36477 22.5486C2.08212 22.5486 2.57409 23.1311 2.58896 23.9982C2.63975 26.9423 3.32044 29.634 4.61191 31.9981C7.36545 37.0386 11.619 40.101 17.2546 41.1003C18.8641 41.3856 19.0484 41.6031 19.0485 43.2167V46.0366H21.2533C21.2534 45.7225 21.2539 45.4067 21.2543 45.0898C21.2556 44.265 21.2568 43.4121 21.2508 42.5694C21.2461 41.9161 21.5155 41.4824 22.0516 41.2802C22.205 41.2223 22.3634 41.193 22.5225 41.193C23.1964 41.193 23.7167 41.6978 23.7329 42.3672C23.7708 43.9345 23.7726 45.57 23.7383 47.367C23.7251 48.0643 23.2908 48.5028 22.5469 48.5701C22.4218 48.5814 22.2862 48.5867 22.1203 48.5867C22.0074 48.5867 21.8907 48.5844 21.7675 48.5819C21.6525 48.5797 21.5318 48.5772 21.4033 48.5764V49.2349C21.4028 50.1404 21.4017 51.0457 21.4003 51.951C21.3977 53.903 21.3949 55.9214 21.4015 57.9067C21.4198 63.4291 25.4481 67.838 30.9801 68.39C31.315 68.4234 31.6552 68.4403 31.991 68.4403C36.9409 68.4403 41.2391 64.8764 42.211 59.9663C42.3819 59.1026 42.4057 58.1931 42.4073 57.4973C42.4156 54.0395 42.415 50.5236 42.4146 47.1236C42.4141 44.0898 42.4137 41.0561 42.4191 38.0223C42.4284 32.8401 45.8319 28.6103 50.8882 27.4972C51.6148 27.3373 52.3585 27.2562 53.0987 27.2562C55.8147 27.2562 58.4213 28.314 60.4381 30.2351C62.4869 32.1866 63.6485 34.7836 63.7089 37.5473C63.7425 39.0784 63.7351 40.6354 63.7279 42.1411C63.7247 42.8396 63.7213 43.5378 63.7219 44.236L63.722 44.9566C66.8649 45.6228 68.5672 47.3611 69.4431 48.7066C70.5044 50.3366 70.9701 52.3211 70.7212 54.1512C70.1407 58.4166 66.6619 61.5123 62.4494 61.5123C62.3889 61.5123 62.3284 61.5115 62.2677 61.5103C58.1292 61.4241 54.6662 58.2107 54.2123 54.0354C53.809 50.3247 56.0888 46.0331 61.2234 44.9812C61.2237 44.7045 61.225 44.4263 61.2264 44.1472C61.2295 43.4886 61.2326 42.8075 61.2203 42.1353C61.2106 41.5956 61.2121 41.0458 61.2137 40.514C61.2174 39.2141 61.2214 37.8699 61.0591 36.5711C60.5756 32.6997 57.1262 29.7742 53.0355 29.7659H53.0195C49.0491 29.7659 45.6228 32.6869 45.0496 36.5604C44.9666 37.1215 44.924 37.6833 44.9231 38.23C44.9189 41.1537 44.9189 44.0774 44.919 47.0013C44.9192 50.5336 44.9193 54.1861 44.9111 57.7785C44.8963 64.2309 40.6307 69.4216 34.2964 70.6949C33.4983 70.8553 32.6792 70.9367 31.8622 70.9367Z" fill="#0033A0"/>
<mask id="mask0_823_1219" style="mask-type:alpha" maskUnits="userSpaceOnUse" x="0" y="22" width="71" height="50">
<path d="M0.0229492 22.475H70.8602V71.0104H0.0229492V22.475Z" fill="white"/>
</mask>
<g mask="url(#mask0_823_1219)">
<path d="M62.4686 59.0823L62.4688 58.9351C60.9347 58.9335 59.4965 58.338 58.4192 57.2582C57.3418 56.1786 56.7478 54.7374 56.7465 53.2003C56.7453 51.668 57.3387 50.2303 58.4173 49.1523C59.4957 48.0743 60.9344 47.4805 62.4683 47.4805L62.4767 47.3333L62.4764 47.4805C64.0151 47.4827 65.4555 48.0768 66.5322 49.1538C67.609 50.2306 68.2021 51.67 68.2024 53.2069C68.2027 54.7365 67.6069 56.1749 66.5248 57.257C65.4428 58.3392 64.0046 58.9351 62.475 58.9351L62.4686 59.0823ZM1.36474 22.475C1.27038 22.475 1.17308 22.485 1.07533 22.5044C0.368432 22.646 -0.00474281 23.216 0.0245517 24.1096C0.136283 27.5161 0.928561 30.61 2.37901 33.3051C3.82858 35.9985 5.97282 38.3625 8.75198 40.3314C10.9714 41.9036 13.4993 42.9522 16.4768 43.535C16.4766 43.8762 16.4756 44.2155 16.4748 44.5535C16.4725 45.4151 16.4703 46.306 16.4806 47.1782C16.4918 48.1238 16.9823 48.6188 17.9385 48.6497C18.051 48.6534 18.171 48.655 18.3164 48.655C18.4196 48.655 18.5243 48.6543 18.6312 48.6534C18.6948 48.6528 18.7592 48.6524 18.8246 48.6519C18.8243 48.8782 18.8236 49.0974 18.8228 49.3116C18.8209 49.8555 18.8191 50.3693 18.8262 50.8823C18.8387 51.7841 18.8312 52.7042 18.824 53.5939C18.8075 55.6023 18.7906 57.6791 19.0017 59.702C19.3248 62.7997 20.8539 65.6713 23.3071 67.7879C25.7159 69.8659 28.7541 71.0105 31.862 71.0105C32.6836 71.0105 33.5075 70.9286 34.3107 70.7671C37.4212 70.1418 40.0863 68.57 42.0179 66.2213C43.9514 63.8704 44.9773 60.9511 44.9845 57.7787C44.9927 54.1896 44.9926 50.5405 44.9924 47.0114C44.9923 44.1334 44.9923 41.1572 44.9967 38.2301C44.9974 37.6868 45.0397 37.1287 45.1223 36.5713C45.6902 32.7335 49.0851 29.8397 53.0193 29.8397H53.0352C54.9947 29.8435 56.8787 30.523 58.3404 31.7528C59.8122 32.9913 60.7517 34.7057 60.9859 36.5802C61.1476 37.8745 61.1437 39.2162 61.1399 40.5138C61.1384 41.0461 61.1368 41.5964 61.1467 42.1368C61.1588 42.8076 61.1557 43.4879 61.1526 44.1457C61.1513 44.4053 61.1501 44.6639 61.1498 44.9214C58.7888 45.4184 56.8726 46.6303 55.603 48.4314C54.4443 50.0753 53.9243 52.0684 54.139 54.0433C54.5968 58.2553 58.0906 61.4969 62.2661 61.584C62.3275 61.5853 62.3881 61.5859 62.4492 61.5859C64.5078 61.5859 66.4764 60.8457 67.9923 59.5017C69.5139 58.1528 70.5089 56.2562 70.7939 54.1612C71.0453 52.3138 70.5753 50.3111 69.5046 48.6664C68.6267 47.3178 66.9257 45.5776 63.7954 44.8972V44.7781L63.7953 44.2361C63.7948 43.5384 63.7981 42.8285 63.8013 42.1421C63.8085 40.6357 63.8159 39.0779 63.7823 37.5458C63.7215 34.7625 62.5517 32.1472 60.4885 30.1819C58.4579 28.2478 55.8333 27.1826 53.0985 27.1826L53.0983 27.261L53.0985 27.1826C52.3529 27.1826 51.6039 27.2643 50.8722 27.4253C48.3847 27.9729 46.2546 29.2746 44.7124 31.1891C43.1685 33.106 42.3499 35.4688 42.3453 38.0223C42.3399 41.057 42.3403 44.1423 42.3408 47.1261C42.3414 50.5253 42.3418 54.0402 42.3335 57.4971C42.3319 58.1899 42.3082 59.0948 42.1385 59.9521C41.1734 64.8278 36.9057 68.3667 31.9908 68.3667C31.6574 68.3667 31.3197 68.35 30.9873 68.3167C25.4934 67.7685 21.493 63.3905 21.4749 57.9065C21.4683 55.917 21.4711 53.8941 21.4739 51.9376C21.4751 51.0369 21.4763 50.136 21.4767 49.235V48.7566V48.6508C21.5774 48.6518 21.6734 48.6537 21.7655 48.6556C21.8893 48.658 22.0064 48.6605 22.1197 48.6605C22.2881 48.6605 22.4261 48.655 22.5535 48.6436C23.3274 48.5735 23.7979 48.0968 23.8117 47.3686C23.846 45.5713 23.8443 43.9348 23.8063 42.3655C23.7891 41.6551 23.2372 41.1196 22.5223 41.1196C22.3544 41.1196 22.1871 41.1503 22.0255 41.2114C21.4574 41.4256 21.172 41.8827 21.177 42.57C21.1832 43.4128 21.1818 44.2659 21.1805 45.0908C21.1801 45.3827 21.1796 45.6736 21.1796 45.963H19.122V45.1824V43.2168C19.1218 41.5652 18.9138 41.3198 17.2673 41.0277C11.6548 40.0327 7.41856 36.9828 4.67635 31.9629C3.39048 29.6093 2.71303 26.9291 2.66239 23.997C2.64664 23.0866 2.12522 22.475 1.36474 22.475ZM62.475 59.0823C65.7187 59.0823 68.3504 56.4511 68.3496 53.2069C68.349 49.948 65.739 47.3378 62.4767 47.3333H62.4683C59.2158 47.3333 56.5968 49.9505 56.5993 53.2003C56.6018 56.4598 59.2153 59.0789 62.4686 59.0823H62.475ZM1.36474 22.6222C2.02497 22.6222 2.50075 23.1601 2.51518 23.9996C2.56405 26.8378 3.18498 29.54 4.5471 32.0335C7.31404 37.0984 11.5481 40.1633 17.2417 41.1727C18.8006 41.4492 18.9746 41.6282 18.9747 43.2168C18.9747 44.1672 18.9747 45.1178 18.9747 46.1102H21.3268C21.3268 44.9449 21.3329 43.757 21.3242 42.569C21.3201 41.9962 21.5263 41.5569 22.0773 41.3492C22.2261 41.2931 22.3764 41.2668 22.5223 41.2668C23.121 41.2668 23.6432 41.7109 23.6591 42.3691C23.6994 44.0339 23.6963 45.7007 23.6645 47.3658C23.6516 48.0449 23.2179 48.4355 22.5401 48.4969C22.4026 48.5093 22.2644 48.5133 22.1197 48.5133C21.8818 48.5133 21.6267 48.5027 21.3295 48.5027C21.3295 48.7684 21.3295 49.0017 21.3295 49.235C21.3283 52.1256 21.3182 55.0164 21.3277 57.907C21.346 63.4578 25.4184 67.9089 30.9726 68.4633C31.3136 68.4973 31.6537 68.514 31.9908 68.514C36.9085 68.514 41.2962 64.9662 42.2829 59.9807C42.4432 59.1712 42.4788 58.3262 42.4808 57.4976C42.4964 51.006 42.4808 44.5142 42.4925 38.0226C42.5018 32.8837 45.9048 28.6697 50.9039 27.5691C51.6396 27.4071 52.3744 27.3298 53.0985 27.3298C58.6113 27.3298 63.5097 31.8132 63.6351 37.549C63.6838 39.777 63.6463 42.0071 63.6481 44.2361C63.6484 44.5017 63.6482 44.7671 63.6482 45.0165C69.1468 46.1522 71.1045 50.7865 70.648 54.1415C70.067 58.4119 66.6201 61.4387 62.4492 61.4387C62.389 61.4387 62.3295 61.4381 62.269 61.4369C58.1803 61.3517 54.7378 58.1906 54.2853 54.0274C53.8796 50.2949 56.1884 46.0589 61.297 45.0415C61.297 44.0839 61.3114 43.1087 61.2939 42.1341C61.26 40.2752 61.3613 38.3975 61.132 36.562C60.6357 32.5884 57.1355 29.7006 53.0355 29.6925H53.0193C49.0223 29.6925 45.5552 32.64 44.9765 36.5498C44.8945 37.1041 44.8502 37.6696 44.8495 38.2299C44.8396 44.7461 44.8521 51.2623 44.8373 57.7785C44.8227 64.1773 40.5491 69.3629 34.2817 70.6229C33.4736 70.7852 32.6633 70.8633 31.862 70.8633C25.5893 70.8633 19.8162 66.0905 19.148 59.6869C18.8445 56.7768 19.014 53.8172 18.9734 50.8802C18.963 50.1236 18.9718 49.3666 18.9718 48.5044C18.7426 48.5044 18.5268 48.5078 18.3164 48.5078C18.1907 48.5078 18.0671 48.5066 17.9434 48.5027C17.0765 48.4746 16.638 48.0457 16.6278 47.1765C16.6131 45.9312 16.624 44.6856 16.624 43.4135C13.7736 42.8697 11.1618 41.8581 8.83706 40.2113C3.29185 36.2829 0.394782 30.9061 0.171761 24.1049C0.144085 23.2618 0.480752 22.7738 1.10418 22.6488C1.19368 22.631 1.28068 22.6222 1.36474 22.6222Z" fill="#0033A0"/>
</g>
<path d="M29.5319 2.72988C28.9274 2.74121 28.458 3.22421 28.4633 3.82953C28.4684 4.43647 28.943 4.91505 29.5438 4.91917H29.544C30.151 4.91917 30.6339 4.44942 30.6513 3.8497C30.6599 3.5516 30.5519 3.27131 30.3471 3.06051C30.1397 2.8472 29.8581 2.72973 29.554 2.72973L29.5319 2.72988ZM10.7445 2.7259C10.1412 2.7259 9.66134 3.19844 9.65206 3.80185C9.64264 4.40821 10.1069 4.899 10.709 4.91917L10.7463 4.91976C11.0392 4.91976 11.3143 4.80464 11.521 4.59546C11.7296 4.38421 11.8424 4.10363 11.8389 3.80539C11.8315 3.20109 11.3517 2.72693 10.7466 2.7259L10.7445 2.6523V2.7259ZM27.1222 42.5117C26.7987 42.5117 26.5228 42.3832 26.2789 42.119C26.0065 41.824 25.8913 41.4848 25.9456 41.1381C26.0121 40.7133 26.3224 40.3245 26.8196 40.0436C27.1787 39.8405 27.549 39.6393 27.9073 39.4445C29.0947 38.7993 30.3225 38.1321 31.3635 37.2792C35.3996 33.972 37.5321 29.5549 37.7017 24.1504C37.7283 23.3019 37.7214 22.4663 37.7142 21.5817C37.7111 21.1987 37.7079 20.812 37.7074 20.42H35.5099V23.6793C35.5096 26.5441 34.7894 29.2181 33.3692 31.6265C30.6544 36.2309 25.4895 39.2062 20.2112 39.2063C19.3193 39.2065 18.431 39.1205 17.5715 38.9511C10.8671 37.6291 5.92135 32.6106 4.97185 26.166C4.85041 25.3419 4.82803 24.4918 4.80624 23.6695L4.80035 23.4482C4.78092 22.7394 4.78534 22.0363 4.78976 21.292C4.79167 20.9861 4.79358 20.6752 4.79388 20.3573L2.83629 20.3559C2.37656 20.3559 1.92036 20.3565 1.46416 20.3587C0.698085 20.3589 0.244535 20.0199 0.10395 19.3511C0.0268129 18.9841 0.0985036 18.6284 0.305774 18.3499C0.513485 18.0707 0.834989 17.8995 1.21052 17.8678C1.35037 17.856 1.50082 17.8506 1.68409 17.8506C1.81069 17.8506 1.93964 17.8531 2.07316 17.8557C2.19181 17.8581 2.31385 17.8606 2.4406 17.8613L2.44089 13.9401C2.44089 11.4585 2.44089 8.97713 2.44413 6.49563C2.44737 4.08391 3.9227 2.58576 6.29452 2.58576L6.41524 2.5865C7.04352 2.5865 7.42995 2.47005 7.79738 1.83352C8.37179 0.838686 9.49352 0.220703 10.7251 0.220703C11.1144 0.220703 11.4981 0.281795 11.8653 0.402064C13.3289 0.881818 14.3716 2.34758 14.3445 3.88753C14.3162 5.49417 13.1861 6.9034 11.5964 7.31426C11.3179 7.38624 11.0304 7.4229 10.7421 7.4229C9.50544 7.4229 8.32615 6.74824 7.6646 5.66228C7.41434 5.25186 6.95152 5.01662 6.39448 5.01662C6.18441 5.01662 5.96669 5.05004 5.7475 5.11599C5.18589 5.28542 4.93623 5.68495 4.93785 6.41172C4.94344 8.95902 4.943 11.5063 4.94271 14.0536C4.94241 15.1804 4.94226 16.3068 4.94271 17.4335C4.94271 17.5248 4.9483 17.6164 4.95522 17.7283C4.95757 17.7689 4.96022 17.8123 4.96287 17.8593C5.05046 17.859 5.41804 17.8569 5.51491 17.8569C5.63326 17.8569 5.74956 17.8578 5.86585 17.8604C6.8286 17.8828 7.28082 18.3387 7.28892 19.2954C7.2954 20.0597 7.29451 20.8369 7.29378 21.5884C7.29304 22.3541 7.29231 23.1458 7.29908 23.9244C7.32749 27.1458 8.50221 30.1871 10.6069 32.4879C12.7234 34.8015 15.6885 36.2607 18.9563 36.5965C19.4035 36.6425 19.8566 36.6658 20.3028 36.6658H20.3039C26.2459 36.6658 31.3025 32.6364 32.601 26.8667C32.8754 25.6468 32.9108 24.3475 32.9448 23.0908C32.9585 22.586 32.9726 22.0638 33.002 21.5541C33.0284 21.0968 33.0218 20.6286 33.0151 20.1759C33.0116 19.9262 33.0079 19.6767 33.0095 19.4272C33.0168 18.2932 33.447 17.8682 34.5969 17.8593C34.6871 17.8587 34.7774 17.8584 34.8731 17.8584L35.3603 17.859L35.3606 14.1727C35.3609 11.6306 35.3614 9.08842 35.3593 6.54627C35.3587 5.62768 34.66 4.90813 33.7691 4.90813C33.5027 4.90813 33.243 4.9754 32.9975 5.10774C32.8874 5.16707 32.8101 5.32149 32.7351 5.47091C32.7013 5.53848 32.6663 5.6084 32.6275 5.67126C31.9526 6.7659 30.8045 7.41951 29.5565 7.41951C29.1144 7.41951 28.679 7.33663 28.2622 7.17294C26.6279 6.5314 25.666 4.79242 26.0248 3.12793C26.3929 1.41942 27.8362 0.22615 29.5345 0.22615C29.5896 0.22615 29.6449 0.227475 29.7006 0.229977C31.0046 0.289302 32.0196 0.909052 32.6359 2.02225C32.8648 2.43561 33.0983 2.58929 33.4975 2.58929C33.5467 2.58929 33.5982 2.58694 33.6523 2.58252C33.7978 2.57045 33.9436 2.56427 34.0855 2.56427C34.3496 2.56427 34.604 2.58532 34.8417 2.62683C36.611 2.93553 37.8512 4.4085 37.8577 6.20857C37.867 8.75941 37.8642 11.3529 37.8614 13.8611C37.8602 14.9108 37.859 15.9604 37.8588 17.0102V17.8575C37.96 17.8571 38.06 17.8557 38.1588 17.8547C38.2787 17.8531 38.3972 17.8518 38.5147 17.8518C38.6821 17.8518 38.8203 17.8547 38.9494 17.8612C39.7118 17.8993 40.1864 18.3405 40.1882 19.0128C40.1895 19.5781 40.1978 20.1538 40.2056 20.7106C40.248 23.6958 40.2917 26.7828 39.3217 29.7442C37.4006 35.6096 33.5602 39.8387 27.907 42.3142C27.5995 42.4489 27.3501 42.5117 27.1222 42.5117Z" fill="#0033A0"/>
<mask id="mask1_823_1219" style="mask-type:alpha" maskUnits="userSpaceOnUse" x="0" y="0" width="41" height="43">
<path d="M0 0.147217H40.2966V42.5853H0V0.147217Z" fill="white"/>
</mask>
<g mask="url(#mask1_823_1219)">
<path d="M29.5515 4.84568H29.5441C28.9842 4.84185 28.5416 4.39522 28.5366 3.82891C28.5318 3.26451 28.9696 2.81405 29.5331 2.80345L29.5539 2.80331C29.838 2.80331 30.1009 2.91283 30.2943 3.11186C30.4851 3.30823 30.5856 3.56953 30.5777 3.84761C30.5613 4.40715 30.1107 4.84568 29.5515 4.84568ZM10.7462 4.84612C10.7347 4.84612 10.723 4.84598 10.7114 4.84553C10.1498 4.82684 9.71672 4.36887 9.72556 3.803C9.73424 3.24037 10.1818 2.79948 10.7444 2.79948C11.3107 2.80051 11.7582 3.24272 11.7651 3.80624C11.7685 4.08476 11.6633 4.34664 11.4687 4.54361C11.276 4.73866 11.0194 4.84612 10.7462 4.84612ZM10.725 0.147217C9.46735 0.147217 8.32118 0.779184 7.73367 1.79669C7.38405 2.40216 7.01544 2.51286 6.41542 2.51286L6.35948 2.51257L6.29456 2.51227C3.87739 2.51227 2.3738 4.03854 2.37041 6.49545C2.36703 8.99079 2.36717 11.5279 2.36717 13.9815C2.36717 15.0377 2.36717 16.0938 2.36703 17.15V17.6322V17.7871C2.26692 17.7861 2.16977 17.7842 2.07482 17.7822C1.94086 17.7796 1.81131 17.7771 1.68442 17.7771C1.49879 17.7771 1.34628 17.7827 1.20437 17.7946C0.807349 17.8279 0.467296 18.0095 0.246777 18.306C0.026553 18.6016 -0.0497011 18.9782 0.0318526 19.3664C0.180533 20.0737 0.658373 20.4324 1.45168 20.4324H1.46434C1.91922 20.4302 2.37395 20.4295 2.83235 20.4295C3.16284 20.4295 3.49523 20.4298 3.83058 20.4302C4.12441 20.4305 4.42059 20.4308 4.72001 20.431C4.71957 20.7227 4.7178 21.0089 4.71619 21.2905C4.71162 22.0358 4.70721 22.7399 4.72664 23.4502L4.73267 23.6719C4.75431 24.4963 4.77683 25.3486 4.89887 26.1767C5.36906 29.3673 6.80758 32.2601 9.05914 34.5424C11.3069 36.8208 14.2453 38.3703 17.5571 39.0233C18.4212 39.1936 19.3141 39.28 20.2111 39.28C25.5149 39.28 30.7046 36.2905 33.4325 31.664C34.8596 29.2439 35.5832 26.5575 35.5834 23.6793L35.5835 21.3855V20.4935H37.6339C37.6346 20.8616 37.6375 21.2271 37.6405 21.5819C37.6478 22.4658 37.6546 23.3008 37.6281 24.1481C37.4591 29.5304 35.3358 33.9291 31.3167 37.2224C30.2809 38.0709 29.056 38.7365 27.8715 39.3803C27.5132 39.5749 27.1427 39.7763 26.7832 39.9796C26.2662 40.2718 25.9428 40.6793 25.8727 41.1268C25.8149 41.4966 25.9365 41.8569 26.2247 42.169C26.4832 42.4492 26.7769 42.5853 27.1221 42.5853C27.3604 42.5853 27.6192 42.5205 27.9365 42.3816C30.7729 41.1396 33.1746 39.4489 35.0748 37.3565C36.9752 35.2637 38.4276 32.7103 39.3915 29.7671C40.3653 26.7941 40.3216 23.7009 40.2792 20.7096C40.2712 20.153 40.2631 19.5776 40.2617 19.0126C40.2599 18.2973 39.7584 17.8279 38.953 17.7877C38.8226 17.7812 38.6832 17.7781 38.5145 17.7781C38.3965 17.7781 38.2779 17.7796 38.1576 17.7811C38.0831 17.782 38.0081 17.7828 37.9322 17.7834V17.5737L37.9324 17.0103C37.9327 15.9582 37.9337 14.9061 37.9349 13.8541C37.9377 11.3482 37.9405 8.75702 37.9312 6.20839C37.9246 4.37196 36.6593 2.8694 34.8543 2.55438C34.6122 2.51198 34.3535 2.49063 34.0851 2.49063C33.9413 2.49063 33.7935 2.49682 33.646 2.50918C33.5934 2.51345 33.5434 2.51581 33.4974 2.51581C33.1251 2.51581 32.9165 2.37728 32.7003 1.98659C32.071 0.849845 31.0348 0.216994 29.7039 0.156491C29.647 0.153841 29.5907 0.152664 29.5344 0.152664C27.8012 0.152664 26.3284 1.36979 25.9528 3.11244C25.5864 4.81182 26.5677 6.58687 28.2352 7.24151C28.6604 7.40859 29.105 7.49323 29.5564 7.49323C30.8302 7.49323 32.0016 6.82652 32.69 5.70994C32.7305 5.64429 32.7662 5.57289 32.8008 5.504C32.8706 5.36474 32.9427 5.22092 33.0322 5.17263C33.267 5.04603 33.5149 4.98185 33.769 4.98185C34.6187 4.98185 35.285 5.66902 35.2857 6.54639C35.2876 9.08765 35.2872 11.6289 35.2869 14.1702L35.2866 17.2006V17.7853L35.1102 17.785L34.8715 17.7847C34.7761 17.7847 34.6861 17.785 34.5962 17.7858C33.409 17.7951 32.9435 18.2551 32.9358 19.4269C32.9342 19.6771 32.9379 19.9312 32.9414 20.1767C32.948 20.6282 32.9548 21.0952 32.9285 21.5498C32.8989 22.0607 32.8847 22.5835 32.8711 23.0888C32.837 24.3419 32.802 25.6376 32.5291 26.8505C31.9102 29.6008 30.3588 32.0851 28.1608 33.8458C25.9499 35.6169 23.1592 36.5923 20.3028 36.5923C19.8594 36.5923 19.4088 36.569 18.9636 36.5233C15.714 36.1894 12.7654 34.7386 10.6612 32.4382C8.56864 30.1509 7.40069 27.1271 7.37257 23.9238C7.3658 23.1462 7.36653 22.3551 7.36727 21.5902C7.36815 20.838 7.36889 20.0602 7.36241 19.2948C7.35402 18.3032 6.86499 17.8101 5.86751 17.787C5.75047 17.7842 5.63359 17.7833 5.5145 17.7833C5.41763 17.7833 5.31945 17.7839 5.21861 17.7845C5.15752 17.7847 5.09554 17.7852 5.03224 17.7853C5.03106 17.7641 5.02974 17.7435 5.02856 17.7235C5.02164 17.6107 5.01634 17.5217 5.0162 17.4335C5.0159 16.3037 5.01605 15.174 5.0162 14.0442C5.01664 11.5425 5.01693 8.95575 5.01134 6.41154C5.00972 5.71348 5.23627 5.34707 5.76873 5.18662C5.981 5.12258 6.19151 5.0902 6.39437 5.0902C6.9252 5.0902 7.36521 5.31278 7.60163 5.70067C8.27643 6.80842 9.47972 7.49647 10.742 7.49647C11.0366 7.49647 11.3301 7.45923 11.6148 7.38562C13.2363 6.96637 14.3891 5.52844 14.418 3.88882C14.4457 2.31752 13.3816 0.821728 11.8882 0.332111C11.5136 0.209339 11.1221 0.147217 10.725 0.147217ZM29.5515 4.99289C30.1868 4.99289 30.7063 4.48855 30.7248 3.85187C30.7439 3.18914 30.2194 2.6561 29.5539 2.6561C29.546 2.6561 29.5382 2.6561 29.5304 2.65624C28.8838 2.66832 28.3838 3.18281 28.3894 3.83023C28.3952 4.48075 28.8989 4.98847 29.5431 4.99289C29.5459 4.99289 29.5487 4.99289 29.5515 4.99289ZM10.7462 4.99333C11.3939 4.99333 11.9203 4.46132 11.9123 3.80447C11.9045 3.16058 11.3914 2.65345 10.7466 2.65227H10.7444C10.0993 2.65227 9.58836 3.15543 9.57835 3.80079C9.56834 4.44424 10.0672 4.9714 10.7064 4.99274C10.7198 4.99318 10.7331 4.99333 10.7462 4.99333ZM10.725 0.294426C11.1 0.294426 11.4782 0.35272 11.8423 0.472107C13.2845 0.944647 14.2974 2.36904 14.2708 3.88632C14.2431 5.46396 13.1398 6.83933 11.5779 7.24312C11.301 7.31467 11.0204 7.34926 10.742 7.34926C9.54581 7.34926 8.38919 6.71038 7.72734 5.62412C7.46089 5.18691 6.97084 4.94299 6.39437 4.94299C6.18121 4.94299 5.95627 4.9764 5.72619 5.04559C5.05432 5.24815 4.86266 5.75823 4.86413 6.41184C4.87223 10.0857 4.86781 13.7596 4.86899 17.4335C4.86914 17.5753 4.88224 17.717 4.89298 17.9328C5.11232 17.9328 5.31636 17.9305 5.5145 17.9305C5.63241 17.9305 5.74827 17.9314 5.86412 17.934C6.77608 17.9552 7.2074 18.3777 7.2152 19.296C7.22816 20.839 7.21182 22.3822 7.22536 23.9251C7.2841 30.5996 12.1314 35.9692 18.9486 36.6697C19.4038 36.7165 19.8565 36.7395 20.3028 36.7395C26.2997 36.7395 31.3828 32.615 32.6728 26.8828C33.0593 25.1645 32.9726 23.3372 33.0754 21.5583C33.1163 20.8504 33.0785 20.138 33.083 19.4277C33.0901 18.3305 33.4862 17.9415 34.5974 17.933C34.6869 17.9323 34.7765 17.932 34.8715 17.932C35.0344 17.932 35.2129 17.9327 35.4338 17.9327V17.2006C35.4338 13.6491 35.4356 10.0977 35.4329 6.54624C35.432 5.54934 34.6489 4.83464 33.769 4.83464C33.5026 4.83464 33.2274 4.90015 32.9623 5.04309C32.7776 5.14275 32.6904 5.42878 32.5647 5.63266C31.8908 6.72583 30.7465 7.34602 29.5564 7.34602C29.1333 7.34602 28.7046 7.26771 28.2889 7.10445C26.6852 6.47484 25.7448 4.77576 26.0966 3.14351C26.457 1.47151 27.8668 0.299872 29.5344 0.299872C29.5884 0.299872 29.6426 0.30105 29.6971 0.303553C30.9641 0.361111 31.9629 0.958926 32.5715 2.05799C32.8157 2.49917 33.0777 2.66302 33.4974 2.66302C33.5485 2.66302 33.6021 2.66051 33.6582 2.6558C33.7991 2.64417 33.942 2.63784 34.0851 2.63784C34.3352 2.63784 34.5862 2.65698 34.8291 2.69938C36.5589 3.0013 37.7777 4.43821 37.784 6.20898C37.7971 9.80927 37.7861 13.4097 37.7852 17.0101C37.785 17.2785 37.785 17.5466 37.785 17.9314C38.0356 17.9314 38.2769 17.9253 38.5145 17.9253C38.6592 17.9253 38.8025 17.9275 38.9456 17.9348C39.6279 17.9688 40.1128 18.3396 40.1145 19.0129C40.1234 22.6044 40.3984 26.22 39.2517 29.7213C37.3277 35.5958 33.5382 39.7679 27.8774 42.2467C27.6164 42.3611 27.3638 42.4381 27.1221 42.4381C26.8431 42.4381 26.5788 42.3355 26.3328 42.0691C25.727 41.4128 25.9995 40.5918 26.8557 40.1076C28.4039 39.2322 30.0482 38.452 31.41 37.3361C35.5404 33.9518 37.6078 29.4871 37.7752 24.1527C37.8143 22.9056 37.7809 21.656 37.7809 20.3463H35.4363C35.4363 21.4455 35.4363 22.5624 35.4362 23.6793C35.436 26.5072 34.7441 29.1497 33.3058 31.5891C30.5587 36.2483 25.394 39.1328 20.2111 39.1328C19.3324 39.1328 18.4537 39.0501 17.5856 38.8787C10.8997 37.5605 5.99396 32.5988 5.04446 26.1552C4.913 25.263 4.89858 24.3506 4.87385 23.4463C4.84588 22.4227 4.86737 21.3977 4.86737 20.2838C4.1746 20.2838 3.49965 20.2823 2.83235 20.2823C2.3738 20.2823 1.91878 20.283 1.46375 20.2852H1.45168C0.78777 20.2852 0.31891 20.0163 0.17597 19.336C0.0253754 18.6197 0.48452 18.0028 1.21674 17.9412C1.37072 17.9283 1.52558 17.9243 1.68442 17.9243C1.94513 17.9243 2.21673 17.935 2.51424 17.935C2.51424 17.6265 2.51409 17.3883 2.51424 17.15C2.51497 13.5986 2.51291 10.047 2.51762 6.4956C2.52086 4.12259 3.94407 2.65948 6.29456 2.65948C6.31576 2.65948 6.33651 2.65948 6.35771 2.65978C6.37714 2.65992 6.39643 2.66007 6.41542 2.66007C7.06711 2.66007 7.48136 2.52817 7.86116 1.8703C8.45382 0.843809 9.57452 0.294426 10.725 0.294426Z" fill="#0033A0"/>
</g>
<path d="M63.642 53.2419C63.661 52.5948 63.1706 52.0641 62.528 52.036C61.855 52.0066 61.304 52.5323 61.3022 53.2054C61.3006 53.8474 61.8095 54.364 62.4549 54.3756C63.0988 54.3872 63.6231 53.8866 63.642 53.2419ZM58.9429 53.2125C58.9311 51.3089 60.5253 49.6894 62.4225 49.6774C64.3792 49.6654 65.9889 51.2487 65.9963 53.1929C66.0036 55.1075 64.4292 56.7092 62.5191 56.7302C60.5766 56.7517 58.9553 55.1567 58.9429 53.2125Z" fill="#00AEC7"/>
</svg>
