<svg width="72" height="72" viewBox="0 0 72 72" fill="none" xmlns="http://www.w3.org/2000/svg">
<mask id="mask0_818_5641" style="mask-type:alpha" maskUnits="userSpaceOnUse" x="0" y="0" width="72" height="72">
<rect width="72" height="72" fill="#C4C4C4"/>
</mask>
<g mask="url(#mask0_818_5641)">
</g>
<path d="M50.9607 40.1191C53.3776 36.9321 54.6551 33.128 54.6551 29.1181C54.6551 24.2015 52.7268 19.5926 49.2254 16.1403C45.7247 12.6888 41.0848 10.8248 36.1676 10.8959C31.4025 10.9633 26.913 12.8754 23.5263 16.2799C20.1397 19.6842 18.2509 24.1838 18.2076 28.9494C18.1705 33.0349 19.4554 36.9073 21.9234 40.1483C25.93 45.4095 28.1366 51.8542 28.1366 58.2951V65.3427C28.1366 68.4688 30.6799 71.0121 33.806 71.0121H39.0794C42.2055 71.0121 44.7488 68.4687 44.7488 65.3427V58.2955C44.7489 51.7834 46.8814 45.498 50.9607 40.1191ZM23.7824 38.7328C21.6315 35.9084 20.5117 32.5327 20.544 28.9707C20.6217 20.4135 27.6452 13.3533 36.2006 13.2323C40.4925 13.1746 44.5332 14.7954 47.5849 17.8044C50.6375 20.814 52.3185 24.8321 52.3185 29.1182C52.3185 32.614 51.2053 35.9299 49.0989 38.7074C44.8008 44.375 42.4865 50.9871 42.3918 57.8561H30.4699C30.3722 51.0538 28.0061 44.2791 23.7824 38.7328ZM30.4731 64.5509V63.6051L42.4124 64.9729V65.3427C42.4124 65.5374 42.3921 65.7271 42.3601 65.9126L30.4731 64.5509ZM30.4731 61.2533V60.1926H42.4124V62.6211L30.4731 61.2533ZM33.806 68.6757C32.551 68.6757 31.4567 67.9778 30.8883 66.9502L40.9458 68.1024C40.4129 68.464 39.7705 68.6755 39.0796 68.6755H33.806V68.6757Z" fill="#0033A0"/>
<path d="M24.8784 30.8754C24.7873 30.2641 24.7438 29.636 24.7496 29.0089C24.7555 28.3637 24.2373 27.8359 23.5921 27.83C22.9512 27.8244 22.4191 28.3423 22.4132 28.9875C22.4063 29.7368 22.4582 30.4879 22.5674 31.2202C22.6539 31.7999 23.1523 32.2163 23.7215 32.2163C23.7788 32.2163 23.8369 32.2121 23.8953 32.2034C24.5334 32.108 24.9736 31.5136 24.8784 30.8754Z" fill="#00AEC7"/>
<path d="M31.7537 48.621C31.8746 48.621 31.9976 48.602 32.1188 48.5622C32.7318 48.3607 33.0653 47.7004 32.8637 47.0876C31.569 43.1502 29.6393 39.4818 27.1283 36.1847C26.7133 35.6396 26.3456 35.0591 26.0354 34.4589C25.7391 33.8857 25.0343 33.6614 24.4611 33.9576C23.888 34.2539 23.6635 34.9588 23.9598 35.532C24.3321 36.252 24.7726 36.9478 25.2695 37.6003C27.6226 40.6901 29.4309 44.1276 30.6442 47.8174C30.8059 48.3091 31.2627 48.621 31.7537 48.621Z" fill="#00AEC7"/>
<path d="M48.7064 33.1186C48.1138 32.8633 47.4264 33.1368 47.1713 33.7293C46.8012 34.5889 46.3222 35.4087 45.7477 36.166C45.3578 36.6801 45.4586 37.413 45.9726 37.8029C46.1837 37.963 46.4317 38.0403 46.6776 38.0403C47.0308 38.0403 47.3797 37.8809 47.6095 37.5778C48.2978 36.6701 48.8723 35.6863 49.3172 34.6537C49.5725 34.0611 49.2991 33.3737 48.7064 33.1186Z" fill="#00AEC7"/>
<path d="M36.431 17.4365C42.8723 17.4365 48.1127 22.6771 48.1127 29.1184C48.1127 29.4846 48.0959 29.8537 48.0627 30.2152C48.0038 30.8577 48.4768 31.4263 49.1193 31.4853C49.1556 31.4886 49.1916 31.4903 49.2274 31.4903C49.8245 31.4903 50.3338 31.035 50.3894 30.4288C50.429 29.9965 50.4493 29.5557 50.4493 29.1184C50.4493 21.3887 44.1607 15.1 36.431 15.1C35.7858 15.1 35.2627 15.623 35.2627 16.2682C35.2627 16.9134 35.7858 17.4365 36.431 17.4365Z" fill="#00AEC7"/>
<path d="M36.431 8.87885C37.0762 8.87885 37.5992 8.35577 37.5992 7.71058V1.16827C37.5992 0.523073 37.0762 0 36.431 0C35.7858 0 35.2627 0.523073 35.2627 1.16827V7.71058C35.2627 8.35577 35.7858 8.87885 36.431 8.87885Z" fill="#00AEC7"/>
<path d="M24.6118 11.1873C24.8283 11.5623 25.2209 11.7718 25.6246 11.7718C25.8228 11.7718 26.0237 11.7213 26.2077 11.6151C26.7664 11.2925 26.958 10.578 26.6354 10.0192L23.3658 4.35544C23.0431 3.79654 22.3287 3.6051 21.77 3.9277C21.2112 4.2503 21.0196 4.96481 21.3422 5.52356L24.6118 11.1873Z" fill="#00AEC7"/>
<path d="M61.3975 42.3872L55.7338 39.1176C55.1749 38.7948 54.4603 38.9864 54.1379 39.5453C53.8153 40.1041 54.0067 40.8186 54.5656 41.1412L60.2294 44.4108C60.4134 44.517 60.6142 44.5675 60.8125 44.5675C61.2162 44.5675 61.6089 44.3578 61.8253 43.983C62.1479 43.4243 61.9563 42.7098 61.3975 42.3872Z" fill="#00AEC7"/>
<path d="M11.4643 16.257L17.1281 19.5266C17.3121 19.6329 17.5128 19.6833 17.7111 19.6833C18.1149 19.6833 18.5076 19.4737 18.724 19.0989C19.0466 18.5401 18.8551 17.8256 18.2962 17.503L12.6324 14.2334C12.0737 13.9107 11.3592 14.1023 11.0366 14.6612C10.714 15.2199 10.9054 15.9343 11.4643 16.257Z" fill="#00AEC7"/>
<path d="M64.5846 28.1537H58.0423C57.3971 28.1537 56.874 28.6768 56.874 29.322C56.874 29.9672 57.3971 30.4902 58.0423 30.4902H64.5846C65.2298 30.4902 65.7529 29.9672 65.7529 29.322C65.7529 28.6768 65.23 28.1537 64.5846 28.1537Z" fill="#00AEC7"/>
<path d="M15.9877 29.322C15.9877 28.6768 15.4647 28.1537 14.8195 28.1537H8.27716C7.63196 28.1537 7.10889 28.6768 7.10889 29.322C7.10889 29.9672 7.63196 30.4902 8.27716 30.4902H14.8195C15.4648 30.4902 15.9877 29.9672 15.9877 29.322Z" fill="#00AEC7"/>
<path d="M55.1507 19.6834C55.3488 19.6834 55.5498 19.6329 55.7337 19.5266L61.3975 16.2571C61.9562 15.9345 62.1478 15.2199 61.8252 14.6612C61.5026 14.1025 60.788 13.9109 60.2294 14.2335L54.5656 17.503C54.0069 17.8256 53.8153 18.5402 54.1379 19.0989C54.3542 19.4737 54.7471 19.6834 55.1507 19.6834Z" fill="#00AEC7"/>
<path d="M17.1281 39.1175L11.4643 42.3871C10.9056 42.7097 10.714 43.4242 11.0366 43.983C11.2529 44.3578 11.6456 44.5674 12.0494 44.5674C12.2475 44.5674 12.4484 44.5169 12.6324 44.4107L18.2962 41.1411C18.8549 40.8185 19.0465 40.104 18.7239 39.5453C18.4015 38.9864 17.6865 38.7949 17.1281 39.1175Z" fill="#00AEC7"/>
<path d="M46.6542 11.6151C46.8382 11.7213 47.039 11.7718 47.2373 11.7718C47.641 11.7718 48.0337 11.5621 48.2501 11.1873L51.5197 5.52356C51.8423 4.96481 51.6507 4.2503 51.0919 3.9277C50.5334 3.6051 49.8187 3.79654 49.4961 4.35544L46.2265 10.0192C45.9039 10.578 46.0955 11.2925 46.6542 11.6151Z" fill="#00AEC7"/>
</svg>
