<svg width="32" height="32" viewBox="0 0 32 32" fill="none" xmlns="http://www.w3.org/2000/svg">
<mask id="mask0_818_5172" style="mask-type:alpha" maskUnits="userSpaceOnUse" x="0" y="0" width="32" height="32">
<rect width="32" height="32" fill="white"/>
</mask>
<g mask="url(#mask0_818_5172)">
<path fill-rule="evenodd" clip-rule="evenodd" d="M26.8708 17.3068V29.2699C26.8708 29.7892 26.4484 30.2116 25.9291 30.2116H25.2037C24.9452 30.2116 24.7358 30.421 24.7358 30.6794C24.7358 30.9379 24.9452 31.1473 25.2037 31.1473H25.9291C26.9643 31.1473 27.8065 30.3051 27.8065 29.2699V18.2808L28.7587 19.272C29.1888 19.7197 29.9026 19.7273 30.342 19.2879L31.6106 18.0192C32.0343 17.5956 32.0413 16.8995 31.6262 16.4674L17.2279 1.47923C16.5396 0.762689 15.3939 0.762065 14.7051 1.47923L0.306739 16.4674C-0.108263 16.8994 -0.101276 17.5956 0.322334 18.0192L1.59104 19.2879C2.03006 19.7268 2.74373 19.7202 3.17433 19.272L4.12647 18.2809V20.5535C4.12647 20.8119 4.33593 21.0213 4.5943 21.0213C4.85267 21.0213 5.06214 20.8119 5.06214 20.5535V17.3069L15.6108 6.32595C15.8048 6.12403 16.1274 6.12347 16.3221 6.32595L26.8708 17.3068ZM5.05266 23.1579C5.05266 23.4163 4.8432 23.6257 4.58482 23.6257C4.32644 23.6257 4.11698 23.4163 4.11698 23.1579C4.11698 22.8995 4.32644 22.6901 4.58482 22.6901C4.8432 22.6901 5.05266 22.8995 5.05266 23.1579ZM29.6802 18.6262L30.949 17.3575C31.0151 17.2915 31.0161 17.1829 30.9514 17.1155L16.5532 2.12746C16.2328 1.7938 15.7004 1.79374 15.3798 2.1274L0.981546 17.1156C0.91686 17.1829 0.917921 17.2914 0.983979 17.3575L2.25269 18.6262C2.33565 18.6945 2.41799 18.6937 2.49958 18.6237L4.25621 16.7952L4.2569 16.7944L14.936 5.67778C15.4984 5.0923 16.4321 5.09205 16.9949 5.67578L16.9968 5.67771L16.997 5.67784L29.4334 18.6237C29.515 18.6937 29.5973 18.6945 29.6802 18.6262Z" fill="#0033A0"/>
<path fill-rule="evenodd" clip-rule="evenodd" d="M11.9142 16.4211C11.9142 16.2143 11.7466 16.0468 11.5399 16.0468H8.42102C8.21432 16.0468 8.04675 16.2143 8.04675 16.4211V19.54C8.04675 19.7467 8.21432 19.9142 8.42102 19.9142H11.5399C11.7466 19.9142 11.9142 19.7467 11.9142 19.54V16.4211ZM8.98243 16.9825H10.9785V18.9786H8.98243V16.9825Z" fill="#0033A0"/>
<path fill-rule="evenodd" clip-rule="evenodd" d="M24.078 16.4211C24.078 16.2143 23.9105 16.0468 23.7037 16.0468H20.5848C20.3781 16.0468 20.2106 16.2143 20.2106 16.4211V19.54C20.2106 19.7467 20.3781 19.9142 20.5848 19.9142H23.7037C23.9105 19.9142 24.078 19.7467 24.078 19.54V16.4211ZM21.1462 16.9825H23.1423V18.9786H21.1462V16.9825Z" fill="#0033A0"/>
<path fill-rule="evenodd" clip-rule="evenodd" d="M20.2358 30.2115H23.0111C23.2696 30.2115 23.479 30.421 23.479 30.6794C23.479 30.9378 23.2696 31.1472 23.0111 31.1472H6.0038C4.96863 31.1472 4.12646 30.3051 4.12646 29.2699V25.5332C4.12646 25.2747 4.33593 25.0653 4.5943 25.0653C4.85267 25.0653 5.06214 25.2747 5.06214 25.5332V29.2699C5.06214 29.7892 5.48456 30.2115 6.0038 30.2115H11.6972V24.9145C11.6972 22.5604 13.6124 20.6453 15.9665 20.6453C18.3206 20.6453 20.2358 22.5604 20.2358 24.9145V30.2115ZM15.9665 21.581C14.1284 21.581 12.6329 23.0764 12.6329 24.9145V30.2116H19.3V24.9145C19.3 23.0765 17.8046 21.581 15.9665 21.581Z" fill="#0033A0"/>
</g>
</svg>
