<svg width="32" height="32" viewBox="0 0 32 32" fill="none" xmlns="http://www.w3.org/2000/svg">
<g id="Icon/ Auto/ Car">
<mask id="mask0_817_1810" style="mask-type:alpha" maskUnits="userSpaceOnUse" x="0" y="0" width="32" height="32">
<rect id="Mask" width="32" height="32" fill="white"/>
</mask>
<g mask="url(#mask0_817_1810)">
<g id="Icon/ Auto/ Car_2">
<g id="icon_car">
<g id="car">
<path id="Shape" fill-rule="evenodd" clip-rule="evenodd" d="M29.8997 12.0942L27.4383 5.35616C27.0406 4.27639 26.0249 3.55923 24.8882 3.55554H7.36019C6.22356 3.55935 5.20804 4.27649 4.81039 5.35616L2.37777 12.0137L1.34244 12.9811C0.493209 13.7126 0.00261744 14.7846 0 15.9145V27.8853C0.0087596 28.1968 0.260327 28.4446 0.567582 28.4444H6.71788C7.02167 28.4432 7.26742 28.1934 7.2679 27.8853V24.1341H24.5463V27.8853C24.5468 28.1934 24.7926 28.4432 25.0963 28.4444H31.2466C31.5539 28.4446 31.8055 28.1968 31.8142 27.8853V15.6623C31.8089 14.6063 31.3796 13.5981 30.6252 12.87L29.8997 12.0942ZM5.83908 5.7345C6.07712 5.09211 6.6834 4.66699 7.36019 4.66789H24.8882C25.565 4.66701 26.1712 5.09212 26.4093 5.7345L28.6133 11.7591H3.63498L5.83908 5.7345ZM1.09704 27.3321H6.17086V24.1341H1.09704V27.3321ZM25.6434 27.3321V24.1341H30.7172V27.3321H25.6434ZM30.7172 23.0217V20.8421V15.6623C30.7124 14.9049 30.4025 14.1823 29.8593 13.6624C29.8559 13.6592 29.851 13.6553 29.8458 13.6512C29.8384 13.6452 29.8304 13.6388 29.8258 13.6339L29.1298 12.8715H3.06246L2.08582 13.7961C2.08307 13.7987 2.07934 13.8029 2.07549 13.8073C2.07078 13.8126 2.06588 13.8181 2.06237 13.8211C1.45303 14.3413 1.10002 15.1068 1.09704 15.9145V23.0217H30.7172Z" fill="#0033A0"/>
<path id="Shape_2" fill-rule="evenodd" clip-rule="evenodd" d="M5.54409 16H6.06696C7.33334 16 8.35995 17.0512 8.35995 18.348C8.35995 19.6448 7.33334 20.696 6.06696 20.696H5.54409C4.27771 20.696 3.2511 19.6448 3.2511 18.348C3.2511 17.0512 4.27771 16 5.54409 16ZM5.54409 19.5911H6.06696C6.7374 19.5911 7.2809 19.0345 7.2809 18.348C7.2809 17.6615 6.7374 17.1049 6.06696 17.1049H5.54409C4.87365 17.1049 4.33015 17.6615 4.33015 18.348C4.33015 19.0345 4.87365 19.5911 5.54409 19.5911Z" fill="#00AEC7"/>
<path id="Shape_3" fill-rule="evenodd" clip-rule="evenodd" d="M25.7473 16H26.2701C27.5365 16 28.5631 17.0512 28.5631 18.348C28.5631 19.6448 27.5365 20.696 26.2701 20.696H25.7473C24.4809 20.696 23.4543 19.6448 23.4543 18.348C23.4543 17.0512 24.4809 16 25.7473 16ZM25.7473 19.5911H26.2701C26.9406 19.5911 27.4841 19.0345 27.4841 18.348C27.4841 17.6615 26.9406 17.1049 26.2701 17.1049H25.7473C25.0768 17.1049 24.5333 17.6615 24.5333 18.348C24.5333 19.0345 25.0768 19.5911 25.7473 19.5911Z" fill="#00AEC7"/>
<path id="Shape_4" fill-rule="evenodd" clip-rule="evenodd" d="M20.5857 16C20.8875 16 21.1321 16.251 21.1321 16.5607V20.1353C21.1321 20.445 20.8875 20.696 20.5857 20.696H11.2286C10.9268 20.696 10.6822 20.445 10.6822 20.1353V16.5607C10.6822 16.251 10.9268 16 11.2286 16H20.5857ZM11.775 19.5746H19.971V17.1214H11.775V19.5746Z" fill="#00AEC7"/>
</g>
<path id="Line 3" d="M9.77752 10.3719C9.56974 10.4555 9.33689 10.346 9.25745 10.1275C9.178 9.90898 9.28204 9.66409 9.48982 9.58054L19.7609 5.45023C19.9687 5.36668 20.2016 5.47609 20.281 5.69462C20.3605 5.91316 20.2564 6.15804 20.0486 6.2416L9.77752 10.3719Z" fill="#00AEC7"/>
<path id="Line 3 Copy" d="M16.0956 10.6177C15.8776 10.706 15.6179 10.6411 15.5156 10.4728C15.4133 10.3045 15.5071 10.0965 15.7251 10.0082L21.4429 7.69335C21.6609 7.60509 21.9206 7.66999 22.0229 7.8383C22.1252 8.00662 22.0314 8.21462 21.8134 8.30288L16.0956 10.6177Z" fill="#00AEC7"/>
<ellipse id="Oval 4" cx="23.4872" cy="7.1852" rx="0.307692" ry="0.311111" fill="#00AEC7"/>
</g>
</g>
</g>
</g>
</svg>
