<svg width="32" height="25" viewBox="0 0 32 25" fill="none" xmlns="http://www.w3.org/2000/svg">
<path d="M31.9998 14.4419L31.8746 14.852C31.6991 15.4292 31.3401 15.9333 30.8521 16.2881C30.3642 16.6428 29.7739 16.8288 29.1707 16.8178C28.9422 16.814 28.7782 16.8654 28.6267 17.0344C28.5177 17.1565 28.3518 17.2285 28.2441 17.3518C28.1546 17.4545 28.0645 17.6022 28.0657 17.7274C28.0657 17.812 28.2122 17.9272 28.3161 17.9729C28.7437 18.1607 29.1857 18.3172 29.6146 18.5031C30.8473 19.039 31.5046 19.9887 31.606 21.3204C31.6242 21.6111 31.6261 21.9027 31.6117 22.1937C31.6004 22.5155 31.4151 22.7027 31.1371 22.7002C30.8592 22.6977 30.6908 22.5124 30.6795 22.1837C30.6676 21.8312 30.6864 21.4737 30.6388 21.1257C30.5305 20.3224 30.0866 19.7446 29.3516 19.4084C28.8896 19.1968 28.4126 19.0221 27.918 18.823C27.6049 19.3508 27.1667 19.6882 26.5363 19.6889C25.9152 19.6889 25.472 19.3796 25.1471 18.8224L23.6076 19.4447C23.6195 20.7757 23.6339 22.0409 23.6389 23.3062C23.6389 23.6317 23.4574 23.8177 23.1763 23.8158C22.8952 23.8139 22.7136 23.628 22.7105 23.3012C22.7017 22.4585 22.6936 21.6152 22.7105 20.7726C22.7336 19.5205 22.224 18.567 21.1867 17.8771C20.5982 17.4858 20.0203 17.0782 19.3999 16.6519C19.1664 16.9649 18.9391 17.2679 18.7113 17.5709C18.3356 18.0718 18.0401 18.1663 17.4391 17.9841L16.4568 17.6855V18.0611C16.4568 19.8091 16.4568 21.5572 16.4568 23.3056C16.4615 23.41 16.4586 23.5146 16.4481 23.6186C16.413 23.854 16.2709 23.9911 16.0324 24.0093C15.7939 24.0274 15.6242 23.921 15.5591 23.6906C15.5302 23.5695 15.5182 23.445 15.5234 23.3206C15.5234 21.5727 15.5234 19.8245 15.5234 18.0762V17.6918C15.1666 17.8001 14.8441 17.899 14.5217 17.996C13.9583 18.1644 13.6521 18.0649 13.2997 17.5985C13.0806 17.3063 12.8608 17.0158 12.6404 16.727C12.6091 16.7006 12.5753 16.6771 12.5396 16.6569C11.7615 17.226 10.9282 17.7631 10.1832 18.4023C9.53209 18.962 9.2823 19.7609 9.27478 20.6192C9.26727 21.5138 9.27479 22.4091 9.27103 23.3037C9.27103 23.6311 9.0926 23.8202 8.81213 23.8171C8.53166 23.8139 8.35011 23.6549 8.35386 23.402C8.37327 22.1455 8.41647 20.8896 8.46342 19.6344C8.47031 19.4547 8.55983 19.2788 8.62244 19.0591L7.01161 18.4674C6.68606 19.0666 6.21652 19.441 5.52474 19.4428C4.84297 19.4428 4.36779 19.0979 4.02221 18.4624C3.50572 18.6553 2.98171 18.8475 2.46647 19.0553C2.1234 19.1943 1.84042 19.1142 1.74777 18.8149C1.66075 18.5394 1.77657 18.3366 2.02699 18.2333C2.54536 18.0204 3.075 17.8345 3.59211 17.6223C3.70919 17.5741 3.85693 17.4827 3.89199 17.3781C3.9546 17.2009 3.89199 17.0394 3.71294 16.8973C3.1495 16.4559 2.83209 15.8556 2.68935 15.165C2.47524 15.1337 2.26551 15.1262 2.06893 15.0711C1.85243 15.0119 1.6525 14.9036 1.48464 14.7546C1.31678 14.6056 1.18552 14.4199 1.10105 14.212C1.01657 14.004 0.981159 13.7794 0.997555 13.5556C1.01395 13.3317 1.08172 13.1147 1.19559 12.9213C1.30794 12.7364 1.34702 12.5162 1.30515 12.304C1.25193 11.9565 1.20248 11.6053 1.15114 11.2553C0.939534 9.80226 1.79472 8.48567 3.20208 8.06246C3.58836 7.94602 3.95335 7.76572 4.33273 7.61734C7.10364 6.52363 10.0129 8.58397 9.89395 11.5546C9.88644 11.7311 9.88581 11.9096 9.86202 12.0842C9.80409 12.408 9.8561 12.7419 10.0098 13.0327C10.4937 13.9636 9.80568 15.0786 8.75767 15.1318C8.67565 15.1362 8.59239 15.1318 8.49034 15.1318C8.44401 15.2884 8.40457 15.4355 8.35574 15.5801C8.15666 16.1692 7.79668 16.6381 7.30961 17.0238C7.20514 17.1231 7.14322 17.2591 7.13682 17.4032C7.13682 17.4695 7.28832 17.5709 7.38724 17.6098C7.93879 17.8207 8.49598 18.0167 9.07194 18.2252C9.80255 17.2347 10.9344 16.7151 11.8967 15.9801C12.015 15.89 12.0814 15.7297 12.1659 15.5989C12.2704 15.4361 12.3387 15.2383 12.4745 15.1099C12.7675 14.8313 13.0975 14.5909 13.4042 14.3261C13.4672 14.2667 13.5109 14.1897 13.5294 14.1051C13.5513 14.0062 13.5232 13.8966 13.5369 13.7921C13.5795 13.4791 13.47 13.2631 13.2183 13.0502C12.4764 12.4242 12.0432 11.6103 11.8554 10.638C11.7577 10.6193 11.6588 10.598 11.5586 10.5817C11.2898 10.5429 11.0352 10.4362 10.819 10.2717C10.6028 10.1072 10.4321 9.89029 10.323 9.64152C10.2138 9.39274 10.1699 9.12026 10.1953 8.84979C10.2207 8.57932 10.3145 8.31977 10.468 8.09564C10.5839 7.92348 10.5782 7.79639 10.5206 7.61546C9.96261 5.87504 10.1087 4.19367 10.9589 2.57137C11.1517 2.20262 11.409 2.09244 11.6794 2.24582C11.9336 2.38981 11.9718 2.65839 11.7865 3.00772C11.1083 4.28696 10.9526 5.62691 11.3195 7.0276C11.3501 7.14655 11.3933 7.26237 11.434 7.39008L11.774 7.37506C11.8059 7.13215 11.8209 6.89488 11.8691 6.66512C11.9959 6.05352 12.3254 5.50264 12.8043 5.10175C13.2833 4.70086 13.8836 4.47346 14.508 4.45641C15.2467 4.43763 15.9867 4.45641 16.7254 4.44389C16.8766 4.43882 17.0229 4.3894 17.1461 4.30177C17.7941 3.81783 17.9343 3.81157 18.5936 4.30052C18.6295 4.31793 18.6673 4.33116 18.7063 4.33996C18.7312 3.9278 18.6731 3.51483 18.5354 3.12554C18.3978 2.73624 18.1834 2.37854 17.9049 2.07365C16.7987 0.829064 14.7916 0.571131 13.2652 1.45699C12.8339 1.70741 12.5872 1.70303 12.4201 1.43759C12.246 1.1615 12.3719 0.899808 12.7901 0.65064C14.8329 -0.564526 17.6883 -0.035513 18.9448 1.88647C19.003 1.96934 19.0875 2.0302 19.1846 2.05926C21.1566 2.59328 22.0494 3.97936 21.7201 5.99211C21.6211 6.5975 21.5404 7.20603 21.4646 7.81455C21.4594 7.92432 21.4866 8.0332 21.5429 8.12757C22.1483 9.18623 21.5773 10.4045 20.3741 10.5842C20.1718 10.6143 20.1055 10.6969 20.061 10.8847C19.861 11.7757 19.367 12.5735 18.6587 13.1498C18.33 13.4233 18.3513 14.1433 18.6831 14.4056C18.9773 14.6379 19.2653 14.8789 19.5383 15.135C19.6478 15.237 19.7749 15.3854 19.7831 15.5181C19.8 15.8092 19.9897 15.9244 20.1875 16.059C20.7297 16.4278 21.2668 16.8034 21.809 17.1715C22.3605 17.5417 22.8169 18.0368 23.1412 18.6164C23.7259 18.3817 24.3032 18.1563 24.8754 17.9178C25.0632 17.8395 25.0688 17.4889 24.8985 17.3468C24.7282 17.2047 24.5555 17.0432 24.3695 16.9123C24.2772 16.8543 24.1699 16.8242 24.0609 16.8259C22.5202 16.836 21.3269 15.8243 21.1704 14.2942C21.1272 13.8672 21.2599 13.4177 21.3551 12.9839C21.4095 12.7334 21.5636 12.5093 21.6512 12.2651C21.8678 11.6616 22.107 11.0631 22.2773 10.4458C22.8207 8.44248 24.6068 7.06516 26.649 7.11525C28.7425 7.16533 30.4516 8.58459 30.9061 10.6274C30.9975 10.9993 31.1149 11.3644 31.2573 11.7199C31.4971 12.3597 31.7544 12.9926 32.0042 13.6281L31.9998 14.4419ZM17.8454 4.92156C17.4848 5.44682 16.9464 5.40237 16.4111 5.39235C15.7976 5.38109 15.1841 5.38234 14.5706 5.39235C14.0915 5.39492 13.6325 5.58514 13.292 5.9222C12.9515 6.25927 12.7567 6.71635 12.7494 7.19538C12.7337 8.16138 12.7287 9.12926 12.7544 10.0953C12.7976 11.7443 14.1655 13.094 15.8496 13.1811C17.4773 13.265 19.0017 12.0542 19.1821 10.4365C19.2854 9.51115 19.2184 8.56894 19.2522 7.63487C19.2935 6.48607 18.8327 5.60459 17.8454 4.92156ZM23.689 15.87C23.642 15.6583 23.5713 15.4793 23.5675 15.299C23.5488 14.2704 23.5237 13.2405 23.5469 12.2126C23.5607 11.5984 23.8067 11.04 24.1617 10.5366C24.5166 10.0333 24.8797 9.97693 25.3699 10.3576C25.8443 10.7387 26.4319 10.9512 27.0403 10.9617C27.6037 10.973 28.1671 10.993 28.7262 11.0093C29.3147 11.0262 29.6196 11.3367 29.6246 11.9302C29.6277 12.2633 29.6283 12.5963 29.6246 12.9319C29.6208 13.2675 29.4424 13.4853 29.167 13.4953C28.8802 13.5022 28.6937 13.2819 28.6899 12.9231C28.6861 12.6051 28.6899 12.2871 28.6899 11.9584C27.3539 11.8845 26.0041 12.0748 24.829 11.1182C24.7038 11.4939 24.5304 11.8012 24.511 12.1168C24.4572 13.0083 24.4547 13.9035 24.4578 14.7975C24.4634 15.0554 24.5127 15.3105 24.6037 15.5519C24.7631 15.979 25.058 16.3422 25.4433 16.5861C25.8285 16.8299 26.283 16.941 26.7372 16.9023C27.7646 16.7996 28.4902 16.1035 28.678 15.0479C28.7406 14.6811 28.9284 14.5158 29.2296 14.5609C29.5157 14.6047 29.6571 14.8476 29.5952 15.2063C29.5576 15.4242 29.5063 15.6396 29.4593 15.8656C30.2563 15.7291 30.8304 15.1888 31.0119 14.4444C31.124 13.9855 31.0219 13.5648 30.8517 13.1397C30.5593 12.4085 30.193 11.6904 30.0259 10.9298C29.6678 9.29453 28.3255 8.09752 26.6402 8.04994C25.0125 8.00424 23.5688 9.14115 23.1725 10.7388C23.0385 11.2791 22.8357 11.8031 22.6447 12.3284C22.5195 12.6702 22.3505 12.9939 22.2209 13.3338C21.7864 14.4695 22.445 15.6321 23.689 15.87ZM8.91418 12.1381C8.92858 11.954 8.94673 11.7624 8.95675 11.5665C9.07633 9.2313 6.82818 7.62235 4.6539 8.49256C4.20126 8.67349 3.74174 8.83752 3.28911 9.01719C2.70124 9.25008 2.30871 9.67016 2.13216 10.2781C1.94435 10.9148 2.16847 11.5302 2.22607 12.1562C2.52031 12.205 2.6762 12.1712 2.73505 11.8351C2.7939 11.4989 2.94916 11.1846 3.11632 10.8903C3.40743 10.3795 3.7743 10.3194 4.2526 10.6718C4.79038 11.0681 5.37949 11.3467 6.04686 11.4112C6.57275 11.4625 7.10552 11.4456 7.63516 11.4525C7.98637 11.4569 8.29126 11.5721 8.41897 11.9077C8.51413 12.1618 8.65061 12.2151 8.91418 12.1381ZM3.78619 11.4776C3.70981 11.825 3.60401 12.1036 3.59838 12.3828C3.57396 13.1723 3.55768 13.9649 3.59838 14.7531C3.65409 15.88 4.56124 16.6763 5.67374 16.6381C6.73802 16.6012 7.56253 15.736 7.57443 14.6348C7.58006 14.1565 7.57443 13.6781 7.57443 13.1998V12.371C6.22404 12.4605 4.96567 12.3321 3.78619 11.4776ZM20.5969 7.41262C20.689 6.60502 20.8417 5.81682 20.8511 5.02674C20.8611 4.18908 20.247 3.40339 19.6428 3.20618C19.614 3.841 19.5802 4.49773 19.5558 5.15445C19.5478 5.21475 19.5567 5.27608 19.5815 5.33163C19.9846 5.94766 20.1656 6.63068 20.1963 7.36943L20.5969 7.41262ZM18.8753 15.7886C18.6724 15.6164 18.4946 15.4399 18.2906 15.304C18.2386 15.2741 18.1809 15.2555 18.1212 15.2494C18.0615 15.2434 18.0013 15.25 17.9443 15.2689C17.5825 15.4223 17.2344 15.607 16.8801 15.7804C16.4118 16.0096 16.4061 16.0102 16.4625 16.5317C16.4706 16.577 16.4889 16.6199 16.5162 16.657C16.5434 16.6941 16.5788 16.7245 16.6196 16.7458C16.9815 16.871 17.349 16.9799 17.719 17.0782C17.7593 17.0862 17.8009 17.0847 17.8406 17.0738C17.8803 17.063 17.9168 17.043 17.9475 17.0156C18.2593 16.6175 18.5585 16.2086 18.8728 15.7886H18.8753ZM13.13 15.8092C13.2346 15.9495 13.3322 16.0834 13.4324 16.2149C13.659 16.5117 13.8368 16.9662 14.1286 17.0595C14.4341 17.1559 14.8523 16.9098 15.2173 16.7996C15.3519 16.7596 15.5591 16.7658 15.519 16.5286C15.479 16.2913 15.6605 16.0014 15.2943 15.8674C15.0514 15.7785 14.8266 15.6427 14.5937 15.5288C13.8049 15.1412 13.8049 15.1412 13.1619 15.7535C13.1486 15.7709 13.1371 15.7895 13.1275 15.8092H13.13ZM14.5242 13.8541C14.4115 14.3743 14.4272 14.41 14.8373 14.611C15.2098 14.7919 15.5835 15.1118 15.9566 15.1118C16.341 15.1118 16.7279 14.8063 17.1092 14.6254C17.5687 14.4069 17.5681 14.4006 17.4667 13.8516C16.5176 14.2036 15.4739 14.2045 14.5242 13.8541ZM4.85236 17.5446C4.82418 17.8821 4.83483 18.2095 5.17289 18.4123C5.27816 18.4816 5.40204 18.5171 5.528 18.514C5.65396 18.511 5.776 18.4697 5.87783 18.3954C6.17207 18.1951 6.21464 17.9002 6.16331 17.5446H4.85236ZM25.9591 17.8289C25.9278 18.1788 25.9065 18.5294 26.2677 18.6747C26.366 18.7067 26.4697 18.7187 26.5727 18.71C26.6757 18.7013 26.7759 18.672 26.8675 18.624C27.1661 18.4493 27.1229 18.1269 27.0947 17.8289H25.9591ZM11.7903 9.64763V8.34106C11.3877 8.36798 11.1348 8.62153 11.1304 8.98526C11.126 9.349 11.3652 9.60192 11.7903 9.64763ZM20.1963 9.65389C20.6395 9.58815 20.8849 9.30643 20.8517 8.93956C20.8186 8.5727 20.5481 8.3373 20.1963 8.36109V9.65389ZM8.52665 13.1185V14.1827C8.96489 14.204 9.22783 13.9987 9.22783 13.6506C9.22783 13.3025 8.96301 13.0984 8.52665 13.1185ZM2.62674 13.1185C2.17724 13.1016 1.93809 13.2975 1.93809 13.6544C1.93809 14.0112 2.19101 14.2103 2.62925 14.1771L2.62674 13.1185Z" fill="#0033A0"/>
</svg>
