<svg width="32" height="32" viewBox="0 0 32 32" fill="none" xmlns="http://www.w3.org/2000/svg">
<path d="M32 3.12455C31.7595 3.83962 31.5767 4.57975 31.2667 5.26289C30.7539 6.38998 29.9781 7.34926 29.1065 8.22589C27.865 9.47404 26.6194 10.7186 25.3696 11.9597C25.2923 12.026 25.235 12.1124 25.204 12.2094C25.1731 12.3064 25.1697 12.41 25.1942 12.5088C25.3082 13.135 25.4059 13.7612 25.5167 14.4268C25.5837 14.3793 25.6483 14.3285 25.7102 14.2746C25.9995 13.9891 26.28 13.6954 26.5749 13.4155C27.3445 12.6854 28.4853 12.6917 29.2161 13.4237C29.3908 13.5962 29.5297 13.8017 29.6245 14.0282C29.7194 14.2548 29.7684 14.4979 29.7688 14.7434C29.7691 14.989 29.7208 15.2323 29.6266 15.4591C29.5323 15.6859 29.3941 15.8918 29.2198 16.0648C28.31 16.9959 27.3839 17.9114 26.4585 18.8262C26.3194 18.9633 26.2706 19.0867 26.3025 19.2877C26.7809 22.1818 27.2533 25.0772 27.7195 27.9738C27.7991 28.4666 27.8911 28.9581 27.9462 29.454C28.0545 30.4302 27.5348 31.2968 26.6532 31.6537C26.2214 31.8346 25.7409 31.8635 25.2905 31.7356C24.8402 31.6077 24.4466 31.3307 24.1742 30.9499C23.0853 29.4766 22.0196 27.9863 20.9445 26.5042L16.8776 20.8894C16.8287 20.8224 16.778 20.7573 16.6947 20.6464C15.2426 22.0866 13.877 23.6144 12.0611 24.6201L13.0962 28.146C13.2214 28.5749 13.3566 29.0019 13.4719 29.4334C13.7085 30.31 13.4042 31.171 12.6929 31.6675C12.4305 31.8503 12.1538 31.9699 11.8207 31.9424C11.4875 31.9148 11.1457 31.9643 10.8307 31.8867C10.3811 31.7758 10.068 31.4421 9.80756 31.0626C8.99355 29.8792 8.1762 28.698 7.35551 27.5192C7.29289 27.4259 7.22527 27.3313 7.15889 27.2412C6.32422 27.5831 5.51021 27.9174 4.6962 28.2624C4.38938 28.3927 4.09571 28.4566 3.83147 28.1904C3.56723 27.9243 3.64362 27.6269 3.76885 27.3219C4.10886 26.518 4.44385 25.7115 4.792 24.8799C4.72187 24.8279 4.64235 24.7647 4.55907 24.7065C3.34369 23.8655 2.12079 23.0346 0.91418 22.1812C-0.321864 21.3045 -0.302453 19.5882 0.939853 18.793C1.47272 18.4517 2.05066 18.3985 2.64927 18.5726C4.14872 19.0063 5.64504 19.4455 7.13823 19.89C7.286 19.9339 7.39996 19.9758 7.50453 19.7992C8.39681 18.2964 9.61595 17.0711 10.8595 15.8669C11.0311 15.7004 11.2083 15.5395 11.4074 15.3541C11.2859 15.2614 11.1995 15.1926 11.11 15.1274C7.81511 12.7401 4.51941 10.3525 1.22288 7.96478C0.380064 7.35364 0.0525812 6.50019 0.305551 5.60227C0.442018 5.10459 0.756995 4.67461 1.19035 4.39441C1.6237 4.11421 2.14507 4.00342 2.65491 4.0832C6.01281 4.62587 9.36987 5.17439 12.7261 5.72875C12.9365 5.76382 13.0711 5.71122 13.2176 5.56345C14.1318 4.63735 15.0448 3.70876 15.9803 2.8027C16.2103 2.57379 16.4962 2.40908 16.8096 2.32495C17.1231 2.24082 17.4531 2.24019 17.7668 2.32314C18.0805 2.40609 18.3671 2.56971 18.598 2.79775C18.8289 3.02579 18.9961 3.31029 19.0829 3.62297C19.2851 4.33367 19.1017 4.96171 18.5876 5.48768C18.2689 5.81391 17.9364 6.12699 17.5538 6.50144C18.0798 6.59098 18.5381 6.62667 18.9677 6.7519C19.6158 6.94476 20.0428 6.73562 20.4999 6.25097C21.7172 4.96901 22.9711 3.72024 24.2619 2.50465C25.4409 1.39258 26.7884 0.534116 28.3945 0.154036C28.7145 0.0801487 29.0476 0.0507191 29.3751 0H29.4377C29.5498 0.0187849 29.6613 0.0438313 29.774 0.0544761C30.8961 0.155914 31.7038 0.874748 31.9374 1.98055C31.9524 2.05068 31.9787 2.11831 32 2.18718V3.12455ZM5.40063 26.5117L5.49393 26.5743C5.56093 26.5493 5.63043 26.5286 5.69493 26.4979C7.00987 25.8718 8.3342 25.2694 9.6266 24.6013C11.5707 23.5952 13.3413 22.2846 14.8713 20.7191C19.0992 16.4205 23.3871 12.182 27.6488 7.91656C28.0902 7.47825 28.5104 7.01239 28.9337 6.55278C29.0043 6.47909 29.0495 6.38475 29.0627 6.28353C29.1528 4.67993 28.2368 3.27796 26.4879 2.9893C25.9131 2.89475 25.4428 2.97803 25.0696 3.44514C25.0056 3.51351 24.9381 3.57851 24.8674 3.63988C20.3665 8.13697 15.887 12.6566 11.3536 17.1199C9.79128 18.659 8.49074 20.3628 7.48825 22.2989C6.76754 23.6908 6.09442 25.1091 5.40063 26.5117ZM17.6277 19.7792C17.6765 19.8493 17.7285 19.927 17.783 20.0027L23.3702 27.7171C23.9626 28.5348 24.5549 29.3526 25.1473 30.1704C25.3608 30.4647 25.6513 30.6087 26.0145 30.541C26.347 30.4784 26.5931 30.2806 26.6745 29.9499C26.7136 29.7569 26.7149 29.558 26.6782 29.3645C26.4278 27.7722 26.1604 26.1817 25.9012 24.59C25.3915 21.4592 24.8824 18.3284 24.374 15.1976C24.2731 14.5777 24.1692 13.9578 24.0671 13.341L17.6277 19.7792ZM18.6865 7.95977C17.1136 7.70242 15.5557 7.44569 13.9978 7.19209L4.91097 5.71498C4.11011 5.58474 3.3105 5.44761 2.50839 5.32238C1.90978 5.23158 1.44391 5.65862 1.48211 6.23532C1.5059 6.58534 1.72694 6.7901 1.98867 6.9792C4.38437 8.71033 6.77902 10.4427 9.17263 12.1763L12.2408 14.3992L18.6865 7.95977ZM6.7068 21.0822C6.61914 21.0509 6.54338 21.0196 6.4651 20.9965C5.10091 20.5953 3.73608 20.1946 2.37063 19.7942C1.88348 19.6521 1.50653 19.7861 1.32995 20.1574C1.15337 20.5287 1.27798 20.9088 1.69375 21.1968C2.83754 21.99 3.98237 22.7831 5.12825 23.5762C5.19462 23.622 5.26726 23.6576 5.3424 23.7015L6.7068 21.0822ZM8.31166 26.6977C9.18327 27.9569 10.0298 29.1917 10.8952 30.4133C11.0116 30.5702 11.1761 30.6847 11.3636 30.7395C11.9534 30.8936 12.4368 30.3739 12.2659 29.7746C11.8845 28.4365 11.4863 27.1028 11.0943 25.7672C11.0517 25.6213 11.0067 25.476 10.9591 25.3195L8.31166 26.6977ZM30.1478 4.73754C30.4978 3.99366 30.774 3.29298 30.7483 2.51091C30.7276 1.88475 30.417 1.44142 29.8717 1.33247C28.9562 1.14963 28.1491 1.49465 27.285 1.88663C28.7502 2.37002 29.665 3.30801 30.1478 4.73754ZM14.5463 6.01616C15.0473 6.09882 15.4969 6.17834 15.9471 6.24095C15.9869 6.23952 16.0261 6.2302 16.0623 6.21354C16.0985 6.19688 16.1311 6.17321 16.1581 6.1439C16.6847 5.62481 17.2119 5.10698 17.7235 4.57474C17.7819 4.51823 17.8283 4.45064 17.8602 4.37593C17.8922 4.30122 17.9088 4.2209 17.9093 4.13967C17.9098 4.05844 17.894 3.97793 17.863 3.90286C17.8319 3.82779 17.7862 3.75967 17.7285 3.7025C17.6734 3.64274 17.6067 3.59489 17.5324 3.56192C17.4582 3.52895 17.3779 3.51154 17.2966 3.51078C17.2154 3.51002 17.1348 3.52591 17.0599 3.55748C16.9851 3.58906 16.9175 3.63564 16.8613 3.69435C16.0967 4.44199 15.3485 5.20841 14.5463 6.01616ZM26.017 17.5119C26.8041 16.7229 27.5461 15.984 28.2818 15.2383C28.5761 14.9396 28.5868 14.5495 28.325 14.299C28.0633 14.0486 27.6957 14.0661 27.3858 14.371C26.8974 14.8526 26.4084 15.3347 25.935 15.8313C25.8477 15.9361 25.8046 16.0709 25.8148 16.2069C25.8605 16.6158 25.9387 17.0241 26.017 17.5119Z" fill="#0033A0"/>
</svg>
