<svg width="72" height="72" viewBox="0 0 72 72" fill="none" xmlns="http://www.w3.org/2000/svg">
<mask id="mask0_818_7115" style="mask-type:alpha" maskUnits="userSpaceOnUse" x="0" y="0" width="72" height="72">
<rect width="72" height="72" fill="white"/>
</mask>
<g mask="url(#mask0_818_7115)">
<path fill-rule="evenodd" clip-rule="evenodd" d="M24.2013 24.9988H46.3354C50.3931 24.9988 53.6948 28.2998 53.6948 32.3583C53.6948 36.416 50.3931 39.714 46.3354 39.714H24.2013C20.1436 39.714 16.8426 36.416 16.8426 32.3583C16.8426 28.2998 20.1436 24.9988 24.2013 24.9988ZM24.2013 41.9504H46.3354C51.6267 41.9504 55.9276 37.6466 55.9276 32.3583C55.9276 27.0692 51.6267 22.7661 46.3354 22.7661H24.2013C18.913 22.7661 14.6091 27.0692 14.6091 32.3583C14.6091 37.6466 18.913 41.9504 24.2013 41.9504Z" fill="#0033A0"/>
<path fill-rule="evenodd" clip-rule="evenodd" d="M26.3614 28.9774C27.7948 28.9774 28.9629 30.1455 28.9629 31.5789C28.9629 33.0123 27.7948 34.1805 26.3614 34.1805C24.928 34.1805 23.7598 33.0123 23.7598 31.5789C23.7598 30.1455 24.928 28.9774 26.3614 28.9774ZM26.3614 36.4139C29.0283 36.4139 31.1957 34.2459 31.1957 31.5789C31.1957 28.9149 29.0283 26.7439 26.3614 26.7439C23.6974 26.7439 21.5264 28.9149 21.5264 31.5789C21.5264 34.2459 23.6974 36.4139 26.3614 36.4139Z" fill="#00AEC7"/>
<path fill-rule="evenodd" clip-rule="evenodd" d="M44.6945 28.6314C46.3189 28.6314 47.6413 29.9539 47.6413 31.5783C47.6413 33.2064 46.3189 34.5251 44.6945 34.5251C43.0693 34.5251 41.7469 33.2064 41.7469 31.5783C41.7469 29.9539 43.0693 28.6314 44.6945 28.6314ZM44.6945 36.7615C47.5502 36.7615 49.8748 34.437 49.8748 31.5783C49.8748 28.7233 47.5502 26.3979 44.6945 26.3979C41.8387 26.3979 39.5142 28.7233 39.5142 31.5783C39.5142 34.437 41.8387 36.7615 44.6945 36.7615Z" fill="#00AEC7"/>
<mask id="mask1_818_7115" style="mask-type:alpha" maskUnits="userSpaceOnUse" x="8" y="0" width="54" height="72">
<path fill-rule="evenodd" clip-rule="evenodd" d="M8.00024 0.735107H61.9914V71.5376H8.00024V0.735107Z" fill="white"/>
</mask>
<g mask="url(#mask1_818_7115)">
<path fill-rule="evenodd" clip-rule="evenodd" d="M56.2035 65.8689C55.5004 66.7601 54.6467 67.4882 53.7019 68.048L49.9777 48.3729C51.788 47.8417 53.4646 47.0108 54.9641 45.9425L57.894 58.1847C58.542 60.8833 57.9256 63.6876 56.2035 65.8689ZM21.4415 69.3043C19.8479 69.3043 18.3146 68.876 16.9723 68.1083L20.8214 48.5816C22.0696 48.8784 23.3634 49.0547 24.7028 49.0547H45.2911C46.1433 49.0547 46.9735 48.9695 47.7935 48.8468L51.597 68.9473C50.8006 69.1728 49.9748 69.3043 49.124 69.3043H21.4415ZM12.595 58.5411L15.0673 45.9712C16.1781 46.7588 17.3889 47.4105 18.6798 47.913L14.996 66.5808C14.8189 66.3979 14.6389 66.212 14.4766 66.0114C12.7574 63.922 12.069 61.1977 12.595 58.5411ZM10.233 32.3522C10.233 22.0238 18.6371 13.6197 28.9662 13.6197H41.0284C51.3538 13.6197 59.7587 22.0238 59.7587 32.3522C59.7587 40.328 53.2677 46.822 45.2911 46.822H24.7028C16.724 46.822 10.233 40.328 10.233 32.3522ZM28.4321 11.3833L28.9287 9.58988H40.9909L41.528 11.3833H41.0284H28.9662H28.4321ZM56.8802 44.3519C60.0239 41.3132 61.9914 37.0616 61.9914 32.3522C61.9914 21.7785 54.1155 13.0312 43.9268 11.6118L42.6535 7.35715H36.3844V4.23617H36.3793C36.8678 3.93348 37.2308 3.43609 37.2242 2.69111C37.2242 1.61184 36.3484 0.734619 35.2684 0.734619C34.1891 0.734619 33.3119 1.61184 33.3119 2.69111C33.3119 3.43609 33.6807 3.93348 34.1715 4.23617H34.1517V7.35715H27.2294L26.0531 11.6118C15.8703 13.0371 8.00024 21.7807 8.00024 32.3522C8.00024 37.0586 9.96408 41.3081 13.1086 44.346L10.3983 58.1098C9.74808 61.4225 10.6069 64.8242 12.7515 67.4316C14.8961 70.0383 18.0663 71.5378 21.4415 71.5378H49.124C52.591 71.5378 55.8119 69.9758 57.9565 67.2516C60.104 64.5303 60.8747 61.0346 60.0673 57.6616L56.8802 44.3519Z" fill="#0033A0"/>
</g>
<path fill-rule="evenodd" clip-rule="evenodd" d="M28.6338 57.3553C28.6338 58.381 27.8028 59.2082 26.7809 59.2082C25.7552 59.2082 24.9272 58.381 24.9272 57.3553C24.9272 56.3326 25.7552 55.5024 26.7809 55.5024C27.8028 55.5024 28.6338 56.3326 28.6338 57.3553Z" fill="#00AEC7"/>
<path fill-rule="evenodd" clip-rule="evenodd" d="M36.0295 57.3553C36.0295 58.381 35.1986 59.2082 34.1766 59.2082C33.1517 59.2082 32.323 58.381 32.323 57.3553C32.323 56.3326 33.1517 55.5024 34.1766 55.5024C35.1986 55.5024 36.0295 56.3326 36.0295 57.3553Z" fill="#00AEC7"/>
<path fill-rule="evenodd" clip-rule="evenodd" d="M43.4253 57.3553C43.4253 58.381 42.5944 59.2082 41.5724 59.2082C40.5468 59.2082 39.7158 58.381 39.7158 57.3553C39.7158 56.3326 40.5468 55.5024 41.5724 55.5024C42.5944 55.5024 43.4253 56.3326 43.4253 57.3553Z" fill="#00AEC7"/>
</g>
</svg>
