<svg width="72" height="72" viewBox="0 0 72 72" fill="none" xmlns="http://www.w3.org/2000/svg">
<mask id="mask0_818_7103" style="mask-type:alpha" maskUnits="userSpaceOnUse" x="0" y="0" width="72" height="72">
<rect width="72" height="72" fill="white"/>
</mask>
<g mask="url(#mask0_818_7103)">
<path d="M60.5964 11.3431C53.9264 4.6736 45.0579 1 35.6253 1C28.2063 1 21.1055 3.27574 15.0909 7.5819C14.4654 8.02955 14.3213 8.89926 14.7689 9.52477C15.2171 10.1503 16.0869 10.2939 16.7118 9.84622C22.251 5.88109 28.7911 3.78484 35.6253 3.78484C53.562 3.78484 68.1547 18.3775 68.1547 36.3147C68.1547 54.2514 53.562 68.844 35.6253 68.844C30.1612 68.844 24.7574 67.463 19.9981 64.8501C19.6821 64.6771 19.3117 64.6331 18.9647 64.7266L3.46424 68.9158L7.69045 53.8331C7.79271 53.4687 7.74212 53.0787 7.55066 52.7529C4.63583 47.7859 3.09546 42.102 3.09546 36.3147C3.09546 29.4799 5.19171 22.9399 9.15684 17.4012C9.60448 16.7762 9.46035 15.9065 8.83539 15.4589C8.20989 15.0112 7.34017 15.1548 6.89253 15.7803C2.58636 21.7944 0.310623 28.8952 0.310623 36.3147C0.310623 42.3973 1.87873 48.3755 4.85122 53.6449L0.121341 70.5236C-0.0140938 71.0061 0.120797 71.5239 0.472709 71.8796C0.738139 72.1467 1.09549 72.2919 1.46209 72.2919C1.58338 72.2919 1.70522 72.2761 1.82542 72.2435L19.1562 67.5599C24.202 70.2234 29.8838 71.6289 35.6248 71.6289C45.0579 71.6289 53.9264 67.9558 60.5959 61.2853C67.2659 54.6158 70.9395 45.7473 70.9395 36.3142C70.9395 26.8816 67.2664 18.0136 60.5964 11.3431Z" fill="#0033A0"/>
<path d="M58.4497 53.1934C59.0893 53.6203 59.9541 53.4479 60.3811 52.8083C63.6446 47.9185 65.3699 42.215 65.3699 36.3141C65.3699 28.3686 62.2761 20.8985 56.6586 15.2809C51.041 9.66336 43.5714 6.56958 35.6254 6.56958C27.6794 6.56958 20.2092 9.66336 14.5917 15.2809C8.97415 20.8985 5.88037 28.3686 5.88037 36.3146C5.88037 41.6069 7.28856 46.8035 9.95266 51.343L10.8512 52.8746L8.12891 62.59C7.99348 63.0719 8.12782 63.5897 8.48028 63.9454C8.83274 64.3012 9.34946 64.4404 9.83299 64.3099L19.8628 61.599L21.3379 62.4089C25.6881 64.7972 30.6285 66.0591 35.6249 66.0591C41.5263 66.0591 47.2298 64.3338 52.1191 61.0698C52.7587 60.6433 52.9311 59.7785 52.5041 59.1389C52.0772 58.4992 51.2129 58.3268 50.5732 58.7538C46.1431 61.711 40.9743 63.2743 35.6249 63.2743C31.0957 63.2743 26.6187 62.131 22.6781 59.9678L20.7113 58.8876C20.3958 58.7146 20.0254 58.6706 19.6778 58.7641L11.4713 60.9822L13.6926 53.0557C13.7943 52.6913 13.7443 52.3013 13.5528 51.9755L12.354 49.9331C9.94069 45.8206 8.66521 41.1114 8.66521 36.3141C8.66521 21.4484 20.7597 9.35442 35.6254 9.35442C50.4911 9.35442 62.585 21.4484 62.585 36.3146C62.585 41.6629 61.0218 46.8317 58.0646 51.2625C57.6376 51.9021 57.81 52.7664 58.4497 53.1934Z" fill="#00AEC7"/>
<path fill-rule="evenodd" clip-rule="evenodd" d="M30.6285 31.9302L30.5366 32.0373C29.9916 32.6764 29.2116 33.582 28.7324 34.0748C28.7291 34.1009 28.7362 34.1526 28.7476 34.1809C29.9034 36.1792 31.9926 38.5382 33.9491 40.0535C37.0532 42.4571 39.243 43.4214 39.8979 43.3752C40.2079 43.0494 40.9371 42.0738 41.3027 41.5848L41.3028 41.5847C41.8962 40.7905 42.0915 40.5333 42.2889 40.3608C42.2935 40.3563 42.298 40.3513 42.3027 40.3461C42.3053 40.3432 42.308 40.3403 42.3107 40.3375C43.7711 38.753 45.3936 39.0587 46.4972 39.5945C48.1316 40.3869 52.1185 42.3635 52.5053 42.5555C53.1895 42.865 54.2512 43.8386 54.2012 45.6928C54.1653 47.0162 54.1087 47.5242 54.0853 47.6852C54.05 47.9387 53.8047 49.4002 52.6309 50.8834C51.5251 52.2807 49.3527 53.9712 45.2848 54.0898C45.1684 54.0936 45.0509 54.0952 44.9334 54.0952C41.3115 54.0952 37.4209 52.5054 34.7573 51.1472C29.4085 48.42 25.7915 45.3453 21.8568 40.1819C18.3028 35.5178 16.7027 31.4015 17.1008 27.946C17.9667 20.4297 22.9816 19.6181 23.1948 19.5871C23.2057 19.5855 23.2171 19.5839 23.2285 19.5828C23.3395 19.5692 23.8149 19.5284 25.2606 19.5578C27.1148 19.5964 28.0367 20.7027 28.313 21.4011C28.4904 21.8058 30.3614 26.0809 31.0767 27.7535C31.5608 28.8859 31.8757 30.5301 30.6285 31.9302ZM36.7502 45.2049C34.9912 44.3124 33.1718 42.9738 32.2439 42.2553C29.991 40.5104 27.6696 37.8844 26.3305 35.5641C25.804 34.6525 25.7066 33.1904 26.7346 32.1341C27.0468 31.8138 27.613 31.1725 28.4175 30.2299L28.4974 30.1358C28.5042 30.1282 28.5115 30.1199 28.5193 30.1111C28.5284 30.1008 28.5381 30.0898 28.5486 30.0781C28.6568 29.9569 28.8814 29.7045 28.5154 28.8478C27.7827 27.1334 25.8197 22.6494 25.7507 22.4916C25.7012 22.4378 25.5374 22.3491 25.2029 22.3421C24.1532 22.3203 23.7115 22.3388 23.581 22.347C23.2106 22.4307 20.4475 23.2227 19.8666 28.2642C19.5582 30.9419 21.0121 34.4795 24.0711 38.4936C27.7767 43.3562 31.0158 46.1133 36.0219 48.6664C38.4826 49.9212 42.0708 51.399 45.2038 51.306C47.5469 51.238 49.2837 50.5478 50.366 49.2544C51.1335 48.3379 51.3086 47.4045 51.325 47.3099C51.3266 47.2937 51.3267 47.2904 51.3272 47.2872C51.3277 47.284 51.3286 47.281 51.3315 47.2669C51.3407 47.1886 51.3859 46.7714 51.4169 45.6172C51.4261 45.2827 51.3456 45.1147 51.294 45.063C51.2743 45.0533 51.1858 45.0094 51.0429 44.9387C50.0926 44.468 46.7397 42.8071 45.2815 42.0997C44.723 41.8289 44.6087 41.9528 44.3581 42.2247L44.358 42.2248C44.303 42.2847 44.2427 42.3499 44.1698 42.4163C44.0577 42.5501 43.7684 42.9368 43.5328 43.2517C42.7159 44.345 42.104 45.1484 41.6732 45.5297C40.1137 46.9098 37.5851 45.6281 36.7518 45.2057L36.7502 45.2049Z" fill="#0033A0"/>
<path d="M11.6386 13.72C11.9732 13.72 12.3087 13.6004 12.5753 13.3578C13.1442 12.8405 13.1866 11.9599 12.6694 11.391C12.1516 10.8221 11.2715 10.7802 10.702 11.2974L10.7015 11.298C10.1325 11.8152 10.0912 12.6953 10.6085 13.2648C10.8831 13.5666 11.2601 13.72 11.6386 13.72Z" fill="#00AEC7"/>
<path d="M54.6432 55.4257L54.6426 55.4267C54.1254 55.9957 54.1678 56.8757 54.7367 57.393C55.0033 57.6356 55.3383 57.7552 55.6728 57.7552C56.0514 57.7552 56.4289 57.6013 56.7035 57.2989C57.2213 56.73 57.1789 55.8494 56.61 55.3321C56.041 54.8148 55.1605 54.8567 54.6432 55.4257Z" fill="#00AEC7"/>
</g>
</svg>
