<svg width="72" height="72" viewBox="0 0 72 72" fill="none" xmlns="http://www.w3.org/2000/svg">
<mask id="mask0_806_758" style="mask-type:alpha" maskUnits="userSpaceOnUse" x="0" y="0" width="72" height="72">
<rect width="72" height="72" fill="white"/>
</mask>
<g mask="url(#mask0_806_758)">
<path d="M58.3932 50.772C58.9759 50.772 59.4479 50.3 59.4479 49.7173C59.4479 49.1347 58.9759 48.6626 58.3932 48.6626H57.7554C57.1728 48.6626 56.7007 49.1347 56.7007 49.7173C56.7007 50.3 57.1728 50.772 57.7554 50.772H58.3932Z" fill="#00AEC7"/>
<path fill-rule="evenodd" clip-rule="evenodd" d="M17.4331 64.6452C17.4331 66.5228 15.9055 68.0505 14.0277 68.0505C12.1498 68.0505 10.6222 66.5226 10.6222 64.6452C10.6222 62.7671 12.1498 61.2395 14.0277 61.2395C15.9055 61.2395 17.4331 62.7671 17.4331 64.6452ZM15.3237 64.6452C15.3237 63.9305 14.7424 63.3489 14.0277 63.3489C13.3131 63.3489 12.7316 63.9305 12.7316 64.6452C12.7316 65.3598 13.3131 65.9412 14.0277 65.9412C14.7424 65.9412 15.3237 65.3598 15.3237 64.6452Z" fill="#00AEC7"/>
<path d="M26.6295 48.105C26.0469 48.105 25.5749 48.5769 25.5749 49.1597V49.8209C25.5749 50.4035 26.0469 50.8756 26.6295 50.8756C27.2122 50.8756 27.6842 50.4035 27.6842 49.8209V49.1597C27.6842 48.5771 27.2122 48.105 26.6295 48.105Z" fill="#00AEC7"/>
<path d="M47.657 40.1116H49.441C50.0235 40.1116 50.4957 39.6396 50.4957 39.0569C50.4957 38.4743 50.0235 38.0022 49.441 38.0022H47.657C47.0744 38.0022 46.6024 38.4743 46.6024 39.0569C46.6024 39.6396 47.0744 40.1116 47.657 40.1116Z" fill="#00AEC7"/>
<path d="M47.657 43.093H49.441C50.0235 43.093 50.4957 42.6211 50.4957 42.0383C50.4957 41.4557 50.0235 40.9836 49.441 40.9836H47.657C47.0744 40.9836 46.6024 41.4557 46.6024 42.0383C46.6024 42.6211 47.0744 43.093 47.657 43.093Z" fill="#00AEC7"/>
<path d="M47.657 46.0745H49.441C50.0235 46.0745 50.4957 45.6025 50.4957 45.0198C50.4957 44.4372 50.0235 43.9651 49.441 43.9651H47.657C47.0744 43.9651 46.6024 44.4372 46.6024 45.0198C46.6024 45.6025 47.0744 46.0745 47.657 46.0745Z" fill="#00AEC7"/>
<mask id="mask1_806_758" style="mask-type:alpha" maskUnits="userSpaceOnUse" x="0" y="11" width="72" height="62">
<path fill-rule="evenodd" clip-rule="evenodd" d="M0 11.3906H71.9997V72.2086H0V11.3906Z" fill="white"/>
</mask>
<g mask="url(#mask1_806_758)">
<path fill-rule="evenodd" clip-rule="evenodd" d="M64.4833 33.5262C66.0678 33.5262 67.5088 34.5231 68.069 36.0067C69.4789 39.8619 70.3901 42.2007 70.9758 43.7042C71.8509 45.9502 71.9997 46.332 71.9997 47.1207V61.0258C71.9997 62.3844 70.8943 63.4896 69.5358 63.4896H66.0394C66.0823 63.8189 66.1069 64.1539 66.1069 64.4948C66.1069 68.7482 62.6465 72.2086 58.3931 72.2086C54.1394 72.2086 50.6791 68.7482 50.6791 64.4948C50.6791 64.154 50.7037 63.819 50.7469 63.4896H47.5045V64.9487C47.5045 66.1884 46.4959 67.197 45.2563 67.197H30.5291C29.2895 67.197 28.2809 66.1884 28.2809 64.9487V63.4896H21.6739C21.7168 63.8189 21.7415 64.1539 21.7415 64.4948C21.7415 68.7482 18.281 72.2086 14.0276 72.2086C13.126 72.2086 12.2418 72.0538 11.399 71.7483C10.8514 71.5499 10.5683 70.9452 10.7669 70.3975C10.9653 69.85 11.5699 69.5667 12.1177 69.7654C12.7293 69.9871 13.3718 70.0994 14.0276 70.0994C17.1178 70.0994 19.632 67.5851 19.632 64.4949C19.632 61.4045 17.1178 58.8903 14.0276 58.8903C10.9373 58.8903 8.42309 61.4044 8.42309 64.4949C8.42309 65.5788 8.7343 66.6314 9.32324 67.5391C9.6402 68.0278 9.50113 68.6809 9.01245 68.998C8.52406 69.3148 7.87086 69.1762 7.55361 68.6872C6.74249 67.4369 6.31372 65.9872 6.31372 64.4949C6.31372 64.1542 6.33833 63.8192 6.38136 63.4897H5.8917V65.6144C5.8917 66.197 5.41963 66.6691 4.83702 66.6691H1.05463C0.472017 66.6691 -6.10352e-05 66.197 -6.10352e-05 65.6144C-6.10352e-05 65.0318 0.472017 64.5597 1.05463 64.5597H3.78233V63.483C1.67689 63.3648 -6.10352e-05 61.6149 -6.10352e-05 59.4805V54.7964V52.0483C-6.10352e-05 51.4658 0.472017 50.9936 1.05463 50.9936C1.63724 50.9936 2.10931 51.4658 2.10931 52.0483V53.7417H15.3238V52.0483C15.3238 51.4658 15.7959 50.9936 16.3787 50.9936C16.9611 50.9936 17.4334 51.4658 17.4334 52.0483V53.7417H20.4318V50.6591C20.4318 48.8317 21.2274 47.1869 22.4898 46.0515V36.7676C22.0907 36.6174 21.8062 36.2331 21.8062 35.7814C21.8062 35.3297 22.0906 34.9455 22.4898 34.7952V30.0262C22.0907 29.876 21.8062 29.4916 21.8062 29.04C21.8062 28.5883 22.0906 28.2041 22.4898 28.0538V23.179L10.7545 16.6368L10.0064 17.9787V28.8618C12.18 29.3447 13.81 31.2878 13.81 33.6048C13.81 36.2837 11.6306 38.4632 8.9517 38.4632C6.2728 38.4632 4.09325 36.2837 4.09325 33.6048C4.09325 33.0222 4.56533 32.5501 5.14794 32.5501C5.73055 32.5501 6.20263 33.0222 6.20263 33.6048C6.20263 35.1204 7.43591 36.3537 8.9517 36.3537C10.4674 36.3537 11.7006 35.1204 11.7006 33.6048C11.7006 32.0891 10.4674 30.8558 8.9517 30.8558C8.3691 30.8558 7.89702 30.3838 7.89702 29.8012V21.7626L7.47275 22.5235C7.27981 22.8696 6.92066 23.0649 6.55053 23.0649C6.37658 23.0649 6.20038 23.0219 6.03781 22.9312C5.52917 22.6477 5.34664 22.0052 5.63028 21.4964L10.2232 13.2573C10.696 12.4094 11.4707 11.7962 12.4046 11.5307C13.3385 11.2652 14.3201 11.3796 15.168 11.8523L16.9537 12.8478C17.4626 13.1315 17.6447 13.7738 17.3612 14.2826C17.0777 14.7914 16.4352 14.9738 15.9264 14.6902L14.1409 13.6947C13.7851 13.4964 13.3727 13.4483 12.9812 13.5598C12.5891 13.6712 12.264 13.9284 12.0656 14.2843L11.7814 14.7944L22.5902 20.82C22.7491 20.11 23.0897 19.4679 23.5619 18.9466L19.6308 16.7551C19.1221 16.4716 18.9396 15.8291 19.2234 15.3203C19.5069 14.8117 20.1494 14.6291 20.6582 14.9128L25.6575 17.6998C25.9696 17.6244 26.2948 17.5834 26.6298 17.5834C28.9126 17.5834 30.7697 19.4405 30.7697 21.7234V28.0539C31.1688 28.2041 31.4533 28.5884 31.4533 29.0401C31.4533 29.4918 31.1689 29.876 30.7697 30.0263V34.7953C31.1688 34.9455 31.4533 35.3298 31.4533 35.7815C31.4533 36.2332 31.1689 36.6174 30.7697 36.7677V46.0516C32.0321 47.1869 32.8274 48.8317 32.8274 50.6591V53.7417H38.9026V50.9294C38.9026 49.4496 40.1065 48.2455 41.5864 48.2455H42.559V43.5506C42.559 42.9682 43.0309 42.4959 43.6137 42.4959C44.1961 42.4959 44.6683 42.9682 44.6683 43.5506V61.3802H51.3386C52.5377 58.6741 55.2478 56.7808 58.3933 56.7808C61.5387 56.7808 64.2487 58.6741 65.4481 61.3802H69.536C69.7315 61.3802 69.8906 61.2214 69.8906 61.0258V59.5933H68.605C68.0224 59.5933 67.5503 59.1213 67.5503 58.5386C67.5503 57.9561 68.0224 57.4839 68.605 57.4839H69.8906V47.388H55.419C54.3017 47.388 53.3924 46.479 53.3924 45.3616V35.6356H45.4134C45.0025 35.6356 44.6682 35.9698 44.6682 36.3807V39.3337C44.6682 39.9165 44.1961 40.3884 43.6135 40.3884C43.0308 40.3884 42.5588 39.9165 42.5588 39.3337V36.3807C42.5588 34.8067 43.8394 33.5262 45.4134 33.5262H55.6191V31.6588C55.6191 29.4661 57.4032 27.6819 59.5961 27.6819C61.789 27.6819 63.5731 29.4659 63.5731 31.6588V33.5262H64.4833ZM28.6602 21.7231V27.9851H24.599V21.7231C24.599 20.6033 25.51 19.6925 26.6295 19.6925C27.749 19.6925 28.6602 20.6034 28.6602 21.7231ZM57.7286 31.6588C57.7286 30.629 58.5665 29.7913 59.5961 29.7913C60.6259 29.7913 61.4638 30.629 61.4638 31.6588V33.5262H57.7285V31.6588H57.7286ZM66.0955 36.7517C65.8435 36.084 65.1955 35.6356 64.4833 35.6356C61.1739 35.6357 59.3735 35.6356 56.8917 35.6355L55.5018 35.6354V37.6933H55.8095C57.8062 37.6933 59.4923 39.1231 59.8186 41.0932L60.5126 45.2786H66.0418L64.6974 43.9344L64.4426 44.1891C64.2366 44.3949 63.9666 44.498 63.6966 44.498C63.4267 44.498 63.1569 44.3949 62.9509 44.1891C62.539 43.7773 62.539 43.1096 62.9509 42.6976L64.952 40.6964C65.3638 40.2848 66.0315 40.2848 66.4436 40.6964C66.8555 41.1083 66.8555 41.7759 66.4436 42.1881L66.1888 42.4428L69.0246 45.2788H69.3129L66.0955 36.7517ZM55.8095 39.8028H55.5018V45.2788H58.3742L57.7375 41.4382C57.5805 40.4906 56.7698 39.8028 55.8095 39.8028ZM52.7886 64.4949C52.7886 67.5851 55.3027 70.0994 58.3932 70.0994C61.4836 70.0994 63.9977 67.5851 63.9977 64.4949C63.9977 61.4045 61.4834 58.8903 58.3932 58.8903C55.3028 58.8903 52.7886 61.4045 52.7886 64.4949ZM45.3952 64.9487C45.3952 65.0253 45.3328 65.0876 45.2564 65.0876H30.5293C30.4528 65.0876 30.3905 65.0253 30.3905 64.9487V63.4896H43.6135H45.3952V64.9487ZM6.97297 61.3802C8.17222 58.6741 10.8822 56.7808 14.0277 56.7808C17.1732 56.7808 19.8832 58.6741 21.0827 61.3801H42.5588V55.851H2.10931V59.4804C2.10931 60.528 2.96164 61.3802 4.00944 61.3802H6.97297ZM22.5411 50.6591C22.5411 48.4049 24.3752 46.5708 26.6295 46.5708C28.8838 46.5708 30.7178 48.4049 30.7178 50.6591V53.7417H22.5409V50.6591H22.5411ZM28.6602 36.8361H24.5992V44.8047C25.2358 44.5834 25.9185 44.4615 26.6297 44.4615C27.3407 44.4615 28.0235 44.5834 28.6602 44.8047V36.8361ZM28.6602 34.7267H24.599V30.0946H28.6602V34.7267ZM41.0118 50.9294C41.0118 50.6125 41.2694 50.3549 41.5863 50.3549H42.5588V53.7417H41.0118V50.9294Z" fill="#0033A0"/>
</g>
<path fill-rule="evenodd" clip-rule="evenodd" d="M54.9878 64.6452C54.9878 62.7673 56.5153 61.2395 58.3932 61.2395C60.2711 61.2395 61.7987 62.7673 61.7987 64.6452C61.7987 66.5229 60.2711 68.0505 58.3932 68.0505C56.5153 68.0505 54.9878 66.5229 54.9878 64.6452ZM57.0972 64.6452C57.0972 65.3598 57.6785 65.9412 58.3932 65.9412C59.1078 65.9412 59.6893 65.3598 59.6893 64.6452C59.6893 63.9305 59.1078 63.3489 58.3932 63.3489C57.6785 63.3489 57.0972 63.9305 57.0972 64.6452Z" fill="#00AEC7"/>
</g>
</svg>
