<svg width="32" height="32" viewBox="0 0 32 32" fill="none" xmlns="http://www.w3.org/2000/svg">
<mask id="mask0_820_1311" style="mask-type:alpha" maskUnits="userSpaceOnUse" x="0" y="0" width="32" height="32">
<rect width="32" height="32" fill="white"/>
</mask>
<g mask="url(#mask0_820_1311)">
<path d="M26.5312 5.01752C26.1863 5.01752 25.9062 5.29752 25.9062 5.64252C25.9062 5.98752 26.1863 6.26752 26.5312 6.26752C26.8763 6.26752 27.1562 5.98752 27.1562 5.64252C27.1562 5.29745 26.8763 5.01752 26.5312 5.01752Z" fill="#00AEC7"/>
<path fill-rule="evenodd" clip-rule="evenodd" d="M23.9531 1.78815C26.2182 1.78815 28.2871 2.7114 29.7786 4.38784C31.2111 5.99784 32 8.15784 32 10.47C32 16.4079 26.1363 21.4683 18.148 28.3621C17.5788 28.8534 16.9988 29.3539 16.4093 29.8648C16.2919 29.9666 16.1459 30.0175 16 30.0175C15.8541 30.0175 15.7081 29.9666 15.5907 29.8648C14.994 29.3476 14.4068 28.841 13.8305 28.3437C5.86973 21.4747 0 16.4099 0 10.47C0 5.7544 3.30588 1.78809 8.04688 1.78809C10.5238 1.78809 12.7838 2.74815 14.5828 4.56459C15.2083 5.19627 15.6759 5.82721 16 6.3279C16.3241 5.82715 16.7917 5.19615 17.4173 4.56459C19.2162 2.74821 21.4763 1.78815 23.9531 1.78815ZM14.6203 27.374C15.0736 27.7652 15.5338 28.1623 16 28.5657C16.5693 28.0731 17.1329 27.5878 17.6888 27.1093C24.8708 20.9258 30.75 15.8641 30.7501 10.47C30.7501 6.23315 27.8281 3.03815 23.9532 3.03815C21.8016 3.03815 19.9118 3.83721 18.3362 5.41321C17.1359 6.6139 16.5758 7.83915 16.5703 7.8514C16.4692 8.07552 16.246 8.22009 16.0002 8.22009H15.9991C15.7532 8.21959 15.5303 8.07559 15.4297 7.8514C15.4242 7.83915 14.8642 6.61384 13.6638 5.41321C12.0882 3.83727 10.1984 3.03815 8.04688 3.03815C4.172 3.03815 1.25 6.23315 1.25 10.47C1.25 15.8358 6.95683 20.7606 14.6203 27.374Z" fill="#0033A0"/>
<path d="M28.7174 7.24409C28.557 6.93834 28.1792 6.82059 27.8736 6.98084C27.5679 7.14116 27.45 7.51891 27.6104 7.82459C28.0229 8.61128 28.2501 9.55078 28.2501 10.47C28.2501 12.276 27.3905 14.1928 25.545 16.5023C25.3295 16.772 25.3734 17.1653 25.643 17.3808C25.9144 17.5977 26.3074 17.5507 26.5215 17.2827C28.5536 14.7397 29.5001 12.5749 29.5001 10.47C29.5001 9.33603 29.2294 8.22053 28.7174 7.24409Z" fill="#00AEC7"/>
<path fill-rule="evenodd" clip-rule="evenodd" d="M18.4583 13.4583H21.9583C22.3034 13.4583 22.5833 13.7382 22.5833 14.0833V17.8333C22.5833 18.1785 22.3034 18.4583 21.9583 18.4583H18.4583V21.9583C18.4583 22.3035 18.1784 22.5833 17.8333 22.5833H14.0833C13.7381 22.5833 13.4583 22.3035 13.4583 21.9583V18.4583H9.95825C9.61306 18.4583 9.33325 18.1785 9.33325 17.8333V14.0833C9.33325 13.7382 9.61306 13.4583 9.95825 13.4583H13.4583V9.95834C13.4583 9.61316 13.7381 9.33334 14.0833 9.33334H17.8333C18.1784 9.33334 18.4583 9.61316 18.4583 9.95834V13.4583ZM17.8333 17.2083H21.3333V14.7083H17.8333C17.4881 14.7083 17.2083 14.4285 17.2083 14.0833V10.5833H14.7083V14.0833C14.7083 14.4285 14.4284 14.7083 14.0833 14.7083H10.5833V17.2083H14.0833C14.4284 17.2083 14.7083 17.4881 14.7083 17.8333V21.3333H17.2083V17.8333C17.2083 17.4881 17.4881 17.2083 17.8333 17.2083Z" fill="#00AEC7"/>
</g>
</svg>
