<svg width="72" height="72" viewBox="0 0 72 72" fill="none" xmlns="http://www.w3.org/2000/svg">
<path fill-rule="evenodd" clip-rule="evenodd" d="M51.7472 43.649L68.3014 60.2029C68.699 60.6006 68.8275 61.1941 68.6299 61.7207L67.5733 64.5383C67.5014 64.7298 67.3893 64.9039 67.2446 65.0487C66.6262 65.6671 65.9602 66.2622 65.2649 66.8175C60.9408 70.2714 55.7443 71.9735 50.5665 71.9738C44.5007 71.9744 38.4598 69.639 33.8695 65.0487L6.92523 38.1044C-1.58343 29.5958 -2.34393 16.0986 5.15631 6.70904L5.15701 6.7082C5.71164 6.01365 6.30662 5.34779 6.92509 4.72932C7.06993 4.58462 7.24403 4.47254 7.43556 4.40068L10.2534 3.34402C10.7805 3.14659 11.3733 3.27512 11.771 3.67266L28.3248 20.2269C28.693 20.5952 28.8328 21.1341 28.6896 21.6348L27.9852 24.1003C27.9183 24.3346 27.7929 24.5479 27.6204 24.7203L25.5066 26.8342L25.5059 26.8349L22.7908 29.5499C27.5265 36.9932 33.859 43.4656 41.1977 48.3613L44.9362 45.8666L47.4718 44.1746C47.5954 44.0921 47.7309 44.0295 47.8738 43.9886L50.3393 43.2842C50.8399 43.141 51.3789 43.2808 51.7472 43.649ZM10.396 6.35368L8.73887 6.97496C8.5652 7.15412 8.39364 7.33735 8.22503 7.52424L16.399 15.6982L24.493 23.7922L25.3299 22.9552L25.7005 21.6583L10.396 6.35368ZM35.8976 63.0208L8.95318 36.0765C1.86231 28.9856 0.896778 17.951 6.44064 9.79576L22.465 25.8201L19.9574 28.3277C19.4891 28.796 19.4025 29.5243 19.7478 30.0895C24.9287 38.5674 32.0792 45.8969 40.4267 51.2856C40.9067 51.5956 41.5252 51.5908 42.0005 51.2737L45.55 48.905L62.1783 65.5333C54.0231 71.0773 42.9887 70.1116 35.8976 63.0208ZM64.4499 63.7491C64.6367 63.5802 64.8201 63.4089 64.9991 63.2352L65.6204 61.5781L50.3158 46.2735L48.8773 46.6846L47.9825 47.2816L64.4499 63.7491Z" fill="#0033A0"/>
<path d="M38.6434 59.9348L28.4666 49.7581C27.9067 49.1981 26.9986 49.1982 26.4385 49.7581C25.8786 50.318 25.8786 51.226 26.4385 51.7862L36.6154 61.9629C36.8953 62.243 37.2624 62.3829 37.6293 62.3829C37.9962 62.3829 38.3634 62.2429 38.6434 61.9629C39.2033 61.4029 39.2033 60.4949 38.6434 59.9348Z" fill="#00AEC7"/>
<path d="M24.6419 45.9336L23.9591 45.2505C23.3991 44.6906 22.4911 44.6906 21.931 45.2505C21.371 45.8105 21.371 46.7185 21.931 47.2786L22.614 47.9617C22.8941 48.2418 23.261 48.3817 23.6279 48.3817C23.9948 48.3817 24.3619 48.2418 24.6419 47.9617C25.2019 47.4017 25.2019 46.4937 24.6419 45.9336Z" fill="#00AEC7"/>
<path d="M34.3675 18.3306C33.5755 18.3306 32.9336 18.9725 32.9336 19.7645C32.9336 20.5565 33.5755 21.1985 34.3675 21.1985C43.4438 21.1985 50.828 28.5827 50.828 37.6589C50.828 38.4509 51.4699 39.0929 52.2619 39.0929C53.0539 39.0929 53.6959 38.4509 53.6959 37.6589C53.6959 27.0014 45.0254 18.3306 34.3675 18.3306Z" fill="#00AEC7"/>
<path d="M34.3675 9.31519C33.5755 9.31519 32.9336 9.95714 32.9336 10.7491C32.9336 11.5411 33.5755 12.1831 34.3675 12.1831C48.415 12.1831 59.8435 23.6115 59.8435 37.659C59.8435 38.451 60.4854 39.093 61.2774 39.093C62.0694 39.093 62.7114 38.451 62.7114 37.659C62.7114 22.0302 49.9963 9.31519 34.3675 9.31519Z" fill="#00AEC7"/>
<path d="M60.9777 11.0487C53.8698 3.94095 44.4194 0.0263672 34.3675 0.0263672C33.5755 0.0263672 32.9336 0.66832 32.9336 1.46032C32.9336 2.25232 33.5755 2.89427 34.3675 2.89427C53.5368 2.89427 69.1322 18.4896 69.1322 37.6589C69.1322 38.4509 69.7741 39.0928 70.5661 39.0928C71.3581 39.0928 72.0001 38.4509 72.0001 37.6589C72.0001 27.607 68.0855 18.1566 60.9777 11.0487Z" fill="#00AEC7"/>
</svg>
