<svg width="74" height="74" viewBox="0 0 74 74" fill="none" xmlns="http://www.w3.org/2000/svg">
<circle opacity="0.0594076" cx="37" cy="37" r="36" fill="#0033A0" stroke="black"/>
<path d="M22.3675 14C29.99 14 37.6115 14 45.2331 14C45.3984 14.14 45.574 14.2677 45.7271 14.4199C49.3397 18.0296 52.9485 21.6441 56.5639 25.251C56.8495 25.5356 56.9847 25.8465 56.9763 26.2495C56.9603 27.0301 56.9716 27.8116 56.9716 28.5921C56.9716 37.7147 56.9716 46.8382 56.9716 55.9607C56.9716 56.9846 56.7537 57.2062 55.7458 57.2062C54.7154 57.2062 53.6849 57.2062 52.6536 57.2072C52.5042 57.2072 52.3539 57.2232 52.1736 57.2335C52.1736 58.4433 52.1736 59.6118 52.1736 60.7813C52.1736 61.7797 51.9585 61.9977 50.9722 61.9977C40.0415 61.9977 29.1108 61.9977 18.1801 61.9977C18.0392 61.9977 17.8973 62.007 17.7592 61.9883C17.3187 61.9281 17.0491 61.6867 17.0125 61.2284C16.9984 61.0574 17.0012 60.8855 17.0012 60.7136C17.0012 46.64 17.0012 32.5654 17.0012 18.4899C17.0012 18.365 16.9975 18.24 17.0031 18.1151C17.0275 17.4999 17.314 17.2087 17.9405 17.1965C18.5802 17.1843 19.2208 17.1936 19.8614 17.1936C20.4955 17.1936 21.1295 17.1936 21.7992 17.1936C21.7992 16.4469 21.8218 15.7612 21.7917 15.0783C21.7692 14.5852 21.941 14.2348 22.3675 14ZM55.3522 26.8028C55.1164 26.8028 54.9314 26.8028 54.7454 26.8028C51.6063 26.8028 48.468 26.8037 45.3289 26.8018C44.4271 26.8018 44.1914 26.5623 44.1914 25.6615C44.1914 22.5064 44.1914 19.3503 44.1914 16.1952V15.6306H23.428V55.5719H55.3522V26.8028ZM21.7983 18.8243H18.63V60.3736H50.5448V57.2072H49.9089C40.9601 57.2072 32.0104 57.2072 23.0616 57.2072C22.0077 57.2072 21.7983 56.9987 21.7983 55.9504C21.7983 43.7789 21.7983 31.6083 21.7983 19.4367V18.8243ZM45.8239 16.8771V25.1524H54.1039C51.3348 22.3843 48.5873 19.6387 45.8239 16.8762V16.8771Z" fill="#0033A0"/>
<path d="M41.7182 49.9989C38.673 49.9989 35.6287 49.9989 32.5834 49.9989C32.4425 49.9989 32.3016 50.0055 32.1626 49.9905C31.7099 49.9416 31.3914 49.6054 31.3961 49.1911C31.4008 48.775 31.723 48.4491 32.1786 48.4077C32.3185 48.3955 32.4594 48.4012 32.6003 48.4012C38.7209 48.4012 44.8423 48.4012 50.9629 48.4012C51.0568 48.4012 51.1507 48.3993 51.2437 48.4012C51.8063 48.4162 52.1595 48.7149 52.1689 49.1817C52.1783 49.6664 51.8157 49.9942 51.2287 49.9952C48.4803 49.9999 45.7318 49.9971 42.9844 49.9971C42.5626 49.9971 42.1409 49.9971 41.7191 49.9971L41.7182 49.9989Z" fill="#0033A0"/>
<path d="M41.8084 38.8015C44.8686 38.8015 47.9289 38.8015 50.9892 38.8015C51.7951 38.8015 52.1764 39.0664 52.168 39.6112C52.1595 40.1503 51.7763 40.4039 50.9657 40.4039C44.8451 40.4039 38.7246 40.4039 32.6041 40.4039C31.801 40.4039 31.4084 40.1438 31.398 39.6112C31.3877 39.0739 31.7831 38.8015 32.5806 38.8015C35.6568 38.8015 38.7321 38.8015 41.8084 38.8015Z" fill="#0033A0"/>
<path d="M41.7811 43.606C44.8264 43.606 47.8716 43.606 50.9159 43.606C51.0568 43.606 51.1977 43.6013 51.3376 43.6098C51.8411 43.6408 52.1586 43.9385 52.1671 44.3847C52.1755 44.8036 51.8815 45.1258 51.4137 45.1935C51.2757 45.2132 51.1338 45.2066 50.9929 45.2066C44.8564 45.2066 38.719 45.2075 32.5825 45.2047C32.3815 45.2047 32.1748 45.1935 31.9814 45.1455C31.5756 45.0441 31.3821 44.7426 31.4103 44.3453C31.4375 43.9479 31.6723 43.6821 32.0856 43.6248C32.2547 43.6013 32.4285 43.606 32.5994 43.606C35.6597 43.6051 38.7209 43.606 41.7811 43.606Z" fill="#0033A0"/>
<path d="M41.7652 30.792C38.7199 30.792 35.6756 30.792 32.6304 30.792C32.4585 30.792 32.2857 30.7986 32.1156 30.7798C31.7099 30.7338 31.4065 30.4285 31.4046 30.0387C31.4027 29.6385 31.5924 29.3483 31.9963 29.2478C32.1598 29.2074 32.3354 29.1971 32.5055 29.1971C38.6889 29.1942 44.8724 29.1952 51.0559 29.1971C51.2108 29.1971 51.3705 29.1989 51.5199 29.2328C51.951 29.3295 52.215 29.6742 52.1605 30.0791C52.1032 30.5055 51.843 30.7441 51.4147 30.7854C51.2597 30.8005 51.1028 30.7939 50.9469 30.7939C47.8866 30.7939 44.8264 30.7939 41.7652 30.7939V30.792Z" fill="#0033A0"/>
<path d="M41.7614 35.5937C38.7011 35.5937 35.6408 35.5937 32.5806 35.5937C31.7803 35.5937 31.3886 35.3242 31.397 34.7869C31.4064 34.2543 31.8019 33.9922 32.6031 33.9922C38.7236 33.9922 44.8442 33.9922 50.9656 33.995C51.1826 33.995 51.4071 34.0026 51.6138 34.0608C51.9886 34.1669 52.1811 34.4468 52.1623 34.8338C52.1445 35.219 51.9303 35.4791 51.549 35.558C51.3526 35.5984 51.1451 35.5928 50.9431 35.5928C47.8828 35.5947 44.8226 35.5937 41.7623 35.5937H41.7614Z" fill="#0033A0"/>
<path d="M29.7711 21.2083C30.5197 21.2083 31.2684 21.2036 32.017 21.2101C32.682 21.2158 32.9741 21.4863 32.9788 22.1363C32.9892 23.6495 32.9892 25.1628 32.9788 26.676C32.9741 27.3025 32.6783 27.5918 32.0546 27.5946C30.5423 27.6021 29.0291 27.6031 27.5168 27.5946C26.9034 27.5909 26.5963 27.2865 26.5925 26.6656C26.5822 25.1524 26.5822 23.6392 26.5925 22.126C26.5972 21.5098 26.9053 21.2177 27.5262 21.2111C28.2748 21.2017 29.0234 21.2092 29.7721 21.2092L29.7711 21.2083ZM28.2043 25.963H31.3557V22.837H28.2043V25.963Z" fill="#00AEC7"/>
<path d="M28.1687 30.7864C27.9038 30.7864 27.637 30.8005 27.3731 30.7826C26.9372 30.7535 26.6282 30.4501 26.5991 30.0481C26.5718 29.6771 26.8301 29.2788 27.2331 29.2459C27.8662 29.1943 28.5106 29.1905 29.1427 29.2459C29.5626 29.2825 29.7833 29.6094 29.7711 30.0443C29.7598 30.451 29.4518 30.7544 29.0112 30.7835C28.7313 30.8023 28.4495 30.7873 28.1687 30.7864Z" fill="#00AEC7"/>
<path d="M28.1884 45.201C27.9235 45.201 27.6558 45.2216 27.3928 45.1963C26.91 45.1493 26.5813 44.7952 26.5972 44.3753C26.6141 43.9376 26.941 43.6286 27.4417 43.6126C27.9404 43.5966 28.4411 43.5966 28.9399 43.6126C29.448 43.6286 29.7608 43.931 29.773 44.3791C29.7843 44.8205 29.48 45.1502 28.9831 45.1981C28.7201 45.2235 28.4533 45.2028 28.1875 45.2019L28.1884 45.201Z" fill="#00AEC7"/>
<path d="M28.1968 48.4097C28.4777 48.4097 28.7604 48.3899 29.0384 48.4143C29.4715 48.4519 29.7655 48.776 29.7739 49.1827C29.7824 49.5904 29.5006 49.9501 29.0713 49.9783C28.4965 50.0149 27.9169 50.013 27.3411 49.9839C26.9156 49.9633 26.6056 49.6091 26.5953 49.2165C26.585 48.8079 26.91 48.4491 27.3543 48.4134C27.6332 48.3909 27.916 48.4087 28.1968 48.4087V48.4106V48.4097Z" fill="#00AEC7"/>
<path d="M28.1696 35.5778C27.8887 35.5778 27.6069 35.5947 27.328 35.574C26.8884 35.5411 26.6582 35.2631 26.6028 34.8489C26.554 34.4807 26.832 34.0824 27.2322 34.0514C27.8652 34.0026 28.5077 34.0007 29.1408 34.0495C29.5569 34.0815 29.8049 34.4459 29.7702 34.8414C29.7335 35.2706 29.4912 35.5336 29.0582 35.5712C28.7642 35.5975 28.4664 35.5759 28.1705 35.5768L28.1696 35.5778Z" fill="#00AEC7"/>
<path d="M28.2316 40.4218C27.8954 40.403 27.5826 40.4049 27.2745 40.3645C26.8358 40.3072 26.6254 40.0094 26.6019 39.5924C26.5813 39.2138 26.88 38.8597 27.2857 38.8362C27.8907 38.8015 28.5012 38.8024 29.1061 38.8381C29.5175 38.8625 29.7383 39.1518 29.7702 39.5585C29.8012 39.9549 29.5495 40.2846 29.1371 40.3551C28.8318 40.4067 28.5172 40.402 28.2307 40.4208L28.2316 40.4218Z" fill="#00AEC7"/>
</svg>
