<svg width="72" height="72" viewBox="0 0 72 72" fill="none" xmlns="http://www.w3.org/2000/svg">
<mask id="mask0_822_1140" style="mask-type:alpha" maskUnits="userSpaceOnUse" x="0" y="0" width="72" height="72">
<path d="M72 0H0V72H72V0Z" fill="white"/>
</mask>
<g mask="url(#mask0_822_1140)">
<path d="M60.4593 38.9402V65.8572C60.4593 67.0255 59.509 67.976 58.3405 67.976H56.7083C56.1268 67.976 55.6556 68.4471 55.6556 69.0286C55.6556 69.6101 56.1268 70.0812 56.7083 70.0812H58.3405C60.6697 70.0812 62.5645 68.1863 62.5645 65.8572V41.1316L64.7071 43.3619C65.6747 44.3691 67.2808 44.3862 68.2694 43.3976L71.1238 40.543C72.0771 39.59 72.0928 38.0237 71.1589 37.0515L38.7629 3.32809C37.2141 1.71588 34.6363 1.71448 33.0864 3.32809L0.690163 37.0515C-0.243591 38.0235 -0.227872 39.5899 0.725251 40.543L3.57985 43.3976C4.56764 44.3851 6.17339 44.3702 7.14223 43.3619L9.28455 41.1319V46.2452C9.28455 46.8266 9.75585 47.2978 10.3372 47.2978C10.9185 47.2978 11.3898 46.8266 11.3898 46.2452V38.9403L35.1243 14.2332C35.5608 13.7789 36.2867 13.7776 36.7248 14.2332C55.6408 33.924 51.8959 30.0259 60.4593 38.9402ZM69.6351 39.0541L66.7805 41.9089C66.5939 42.0626 66.4088 42.0607 66.2252 41.9033L38.2431 12.775C38.243 12.7748 38.243 12.7748 38.2429 12.7747C38.2415 12.7731 38.2399 12.7719 38.2385 12.7703C36.9721 11.4569 34.8715 11.4575 33.6061 12.7748L9.57802 37.7872C9.57746 37.7877 9.57704 37.7884 9.57648 37.789L5.62406 41.9033C5.44048 42.0607 5.25522 42.0626 5.06855 41.9087L2.21395 39.0541C2.06532 38.9055 2.06294 38.6613 2.20848 38.5099L34.6045 4.78648C35.3258 4.03574 36.5237 4.03588 37.2447 4.78662L69.6406 38.5097C69.7863 38.6613 69.7839 38.9056 69.6351 39.0541Z" fill="#0033A0"/>
<path d="M25.9651 36.1055C26.4302 36.1055 26.8072 36.4825 26.8072 36.9476V43.9651C26.8072 44.4302 26.4302 44.8072 25.9651 44.8072H18.9476C18.4825 44.8072 18.1055 44.4302 18.1055 43.9651V36.9476C18.1055 36.4825 18.4825 36.1055 18.9476 36.1055H25.9651ZM24.702 38.2107H20.2107V42.702H24.702V38.2107Z" fill="#00AEC7"/>
<path d="M53.3333 36.1055C53.7984 36.1055 54.1754 36.4825 54.1754 36.9476V43.9651C54.1754 44.4302 53.7984 44.8072 53.3333 44.8072H46.3157C45.8507 44.8072 45.4736 44.4302 45.4736 43.9651V36.9476C45.4736 36.4825 45.8507 36.1055 46.3157 36.1055H53.3333ZM52.0701 38.2107H47.5789V42.702H52.0701V38.2107Z" fill="#00AEC7"/>
<path d="M51.7752 67.9761H45.5306V56.0576C45.5306 50.7611 41.2214 46.452 35.9247 46.452C30.6281 46.452 26.3189 50.7611 26.3189 56.0576V67.9761H13.5087C12.3404 67.9761 11.3899 67.0258 11.3899 65.8574V57.4498C11.3899 56.8683 10.9186 56.3971 10.3373 56.3971C9.75597 56.3971 9.28467 56.8683 9.28467 57.4498V65.8574C9.28467 68.1865 11.1795 70.0814 13.5087 70.0814H51.7752C52.3567 70.0814 52.8278 69.6102 52.8278 69.0287C52.8278 68.4473 52.3567 67.9761 51.7752 67.9761ZM28.4242 56.0578C28.4242 51.9221 31.789 48.5574 35.9247 48.5574C40.0604 48.5574 43.4252 51.9222 43.4252 56.0578V67.9762H28.4242V56.0578Z" fill="#0033A0"/>
<path d="M10.3159 54.3556C11.5586 54.3556 12.5659 53.3482 12.5659 52.1056C12.5659 50.863 11.5586 49.8556 10.3159 49.8556C9.07328 49.8556 8.06592 50.863 8.06592 52.1056C8.06592 53.3482 9.07328 54.3556 10.3159 54.3556Z" fill="#00AEC7"/>
</g>
</svg>
