<svg width="72" height="72" viewBox="0 0 72 72" fill="none" xmlns="http://www.w3.org/2000/svg">
<path d="M15.5353 27.757C15.7968 27.4955 15.9456 27.1324 15.9456 26.761C15.9456 26.3914 15.7968 26.0283 15.5353 25.7673C15.2733 25.5053 14.9107 25.3564 14.541 25.3564C14.1697 25.3564 13.8066 25.5053 13.5451 25.7673C13.2836 26.0299 13.1348 26.3914 13.1348 26.761C13.1348 27.1324 13.2836 27.4938 13.5451 27.757C13.8082 28.0184 14.1697 28.1689 14.541 28.1689C14.9107 28.1689 15.2722 28.0184 15.5353 27.757Z" fill="#00AEC7"/>
<path d="M7.56628 62.4441L0.411987 69.5984C-0.137329 70.1472 -0.137329 71.0376 0.411987 71.5869C0.686645 71.8616 1.04645 71.9989 1.40625 71.9989C1.76605 71.9989 2.12585 71.8616 2.40051 71.5869L9.55481 64.4326C10.1041 63.8839 10.1041 62.9934 9.55481 62.4441C9.00549 61.8948 8.1156 61.8948 7.56628 62.4441Z" fill="#00AEC7"/>
<path d="M1.40625 41.9051C1.7666 41.9051 2.12585 41.7678 2.40051 41.4931L10.2623 33.6319C10.8111 33.0825 10.8111 32.1921 10.2623 31.6428C9.71301 31.094 8.82257 31.094 8.27325 31.6428L0.411987 39.504C-0.137329 40.0534 -0.137329 40.9438 0.411987 41.4931C0.686645 41.7678 1.04645 41.9051 1.40625 41.9051Z" fill="#00AEC7"/>
<path d="M35.0239 66.1586L31.5841 69.5984C31.0348 70.1472 31.0348 71.0376 31.5841 71.5869C31.8588 71.8616 32.2186 71.9989 32.5784 71.9989C32.9382 71.9989 33.298 71.8616 33.5726 71.5869L37.0125 68.1476C37.5618 67.5983 37.5618 66.7079 37.0125 66.1586C36.4631 65.6093 35.5727 65.6093 35.0239 66.1586Z" fill="#00AEC7"/>
<path d="M71.3124 38.1879L55.7557 28.9445L66.2922 18.4086C70.7334 13.9669 72.7681 7.61622 71.7342 1.42048C71.6354 0.827767 71.1712 0.363045 70.5785 0.264718C64.3827 -0.769645 58.0321 1.26502 53.5898 5.7068L43.6384 15.6588L39.1213 15.2281C39.5926 13.7384 39.24 12.0421 38.0611 10.8638C36.3769 9.17957 33.6359 9.17957 31.9517 10.8638L28.592 14.2234L24.1354 13.7982C24.2782 13.3665 24.3535 12.91 24.3535 12.442C24.3535 11.2879 23.9042 10.203 23.0884 9.38722C22.2721 8.57093 21.1872 8.12159 20.0337 8.12159C18.8796 8.12159 17.7947 8.57093 16.9789 9.38722L13.5748 12.7913L7.81029 12.2415C7.39391 12.2025 6.97918 12.3502 6.68255 12.6474L0.412099 18.9179C0.0956931 19.2343 -0.0515238 19.6825 0.0165916 20.1253C0.0841574 20.568 0.358816 20.952 0.755971 21.1591L8.89739 25.4047C9.10503 25.5135 9.32695 25.5646 9.54613 25.5646C10.0532 25.5646 10.5437 25.2894 10.7942 24.8082C11.1534 24.1199 10.8865 23.2706 10.1976 22.9114L3.75579 19.5512L8.2025 15.1045L41.0588 18.2383L27.4088 31.8883L20.2067 28.1315C19.5179 27.7723 18.6686 28.0398 18.3094 28.7281C17.9501 29.4169 18.2171 30.2662 18.9059 30.6254L25.3241 33.973L23.1153 36.1812C20.9164 38.3807 18.9905 40.7878 17.3547 43.3635L5.12414 43.5888C4.75994 43.5959 4.41277 43.7431 4.15569 44.0007L0.886709 47.2697C0.542837 47.6136 0.401113 48.1107 0.512075 48.5848C0.623037 49.0583 0.970754 49.4412 1.43163 49.5966L12.725 53.4045C12.1686 55.2128 11.7324 57.0684 11.4204 58.9625C11.3468 59.4096 11.4935 59.865 11.8137 60.1852C12.0796 60.4511 12.4383 60.5972 12.808 60.5972C12.8838 60.5972 12.9601 60.5912 13.0365 60.5786C14.9305 60.2665 16.7861 59.8304 18.5945 59.2739L22.4029 70.5673C22.5578 71.0282 22.9407 71.3765 23.4142 71.4874C23.5207 71.5122 23.6284 71.5242 23.735 71.5242C24.1036 71.5242 24.4628 71.3792 24.7292 71.1123L27.9988 67.8433C28.2564 67.5856 28.4036 67.2379 28.4102 66.8737L28.6233 54.652C30.8124 53.2628 32.8794 51.6632 34.8015 49.8641C36.0149 60.0172 42.9682 68.6607 52.8652 71.928C53.0086 71.9752 53.1575 71.9988 53.3063 71.9988C53.4552 71.9988 53.6041 71.9752 53.7469 71.928C64.6645 68.3234 72.0001 58.1769 72.0001 46.6798V39.3969C72.0001 38.9003 71.7386 38.4411 71.3124 38.1879ZM33.9407 12.8529C34.5285 12.2645 35.4849 12.2645 36.0726 12.8529C36.6461 13.4263 36.6582 14.3508 36.1111 14.9408L32.223 14.57L33.9407 12.8529ZM18.968 11.3763C19.2526 11.0912 19.631 10.9346 20.0337 10.9346C20.4363 10.9346 20.8148 11.0912 21.0994 11.3763C21.3839 11.6608 21.541 12.0393 21.541 12.442C21.541 12.8446 21.3845 13.2231 21.0994 13.5082L21.0983 13.5087L17.2064 13.1374L18.968 11.3763ZM4.47814 47.6553L5.74322 46.3903L15.704 46.2068C14.9272 47.6757 14.2395 49.1907 13.6435 50.7463L4.47814 47.6553ZM25.6081 66.2563L24.3431 67.5208L21.2526 58.3555C22.8044 57.7611 24.3162 57.075 25.7817 56.3005L25.6081 66.2563ZM26.5683 52.6184C26.5261 52.6409 26.4854 52.6657 26.4459 52.6926C22.7978 54.9041 18.8027 56.5021 14.5773 57.4216C16.1681 50.1141 19.7821 43.4926 25.1044 38.1703L55.5788 7.69587C59.1368 4.13795 64.1257 2.38563 69.0981 2.90144C69.6139 7.8733 67.861 12.8622 64.3031 16.4201L52.9597 27.7635C52.8306 27.7965 52.7054 27.8464 52.5878 27.9162L35.2997 38.1879C34.8735 38.4411 34.6114 38.9003 34.6114 39.3969V46.1112L33.8287 46.8945C31.6182 49.105 29.1831 51.0199 26.5683 52.6184ZM69.1876 46.6798C69.1876 56.8053 62.8249 65.7592 53.3058 69.1067C43.8279 65.7734 37.48 56.8822 37.4256 46.8099C37.4333 46.7226 37.4333 46.6342 37.4245 46.5468V40.1967L53.3063 30.7606L69.1876 40.1967V46.6798Z" fill="#0033A0"/>
<path d="M52.5877 34.4592L40.9246 41.3888C40.4984 41.642 40.2363 42.1013 40.2363 42.5979V46.6798C40.2363 54.9904 45.1445 62.5199 52.7393 65.8614C52.92 65.9405 53.1129 65.9806 53.3057 65.9806C53.4985 65.9806 53.6918 65.9405 53.872 65.8614C61.4674 62.5199 66.375 54.9904 66.375 46.6798V42.5979C66.375 42.1018 66.1135 41.642 65.6873 41.3888L54.0242 34.4592C53.5814 34.1961 53.0305 34.1961 52.5877 34.4592ZM63.5625 43.3977V46.6798C63.5625 53.6671 59.5574 60.0156 53.3057 63.0264C47.0544 60.0156 43.0488 53.6671 43.0488 46.6798V43.3977L53.3057 37.3035L63.5625 43.3977Z" fill="#00AEC7"/>
<path d="M51.5726 49.1265C51.0233 48.5777 50.1334 48.5777 49.5841 49.1265C49.0348 49.6758 49.0348 50.5662 49.5841 51.1156L51.8742 53.4057C52.1489 53.6803 52.5087 53.8176 52.8685 53.8176C53.2288 53.8176 53.5886 53.6803 53.8633 53.4057L59.4355 47.8334C59.9849 47.2841 59.9849 46.3936 59.4355 45.8443C58.8862 45.2955 57.9963 45.2955 57.447 45.8443L52.8685 50.4229L51.5726 49.1265Z" fill="#0033A0"/>
<path d="M48.8135 24.5918C49.1738 24.5918 49.5336 24.4545 49.8083 24.1798L62.6398 11.3478C63.1891 10.7985 63.1891 9.90802 62.6398 9.35925C62.0905 8.80994 61.2006 8.80994 60.6512 9.35925L47.8192 22.1907C47.2699 22.7401 47.2699 23.6305 47.8192 24.1798C48.0939 24.4545 48.4537 24.5918 48.8135 24.5918Z" fill="#00AEC7"/>
<path d="M44.8357 28.5693C45.2054 28.5693 45.5679 28.4188 45.8311 28.1573C46.0925 27.8948 46.243 27.5333 46.243 27.1631C46.243 26.7923 46.0925 26.4308 45.8311 26.1688C45.5679 25.9062 45.207 25.7568 44.8357 25.7568C44.4655 25.7568 44.1029 25.9062 43.8414 26.1688C43.58 26.4292 43.4294 26.7923 43.4294 27.1631C43.4294 27.5333 43.5794 27.8959 43.8414 28.1573C44.104 28.4188 44.4655 28.5693 44.8357 28.5693Z" fill="#00AEC7"/>
</svg>
