<svg width="72" height="73" viewBox="0 0 72 73" fill="none" xmlns="http://www.w3.org/2000/svg">
<g clip-path="url(#clip0_818_7930)">
<path d="M39.3722 12.9083H31.0255V3.10938H32.7835C33.366 3.10938 33.8383 2.63716 33.8383 2.05469C33.8383 1.47222 33.366 1 32.7835 1H11.5165C10.934 1 10.4617 1.47222 10.4617 2.05469C10.4617 2.63716 10.9339 3.10938 11.5165 3.10938H13.2744V12.9083H4.92778C2.21048 12.9083 0 15.1186 0 17.8356V63.5278C0 66.0042 1.83642 68.0597 4.21903 68.4042V69.8359C4.21903 71.5807 5.6385 73 7.38338 73C9.12825 73 10.5477 71.5807 10.5477 69.8359V68.4551H33.7524V69.8359C33.7524 71.5807 35.1719 73 36.9167 73C38.6615 73 40.0811 71.5807 40.0811 69.8359V68.4042C42.4637 68.0596 44.3001 66.0042 44.3001 63.5278V25.8646C44.3001 25.2821 43.8279 24.8099 43.2453 24.8099C42.6627 24.8099 42.1905 25.2821 42.1905 25.8646V63.5278C42.1905 65.0817 40.9262 66.3458 39.3723 66.3458H4.92778C3.37387 66.3458 2.10966 65.0817 2.10966 63.5278V17.8356C2.10966 16.2817 3.37387 15.0176 4.92778 15.0176H39.3722C40.9262 15.0176 42.1903 16.2817 42.1903 17.8356V20.9273C42.1903 21.5097 42.6625 21.982 43.2451 21.982C43.8278 21.982 44.3001 21.5097 44.3001 20.9273V17.8356C44.3001 15.1186 42.0893 12.9083 39.3722 12.9083ZM37.9713 68.4551V69.8359C37.9713 70.4176 37.4981 70.8906 36.9165 70.8906C36.3348 70.8906 35.8616 70.4176 35.8616 69.8359V68.4551H37.9713ZM8.43806 68.4551V69.8359C8.43806 70.4176 7.96486 70.8906 7.38323 70.8906C6.80161 70.8906 6.32855 70.4176 6.32855 69.8359V68.4551H8.43806ZM15.384 3.10938H28.916V12.9083H15.384V3.10938Z" fill="#0033A0"/>
<path d="M14.3128 64.2363H39.0261C39.6087 64.2363 40.0809 63.7641 40.0809 63.1816V39.6973C40.0809 39.1148 39.6087 38.6426 39.0261 38.6426H5.27382C4.69135 38.6426 4.21899 39.1148 4.21899 39.6973V63.1816C4.21899 63.7641 4.69121 64.2363 5.27382 64.2363H9.49285C10.0753 64.2363 10.5477 63.7641 10.5477 63.1816C10.5477 62.5992 10.0755 62.127 9.49285 62.127H6.32851V40.752H37.9712V62.127H14.3128C13.7303 62.127 13.2579 62.5992 13.2579 63.1816C13.2579 63.7641 13.7303 64.2363 14.3128 64.2363Z" fill="#00AEC7"/>
<path d="M31.4319 49.3998C32.0143 49.3998 32.4867 48.9275 32.4867 48.3451V44.9193H34.8071C35.3898 44.9193 35.862 44.4471 35.862 43.8646C35.862 43.2822 35.3898 42.8099 34.8071 42.8099H9.49282C8.91035 42.8099 8.43799 43.2822 8.43799 43.8646C8.43799 44.4471 8.91021 44.9193 9.49282 44.9193H30.377V48.3451C30.377 48.9275 30.8493 49.3998 31.4319 49.3998Z" fill="#0033A0"/>
<path d="M29.1815 29.7732C29.764 29.7732 30.2364 29.301 30.2364 28.7185V24.4998C30.2364 23.9173 29.7642 23.4451 29.1815 23.4451H15.1181C14.5356 23.4451 14.0632 23.9173 14.0632 24.4998V28.7185C14.0632 29.301 14.5355 29.7732 15.1181 29.7732H29.1815ZM16.1729 25.5544H28.1269V27.6638H16.1729V25.5544Z" fill="#0033A0"/>
<path d="M67.0722 33.9577H58.6887V29.9452C58.6887 28.0953 57.1836 26.5903 55.3336 26.5903H47.3946C46.812 26.5903 46.3396 27.0626 46.3396 27.645C46.3396 28.2275 46.812 28.6997 47.3946 28.6997H55.3336C56.0204 28.6997 56.5792 29.2585 56.5792 29.9452V33.9577H47.3946C46.812 33.9577 46.3396 34.4299 46.3396 35.0124C46.3396 35.5948 46.812 36.067 47.3946 36.067H56.5792V38.1756L54.3497 40.4465C54.1562 40.6437 54.0477 40.909 54.0477 41.1854V47.6541C54.0477 48.2366 54.5199 48.7088 55.1025 48.7088H60.1654C60.748 48.7088 61.2203 48.2366 61.2203 47.6541V41.1854C61.2203 40.909 61.1117 40.6437 60.9182 40.4465L58.6887 38.1756V36.067H67.0722C68.6263 36.067 69.8905 37.3311 69.8905 38.885V55.5061H66.3022C65.7196 55.5061 65.2473 55.9783 65.2473 56.5608C65.2473 57.1432 65.7196 57.6154 66.3022 57.6154H69.8905V60.3948H47.3944C46.8118 60.3948 46.3396 60.867 46.3396 61.4494C46.3396 62.0319 46.8118 62.5041 47.3944 62.5041H69.8905V63.5279C69.8905 65.0818 68.6261 66.3459 67.0722 66.3459H47.3944C46.8118 66.3459 46.3396 66.8181 46.3396 67.4006C46.3396 67.983 46.8118 68.4552 47.3944 68.4552H61.7984V69.836C61.7984 71.5808 63.2178 73.0001 64.9627 73.0001C66.7076 73.0001 68.1271 71.5808 68.1271 69.836V68.3416C70.3391 67.8573 72 65.8828 72 63.5277V38.885C72 36.168 69.7894 33.9577 67.0722 33.9577ZM59.1105 46.5994H56.1572V41.6165L57.6339 40.1124L59.1106 41.6165V46.5994H59.1105ZM66.0174 69.8359C66.0174 70.4175 65.5442 70.8906 64.9626 70.8906C64.3809 70.8906 63.9077 70.4175 63.9077 69.8359V68.4551H66.0173V69.8359H66.0174Z" fill="#0033A0"/>
<path d="M67.1652 3.94702C63.2361 0.0178728 56.8763 0.0174501 52.9468 3.94702C49.0177 7.87602 49.0171 14.2359 52.9468 18.1654L59.5247 24.7433C59.8181 25.0368 60.2939 25.0368 60.5874 24.7433L67.1652 18.1654C71.0942 14.2364 71.0949 7.87663 67.1652 3.94702ZM66.1025 17.1028L60.056 23.1493L54.0095 17.1028C50.6755 13.7687 50.6755 8.34381 54.0095 5.00978C57.3436 1.6758 62.7683 1.6757 66.1025 5.00978C69.4365 8.34376 69.4365 13.7687 66.1025 17.1028Z" fill="#00AEC7" stroke="#00AEC7" stroke-width="0.5"/>
<path d="M60.056 6.56177C57.572 6.56177 55.5615 8.57185 55.5615 11.0562C55.5615 13.5401 57.5717 15.5506 60.056 15.5506C62.54 15.5506 64.5505 13.5405 64.5505 11.0562C64.5505 8.57227 62.5404 6.56177 60.056 6.56177ZM62.1713 13.1715C62.1425 13.1715 61.4342 14.0477 60.056 14.0477C58.4026 14.0477 57.0645 12.7098 57.0645 11.0562C57.0645 9.40288 58.4024 8.0647 60.056 8.0647C62.7418 8.0647 64.0327 11.3102 62.1713 13.1715Z" fill="#00AEC7" stroke="#00AEC7" stroke-width="0.5"/>
<path d="M47.3944 57.6155H61.428C62.0106 57.6155 62.4828 57.1433 62.4828 56.5608C62.4828 55.9783 62.0106 55.5061 61.428 55.5061H47.3944C46.8118 55.5061 46.3396 55.9783 46.3396 56.5608C46.3396 57.1433 46.8118 57.6155 47.3944 57.6155Z" fill="#00AEC7"/>
</g>
<defs>
<clipPath id="clip0_818_7930">
<rect width="72" height="73" fill="white"/>
</clipPath>
</defs>
</svg>
