<svg width="73" height="72" viewBox="0 0 73 72" fill="none" xmlns="http://www.w3.org/2000/svg">
<path d="M31.1851 18.6398C30.6662 19.1587 30.6662 20.002 31.1851 20.5209C31.7053 21.0398 32.5473 21.0398 33.0662 20.5209C33.5877 20.002 33.5877 19.1587 33.0662 18.6398C32.5473 18.1196 31.7053 18.1196 31.1851 18.6398Z" fill="#00AEC7"/>
<path d="M70.0657 45.6333L48.9894 28.2466C49.6173 26.7118 49.3099 24.8917 48.0631 23.645C47.7129 23.2947 47.3172 23.0197 46.893 22.8186L48.6015 21.1087C50.5501 21.6263 52.6232 21.0828 54.0568 19.6479C56.2596 17.4425 56.2596 13.8567 54.0568 11.6512L44.0674 1.65798C41.8645 -0.551361 38.2839 -0.553956 36.0772 1.65798C34.606 3.12914 34.1182 5.22561 34.619 7.11451L21.5589 20.1811C19.6817 19.6817 17.5891 20.1526 16.0998 21.6471C13.8969 23.8499 13.8969 27.437 16.0998 29.6412L26.0891 39.6357C28.292 41.8399 31.8752 41.8399 34.078 39.6357C35.1457 38.568 35.7334 37.1475 35.7334 35.6374C35.7334 35.1366 35.6685 34.6449 35.5427 34.1727L37.2461 32.4693C37.4511 32.8975 37.7287 33.2931 38.0751 33.6382C39.3075 34.8733 41.1134 35.1911 42.6455 34.5762L60.0893 55.62C60.1178 55.6538 60.1464 55.6849 60.1775 55.7173C62.9369 58.4806 67.4036 58.4806 70.1669 55.7173C72.9276 52.9566 72.9276 48.4861 70.1669 45.7241C70.1332 45.6916 70.0994 45.6618 70.0657 45.6333ZM38.0764 3.65585C39.1635 2.5661 40.9538 2.53756 42.0695 3.65585L52.0589 13.6504C53.1603 14.7531 53.1603 16.546 52.0589 17.6488C50.9575 18.7502 49.1659 18.7502 48.0657 17.6488L48.0528 17.6371L38.0608 7.63862C36.9749 6.5359 36.9814 4.74949 38.0764 3.65585ZM32.0801 37.6366C30.9774 38.7406 29.1897 38.7406 28.0857 37.6366L18.0963 27.6433C16.9962 26.5406 16.9962 24.7464 18.0989 23.6437C19.2003 22.5409 20.9881 22.5396 22.0908 23.6437L32.0801 33.6382C33.1829 34.7409 33.1829 36.5351 32.0801 37.6366ZM34.078 31.6404V31.6391L24.0899 21.6458L36.0772 9.65207L38.0751 11.6499L35.0783 14.6493C34.5269 15.202 34.5269 16.0959 35.0783 16.6485C35.6296 17.2012 36.5248 17.2012 37.0761 16.6485L40.0729 13.6504L46.0666 19.6466L42.1045 23.6112L42.0695 23.645L38.0751 27.6433L34.0793 31.6391L34.078 31.6404ZM40.0716 31.6404C39.5203 31.0877 39.5203 30.1951 40.0716 29.6425L40.0729 29.6412L44.0466 25.6649L44.0765 25.6351C44.6265 25.0928 45.5204 25.0967 46.0666 25.6428C46.5933 26.1696 46.6153 26.9985 46.1444 27.5538C46.1133 27.5862 46.0821 27.62 46.0536 27.655L42.0695 31.6404L42.0241 31.6819L42.0137 31.6922C41.4559 32.1943 40.6035 32.1723 40.0729 31.6404H40.0716ZM68.1677 53.7195C66.5227 55.3671 63.8736 55.3722 62.2195 53.7623L44.8717 32.8339L47.2393 30.4663L68.2118 47.7686C69.8244 49.4266 69.8114 52.0757 68.1677 53.7195ZM1.4037 72H35.1081C35.8839 72 36.4988 71.3617 36.4988 70.5742V66.297C36.4988 64.4379 35.339 62.8539 33.7044 62.2649V62.0184C33.7044 58.0888 30.5545 54.8909 26.682 54.8909H9.8298C5.95859 54.8909 2.8087 58.0888 2.8087 62.0197V62.2662C1.17408 62.8526 0 64.4379 0 66.2957V70.5742C0 71.3617 0.629201 72 1.4037 72ZM9.8298 57.7424H26.682C29.0042 57.7424 30.8957 59.6612 30.8957 62.0197H5.6174C5.6174 59.6612 7.5076 57.7424 9.8298 57.7424ZM2.79443 66.297C2.79443 65.5108 3.4392 64.8712 4.2124 64.8712H32.2994C33.0739 64.8712 33.7044 65.5108 33.7044 66.2983V69.1472H2.79443V66.2957V66.297Z" fill="#0033A0"/>
<path d="M1.38294 35.7383H7.74241C8.50523 35.7383 9.12406 35.1416 9.12406 34.4073C9.12406 33.673 8.50523 33.0762 7.74241 33.0762H1.38294C0.618822 33.0762 0 33.673 0 34.4073C0 35.1429 0.618822 35.7383 1.38294 35.7383ZM8.98654 28.8599C9.5405 29.4126 10.4382 29.4126 10.9909 28.8599C11.5449 28.306 11.5436 27.4082 10.9909 26.8556L6.98218 22.8469C6.42822 22.2929 5.53048 22.2929 4.97782 22.8469C4.42386 23.3995 4.42386 24.2973 4.97782 24.8512L8.98654 28.8599ZM8.98654 39.9546L4.97782 43.9634C4.42386 44.5173 4.42386 45.4151 4.97782 45.9677C5.53048 46.5217 6.42822 46.5217 6.98088 45.9677L10.9896 41.959C11.5449 41.4063 11.5449 40.5086 10.9896 39.9559C10.4382 39.402 9.5405 39.402 8.98654 39.9559V39.9546Z" fill="#00AEC7"/>
</svg>
