<svg width="72" height="72" viewBox="0 0 72 72" fill="none" xmlns="http://www.w3.org/2000/svg">
<mask id="mask0_819_8019" style="mask-type:alpha" maskUnits="userSpaceOnUse" x="0" y="0" width="72" height="72">
<path d="M72 0H0V72H72V0Z" fill="white"/>
</mask>
<g mask="url(#mask0_819_8019)">
<path d="M61.1582 25.0005C61.1575 25.0005 61.1566 25.0005 61.1558 25.0005H1.03055C0.462063 24.9999 0 25.4601 0 26.0286C0 26.0294 0 26.0303 0 26.031V54.8912C0 55.4596 0.459658 55.9211 1.02814 55.9217C1.02889 55.9217 1.0298 55.9217 1.03055 55.9217H41.9157C42.4848 55.9217 42.9463 55.4602 42.9463 54.8912C42.9463 54.3221 42.4848 53.8606 41.9157 53.8606H2.06109V27.0616H60.1253V29.6386C60.1247 30.207 60.5849 30.6685 61.1534 30.6691C61.1542 30.6691 61.1551 30.6691 61.1558 30.6691C61.7243 30.6697 62.1864 30.2094 62.1864 29.641C62.1864 29.6402 62.1864 29.6393 62.1864 29.6386V26.031C62.1864 25.4626 61.7267 25.0012 61.1582 25.0005Z" fill="#0033A0"/>
<path d="M54.1669 20.2156L6.06666 9.3931C5.7997 9.33343 5.51997 9.38183 5.28864 9.52778C5.0576 9.67494 4.89421 9.90747 4.83409 10.1747L2.42908 20.9973C2.30552 21.5531 2.65605 22.1039 3.21191 22.2274C3.76777 22.351 4.31851 22.0005 4.44207 21.4446L6.62221 11.631L53.7147 22.2262C53.7893 22.2435 53.8655 22.2521 53.942 22.2515C54.5111 22.2504 54.9716 21.7882 54.9707 21.2191C54.9698 20.738 54.6361 20.3216 54.1669 20.2156Z" fill="#0033A0"/>
<path d="M48.3263 14.2524L19.4662 2.22739C18.9646 2.0183 18.3866 2.2331 18.1434 2.71921L15.7384 7.52924C15.4668 8.03158 15.6538 8.65914 16.1563 8.93076C16.6586 9.20237 17.2862 9.01538 17.5578 8.51288C17.5685 8.49319 17.5786 8.47305 17.5879 8.45261V8.45501L19.5612 4.50599L47.5303 16.1595C48.0569 16.3792 48.6621 16.1306 48.8819 15.6039C49.1016 15.0775 48.853 14.4723 48.3263 14.2524Z" fill="#0033A0"/>
<path d="M49.0551 29.8104H39.5108C38.9417 29.8104 38.4802 30.2719 38.4802 30.841C38.4802 31.4101 38.9417 31.8715 39.5108 31.8715H49.0551C49.6241 31.8715 50.0856 31.4101 50.0856 30.841C50.0856 30.2719 49.6241 29.8104 49.0551 29.8104Z" fill="#00AEC7"/>
<path d="M29.8906 29.879C24.0463 29.879 19.3086 34.6167 19.3086 40.4611C19.3146 46.3028 24.0489 51.0371 29.8906 51.0431C35.735 51.0431 40.4727 46.3054 40.4727 40.4611C40.4727 34.6167 35.735 29.879 29.8906 29.879ZM29.8906 49.1191C25.1089 49.1191 21.2326 45.2428 21.2326 40.4611C21.2379 35.6816 25.1111 31.8083 29.8906 31.803C34.6724 31.803 38.5487 35.6793 38.5487 40.4611C38.5487 45.2428 34.6724 49.1191 29.8906 49.1191Z" fill="#00AEC7"/>
<path d="M58.7508 33.246C52.3775 33.246 45.5232 34.7515 45.5232 38.056V66.9161C45.5232 70.2206 52.3775 71.7261 58.7508 71.7261C65.124 71.7261 71.9783 70.2206 71.9783 66.9161V38.056C71.9783 34.7515 65.124 33.246 58.7508 33.246ZM69.5733 66.8981C69.3917 67.5655 65.7854 69.3211 58.7508 69.3211C51.7161 69.3211 48.1098 67.5655 47.9282 66.9161V65.0258C50.4871 66.3149 54.7139 66.9161 58.7508 66.9161C62.7876 66.9161 67.0156 66.3089 69.5733 65.0246V66.8981ZM69.5733 62.0881C69.3917 62.7555 65.7854 64.5111 58.7508 64.5111C51.7161 64.5111 48.1098 62.7554 47.9282 62.1061V60.2158C50.4871 61.5048 54.7139 62.1061 58.7508 62.1061C62.7876 62.1061 67.0156 61.4988 69.5733 60.2146V62.0881ZM69.5733 57.278C69.3917 57.9454 65.7854 59.7011 58.7508 59.7011C51.7161 59.7011 48.1098 57.9454 47.9282 57.2961V55.4057C50.4871 56.6948 54.7139 57.2961 58.7508 57.2961C62.7876 57.2961 67.0156 56.6888 69.5733 55.4045V57.278ZM69.5733 52.468C69.3917 53.1354 65.7854 54.8911 58.7508 54.8911C51.7161 54.8911 48.1098 53.1354 47.9282 52.4861V50.5957C50.4871 51.8848 54.7139 52.4861 58.7508 52.4861C62.7876 52.4861 67.0156 51.8788 69.5733 50.5945V52.468ZM69.5733 47.658C69.3917 48.3254 65.7854 50.081 58.7508 50.081C51.7161 50.081 48.1098 48.3254 47.9282 47.676V45.7857C50.4871 47.0688 54.7139 47.676 58.7508 47.676C62.7876 47.676 67.0156 47.0688 69.5733 45.7845V47.658ZM69.5733 42.848C69.3917 43.5154 65.7854 45.271 58.7508 45.271C51.7161 45.271 48.1098 43.5154 47.9282 42.866V40.9757C50.4871 42.2587 54.7139 42.866 58.7508 42.866C62.7876 42.866 67.0156 42.2587 69.5733 40.9745V42.848ZM58.7508 40.461C51.7269 40.461 48.1218 38.7102 47.9282 38.0776V38.0704C48.1218 37.4006 51.7269 35.651 58.7508 35.651C65.7253 35.651 69.3328 37.3754 69.5733 38.056C69.3328 38.7366 65.7253 40.461 58.7508 40.461Z" fill="#0033A0"/>
<path d="M20.2707 49.0493H11.1809L6.87114 44.3355V36.5192L11.6307 31.8715H20.2707C20.8397 31.8715 21.3012 31.4101 21.3012 30.841C21.3012 30.2719 20.8397 29.8104 20.2707 29.8104H11.2122C10.9428 29.8098 10.6838 29.9147 10.4907 30.1026L5.11909 35.342C4.91842 35.5764 4.80839 35.8751 4.80884 36.1837V44.7359C4.80884 44.9931 4.90489 45.241 5.0782 45.431L9.96398 50.7749C10.1592 50.9886 10.4355 51.1104 10.7252 51.1104H20.2707C20.8397 51.1104 21.3012 50.6489 21.3012 50.0799C21.3012 49.5108 20.8399 49.0493 20.2707 49.0493Z" fill="#00AEC7"/>
<path d="M30.492 39.2586H29.2895C28.9155 39.2586 28.6882 39.0493 28.6882 38.9579C28.6882 38.8666 28.9155 38.6573 29.2895 38.6573H32.2957C32.9598 38.6573 33.4982 38.1189 33.4982 37.4548C33.4982 36.7907 32.9598 36.2523 32.2957 36.2523H31.0932C31.0932 35.5882 30.5548 35.0498 29.8907 35.0498C29.2266 35.0498 28.6882 35.5882 28.6882 36.2523V36.3064C27.3545 36.4948 26.3441 37.6063 26.2832 38.9519C26.3693 40.5286 27.7122 41.7399 29.2895 41.6636H30.492C30.8659 41.6636 31.0932 41.8728 31.0932 41.9642C31.0932 42.0556 30.8659 42.2648 30.492 42.2648H27.4857C26.8216 42.2648 26.2832 42.8033 26.2832 43.4673C26.2832 44.1314 26.8216 44.6698 27.4857 44.6698H28.6882C28.6882 45.3339 29.2266 45.8724 29.8907 45.8724C30.5548 45.8724 31.0932 45.3339 31.0932 44.6698V44.6157C32.427 44.4274 33.4374 43.3158 33.4982 41.9702C33.4121 40.3936 32.0692 39.1822 30.492 39.2586Z" fill="#0033A0"/>
</g>
</svg>
