<svg width="72" height="72" viewBox="0 0 72 72" fill="none" xmlns="http://www.w3.org/2000/svg">
<path d="M57.2374 27.6584V21.1599C57.2374 9.72578 47.8887 0.423584 36.3974 0.423584C24.906 0.423584 15.5573 9.72578 15.5573 21.1599V27.6584C12.3901 28.3005 10 31.0934 10 34.4312V42.2791C10 43.0427 10.6219 43.6616 11.3893 43.6616C12.1567 43.6616 12.7787 43.0427 12.7787 42.2791V34.4312C12.7787 32.1442 14.6483 30.2839 16.9467 30.2839H55.848C58.1464 30.2839 60.0161 32.1442 60.0161 34.4312V64.2915C60.0161 66.0935 58.8547 67.6304 57.2374 68.2012V59.8678C57.2374 59.1042 56.6154 58.4853 55.848 58.4853C55.0807 58.4853 54.4587 59.1042 54.4587 59.8678V68.4388H16.9467C14.6483 68.4388 12.7787 66.5784 12.7787 64.2915V53.3704C12.7787 52.6068 12.1567 51.9879 11.3893 51.9879C10.6219 51.9879 10 52.6068 10 53.3704V64.2915C10 68.1029 13.1162 71.2036 16.9467 71.2036H55.848C59.6785 71.2036 62.7947 68.1029 62.7947 64.2915V34.4312C62.7947 31.0934 60.4046 28.3005 57.2374 27.6584ZM25.8384 27.5191V21.1599C25.8384 15.3667 30.5752 10.6535 36.3974 10.6535C42.2195 10.6535 46.9563 15.3667 46.9563 21.1599V27.5191H25.8384ZM49.735 27.5191V21.1599C49.735 13.8423 43.7516 7.88867 36.3974 7.88867C29.0431 7.88867 23.0597 13.8423 23.0597 21.1599V27.5191H18.336V21.1599C18.336 11.2502 26.4381 3.18843 36.3974 3.18843C46.3566 3.18843 54.4587 11.2502 54.4587 21.1599V27.5191H49.735Z" fill="#0033A0"/>
<path d="M11.3893 49.1524C11.7546 49.1524 12.1133 49.005 12.3716 48.7474C12.63 48.4904 12.7787 48.134 12.7787 47.77C12.7787 47.4066 12.63 47.0496 12.3716 46.7931C12.1133 46.5355 11.7546 46.3876 11.3893 46.3876C11.0241 46.3876 10.6654 46.5355 10.407 46.7931C10.1487 47.0496 10 47.4066 10 47.77C10 48.134 10.1487 48.4904 10.407 48.7474C10.6654 49.005 11.0241 49.1524 11.3893 49.1524Z" fill="#0033A0"/>
<path d="M36.3973 63.7385C38.6957 63.7385 40.5653 61.8782 40.5653 59.5912V52.2504C42.6526 50.8755 43.9177 48.5642 43.9177 46.0316C43.9177 41.9157 40.5518 38.5665 36.4152 38.5665C32.2782 38.5665 28.9128 41.9157 28.9128 46.0316C28.9128 48.5459 30.1638 50.8485 32.2293 52.2266V59.5912C32.2293 61.8782 34.099 63.7385 36.3973 63.7385ZM31.6915 46.0316C31.6915 43.4396 33.8102 41.3314 36.4152 41.3314C39.0197 41.3314 41.139 43.4396 41.139 46.0316C41.139 47.8115 40.1458 49.418 38.5476 50.2253C38.0808 50.4608 37.7867 50.937 37.7867 51.4582V59.5912C37.7867 60.3537 37.1636 60.9737 36.3973 60.9737C35.631 60.9737 35.008 60.3537 35.008 59.5912V51.4398C35.008 50.9225 34.7177 50.4483 34.2553 50.2113C32.6738 49.4002 31.6915 47.7985 31.6915 46.0316Z" fill="#00AEC7"/>
<path d="M55.8481 55.5822C56.2149 55.5822 56.572 55.4343 56.8304 55.1772C57.0887 54.9202 57.2374 54.5649 57.2374 54.1998C57.2374 53.8348 57.0887 53.4794 56.8304 53.2224C56.572 52.9653 56.2149 52.8174 55.8481 52.8174C55.4828 52.8174 55.1241 52.9653 54.8658 53.2224C54.6074 53.4794 54.4587 53.8364 54.4587 54.1998C54.4587 54.5632 54.6074 54.9202 54.8658 55.1772C55.1241 55.4343 55.4828 55.5822 55.8481 55.5822Z" fill="#0033A0"/>
</svg>
