<svg width="72" height="64" viewBox="0 0 72 64" fill="none" xmlns="http://www.w3.org/2000/svg">
<g clip-path="url(#clip0_822_1210)">
<path d="M-0.000168931 18.5828C0.326611 17.0123 0.505495 15.3911 1.00552 13.8769C3.34932 6.77789 8.04819 2.01282 15.4514 0.495834C23.297 -1.1268 29.91 1.26771 35.0188 7.53287C35.3287 7.91458 35.6174 8.31179 35.9879 8.80055C36.2329 8.48081 36.4527 8.19769 36.6682 7.90895C39.8909 3.59179 44.1559 0.943747 49.4929 0.21131C57.6088 -0.908474 65.1952 3.06077 69.0391 10.2922C70.9758 13.9347 71.89 17.8236 71.9886 21.9464C72.1393 28.1566 70.8195 33.9753 67.6024 39.3235C65.2873 43.1997 62.1298 46.5055 58.3638 48.9959C51.2479 53.721 44.1292 58.4424 37.0076 63.1601C36.2794 63.6446 35.685 63.6291 34.9568 63.1502C28.0184 58.5809 21.0546 54.0483 14.1105 49.4874C6.41054 44.4233 1.81496 37.3421 0.323794 28.2439C0.18294 27.42 0.104063 26.5861 -0.00439453 25.7565L-0.000168931 18.5828ZM45.5729 54.5441C45.8546 54.3821 46.0321 54.2905 46.1997 54.1793C49.768 51.8158 53.3391 49.4508 56.913 47.0845C60.4086 44.7845 63.3445 41.7307 65.5051 38.1473C68.5292 33.1527 69.7391 27.7101 69.5898 21.9069C69.4912 18.1912 68.663 14.6826 66.9136 11.4007C61.7753 1.76774 49.3661 -0.602823 41.1656 6.57366C39.6162 7.92726 38.4415 9.70905 37.1189 11.3134C36.3611 12.2317 35.5949 12.2599 34.8737 11.3232C34.1892 10.4316 33.5581 9.49214 32.8313 8.64702C28.3536 3.38896 22.6307 1.40011 15.9557 2.834C8.68766 4.39465 4.51981 9.25973 2.8169 16.3587C2.20559 18.8941 2.35631 21.4844 2.41687 24.0536C2.61548 32.678 6.02976 39.8066 12.5992 45.4097C13.1964 45.9196 13.8457 46.3675 14.4993 46.8676L15.6993 45.0576C15.443 44.852 15.2106 44.6618 14.9739 44.4773C12.5879 42.6265 10.5638 40.4249 8.73274 38.0304C8.10031 37.2022 8.45103 36.0838 9.39898 36.0486C9.81308 36.0345 10.3469 36.3106 10.6427 36.6261C11.8132 37.8685 12.8654 39.2235 14.05 40.4517C14.9528 41.387 15.9881 42.1941 17.0079 43.0927C17.9389 41.7011 18.7587 40.3925 19.6672 39.1488C20.1985 38.4401 20.4597 37.5651 20.4038 36.6811C20.3433 35.0232 20.332 33.3668 20.8842 31.7512C21.5363 29.8454 22.9124 28.4637 24.1463 26.9706C24.5083 26.5326 24.9914 26.234 25.4887 26.4861C25.9006 26.715 26.2176 27.0829 26.3831 27.5242C26.7141 28.4947 26.9014 29.5144 27.1493 30.5117C27.3592 31.3568 27.9564 31.5117 28.6043 30.8807C29.2255 30.2765 29.772 29.575 30.4594 29.0637C32.0538 27.8777 32.7215 26.3692 32.382 24.4155C32.3708 24.2989 32.3708 24.1815 32.382 24.0648C32.4891 20.4674 33.7666 17.3672 36.3076 14.8009C37.0893 14.0121 38.0246 13.4431 39.1247 13.3276C40.3304 13.2008 41.5544 13.2388 42.7714 13.229C44.2024 13.2191 45.4124 13.767 46.4335 14.7586C46.9857 15.2981 47.5012 15.8855 48.0858 16.3827C48.3623 16.6078 48.6997 16.7451 49.0548 16.7771C49.8464 16.8348 50.6465 16.7771 51.4423 16.8024C52.3128 16.8292 52.7565 17.2517 52.7734 18.1011C52.7959 19.1772 52.817 20.2576 52.748 21.3309C52.6815 22.3705 52.2242 23.3466 51.4678 24.063C50.7114 24.7794 49.712 25.1831 48.6703 25.1931C48.0689 25.2071 47.466 25.1931 46.8026 25.1931C46.8026 25.5269 46.8139 25.7804 46.8026 26.0382C46.5758 30.1553 47.2026 34.2077 47.7238 38.2685C48.0435 40.7616 48.0449 43.3153 46.6392 45.4886C45.6729 46.9788 45.5124 48.4761 45.5743 50.1227C45.618 51.2692 45.5828 52.4186 45.5828 53.5652L45.5729 54.5441ZM29.0156 56.3752C28.9438 55.547 28.9058 54.7047 28.7903 53.8722C28.5297 51.996 29.072 50.3959 30.2833 48.955C30.9876 48.1198 31.22 47.0943 31.2003 45.9971C31.1763 44.7083 31.1862 43.4195 31.2003 42.1321C31.2003 41.287 31.5961 40.8743 32.406 40.7855C34.1863 40.5911 35.2484 39.0277 34.761 37.2853C34.7226 37.2089 34.6689 37.1413 34.6032 37.0865C34.5376 37.0317 34.4614 36.9911 34.3793 36.967C33.094 36.5642 31.9826 35.7387 31.2256 34.6246C30.7326 33.9203 30.0396 33.5936 29.1804 33.5992C28.3212 33.6048 27.4902 33.6062 26.6451 33.5992C25.7464 33.5907 25.3844 33.3006 25.1576 32.4259C24.9717 31.7132 24.79 30.9976 24.5844 30.1934C23.6505 31.1906 23.0463 32.2583 22.9265 33.4893C22.7857 34.9514 22.8561 36.4346 22.7575 37.9037C22.7305 38.4528 22.57 38.987 22.2899 39.4601C20.5334 42.1701 18.7235 44.8463 16.9374 47.5338C16.7966 47.738 16.6712 47.9479 16.5149 48.1902L29.0156 56.3752ZM31.196 54.6962C32.1299 53.7553 32.9243 52.9693 33.7004 52.1608C34.1413 51.7031 34.6244 51.42 35.2582 51.6932C35.8611 51.9524 35.9935 52.4735 35.9907 53.082C35.978 55.4765 35.9907 57.8598 35.9907 60.2472C35.9907 60.4402 36.0188 60.6332 36.04 60.8966C36.7062 60.4585 37.2767 60.0514 37.8809 59.6979C38.2767 59.4683 38.3993 59.1866 38.395 58.7331C38.3725 56.0878 38.395 53.4412 38.3739 50.796C38.3739 50.0917 38.5908 49.5973 39.1641 49.1874C40.3247 48.3578 41.4178 47.4366 42.6052 46.6366C44.1545 45.5914 44.9264 44.0843 45.2574 42.3405C45.8208 39.4009 44.9954 36.5402 44.7067 33.5921C44.3813 33.5921 44.1264 33.5992 43.8728 33.5921C41.6727 33.5147 39.5585 33.0639 37.5682 32.1033C36.1991 31.4427 34.8469 30.7469 33.4736 30.0948C33.2905 30.0074 32.9539 29.9877 32.8158 30.0948C32.2707 30.5272 31.7778 31.0244 31.3059 31.4582C31.9566 32.0498 32.5933 32.4822 33.0342 33.0639C33.8018 34.0753 34.6906 34.7443 36.0048 34.7936C36.6273 34.8162 37.1316 35.1683 37.1429 35.8204C37.171 37.0332 37.2485 38.2769 37.0302 39.4559C36.6851 41.3109 35.4075 42.456 33.5948 43.0547V43.7589C33.5948 44.5308 33.5722 45.3083 33.5948 46.0774C33.6581 47.9296 32.9116 49.4804 31.8679 50.9411C31.5862 51.3284 31.2904 51.7721 31.2242 52.2214C31.12 52.9609 31.1988 53.7187 31.1988 54.6962H31.196ZM50.3634 19.1927C49.6295 19.1927 48.9985 19.1659 48.3717 19.1997C48.0804 19.2222 47.788 19.175 47.5186 19.0621C47.2492 18.9492 47.0105 18.7738 46.8223 18.5504C46.1687 17.8461 45.4701 17.187 44.7912 16.508C44.5172 16.2181 44.1855 15.9887 43.8175 15.8346C43.4495 15.6806 43.0533 15.6053 42.6544 15.6136C41.8093 15.6249 40.9642 15.6136 40.1261 15.6136C39.7153 15.6101 39.3083 15.6922 38.9309 15.8547C38.5536 16.0171 38.2142 16.2565 37.9345 16.5573C36.7831 17.7322 35.9087 19.1494 35.3751 20.7055C34.7272 22.5535 34.7371 24.4494 34.8202 26.3523C37.4175 26.6086 37.2147 26.0706 37.1922 24.3508C37.1922 24.2099 37.1922 24.069 37.1922 23.9282V21.6506H39.5965C39.5965 21.9323 39.5965 22.1647 39.5965 22.3943C39.5824 23.5634 39.6346 24.7395 39.5317 25.9016C39.4036 27.3467 38.4049 28.3707 36.9795 28.7186C36.8294 28.7629 36.6818 28.8151 36.5372 28.875C39.2303 30.5004 42.7474 31.4892 44.3968 31.0765V30.33C44.3968 28.2932 44.3968 26.2565 44.3968 24.2198C44.3968 23.2267 44.8194 22.8112 45.8053 22.7957C46.7195 22.7859 47.6364 22.8098 48.5449 22.7957C49.6013 22.769 50.3042 22.0915 50.3591 21.0435C50.3887 20.4618 50.3634 19.8787 50.3634 19.1927ZM43.1798 49.2353C42.9629 49.3762 42.8742 49.448 42.7756 49.4973C41.1628 50.3016 40.5121 51.5284 40.7487 53.3736C40.9276 54.7638 40.7839 56.1907 40.7839 57.764C41.6051 57.2203 42.3051 56.778 42.9869 56.2963C43.0438 56.244 43.0895 56.1808 43.1212 56.1103C43.1529 56.0398 43.17 55.9637 43.1714 55.8864C43.177 53.713 43.1742 51.5411 43.1742 49.2353H43.1798ZM33.561 55.8371C32.5623 56.3836 32.0933 57.1963 32.42 58.2499C32.5609 58.6725 33.0623 58.9894 33.406 59.3542L33.568 59.2303L33.561 55.8371Z" fill="#0033A0"/>
<path d="M63.7304 37.1345C63.5272 37.5164 63.3048 37.8878 63.0642 38.2473C60.0915 42.2143 56.2843 45.4806 51.9114 47.8155C51.3142 48.1366 50.7324 48.4845 50.1423 48.8197C49.2366 49.3353 48.507 49.2423 48.1379 48.5592C47.7689 47.876 48.0605 47.2633 48.9295 46.7464C50.6986 45.6956 52.503 44.6984 54.2115 43.556C56.8384 41.7968 59.0231 39.5488 60.9584 37.0543C61.1725 36.7726 61.3683 36.4134 61.6627 36.288C62.0303 36.1289 62.5416 36.0288 62.8867 36.1669C63.2318 36.3049 63.4276 36.7627 63.7304 37.1345Z" fill="#00AEC7"/>
<path d="M4.80281 25.9988C4.78448 25.6953 4.78448 25.3909 4.80281 25.0874C4.83005 24.7799 4.97767 24.4957 5.21351 24.2965C5.44935 24.0973 5.75432 23.9994 6.06203 24.024C6.69024 24.0578 7.16492 24.4916 7.16632 25.1579C7.17309 27.477 7.55944 29.7794 8.31005 31.9738C8.55655 32.702 8.2185 33.3217 7.54522 33.54C6.92265 33.7415 6.30994 33.4274 6.05499 32.7231C5.27678 30.5641 4.8539 28.2932 4.80281 25.9988Z" fill="#00AEC7"/>
<path d="M67.1869 25.924C67.1322 28.1899 66.7245 30.4335 65.9784 32.5737C65.6769 33.4188 65.0811 33.7766 64.3909 33.5273C63.7008 33.278 63.4233 32.6441 63.7163 31.7962C64.4232 29.7346 64.7867 27.571 64.7924 25.3916C64.7924 24.5338 65.2361 24.0338 65.9558 24.0211C66.7052 24.0084 67.1658 24.531 67.1841 25.4141C67.1869 25.6254 67.1869 25.8353 67.1869 25.924Z" fill="#00AEC7"/>
<path d="M67.2236 19.7899C67.1771 20.1335 67.1813 20.4941 67.0743 20.8181C66.8771 21.4083 66.4066 21.6407 65.8066 21.5632C65.5457 21.5459 65.3002 21.4333 65.1168 21.2469C64.9335 21.0604 64.8251 20.8131 64.8122 20.5519C64.7744 20.1096 64.7697 19.6652 64.7981 19.2222C64.8263 18.518 65.2671 18.0531 65.9108 18.0193C66.5545 17.9855 67.1024 18.4419 67.1785 19.1546C67.1898 19.3643 67.1898 19.5745 67.1785 19.7842L67.2236 19.7899Z" fill="#00AEC7"/>
<path d="M29.9412 36.0444V38.3418H27.6284V36.0444H29.9412Z" fill="#0033A0"/>
<path d="M40.8149 20.3646V18.0673H43.1263V20.3646H40.8149Z" fill="#0033A0"/>
</g>
<defs>
<clipPath id="clip0_822_1210">
<rect width="72" height="63.5164" fill="white"/>
</clipPath>
</defs>
</svg>
