<svg width="97" height="116" viewBox="0 0 97 116" fill="none" xmlns="http://www.w3.org/2000/svg">
<path opacity="0.4" fill-rule="evenodd" clip-rule="evenodd" d="M-44 16C-39.5817 16 -36 12.4183 -36 8C-36 3.58172 -39.5817 0 -44 0C-48.4183 0 -52 3.58172 -52 8C-52 12.4183 -48.4183 16 -44 16ZM-44 83C-39.5817 83 -36 79.4183 -36 75C-36 70.5817 -39.5817 67 -44 67C-48.4183 67 -52 70.5817 -52 75C-52 79.4183 -48.4183 83 -44 83ZM-36 41C-36 45.4183 -39.5817 49 -44 49C-48.4183 49 -52 45.4183 -52 41C-52 36.5817 -48.4183 33 -44 33C-39.5817 33 -36 36.5817 -36 41ZM-44 116C-39.5817 116 -36 112.418 -36 108C-36 103.582 -39.5817 100 -44 100C-48.4183 100 -52 103.582 -52 108C-52 112.418 -48.4183 116 -44 116ZM-3 8C-3 12.4183 -6.58172 16 -11 16C-15.4183 16 -19 12.4183 -19 8C-19 3.58172 -15.4183 0 -11 0C-6.58172 0 -3 3.58172 -3 8ZM-11 83C-6.58172 83 -3 79.4183 -3 75C-3 70.5817 -6.58172 67 -11 67C-15.4183 67 -19 70.5817 -19 75C-19 79.4183 -15.4183 83 -11 83ZM-3 41C-3 45.4183 -6.58172 49 -11 49C-15.4183 49 -19 45.4183 -19 41C-19 36.5817 -15.4183 33 -11 33C-6.58172 33 -3 36.5817 -3 41ZM-11 116C-6.58172 116 -3 112.418 -3 108C-3 103.582 -6.58172 100 -11 100C-15.4183 100 -19 103.582 -19 108C-19 112.418 -15.4183 116 -11 116ZM31 8C31 12.4183 27.4183 16 23 16C18.5817 16 15 12.4183 15 8C15 3.58172 18.5817 0 23 0C27.4183 0 31 3.58172 31 8ZM23 83C27.4183 83 31 79.4183 31 75C31 70.5817 27.4183 67 23 67C18.5817 67 15 70.5817 15 75C15 79.4183 18.5817 83 23 83ZM31 41C31 45.4183 27.4183 49 23 49C18.5817 49 15 45.4183 15 41C15 36.5817 18.5817 33 23 33C27.4183 33 31 36.5817 31 41ZM23 116C27.4183 116 31 112.418 31 108C31 103.582 27.4183 100 23 100C18.5817 100 15 103.582 15 108C15 112.418 18.5817 116 23 116ZM64 8C64 12.4183 60.4183 16 56 16C51.5817 16 48 12.4183 48 8C48 3.58172 51.5817 0 56 0C60.4183 0 64 3.58172 64 8ZM56 83C60.4183 83 64 79.4183 64 75C64 70.5817 60.4183 67 56 67C51.5817 67 48 70.5817 48 75C48 79.4183 51.5817 83 56 83ZM64 41C64 45.4183 60.4183 49 56 49C51.5817 49 48 45.4183 48 41C48 36.5817 51.5817 33 56 33C60.4183 33 64 36.5817 64 41ZM56 116C60.4183 116 64 112.418 64 108C64 103.582 60.4183 100 56 100C51.5817 100 48 103.582 48 108C48 112.418 51.5817 116 56 116ZM97 8C97 12.4183 93.4183 16 89 16C84.5817 16 81 12.4183 81 8C81 3.58172 84.5817 0 89 0C93.4183 0 97 3.58172 97 8ZM89 83C93.4183 83 97 79.4183 97 75C97 70.5817 93.4183 67 89 67C84.5817 67 81 70.5817 81 75C81 79.4183 84.5817 83 89 83ZM97 41C97 45.4183 93.4183 49 89 49C84.5817 49 81 45.4183 81 41C81 36.5817 84.5817 33 89 33C93.4183 33 97 36.5817 97 41ZM89 116C93.4183 116 97 112.418 97 108C97 103.582 93.4183 100 89 100C84.5817 100 81 103.582 81 108C81 112.418 84.5817 116 89 116Z" fill="#00AEC7"/>
</svg>
