<svg width="72" height="72" viewBox="0 0 72 72" fill="none" xmlns="http://www.w3.org/2000/svg">
<mask id="mask0_806_726" style="mask-type:alpha" maskUnits="userSpaceOnUse" x="0" y="0" width="72" height="72">
<rect width="72" height="72" fill="white"/>
</mask>
<g mask="url(#mask0_806_726)">
<path d="M33.782 39.3658C33.591 39.5568 33.4821 39.8218 33.4821 40.0918C33.4821 40.363 33.591 40.6269 33.782 40.8179C33.9741 41.0098 34.238 41.1188 34.5081 41.1188C34.7792 41.1188 35.0431 41.0098 35.2352 40.8179C35.4262 40.6269 35.535 40.3619 35.535 40.0918C35.535 39.8218 35.4262 39.5578 35.2352 39.3658C35.0441 39.1749 34.7792 39.0659 34.5081 39.0659C34.238 39.0659 33.973 39.1748 33.782 39.3658Z" fill="#00AEC7"/>
<path fill-rule="evenodd" clip-rule="evenodd" d="M51.8864 58.7432L51.9512 58.808C52.5871 59.444 52.7756 60.3918 52.4312 61.2228C52.0871 62.0537 51.2835 62.5906 50.3842 62.5906H43.4309C43.068 62.5906 42.732 62.3991 42.5471 62.0867L39.1006 56.2625L38.7852 56.4653C38.4779 56.6628 38.1438 56.7916 37.8018 56.8573C38.3983 58.3097 38.7282 59.8987 38.7282 61.5636C38.7282 62.1307 38.2684 62.5906 37.7012 62.5906C37.1341 62.5906 36.6743 62.1307 36.6743 61.5636C36.6743 59.0725 35.7915 56.784 34.3227 54.9937L29.9631 59.3532C30.3542 59.9988 30.5796 60.7553 30.5796 61.5635C30.5796 62.1306 30.1198 62.5905 29.5526 62.5905C28.9854 62.5905 28.5257 62.1306 28.5257 61.5635C28.5257 60.3366 27.5275 59.3383 26.3005 59.3383C25.0735 59.3383 24.0753 60.3366 24.0753 61.5635C24.0753 62.1306 23.6155 62.5905 23.0483 62.5905C22.4811 62.5905 22.0213 62.1306 22.0213 61.5635C22.0213 60.7553 22.2468 59.9988 22.6378 59.3532L18.2783 54.9936C16.8094 56.7839 15.9267 59.0724 15.9267 61.5635C15.9267 62.1306 15.4669 62.5905 14.8997 62.5905C14.3325 62.5905 13.8727 62.1306 13.8727 61.5635C13.8727 59.8986 14.2026 58.3096 14.7992 56.8572C14.4572 56.7915 14.123 56.6627 13.8157 56.4652L13.5004 56.2624L10.0538 62.0866C9.86894 62.399 9.53292 62.5905 9.16999 62.5905H2.21677C1.31746 62.5905 0.513973 62.0537 0.169737 61.2227C-0.174397 60.3918 0.0141526 59.4439 0.650045 58.808L0.714332 58.7437L3.40814 47.3593C3.96435 45.0084 5.31418 42.8883 7.20892 41.3895C9.10365 39.8907 11.4776 39.0654 13.8934 39.0654H21.1484V34.8231C18.9071 33.4189 17.2774 31.1258 16.757 28.4414H15.9584C14.033 28.4414 12.4667 26.8751 12.4667 24.9497V24.3959C12.4667 22.4705 14.033 20.9042 15.9584 20.9042H16.5791V19.7189C16.5791 14.3655 20.9344 10.0103 26.2877 10.0103C31.6411 10.0103 35.9964 14.3655 35.9964 19.7189V20.9041H36.6171C38.5424 20.9041 40.1087 22.4704 40.1087 24.3958V24.9496C40.1087 26.875 38.5424 28.4413 36.6171 28.4413H35.8185C35.2981 31.1257 33.6684 33.4188 31.427 34.823V40.0922C31.427 40.3646 31.3188 40.6257 31.1262 40.8184C29.8337 42.1108 28.1154 42.8226 26.2876 42.8226C24.6077 42.8226 23.0212 42.2199 21.7719 41.1192H13.8932C9.83156 41.1192 6.34175 43.8796 5.4066 47.8321L3.47911 55.9788L12.2317 47.2263C12.4242 47.0337 12.6855 46.9255 12.9578 46.9255H17.5298C17.6593 46.9255 17.7849 46.9509 17.9019 46.9964C20.4482 45.5259 23.3401 44.7505 26.3006 44.7505C29.2549 44.7505 32.1542 45.5279 34.6978 46.997C34.8152 46.951 34.9413 46.9255 35.0713 46.9255H39.6433C39.9157 46.9255 40.1769 47.0337 40.3695 47.2263L49.1158 55.9726L47.1761 47.8212C46.237 43.8751 42.7483 41.1192 38.6922 41.1192H38.6155C38.0483 41.1192 37.5886 40.6593 37.5886 40.0922C37.5886 39.5251 38.0483 39.0652 38.6155 39.0652H38.6922C43.7036 39.0652 48.014 42.4702 49.1742 47.3456L51.8864 58.7432ZM38.0551 24.9497V24.3959C38.0551 23.6032 37.4102 22.9582 36.6173 22.9582H35.9967V26.3875H36.6173C37.4102 26.3875 38.0551 25.7426 38.0551 24.9497ZM18.6328 19.719C18.6328 15.4981 22.0668 12.0642 26.2875 12.0642C30.5083 12.0642 33.9423 15.4982 33.9423 19.719V20.9043H31.2454C30.7073 20.9043 30.191 20.7609 29.7407 20.4922C30.3089 20.0815 30.8483 19.6224 31.3536 19.1171C31.7547 18.716 31.7547 18.0658 31.3536 17.6646C30.9526 17.2637 30.3023 17.2637 29.9013 17.6646C27.8124 19.7537 25.0349 20.9042 22.0805 20.9042H18.6329V19.719H18.6328ZM14.5212 24.3959V24.9497C14.5212 25.7426 15.1661 26.3875 15.9589 26.3875H16.5796V22.9582H15.9589C15.1661 22.9582 14.5212 23.6031 14.5212 24.3959ZM18.6328 26.5921V22.9582H22.0804C24.1139 22.9582 26.0767 22.4985 27.8502 21.6283C28.7767 22.4874 29.9747 22.9582 31.2454 22.9582H33.9423V26.59C33.9423 30.8109 30.5083 34.2448 26.2875 34.2448C22.0673 34.2449 18.6338 30.812 18.6328 26.5921ZM29.3723 35.7959C28.4026 36.1218 27.365 36.2987 26.2869 36.2987C25.2088 36.2987 24.1713 36.1218 23.2015 35.7959V39.6426C24.9778 41.1414 27.596 41.1414 29.3723 39.6426V35.7959ZM33.4681 48.6605L32.6351 50.0856C32.517 50.2877 32.4274 50.5006 32.3641 50.7187C30.5694 49.7113 28.5011 49.1357 26.3006 49.1357C24.1001 49.1357 22.0319 49.7113 20.2371 50.7187C20.1738 50.5006 20.0842 50.2878 19.9661 50.0857L19.1334 48.6609C21.3175 47.4456 23.78 46.8046 26.3006 46.8046C28.8161 46.8046 31.2857 47.4461 33.4681 48.6605ZM2.21691 60.5366H8.58457L10.6175 57.1011L7.93964 54.4232L2.10251 60.2603C2.08156 60.2812 2.026 60.3368 2.06739 60.4367C2.10878 60.5366 2.18734 60.5366 2.21691 60.5366ZM13.7144 53.9585C13.4799 53.8077 13.1941 53.7586 12.9224 53.8231C12.651 53.8874 12.4174 54.0593 12.2753 54.2994L11.6972 55.2764L9.39174 52.971L13.3831 48.9796H16.9405L18.1928 51.1223C18.355 51.3998 18.3242 51.7509 18.1163 51.996L15.9152 54.5902C15.67 54.8791 15.2449 54.9423 14.9262 54.7377L13.7144 53.9585ZM19.731 53.5413L24.0906 57.9009C24.7361 57.5099 25.4927 57.2845 26.301 57.2846C27.1092 57.2846 27.8658 57.5099 28.5113 57.9009L32.871 53.5413C31.0807 52.0725 28.7921 51.1897 26.301 51.1897C23.8099 51.1897 21.5213 52.0725 19.731 53.5413ZM38.8859 53.9584L37.6741 54.7375C37.3554 54.9425 36.9302 54.879 36.6852 54.5901L34.4841 51.9959C34.2762 51.7508 34.2454 51.3997 34.4076 51.1221L35.6599 48.9795H39.2173L43.2086 52.9709L40.9032 55.2763L40.3251 54.2993C40.183 54.0592 39.9494 53.8873 39.678 53.823C39.4063 53.7587 39.1205 53.8077 38.8859 53.9584ZM50.3839 60.5366C50.4135 60.5366 50.492 60.5366 50.5334 60.4367C50.5748 60.3368 50.5192 60.2812 50.4983 60.2605L44.6611 54.4234L41.9833 57.1013L44.0162 60.5366H50.3839Z" fill="#0033A0"/>
<circle cx="63.2191" cy="38.0974" r="8.78049" fill="#00AEC7"/>
<path d="M63.5676 34.1463V42.0198" stroke="white" stroke-width="2.04878" stroke-linecap="round" stroke-linejoin="round"/>
<path d="M67.1689 38.4473H59.2955" stroke="white" stroke-width="2.04878" stroke-linecap="round" stroke-linejoin="round"/>
</g>
</svg>
