<svg width="72" height="72" viewBox="0 0 72 72" fill="none" xmlns="http://www.w3.org/2000/svg">
<circle opacity="0.0594076" cx="36" cy="36" r="36" fill="#0033A0"/>
<g clip-path="url(#clip0_804_1733)">
<path d="M18.6196 54C17.8209 53.6786 17.4925 53.078 17.5664 52.2345C17.5779 52.1033 17.5585 51.9703 17.57 51.8391C17.6325 51.0695 17.5673 50.3932 16.9122 49.8024C16.3486 49.2934 16.169 48.5168 16.1664 47.748C16.1567 44.9804 16.1584 42.212 16.1646 39.4435C16.1664 38.6422 16.4429 37.9281 16.9113 37.2809C17.5286 36.4267 18.1379 35.5664 18.749 34.7079C18.83 34.5934 18.9014 34.4728 19.0282 34.2755C18.7948 34.2755 18.6407 34.2755 18.4875 34.2755C17.5356 34.2755 16.5837 34.2817 15.6319 34.2729C14.9829 34.2667 14.7575 34.0369 14.7539 33.3985C14.7495 32.5928 14.7495 31.7871 14.7539 30.9822C14.7575 30.3702 14.9846 30.1369 15.609 30.1316C16.663 30.1219 17.7179 30.1316 18.7719 30.1281C19.2316 30.1263 19.5125 30.3218 19.6173 30.785C19.7353 31.3089 19.8814 31.8258 20.047 32.4695C20.5366 31.0844 20.9839 29.8234 21.4286 28.5607C22.0168 26.8929 22.6041 25.2243 23.1923 23.5556C23.8043 21.8218 25.0019 20.9668 26.8387 20.9659C33.3108 20.9633 39.7829 20.9633 46.255 20.9659C48.0918 20.9659 49.292 21.8227 49.9031 23.5539C50.8911 26.3523 51.8782 29.1507 52.8662 31.9491C52.9129 32.082 52.9657 32.2124 53.0547 32.4484C53.2105 31.8408 53.3356 31.3336 53.4703 30.829C53.6191 30.269 53.7864 30.1343 54.3649 30.1307C55.3899 30.1246 56.4149 30.1237 57.4398 30.1307C58.1223 30.1351 58.338 30.3535 58.3406 31.0245C58.3442 31.8152 58.3442 32.606 58.3406 33.3967C58.3371 34.0369 58.1126 34.2676 57.4654 34.2738C56.5135 34.2826 55.5616 34.2764 54.6097 34.2764C54.4556 34.2764 54.3024 34.2764 54.0453 34.2764C54.2883 34.6216 54.468 34.8805 54.6511 35.1376C55.1689 35.8649 55.6866 36.5931 56.2079 37.3178C56.7028 38.0064 56.9388 38.7708 56.9362 39.6196C56.93 42.256 56.9291 44.8924 56.9362 47.5288C56.9397 48.6462 56.5549 49.5814 55.7263 50.3395C55.6162 50.4408 55.5431 50.6319 55.5352 50.7851C55.5114 51.2667 55.5 51.7528 55.5317 52.2345C55.5889 53.0789 55.2745 53.6795 54.4759 54.0009H49.6425C48.8456 53.7103 48.5101 53.1362 48.5691 52.2988C48.5946 51.9395 48.5735 51.5776 48.5735 51.2183H24.5202C24.5202 51.6005 24.4991 51.9509 24.5246 52.2988C24.5871 53.1379 24.249 53.7103 23.453 54.0017H18.6196V54ZM55.61 47.0269C55.61 44.4283 55.6338 41.88 55.5871 39.3326C55.5792 38.9002 55.3424 38.4265 55.0914 38.0522C54.3015 36.8732 53.4474 35.7372 52.6355 34.5714C52.47 34.3336 52.2877 34.2676 52.0156 34.2702C50.7855 34.2817 49.5553 34.2782 48.3252 34.2729C48.0927 34.272 47.8506 34.2755 47.6287 34.2183C47.1946 34.1056 46.9973 33.5552 47.3081 33.2444C47.479 33.0736 47.7898 32.9723 48.0417 32.9652C49.1247 32.9353 50.2087 32.9529 51.2927 32.9512C51.4459 32.9512 51.5991 32.9362 51.7858 32.9265C51.7329 32.7469 51.7012 32.621 51.659 32.5003C50.6578 29.6596 49.6575 26.819 48.6528 23.98C48.2257 22.7728 47.5283 22.2859 46.2383 22.2859C39.7794 22.285 33.3214 22.285 26.8625 22.2859C25.5549 22.2859 24.8689 22.7763 24.4304 24.017C23.4362 26.8295 22.443 29.6411 21.4515 32.4545C21.4004 32.5989 21.3643 32.7478 21.3035 32.9529C21.5562 32.9529 21.7438 32.9529 21.9305 32.9529C29.4584 32.9529 36.9863 32.9529 44.5133 32.9538C44.7175 32.9538 44.9245 32.9556 45.1261 32.9855C45.4678 33.0366 45.6377 33.277 45.6448 33.5975C45.6518 33.9189 45.4898 34.1654 45.1517 34.2297C44.9527 34.2676 44.7448 34.2738 44.5414 34.2738C36.7793 34.2755 29.0172 34.2799 21.2551 34.265C20.8219 34.265 20.57 34.397 20.3296 34.7501C19.5794 35.8508 18.7975 36.9295 18.0129 38.0064C17.6448 38.5119 17.4731 39.0587 17.4757 39.6848C17.4863 41.9848 17.4793 44.2839 17.481 46.5839C17.481 46.7257 17.4942 46.8675 17.5022 47.0181H29.5403C29.5403 46.8305 29.5403 46.672 29.5403 46.5135C29.5403 45.1222 29.535 43.7301 29.5411 42.3388C29.5517 40.0599 31.0046 38.6061 33.2756 38.5946C33.9932 38.5911 34.7109 38.5911 35.4285 38.5946C37.0981 38.6017 38.7685 38.5682 40.4363 38.6343C41.9913 38.6959 43.4073 40.0872 43.4865 41.6414C43.5693 43.2634 43.5385 44.8906 43.557 46.5153C43.5587 46.6834 43.557 46.8516 43.557 47.0277H55.6109L55.61 47.0269ZM55.426 48.4058H17.6237C17.6633 48.5168 17.6792 48.5872 17.7126 48.6497C18.1811 49.54 18.9445 49.8684 19.9211 49.8675C31.0046 49.8605 42.0882 49.8631 53.1709 49.8631C53.332 49.8631 53.4941 49.8658 53.6534 49.849C54.534 49.7566 55.2922 49.1367 55.426 48.4058V48.4058ZM42.2027 47.0225V45.5819H30.8884V47.0225H42.2027ZM30.8902 42.75V44.2056H42.2V42.75H30.8902V42.75ZM42.0512 41.3931C41.8971 40.6094 41.1161 39.9604 40.2382 39.9331C39.229 39.9023 38.2173 39.9164 37.2073 39.9164C35.772 39.9164 34.3367 39.904 32.9022 39.9305C31.9926 39.9472 31.2036 40.5909 31.0443 41.3931H42.0512V41.3931ZM18.9075 52.6439H23.1747V51.2095H18.9075V52.6439ZM54.1862 52.6607V51.2086H49.9243V52.6607H54.1862ZM16.1012 31.4551V32.9089H18.7816C18.6768 32.4827 18.5967 32.097 18.4796 31.7237C18.4461 31.6171 18.3061 31.4701 18.2101 31.4674C17.5136 31.4454 16.8171 31.456 16.1003 31.456L16.1012 31.4551ZM56.9987 32.9256V31.4533C56.6579 31.4533 56.3409 31.4489 56.0248 31.4542C55.5898 31.4621 55.0077 31.3116 54.7577 31.5335C54.4662 31.7915 54.4653 32.377 54.3412 32.8217C54.335 32.8437 54.3544 32.8737 54.3685 32.9265H56.9987V32.9256Z" fill="#0033A0"/>
<path d="M59.1349 21.8271C58.9579 22.1203 58.7122 22.2621 58.3574 22.3079C57.1096 22.469 56.4704 23.1426 56.3224 24.3895C56.2669 24.8553 56.0301 25.1001 55.6417 25.0922C55.2728 25.0843 55.0535 24.85 54.9972 24.4027C54.8352 23.1241 54.2073 22.4849 52.927 22.2947C52.4321 22.2207 52.1979 22.0138 52.1908 21.6448C52.1838 21.2538 52.4436 21.017 52.9437 20.9571C54.1439 20.8144 54.8466 20.1188 54.9901 18.9309C55.0518 18.4237 55.2825 18.1552 55.6558 18.1543C56.031 18.1543 56.2722 18.4343 56.3251 18.9309C56.4475 20.0845 57.1915 20.8109 58.323 20.9694C58.6075 21.009 58.8646 21.2433 59.1349 21.3877V21.8271V21.8271ZM55.7034 20.9729C55.4639 21.1931 55.2103 21.4264 55.013 21.6078C55.2191 21.8447 55.4436 22.1027 55.6391 22.3281L56.3215 21.6615C56.1049 21.4203 55.8751 21.164 55.7025 20.9729H55.7034Z" fill="#00AEC7"/>
<path d="M40.807 13.1782C40.8061 13.5551 40.5586 13.7929 40.0796 13.8351C39.1735 13.9144 38.3837 14.2428 37.8809 15.0151C37.6194 15.4166 37.5093 15.9177 37.3349 16.3755C37.3147 16.4284 37.3244 16.4918 37.3165 16.5499C37.2434 17.0967 37.0188 17.3538 36.6226 17.3459C36.2387 17.3389 36.0326 17.095 35.956 16.5675C35.9243 16.3518 35.9111 16.129 35.8468 15.9229C35.4893 14.7659 34.7065 14.0861 33.5133 13.8827C33.3839 13.8607 33.2527 13.8448 33.1215 13.8325C32.7314 13.7955 32.4972 13.5903 32.4699 13.195C32.4443 12.8295 32.7006 12.5504 33.1277 12.5196C33.8039 12.4703 34.4177 12.2845 34.9398 11.838C35.521 11.3414 35.8662 10.7197 35.9401 9.95452C35.9419 9.93955 35.9419 9.92546 35.9437 9.9105C36.0071 9.2941 36.2237 9.00616 36.6279 9C37.0347 8.99383 37.2689 9.28442 37.3261 9.89376C37.4283 10.9768 37.9769 11.7632 38.9472 12.2202C39.3065 12.3893 39.73 12.4351 40.1289 12.5064C40.5534 12.583 40.8087 12.8155 40.807 13.1774V13.1782ZM36.6252 14.1979C36.9598 13.8616 37.3552 13.4635 37.644 13.173C37.3438 12.8577 36.9554 12.4518 36.6472 12.1277C36.3144 12.472 35.9243 12.8771 35.6513 13.1598C35.934 13.46 36.3188 13.8712 36.6261 14.1979H36.6252Z" fill="#00AEC7"/>
<path d="M17.6061 18.1552C17.9697 18.149 18.2313 18.4184 18.2744 18.8799C18.3528 19.7155 18.7244 20.3618 19.4861 20.7334C19.7414 20.8576 20.0399 20.9078 20.3252 20.9518C20.8245 21.0293 21.0869 21.2521 21.0808 21.643C21.0755 22.0129 20.8404 22.2207 20.3455 22.2947C19.0616 22.4857 18.4391 23.1215 18.2744 24.4071C18.2172 24.8527 17.9944 25.0878 17.6246 25.0931C17.2371 25.0984 17.0038 24.8527 16.9492 24.3825C16.8056 23.1462 16.1567 22.4769 14.9036 22.3017C14.5972 22.2586 14.3286 22.1899 14.1966 21.8746C14.0099 21.4299 14.3207 21.076 14.8834 20.9448C15.3386 20.8391 15.808 20.6744 16.1928 20.4182C16.7035 20.0783 16.9007 19.5112 16.9509 18.8992C16.9897 18.4343 17.2424 18.1613 17.6052 18.1552H17.6061ZM18.2762 21.6466C18.0613 21.4079 17.8306 21.1526 17.6378 20.9386C17.3956 21.1772 17.1579 21.4123 16.9157 21.6501C17.1315 21.8579 17.3806 22.0983 17.6351 22.344L18.2762 21.6466V21.6466Z" fill="#00AEC7"/>
<path d="M36.5196 32.156C32.3308 32.156 28.1411 32.156 23.9523 32.156C23.8351 32.156 23.718 32.1578 23.6009 32.156C22.7996 32.1437 22.5363 31.7818 22.7961 31.0333C23.1272 30.0805 23.4679 29.1304 23.8034 28.1794C24.271 26.8559 24.7368 25.5316 25.207 24.209C25.4968 23.3953 25.9212 23.081 26.7797 23.0801C33.2976 23.0766 39.8155 23.0757 46.3334 23.0801C47.1637 23.0801 47.6049 23.4041 47.8814 24.1834C48.688 26.4579 49.4893 28.7333 50.2897 31.0095C50.5644 31.7915 50.3117 32.1542 49.4814 32.1551C45.1605 32.1587 40.8396 32.1569 36.5187 32.1569L36.5196 32.156ZM48.7928 30.8044C48.7479 30.6494 48.7188 30.5252 48.6774 30.4063C48.017 28.5308 47.3478 26.6587 46.7023 24.7778C46.5958 24.4679 46.439 24.3921 46.1335 24.393C39.7477 24.4009 33.3628 24.4018 26.977 24.3912C26.6424 24.3912 26.4918 24.4916 26.3835 24.8069C25.7459 26.6596 25.0864 28.5043 24.4357 30.3526C24.3881 30.4874 24.3564 30.6274 24.3062 30.8052H48.7928V30.8044Z" fill="#0033A0"/>
<path d="M23.8598 40.007C24.9799 40.0132 26.0497 40.2254 26.9637 40.9087C28.3973 41.9795 28.3999 43.5073 26.9946 44.6142C25.4589 45.8241 22.3593 45.8417 20.7822 44.6485C19.2571 43.495 19.3601 41.7162 21.0068 40.7397C21.8266 40.2536 22.7767 40.0097 23.8589 40.007H23.8598ZM23.8862 41.327C23.0356 41.327 22.2228 41.4811 21.5202 41.9892C20.8483 42.4744 20.8597 43.0626 21.5228 43.5566C22.6922 44.4275 24.9957 44.4389 26.1809 43.5795C26.8907 43.0652 26.8942 42.4559 26.1748 41.9592C25.4879 41.4855 24.706 41.3314 23.8862 41.327Z" fill="#0033A0"/>
<path d="M49.2427 45.5475C48.1156 45.5035 47.022 45.3212 46.1018 44.608C44.685 43.5099 44.7043 41.9927 46.1308 40.9026C47.6965 39.7059 50.8031 39.713 52.3423 40.9149C53.8375 42.0825 53.7256 43.819 52.094 44.7947C51.2865 45.2772 50.2871 45.5414 49.2436 45.5466L49.2427 45.5475ZM49.2242 41.3279C48.3419 41.3288 47.5397 41.5419 46.9691 41.9267C46.1986 42.4462 46.1881 43.067 46.9392 43.5971C48.1183 44.4283 50.339 44.4248 51.526 43.5909C52.2586 43.0758 52.2613 42.4577 51.5163 41.9478C50.8277 41.4767 50.044 41.3297 49.2251 41.3279H49.2242Z" fill="#0033A0"/>
<path d="M23.8968 37.892C24.5545 37.892 25.2114 37.8849 25.8692 37.8937C26.3438 37.9008 26.6054 38.1236 26.6247 38.5075C26.645 38.9108 26.3755 39.2005 25.8983 39.2058C24.5396 39.2207 23.1809 39.2207 21.8231 39.204C21.3784 39.1987 21.0957 38.9046 21.1001 38.5365C21.1045 38.1641 21.3889 37.9034 21.8371 37.8955C22.524 37.884 23.2099 37.8929 23.8968 37.892V37.892Z" fill="#00AEC7"/>
<path d="M49.226 39.2102C48.5541 39.2102 47.8788 39.248 47.2113 39.1908C46.9665 39.1697 46.6513 38.9715 46.5359 38.7611C46.4487 38.6017 46.5773 38.2645 46.705 38.0672C46.7825 37.9483 47.0396 37.8999 47.2166 37.8981C48.5603 37.8849 49.9049 37.8858 51.2486 37.8937C51.703 37.8964 51.9848 38.1509 51.9971 38.5242C52.0094 38.9046 51.7118 39.1934 51.2416 39.2058C50.5697 39.2225 49.8979 39.2102 49.2251 39.2102H49.226Z" fill="#00AEC7"/>
</g>
<defs>
<clipPath id="clip0_804_1733">
<rect width="44.9921" height="45" fill="white" transform="translate(14.1429 9)"/>
</clipPath>
</defs>
</svg>
