<svg width="320" height="281" viewBox="0 0 320 281" fill="none" xmlns="http://www.w3.org/2000/svg">
<path d="M267.202 142.039L218.271 123.548C216.649 122.934 215.338 121.702 214.625 120.122C213.912 118.542 213.856 116.743 214.47 115.122L240.076 47.4363C240.379 46.6323 240.838 45.896 241.426 45.2694C242.015 44.6428 242.721 44.1384 243.504 43.7849C244.288 43.4314 245.134 43.2358 245.993 43.2093C246.852 43.1828 247.708 43.3259 248.512 43.6304L279.547 55.3575L294.2 89.1803L275.638 138.267C275.016 139.882 273.78 141.186 272.199 141.893C270.618 142.6 268.821 142.652 267.202 142.039Z" fill="#F5F5F5"/>
<path d="M279.547 55.3507L272.335 74.4004C272.047 75.1475 271.91 75.9442 271.933 76.7445C271.955 77.5447 272.136 78.3326 272.465 79.0624C272.794 79.7923 273.265 80.4496 273.85 80.9964C274.435 81.5431 275.123 81.9684 275.874 82.2475L294.2 89.1735L279.547 55.3507Z" fill="#E3E7F2"/>
<path d="M271.952 76.1688C271.952 76.1688 269.967 80.7009 274.643 84.2379C274.818 84.3713 275.002 84.4926 275.194 84.601C277.428 85.9458 292.121 94.6873 292.256 94.3309L294.193 89.2071L275.867 82.2811C275.867 82.2811 271.36 80.3647 271.952 76.1688Z" fill="#E3E7F2"/>
<path d="M268.527 72.0739C268.433 72.3227 263.293 70.6013 257.043 68.2411C250.793 65.8809 245.801 63.7628 245.895 63.5341C245.989 63.3055 251.129 65.0067 257.379 67.3669C263.629 69.7271 268.621 71.8116 268.527 72.0739Z" fill="#E3E7F2"/>
<path d="M279.07 88.3733C278.975 88.6154 270.566 85.6836 260.279 81.7768C249.992 77.8701 241.724 74.5349 241.818 74.2861C241.912 74.0373 250.322 76.9758 260.615 80.8892C270.909 84.8027 279.144 88.1245 279.07 88.3733Z" fill="#E3E7F2"/>
<path d="M279.022 98.6344C278.928 98.8765 269.765 95.6421 258.55 91.3991C247.335 87.1562 238.32 83.5251 238.414 83.283C238.508 83.0409 247.671 86.2753 258.886 90.5183C270.102 94.7612 279.144 98.3856 279.022 98.6344Z" fill="#E3E7F2"/>
<path d="M275.813 107.12C275.719 107.362 266.556 104.128 255.341 99.8851C244.126 95.6422 235.111 91.9842 235.205 91.769C235.299 91.5538 244.462 94.7613 255.677 98.9975C266.892 103.234 275.907 106.872 275.813 107.12Z" fill="#E3E7F2"/>
<path d="M272.604 115.606C272.51 115.849 263.34 112.614 252.132 108.371C240.923 104.128 231.901 100.497 231.989 100.255C232.076 100.013 241.246 103.247 252.468 107.484C263.69 111.72 272.692 115.358 272.604 115.606Z" fill="#E3E7F2"/>
<path d="M269.388 124.092C269.301 124.334 260.131 121.093 248.923 116.857C237.714 112.621 228.686 108.983 228.78 108.741C228.874 108.499 238.037 111.733 249.252 115.97C260.467 120.206 269.483 123.844 269.388 124.092Z" fill="#E3E7F2"/>
<path d="M104.065 71.7671L39.5593 94.3449C37.329 95.1256 36.1541 97.5655 36.9352 99.7947L69.2998 192.165C70.0809 194.394 72.5221 195.569 74.7524 194.788L139.258 172.21C141.489 171.43 142.664 168.99 141.882 166.761L109.518 74.3899C108.737 72.1607 106.296 70.9865 104.065 71.7671Z" fill="#E3E7F2"/>
<path d="M104.897 77.509L42.499 99.349L74.5768 190.901L136.975 169.061L104.897 77.509Z" fill="#E3E7F2"/>
<path d="M103.776 77.08L41.3781 98.92L72.8444 188.727L135.242 166.887L103.776 77.08Z" fill="#FAFAFA"/>
<path d="M135.231 166.885L103.685 77.1103L103.799 77.164L41.4128 99.011L41.4733 98.89C53.2334 132.619 64.1794 163.772 72.9187 188.699L72.8178 188.651L135.238 166.885L72.8649 188.813H72.7909V188.739C64.0448 163.812 53.1325 132.659 41.3051 98.937V98.8429H41.3926L103.785 77.0161H103.873V77.0968L135.231 166.885Z" fill="#E3E7F2"/>
<path d="M113.103 174.631C113.103 174.631 126.996 162.918 129.405 150.72C128.01 152.653 126.239 154.285 124.197 155.515C122.155 156.746 119.885 157.551 117.524 157.881C117.524 157.881 117.248 170.657 113.103 174.631Z" fill="#E3E7F2"/>
<path d="M62.7022 118.931L59.4195 120.08C58.2201 120.5 57.5884 121.812 58.0084 123.011L59.158 126.292C59.578 127.49 60.8907 128.122 62.09 127.702L65.3728 126.553C66.5721 126.133 67.2039 124.821 66.7839 123.623L65.6343 120.341C65.2143 119.143 63.9016 118.511 62.7022 118.931Z" fill="#E3E7F2"/>
<path d="M62.3023 124.583C62.2798 124.596 62.2543 124.603 62.2283 124.603C62.2024 124.603 62.1768 124.596 62.1543 124.583L60.6473 123.709C60.6296 123.692 60.6155 123.672 60.6059 123.649C60.5963 123.627 60.5913 123.602 60.5913 123.578C60.5913 123.553 60.5963 123.529 60.6059 123.507C60.6155 123.484 60.6296 123.464 60.6473 123.447C60.6724 123.414 60.7078 123.39 60.748 123.379C60.7882 123.368 60.8308 123.37 60.8693 123.386L62.2149 124.153L63.8026 120.791C63.8258 120.746 63.8648 120.712 63.9122 120.694C63.9595 120.677 64.0116 120.678 64.0583 120.697C64.0808 120.707 64.1011 120.721 64.1178 120.739C64.1345 120.758 64.1474 120.779 64.1556 120.802C64.1638 120.826 64.1671 120.85 64.1654 120.875C64.1637 120.899 64.157 120.923 64.1457 120.945L62.4705 124.523C62.4497 124.546 62.4234 124.564 62.3941 124.574C62.3647 124.585 62.3332 124.588 62.3023 124.583Z" fill="white"/>
<path d="M105.387 105.029C105.387 105.083 97.3134 107.968 87.2958 111.471C77.2783 114.974 69.131 117.772 69.131 117.724C69.131 117.677 77.2042 114.786 87.2286 111.283C97.2529 107.779 105.373 104.982 105.387 105.029Z" fill="#E3E7F2"/>
<path d="M86.3607 117.953C86.3607 117.953 86.1521 118.047 85.7754 118.195L84.1472 118.8C82.8017 119.298 80.8641 119.977 78.7651 120.717C76.666 121.456 74.7284 122.115 73.3829 122.579L71.7346 123.124C71.5356 123.199 71.3308 123.257 71.1224 123.299C71.31 123.199 71.5058 123.116 71.7077 123.05L73.3358 122.452C74.6813 121.947 76.6189 121.268 78.718 120.529C80.817 119.789 82.7546 119.137 84.1001 118.666L85.7484 118.121C85.9477 118.049 86.1524 117.993 86.3607 117.953Z" fill="#E3E7F2"/>
<path d="M106.241 107.504C106.241 107.551 98.1678 110.435 88.1435 113.939C78.1192 117.442 69.9787 120.246 69.9787 120.192C69.9787 120.138 78.0519 117.261 88.083 113.757C98.114 110.254 106.241 107.45 106.241 107.504Z" fill="#E3E7F2"/>
<path d="M67.3884 132.311L64.1057 133.46C62.9064 133.88 62.2746 135.192 62.6946 136.39L63.8442 139.671C64.2642 140.87 65.5769 141.502 66.7762 141.082L70.059 139.933C71.2583 139.513 71.8901 138.201 71.4701 137.002L70.3205 133.721C69.9005 132.523 68.5878 131.891 67.3884 132.311Z" fill="#E3E7F2"/>
<path d="M66.9916 137.964C66.9678 137.977 66.9412 137.984 66.9142 137.984C66.8872 137.984 66.8606 137.977 66.8368 137.964L65.3365 137.09C65.2946 137.066 65.2636 137.027 65.2498 136.981C65.236 136.934 65.2406 136.885 65.2625 136.841C65.2866 136.8 65.3259 136.769 65.3722 136.755C65.4185 136.741 65.4684 136.746 65.5115 136.768L66.857 137.534L68.4447 134.138C68.4666 134.094 68.5045 134.06 68.5507 134.042C68.5969 134.025 68.648 134.025 68.6937 134.044C68.7391 134.065 68.7746 134.103 68.7923 134.149C68.8099 134.196 68.8083 134.248 68.7879 134.293L67.1127 137.877C67.0995 137.899 67.082 137.918 67.0611 137.933C67.0403 137.948 67.0166 137.959 66.9916 137.964Z" fill="white"/>
<path d="M110.076 118.41C110.076 118.464 102.003 121.342 91.9783 124.852C81.954 128.362 73.8135 131.153 73.8135 131.106C73.8135 131.059 81.8867 128.167 91.911 124.664C101.935 121.161 110.062 118.363 110.076 118.41Z" fill="#E3E7F2"/>
<path d="M91.0499 131.334C91.0499 131.334 90.8413 131.428 90.4579 131.576L88.8365 132.182C87.4909 132.679 85.5534 133.358 83.4543 134.098C81.3553 134.838 79.4177 135.497 78.0721 135.961L76.4238 136.505C76.2248 136.58 76.0201 136.638 75.8116 136.68C75.9993 136.581 76.1951 136.497 76.3969 136.431L78.025 135.833C79.3706 135.329 81.3082 134.649 83.4072 133.91C85.5063 133.17 87.4438 132.518 88.7894 132.047L90.4377 131.502C90.6369 131.43 90.8416 131.374 91.0499 131.334Z" fill="#E3E7F2"/>
<path d="M110.95 120.898C110.95 120.945 102.877 123.83 92.8529 127.333C82.8286 130.837 74.688 133.641 74.688 133.587C74.688 133.533 82.7613 130.655 92.7856 127.152C102.81 123.648 110.95 120.831 110.95 120.898Z" fill="#E3E7F2"/>
<path d="M72.0878 145.695L68.805 146.844C67.6057 147.264 66.9739 148.576 67.3939 149.775L68.5435 153.056C68.9635 154.255 70.2762 154.886 71.4756 154.466L74.7583 153.317C75.9576 152.897 76.5894 151.585 76.1694 150.387L75.0198 147.106C74.5998 145.907 73.2871 145.276 72.0878 145.695Z" fill="#E3E7F2"/>
<path d="M71.6808 151.346C71.657 151.359 71.6304 151.365 71.6034 151.365C71.5764 151.365 71.5498 151.359 71.526 151.346L70.019 150.485C69.9735 150.464 69.9377 150.427 69.9189 150.381C69.9001 150.334 69.8998 150.283 69.9181 150.236C69.9275 150.213 69.9416 150.192 69.9595 150.175C69.9774 150.157 69.9987 150.144 70.022 150.135C70.0454 150.126 70.0703 150.122 70.0953 150.123C70.1202 150.125 70.1446 150.131 70.167 150.142H70.2074L71.5529 150.909L73.1407 147.513C73.1601 147.468 73.1958 147.432 73.2407 147.412C73.2856 147.392 73.3364 147.389 73.3829 147.405C73.4066 147.414 73.4282 147.428 73.4466 147.445C73.4649 147.463 73.4795 147.484 73.4896 147.507C73.4996 147.53 73.5049 147.555 73.505 147.58C73.5052 147.606 73.5003 147.631 73.4905 147.654L71.8153 151.238C71.8018 151.264 71.7829 151.288 71.7597 151.306C71.7365 151.325 71.7096 151.338 71.6808 151.346Z" fill="white"/>
<path d="M114.765 131.791C114.765 131.845 106.692 134.723 96.6675 138.233C86.6432 141.743 78.5027 144.534 78.5027 144.48C78.5027 144.426 86.576 141.548 96.607 138.045C106.638 134.542 114.745 131.744 114.765 131.791Z" fill="#E3E7F2"/>
<path d="M95.7391 144.709C95.5478 144.805 95.35 144.889 95.1471 144.958L93.5189 145.563C92.1734 146.06 90.2425 146.739 88.1368 147.479C86.031 148.219 84.1001 148.871 82.7546 149.342L81.1063 149.886C80.9063 149.958 80.7017 150.016 80.4941 150.061C80.6817 149.962 80.8775 149.879 81.0794 149.812L82.7075 149.207C84.053 148.71 85.9906 148.031 88.0897 147.291C90.1887 146.551 92.1263 145.899 93.4719 145.428L95.1134 144.884C95.3153 144.816 95.5305 144.756 95.7391 144.709Z" fill="#E3E7F2"/>
<path d="M115.66 134.266C115.66 134.313 107.587 137.198 97.5623 140.701C87.538 144.204 79.3975 147.008 79.3975 146.955C79.3975 146.901 87.4708 144.023 97.4951 140.513C107.519 137.003 115.613 134.212 115.66 134.266Z" fill="#E3E7F2"/>
<path d="M76.7676 159.077L73.4849 160.226C72.2855 160.646 71.6538 161.958 72.0738 163.157L73.2234 166.438C73.6434 167.637 74.9561 168.268 76.1554 167.848L79.4382 166.699C80.6375 166.279 81.2693 164.967 80.8493 163.769L79.6997 160.488C79.2797 159.289 77.967 158.657 76.7676 159.077Z" fill="#E3E7F2"/>
<path d="M76.3633 164.727C76.3399 164.737 76.3147 164.742 76.2893 164.742C76.2638 164.742 76.2387 164.737 76.2153 164.727L74.7083 163.853C74.6654 163.827 74.6346 163.785 74.6227 163.736C74.6107 163.688 74.6185 163.636 74.6443 163.594C74.6702 163.551 74.712 163.52 74.7606 163.508C74.8092 163.496 74.8605 163.504 74.9034 163.53L76.2489 164.296L77.8366 160.934C77.8572 160.889 77.895 160.853 77.9416 160.836C77.9883 160.818 78.0401 160.82 78.0856 160.84C78.1299 160.862 78.1642 160.9 78.1817 160.946C78.1992 160.992 78.1985 161.043 78.1798 161.089L76.4978 164.673C76.4612 164.707 76.4132 164.726 76.3633 164.727Z" fill="white"/>
<path d="M119.454 145.173C119.454 145.227 111.381 148.105 101.357 151.608C91.3325 155.111 83.1919 157.915 83.1919 157.861C83.1919 157.808 91.2652 154.93 101.289 151.426C111.314 147.923 119.434 145.106 119.454 145.173Z" fill="#E3E7F2"/>
<path d="M100.422 158.09C100.234 158.189 100.038 158.273 99.8363 158.339L98.2082 158.944C96.8626 159.441 94.9251 160.121 92.826 160.86C90.727 161.6 88.7894 162.252 87.4438 162.723L85.7955 163.268C85.4053 163.389 85.1833 163.449 85.1833 163.442C85.371 163.343 85.5668 163.26 85.7686 163.194L87.4035 162.588C88.749 162.091 90.6866 161.412 92.7856 160.672C94.8847 159.932 96.8223 159.28 98.1678 158.809L99.8161 158.265C100.014 158.193 100.216 158.135 100.422 158.09Z" fill="#E3E7F2"/>
<path d="M120.322 147.647C120.322 147.694 112.249 150.579 102.225 154.082C92.2003 157.586 84.0598 160.383 84.0598 160.336C84.0598 160.289 92.133 157.404 102.157 153.894C112.182 150.384 120.302 147.593 120.322 147.647Z" fill="#E3E7F2"/>
<path d="M48.4432 90.1687L50.0848 94.8756C50.5439 96.186 51.5048 97.2606 52.7562 97.8633C54.0076 98.466 55.4472 98.5475 56.7587 98.0898L91.2719 85.9862C91.92 85.7598 92.5171 85.408 93.0291 84.9508C93.5411 84.4937 93.958 83.9403 94.256 83.3221C94.554 82.7039 94.7273 82.0332 94.7659 81.3481C94.8045 80.663 94.7077 79.977 94.481 79.3293L92.8395 74.6223L48.4432 90.1687Z" fill="#E3E7F2"/>
<path d="M71.1022 83.7941C70.186 84.1167 69.1947 84.1605 68.2536 83.9199C67.3125 83.6794 66.4639 83.1653 65.8151 82.4428C65.1664 81.7202 64.7465 80.8215 64.6088 79.8605C64.471 78.8994 64.6215 77.9191 65.0411 77.0436C65.4608 76.168 66.1308 75.4364 66.9665 74.9415C67.8021 74.4465 68.7659 74.2103 69.7358 74.2628C70.7058 74.3153 71.6384 74.6541 72.4157 75.2363C73.193 75.8185 73.7801 76.6181 74.1028 77.5338C74.5354 78.7617 74.4623 80.111 73.8996 81.285C73.3369 82.459 72.3306 83.3616 71.1022 83.7941ZM68.4784 76.31C67.9129 76.5069 67.4186 76.8669 67.0579 77.3445C66.6971 77.8222 66.4862 78.396 66.4517 78.9935C66.4173 79.5909 66.5609 80.1852 66.8643 80.7011C67.1678 81.217 67.6175 81.6314 68.1566 81.8918C68.6956 82.1523 69.2999 82.2471 69.8929 82.1644C70.4859 82.0816 71.041 81.825 71.4881 81.4269C71.9352 81.0288 72.2541 80.5071 72.4046 79.9279C72.555 79.3486 72.5302 78.7378 72.3334 78.1726C72.2026 77.7973 71.9992 77.4514 71.7347 77.1547C71.4702 76.858 71.1498 76.6162 70.7919 76.4433C70.4339 76.2703 70.0453 76.1695 69.6484 76.1467C69.2514 76.1238 68.8539 76.1793 68.4784 76.31Z" fill="#E3E7F2"/>
<path d="M98.6859 96.0188C98.6859 96.1062 89.6169 99.3809 78.3614 103.315C67.1059 107.248 57.9562 110.375 57.9226 110.288C57.8889 110.2 66.9915 106.925 78.247 102.992C89.5025 99.0581 98.6522 95.9044 98.6859 96.0188Z" fill="#E3E7F2"/>
<path d="M87.0267 97.6662C87.0267 97.7536 83.0574 99.2396 78.0856 100.981C73.1138 102.723 69.057 104.088 69.0233 103.967C68.9897 103.846 72.9994 102.393 77.9712 100.652C82.943 98.9102 86.9998 97.5788 87.0267 97.6662Z" fill="#E3E7F2"/>
<path d="M266.361 233.919C268.838 232.757 271.623 232.419 274.306 232.957C275.746 233.193 277.253 233.63 278.229 234.706C279.204 235.781 279.399 237.691 278.269 238.619C277.54 239.117 276.657 239.338 275.78 239.244C273.674 239.244 271.346 238.848 269.671 240.112C268.709 240.831 268.076 242.028 266.933 242.385C266.357 242.519 265.753 242.46 265.215 242.217C264.676 241.974 264.232 241.56 263.952 241.04C263.407 239.989 263.287 238.768 263.616 237.631C263.757 236.842 264.077 236.097 264.554 235.454C265.03 234.81 265.648 234.284 266.361 233.919Z" fill="#58C8C6"/>
<path d="M260.79 223.241C262.27 225.345 265.143 224.653 266.475 223.362C267.807 222.071 268.366 220.208 268.877 218.433C270.048 214.365 271.232 210.102 270.364 205.96C270.148 204.715 269.597 203.552 268.769 202.597C268.347 202.125 267.808 201.77 267.206 201.57C266.604 201.369 265.96 201.329 265.338 201.454C263.885 201.838 262.99 203.256 262.338 204.601C260.421 208.589 259.417 212.953 259.398 217.377C259.398 219.435 259.633 221.587 260.79 223.288" fill="#58C8C6"/>
<path d="M256.734 226.267C257.493 225.275 257.999 224.113 258.208 222.881C258.417 221.65 258.322 220.386 257.931 219.2C257.118 216.837 255.67 214.744 253.746 213.148C251.557 211.205 249.012 209.704 246.252 208.73C245.185 208.3 244.037 208.105 242.888 208.158C242.313 208.191 241.756 208.364 241.263 208.662C240.771 208.96 240.358 209.373 240.062 209.866C239.268 211.373 240.062 213.195 240.843 214.681C242.283 217.304 243.93 219.809 245.767 222.172C247.241 224.075 248.929 225.951 251.183 226.811C253.437 227.672 255.765 227.564 256.956 226.011" fill="#58C8C6"/>
<path d="M260.696 255.053C260.769 254.74 260.812 254.42 260.824 254.098C260.898 253.426 260.979 252.525 261.08 251.482C261.21 250.193 261.407 248.912 261.672 247.643C262.013 246.099 262.479 244.586 263.064 243.118C263.638 241.65 264.417 240.271 265.379 239.023C266.162 238.005 267.162 237.173 268.305 236.588C269.08 236.203 269.911 235.945 270.768 235.822C271.09 235.811 271.41 235.765 271.723 235.687C271.399 235.654 271.072 235.654 270.747 235.687C269.86 235.758 268.992 235.986 268.184 236.36C266.98 236.926 265.923 237.764 265.096 238.807C264.094 240.075 263.287 241.484 262.701 242.99C262.101 244.478 261.638 246.017 261.315 247.589C261.067 248.873 260.897 250.171 260.804 251.476C260.716 252.585 260.689 253.493 260.676 254.105C260.642 254.421 260.649 254.739 260.696 255.053Z" fill="#263238"/>
<path d="M260.871 253.042C260.891 252.895 260.891 252.746 260.871 252.599V251.348C260.871 250.245 260.871 248.658 260.925 246.641C261.026 242.694 261.362 238.451 262.022 232.466C262.64 226.838 263.475 220.289 264.356 216.032C264.544 215.064 264.733 214.19 264.914 213.43C265.096 212.67 265.231 212.005 265.372 211.473C265.513 210.942 265.587 210.559 265.668 210.236C265.699 210.088 265.726 209.94 265.749 209.792C265.681 209.925 265.629 210.065 265.594 210.209C265.493 210.532 265.372 210.935 265.224 211.433C265.076 211.931 264.887 212.617 264.699 213.376C264.511 214.136 264.289 215.004 264.08 215.972C263.002 221.014 262.191 226.109 261.651 231.236C261.063 236.351 260.737 241.493 260.676 246.641C260.676 248.618 260.676 250.218 260.743 251.348C260.743 251.866 260.797 252.289 260.817 252.619C260.824 252.761 260.842 252.903 260.871 253.042Z" fill="#263238"/>
<path d="M260.898 242.512C260.938 242.065 260.938 241.615 260.898 241.168C260.822 239.962 260.685 238.762 260.488 237.57C260.199 235.801 259.808 234.05 259.317 232.325C258.745 230.203 258.012 228.129 257.124 226.119C255.601 222.415 253.42 219.019 250.685 216.093C250.208 215.594 249.7 215.124 249.165 214.688C248.954 214.488 248.729 214.304 248.492 214.136L247.907 213.733C247.555 213.461 247.179 213.222 246.783 213.02C248.075 214.028 249.3 215.12 250.45 216.288C253.101 219.235 255.226 222.615 256.734 226.28C257.606 228.277 258.344 230.33 258.94 232.426C259.445 234.134 259.861 235.866 260.185 237.617C260.461 239.117 260.622 240.307 260.716 241.181C260.743 241.629 260.804 242.074 260.898 242.512Z" fill="#263238"/>
<path d="M250.712 261.091L251.768 275.548H270.357L271.407 261.091H250.712Z" fill="#263238"/>
<path d="M273.634 255.389H248.923V261.091H273.634V255.389Z" fill="#263238"/>
<path d="M248.923 274.997V276.571H250.08H273.216V274.997H248.923Z" fill="#455A64"/>
<path d="M251.217 279.354L250.08 276.571H272.335L271.003 279.354H251.217Z" fill="#455A64"/>
<path d="M271.07 265.812C271.07 265.812 271.07 265.865 270.983 265.946L270.707 266.316L269.624 267.701L269.577 267.762L269.53 267.694L266.872 264.023H267.034L264.41 267.728L264.329 267.842L264.235 267.735L261.133 264.036H261.308L261.14 264.252L258.362 267.728L258.274 267.849L258.187 267.728C257.245 266.383 256.364 265.146 255.563 264.023H255.718L252.495 267.694L252.435 267.762L252.387 267.688C251.964 266.975 251.627 266.403 251.378 265.993L251.123 265.543C251.088 265.493 251.061 265.439 251.042 265.381C251.082 265.425 251.118 265.472 251.15 265.523L251.439 265.96L252.495 267.621H252.394L255.57 263.902L255.65 263.808L255.724 263.909L258.368 267.6H258.187L260.979 264.124L261.154 263.909L261.241 263.794L261.329 263.902L264.43 267.607H264.255L266.899 263.915L266.973 263.808L267.054 263.915C268.097 265.415 268.991 266.686 269.657 267.634H269.557L270.687 266.289L270.99 265.939L271.07 265.812Z" fill="#E0E0E0"/>
<path d="M271.669 260.991C271.669 261.058 267.013 261.112 261.268 261.112C255.523 261.112 250.867 261.058 250.867 260.991C250.867 260.923 255.523 260.876 261.268 260.876C267.013 260.876 271.669 260.93 271.669 260.991Z" fill="#455A64"/>
<path d="M272.611 276.732C272.611 276.792 267.545 276.846 261.308 276.846C255.072 276.846 250.006 276.792 250.006 276.732C250.006 276.671 255.065 276.611 261.308 276.611C267.552 276.611 272.611 276.665 272.611 276.732Z" fill="#263238"/>
<path d="M89.2872 230.604C89.2334 230.664 88.8096 230.409 88.3386 230.032C87.8677 229.656 87.5246 229.299 87.5784 229.232C87.6322 229.165 88.0493 229.427 88.5203 229.804C88.9912 230.18 89.3343 230.537 89.2872 230.604Z" fill="#263238"/>
<path d="M102.204 211.346C102.386 209.552 102.238 207.74 101.767 206C101.202 204.285 99.8834 202.718 98.1207 202.349C96.1024 201.932 94.0437 203.203 92.9135 204.924C91.7832 206.645 91.3997 208.73 91.0633 210.754C88.768 224.739 87.9226 238.924 88.5404 253.083L96.7752 254.239C100.361 239.466 101.532 226.549 102.204 211.346Z" fill="#455A64"/>
<path d="M96.9434 202.261L96.903 202.396L96.7685 202.766L96.2168 204.191C96.1024 204.5 95.9477 204.863 95.8266 205.22L95.4296 206.464L94.9654 207.896L94.5416 209.53C93.8487 212.229 93.3163 214.966 92.9471 217.727C92.5031 220.82 92.2138 224.249 91.9783 227.854C91.5612 235.069 91.4939 241.618 91.3056 246.352C91.2181 248.726 91.1374 250.642 91.0499 251.96L90.9423 253.486C90.9423 253.116 90.9423 252.605 90.9894 251.96C91.0432 250.615 91.0903 248.726 91.1508 246.352C91.2854 241.645 91.319 235.069 91.7429 227.847C91.9716 224.236 92.2744 220.8 92.7318 217.693C93.1171 214.941 93.6721 212.214 94.3936 209.53L94.8376 207.896C95.0125 207.394 95.174 206.917 95.322 206.464L95.7526 205.22C95.8804 204.843 96.0419 204.507 96.163 204.198L96.7685 202.799C96.8313 202.651 96.8851 202.53 96.9299 202.436C96.9236 202.377 96.9281 202.318 96.9434 202.261Z" fill="#263238"/>
<path d="M97.7036 202.295C98.1324 202.802 98.4734 203.377 98.7128 203.996C99.3422 205.697 99.5969 207.513 99.4595 209.322C99.2443 213.874 98.8339 220.141 98.2957 227.067C97.7574 233.993 97.1452 240.246 96.6608 244.772C96.4119 247.031 96.2033 248.86 96.0486 250.151C95.9679 250.763 95.9073 251.247 95.8602 251.603L95.8064 251.98V251.597C95.8064 251.24 95.8804 250.756 95.9342 250.138C96.062 248.847 96.237 247.024 96.4523 244.758C96.8828 240.226 97.4547 233.999 97.9996 227.047C98.5446 220.094 98.9819 213.86 99.251 209.322C99.3999 207.534 99.1707 205.736 98.5782 204.043C98.337 203.437 98.0444 202.852 97.7036 202.295Z" fill="#263238"/>
<path d="M103.415 223.604C102.352 223.429 101.329 223.064 100.395 222.528C100.936 222.564 101.465 222.701 101.956 222.931C102.479 223.066 102.973 223.294 103.415 223.604Z" fill="#263238"/>
<path d="M104.411 215.212C103.468 215.85 102.421 216.318 101.316 216.597C102.259 215.958 103.306 215.489 104.411 215.212Z" fill="#263238"/>
<path d="M103.893 208.36C103.08 208.507 102.243 208.449 101.458 208.192C102.271 208.055 103.106 208.112 103.893 208.36Z" fill="#263238"/>
<path d="M95.3893 203.976C95.322 204.016 94.9587 203.566 94.5887 202.974C94.3207 202.631 94.1302 202.234 94.0303 201.811C94.0976 201.77 94.4609 202.214 94.8376 202.813C95.2144 203.411 95.4768 203.929 95.3893 203.976Z" fill="#263238"/>
<path d="M92.5838 208.118C92.2091 208.252 91.8075 208.294 91.4132 208.239C91.0167 208.279 90.6165 208.219 90.2493 208.064C90.624 207.93 91.0257 207.889 91.4199 207.943C91.8164 207.903 92.2166 207.963 92.5838 208.118Z" fill="#263238"/>
<path d="M90.5655 216.382C90.1352 216.363 89.7147 216.248 89.3343 216.046C88.9196 215.926 88.5361 215.718 88.2108 215.434C88.6411 215.453 89.0617 215.568 89.442 215.77C89.8567 215.89 90.2402 216.098 90.5655 216.382Z" fill="#263238"/>
<path d="M90.3502 223.369C90.0376 223.579 89.6763 223.706 89.3007 223.738C88.7019 223.859 88.2108 223.906 88.1906 223.826C88.1704 223.745 88.6481 223.577 89.2401 223.456C89.5974 223.336 89.9786 223.306 90.3502 223.369Z" fill="#263238"/>
<path d="M89.4218 234.773C89.0825 234.976 88.6997 235.096 88.305 235.122C87.9271 235.234 87.5277 235.253 87.1411 235.176C87.8564 234.856 88.6399 234.717 89.4218 234.773Z" fill="#263238"/>
<path d="M88.749 241.067C88.7894 241.134 88.3723 241.43 87.8206 241.739C87.2689 242.048 86.7913 242.21 86.7576 242.136C86.724 242.062 87.1344 241.773 87.6861 241.463C88.2377 241.154 88.749 240.993 88.749 241.067Z" fill="#263238"/>
<path d="M93.9092 248.208C93.8419 248.248 93.4786 247.75 93.1018 247.092C92.829 246.715 92.6408 246.284 92.5502 245.827C92.6174 245.787 92.9808 246.285 93.3575 246.944C93.6304 247.32 93.8186 247.752 93.9092 248.208Z" fill="#263238"/>
<path d="M95.396 236.34C95.4498 236.393 95.0462 236.884 94.4945 237.429C93.9428 237.974 93.445 238.364 93.3844 238.303C93.3239 238.243 93.7342 237.758 94.2859 237.214C94.8376 236.669 95.3355 236.279 95.396 236.34Z" fill="#263238"/>
<path d="M95.0664 230.106C95.0058 230.167 94.6358 229.857 94.2321 229.434C93.8285 229.01 93.5593 228.6 93.6132 228.546C93.667 228.492 94.0437 228.795 94.4474 229.219C94.8511 229.642 95.1269 230.052 95.0664 230.106Z" fill="#263238"/>
<path d="M96.089 222.151C96.1495 222.205 95.8131 222.683 95.3355 223.207C94.8578 223.732 94.4272 224.128 94.3667 224.075C94.3061 224.021 94.6425 223.543 95.1134 223.012C95.5844 222.481 96.0284 222.098 96.089 222.151Z" fill="#263238"/>
<path d="M96.6608 216.382C96.6003 216.443 96.1361 216.073 95.6113 215.562C95.0865 215.051 94.7165 214.587 94.7703 214.526C94.8242 214.466 95.2951 214.836 95.8199 215.353C96.3446 215.871 96.7146 216.322 96.6608 216.382Z" fill="#263238"/>
<path d="M97.7911 208.569C97.704 208.993 97.5223 209.393 97.2596 209.739C96.903 210.344 96.5532 210.801 96.4859 210.761C96.5706 210.336 96.7499 209.936 97.0107 209.591C97.374 208.985 97.7171 208.528 97.7911 208.569Z" fill="#263238"/>
<path d="M99.9103 201.333C99.9843 201.374 99.7758 201.898 99.4461 202.503C99.2752 202.893 99.0282 203.245 98.7195 203.539C98.7851 203.119 98.9437 202.719 99.1837 202.369C99.5134 201.757 99.8363 201.3 99.9103 201.333Z" fill="#263238"/>
<path d="M102.319 204.621C102.352 204.695 102.023 204.924 101.579 205.139C101.135 205.354 100.751 205.462 100.718 205.388C100.684 205.314 101.014 205.085 101.458 204.87C101.902 204.655 102.285 204.547 102.319 204.621Z" fill="#263238"/>
<path d="M102.373 230.604C101.255 230.523 100.196 230.071 99.3654 229.319C99.8884 229.48 100.395 229.69 100.879 229.945C101.398 230.113 101.899 230.334 102.373 230.604Z" fill="#263238"/>
<path d="M101.39 236.104C101.055 236.312 100.674 236.437 100.28 236.467C99.9047 236.589 99.5045 236.615 99.1165 236.541C99.4529 236.335 99.8331 236.21 100.227 236.178C100.859 236.057 101.377 236.023 101.39 236.104Z" fill="#263238"/>
<path d="M100.186 245.538C100.139 245.605 99.5134 245.168 98.9348 244.442C98.5495 244.028 98.2783 243.52 98.1476 242.97C98.5233 243.37 98.8632 243.802 99.1635 244.261C99.5411 244.656 99.8833 245.083 100.186 245.538Z" fill="#263238"/>
<path d="M86.9393 249.855C86.8855 249.795 87.2218 249.418 87.6861 249.021C88.1503 248.625 88.5741 248.349 88.6279 248.416C88.6818 248.483 88.3454 248.847 87.8812 249.25C87.4169 249.653 86.9931 249.916 86.9393 249.855Z" fill="#263238"/>
<path d="M83.1314 229.266C82.5931 227.591 81.5907 225.641 79.8348 225.614C79.3117 225.643 78.8061 225.812 78.3706 226.103C77.9351 226.394 77.5858 226.797 77.359 227.269C76.8757 228.202 76.6438 229.245 76.6862 230.294C76.9019 237.747 78.1726 245.132 80.4604 252.229H86.8989C86.821 244.427 85.5505 236.683 83.1314 229.266Z" fill="#455A64"/>
<path d="M71.4991 218.729C71.1807 217.16 70.3444 215.744 69.1244 214.708C67.9044 213.671 66.3714 213.075 64.7714 213.013C61.9256 213.511 60.8222 216.308 60.4859 219.173C60.1495 222.037 61.0375 224.888 61.9189 227.638C64.7355 236.461 67.5567 245.285 70.3823 254.112L78.3883 253.237C75.8856 241.416 74.4324 230.456 71.4991 218.729Z" fill="#455A64"/>
<path d="M79.8348 225.614C79.6277 225.901 79.4454 226.205 79.2898 226.522C78.958 227.431 78.854 228.408 78.9871 229.366C79.1082 230.59 79.2495 232.056 79.458 233.67C79.6666 235.284 79.9559 237.032 80.3192 238.901C81.0458 242.6 81.8666 245.908 82.3846 248.315C82.647 249.519 82.8488 250.501 82.9699 251.18C83.0237 251.496 83.0708 251.751 83.1045 251.967C83.1381 252.182 83.1448 252.242 83.1045 252.242C83.0714 252.157 83.0445 252.069 83.0237 251.98L82.8353 251.207C82.6604 250.487 82.4317 249.526 82.1626 248.362C81.5907 245.955 80.7363 242.654 80.0097 238.948C79.6464 237.093 79.3369 235.317 79.1687 233.69C79.0611 232.883 78.9938 232.103 78.9265 231.384C78.8593 230.664 78.792 229.985 78.7583 229.366C78.6451 228.38 78.784 227.38 79.162 226.462C79.3219 226.134 79.5515 225.845 79.8348 225.614Z" fill="#263238"/>
<path d="M64.9194 212.785C64.5625 213.191 64.2386 213.625 63.9506 214.082C63.2113 215.36 62.7934 216.797 62.7329 218.272C62.7006 220.457 63.0349 222.632 63.7219 224.707C64.3947 227.087 65.1953 229.703 66.0093 232.44C67.6038 237.926 69.0435 242.889 70.0998 246.513L71.3108 250.79C71.4453 251.274 71.5462 251.657 71.627 251.953C71.6728 252.086 71.7022 252.224 71.7144 252.363C71.6523 252.239 71.6027 252.108 71.5664 251.973C71.479 251.678 71.3511 251.301 71.2031 250.817C70.8869 249.788 70.4429 248.342 69.9047 246.574L65.7268 232.52C64.9194 229.77 64.1592 227.141 63.4595 224.774C62.7734 222.67 62.457 220.463 62.5244 218.251C62.613 216.749 63.0755 215.293 63.8699 214.015C64.1502 213.551 64.5047 213.135 64.9194 212.785Z" fill="#263238"/>
<path d="M76.6727 252.384C76.6054 252.259 76.5448 252.131 76.4911 252C76.3902 251.738 76.222 251.368 76.0403 250.871C75.5102 249.483 75.0609 248.067 74.6948 246.628C74.2238 244.812 73.6856 242.593 73.2012 240.172C72.7168 237.752 72.2324 235.042 71.6942 232.218C71.2018 229.568 70.5708 226.947 69.8037 224.364C69.178 222.254 68.3977 220.193 67.4692 218.198C66.8384 216.855 66.1169 215.556 65.3096 214.311C65.0338 213.867 64.7849 213.538 64.6368 213.309C64.5502 213.196 64.4758 213.075 64.4148 212.946C64.5136 213.046 64.6037 213.154 64.6839 213.269C64.8521 213.497 65.1145 213.807 65.4038 214.251C66.2531 215.477 67.0066 216.768 67.6576 218.11C68.6217 220.1 69.4248 222.165 70.0594 224.283C70.8198 226.876 71.444 229.506 71.9297 232.164C72.4612 234.981 72.959 237.671 73.4165 240.125C73.874 242.58 74.3584 244.752 74.8428 246.574C75.3272 248.396 75.7779 249.842 76.1278 250.83C76.2893 251.335 76.444 251.711 76.5314 251.973C76.5925 252.105 76.6399 252.242 76.6727 252.384Z" fill="#263238"/>
<path d="M62.0938 226.32C61.8054 226.527 61.4702 226.659 61.1183 226.704C60.5599 226.838 60.0956 226.885 60.0822 226.805C60.0687 226.724 60.4926 226.556 61.051 226.421C61.6094 226.287 62.0736 226.24 62.0938 226.32Z" fill="#263238"/>
<path d="M61.2461 220.86C60.8087 220.983 60.3541 221.033 59.9005 221.008C59.4529 221.069 58.9982 221.055 58.555 220.968C58.9734 220.766 59.4374 220.678 59.9005 220.712C60.3543 220.646 60.8175 220.697 61.2461 220.86Z" fill="#263238"/>
<path d="M62.1476 215.871C62.0938 215.938 61.6565 215.656 61.1788 215.246C60.7011 214.836 60.3446 214.452 60.3984 214.392C60.4522 214.331 60.8828 214.607 61.3672 215.017C61.8516 215.427 62.2014 215.811 62.1476 215.871Z" fill="#263238"/>
<path d="M64.5898 211.258C64.6705 211.258 64.6436 211.668 64.6369 212.132C64.6301 212.596 64.6369 212.993 64.5359 213.007C64.435 213.02 64.3274 212.63 64.3408 212.126C64.3543 211.621 64.5292 211.238 64.5898 211.258Z" fill="#263238"/>
<path d="M69.575 213.43C69.6423 213.477 69.4472 213.874 69.1377 214.311C68.8282 214.748 68.5255 215.071 68.4649 215.024C68.4044 214.977 68.5927 214.587 68.8955 214.143C69.1982 213.699 69.5077 213.383 69.575 213.43Z" fill="#263238"/>
<path d="M72.811 219.072C72.5521 219.323 72.2358 219.508 71.8893 219.61C71.3511 219.832 70.8802 219.946 70.8533 219.872C70.8264 219.798 71.2367 219.556 71.775 219.341C72.3132 219.126 72.7841 218.978 72.811 219.072Z" fill="#263238"/>
<path d="M74.7755 224.834C74.4202 225.144 73.9792 225.339 73.5107 225.392C73.0625 225.539 72.5819 225.555 72.1248 225.44C72.5569 225.27 73.0092 225.157 73.4704 225.103C73.8927 224.96 74.3311 224.87 74.7755 224.834Z" fill="#263238"/>
<path d="M65.7604 223.194C65.6864 223.194 65.7604 222.77 65.8882 222.299C66.016 221.829 66.2179 221.472 66.2919 221.499C66.3659 221.526 66.2919 221.923 66.1641 222.394C66.0362 222.864 65.8748 223.221 65.7604 223.194Z" fill="#263238"/>
<path d="M67.0185 230.456C67.0473 230.032 67.1715 229.621 67.3818 229.252C67.6576 228.62 67.9402 228.136 68.0142 228.17C67.9853 228.593 67.8612 229.005 67.6509 229.373C67.3751 230.005 67.0925 230.503 67.0185 230.456Z" fill="#263238"/>
<path d="M63.9103 232.446C63.5135 232.439 63.1222 232.352 62.7598 232.191C62.1476 231.996 61.6498 231.821 61.6699 231.74C62.0704 231.687 62.4776 231.746 62.8473 231.908C63.473 232.103 63.9439 232.372 63.9103 232.446Z" fill="#263238"/>
<path d="M65.6998 238.363C65.7469 238.431 65.4038 238.753 64.9396 239.09C64.4754 239.426 64.0448 239.641 63.9977 239.581C63.9506 239.52 64.2937 239.184 64.7647 238.848C65.2356 238.511 65.6527 238.296 65.6998 238.363Z" fill="#263238"/>
<path d="M67.1396 244.267C66.8609 244.472 66.5342 244.602 66.191 244.644C65.646 244.772 65.1953 244.819 65.1751 244.745C65.1549 244.671 65.5787 244.496 66.1237 244.361C66.6686 244.227 67.1194 244.187 67.1396 244.267Z" fill="#263238"/>
<path d="M74.937 229.77C74.9774 229.837 74.6141 230.126 74.0893 230.321C73.5645 230.516 73.0936 230.543 73.0802 230.469C73.0667 230.395 73.4838 230.241 73.9817 230.046C74.4795 229.851 74.8966 229.696 74.937 229.77Z" fill="#263238"/>
<path d="M76.0471 238.948C76.0135 239.022 75.5829 238.895 75.085 238.659C74.5872 238.424 74.2104 238.175 74.2441 238.101C74.2777 238.027 74.715 238.162 75.2129 238.39C75.7107 238.619 76.0875 238.874 76.0471 238.948Z" fill="#263238"/>
<path d="M78.0183 245.525C77.5727 245.502 77.137 245.385 76.74 245.182C76.0673 244.92 75.5492 244.644 75.5761 244.563C76.0196 244.586 76.4531 244.703 76.8477 244.906C77.5205 245.168 78.0452 245.444 78.0183 245.525Z" fill="#263238"/>
<path d="M67.4558 250.676C67.4154 250.602 67.9402 250.252 68.5457 249.774C69.1512 249.297 69.6221 248.867 69.6826 248.927C69.7432 248.988 69.3597 249.505 68.7273 250.003C68.3761 250.344 67.935 250.577 67.4558 250.676Z" fill="#263238"/>
<path d="M72.6496 247.313C72.5688 247.313 72.4545 246.883 72.2526 246.372C72.0508 245.861 71.849 245.451 71.9162 245.404C71.9835 245.357 72.3199 245.706 72.5285 246.264C72.737 246.823 72.7303 247.313 72.6496 247.313Z" fill="#263238"/>
<path d="M71.257 239.426C71.2099 239.493 70.8735 239.332 70.5034 239.07C70.1334 238.807 69.9114 238.572 69.9114 238.471C69.9114 238.37 70.2949 238.565 70.6649 238.828C71.0349 239.09 71.3242 239.359 71.257 239.426Z" fill="#263238"/>
<path d="M83.3668 227.04C83.4139 227.107 83.0843 227.43 82.6335 227.759C82.1828 228.089 81.7791 228.311 81.732 228.244C81.6849 228.176 82.0078 227.86 82.4586 227.524C82.9094 227.188 83.3668 226.973 83.3668 227.04Z" fill="#263238"/>
<path d="M85.217 232.029C85.217 232.11 84.7124 232.218 84.08 232.15C83.4476 232.083 82.9699 231.868 82.9901 231.794C83.3654 231.753 83.7448 231.774 84.1136 231.855C84.7124 231.915 85.2102 231.949 85.217 232.029Z" fill="#263238"/>
<path d="M77.3657 233.152C77.0463 233.353 76.673 233.452 76.296 233.435C75.677 233.475 75.1927 233.374 75.1994 233.293C75.2061 233.213 75.6905 233.186 76.2825 233.145C76.8746 233.105 77.3523 233.072 77.3657 233.152Z" fill="#263238"/>
<path d="M78.0452 228.432C78.0452 228.512 77.5608 228.526 77.0361 228.277C76.5113 228.028 76.2086 227.672 76.2624 227.605C76.3162 227.537 76.6795 227.793 77.1572 228.008C77.6348 228.223 78.0519 228.351 78.0452 228.432Z" fill="#263238"/>
<path d="M85.8897 237.388C85.8494 237.456 85.3582 237.227 84.7931 236.871C84.228 236.514 83.8109 236.198 83.858 236.104C83.9051 236.01 84.3895 236.272 84.9546 236.622C85.5197 236.972 85.9368 237.321 85.8897 237.388Z" fill="#263238"/>
<path d="M105.044 251.388H63.1635V258.805H105.044V251.388Z" fill="#58C8C6"/>
<path d="M66.2919 257.339L71.3848 279.509H96.3446L101.915 257.339H66.2919Z" fill="#58C8C6"/>
<path d="M105.023 258.819C105.023 258.899 95.6046 258.967 83.9253 258.967C72.2459 258.967 62.8271 258.899 62.8271 258.819C62.8271 258.738 72.2459 258.671 83.9253 258.671C95.6046 258.671 105.023 258.745 105.023 258.819Z" fill="#263238"/>
<path d="M81.732 233.314C81.6647 233.354 81.3754 233.024 81.0929 232.567C80.8103 232.11 80.6354 231.707 80.7027 231.666C80.7699 231.626 81.0592 231.955 81.3418 232.413C81.6244 232.87 81.7993 233.267 81.732 233.314Z" fill="#263238"/>
<path d="M81.7454 239.278C81.7238 238.891 81.8002 238.505 81.9674 238.155C82.1625 237.557 82.3913 237.093 82.4653 237.12C82.4869 237.509 82.4105 237.897 82.2433 238.249C82.0213 238.841 81.8262 239.305 81.7454 239.278Z" fill="#263238"/>
<path d="M83.7907 245.545C83.7167 245.585 83.4072 245.081 83.1179 244.429C82.8846 244.051 82.7376 243.626 82.6873 243.185C82.7614 243.144 83.0708 243.649 83.3601 244.301C83.5934 244.679 83.7405 245.104 83.7907 245.545Z" fill="#263238"/>
<path d="M79.3706 250.588C79.31 250.534 79.559 250.151 79.929 249.721C80.299 249.29 80.6421 248.995 80.7094 249.048C80.7767 249.102 80.521 249.492 80.151 249.916C79.781 250.339 79.4311 250.676 79.3706 250.588Z" fill="#263238"/>
<path d="M78.4422 241.437C78.4422 241.517 78.025 241.51 77.5406 241.437C77.0562 241.363 76.6795 241.221 76.6929 241.141C76.7064 241.06 77.1101 241.067 77.5877 241.141C78.0654 241.215 78.4556 241.356 78.4422 241.437Z" fill="#263238"/>
<path d="M224.144 200.405H124.83V279.563H224.144V200.405Z" fill="#E3E7F2"/>
<g opacity="0.3">
<path opacity="0.3" d="M132.062 200.567C143.755 204.736 156.652 205.63 169.199 205.865C171.803 205.912 174.433 205.906 176.949 206.538C179.466 207.17 181.894 208.602 183.186 210.855C184.592 213.309 184.444 216.382 183.644 219.092C182.843 221.802 181.464 224.31 180.468 226.953C178.706 231.628 178.166 236.676 178.9 241.618C179.128 243.723 179.837 245.748 180.973 247.535C181.548 248.423 182.324 249.165 183.237 249.699C184.151 250.234 185.177 250.548 186.234 250.615C190.008 250.669 192.591 246.964 194.462 243.682C202.138 230.234 210.44 214.97 215.351 200.291L132.062 200.567Z" fill="black"/>
</g>
<path d="M158.67 279.139C158.569 279.139 158.495 261.596 158.495 239.957C158.495 218.319 158.569 200.768 158.67 200.768C158.771 200.768 158.845 218.312 158.845 239.957C158.845 261.602 158.764 279.139 158.67 279.139Z" fill="#455A64"/>
<path d="M199.366 141.905C199.07 139.928 193.163 133.405 193.163 133.405C193.163 133.405 190.217 121.564 189.328 118.074C189.033 117.065 188.6 116.101 188.043 115.21C185.955 111.732 182.984 108.867 179.432 106.905L171.258 102.312L169.307 97.9686L149.675 87.8823L144.354 97.2962C144.354 97.2962 131.43 101.398 129.721 104.31C128.012 107.221 130.569 146.538 130.569 146.538C130.569 146.538 125.186 169.212 124.022 173.905C122.859 178.599 124.386 184.193 124.386 184.193L134.013 172.123C137.007 168.371 143.573 166.643 148.289 166.71L188.595 166.892L186.974 155.609L219.583 161.916C219.583 161.916 225.187 150.982 225.638 150.767C226.089 150.552 199.366 141.905 199.366 141.905Z" fill="#0033A0"/>
<path d="M148.841 100.961C148.558 100.672 151.115 109.312 154.331 118.114C156.06 122.871 156.942 127.894 156.934 132.955V164.827L176.257 163.516L173.37 142.523C173.37 142.523 171.016 128.981 170.356 123.83C169.751 119.123 167.665 106.347 167.665 106.347C167.665 106.347 156.934 109.198 148.841 100.961Z" fill="white"/>
<path d="M191.724 149.812C191.697 149.65 191.697 149.484 191.724 149.322C191.768 148.882 191.854 148.448 191.979 148.024C192.388 146.609 193.149 145.32 194.19 144.277C195.231 143.235 196.518 142.472 197.933 142.059C198.357 141.934 198.792 141.849 199.232 141.804C199.391 141.77 199.556 141.77 199.716 141.804C199.716 141.864 199.043 141.938 198.007 142.295C196.663 142.756 195.442 143.519 194.438 144.525C193.434 145.531 192.673 146.753 192.215 148.098C191.858 149.14 191.784 149.812 191.724 149.812Z" fill="#263238"/>
<path d="M192.719 142.174C193.617 141.647 194.632 141.354 195.673 141.32C196.703 141.177 197.753 141.302 198.72 141.683C198.72 141.79 197.375 141.528 195.7 141.683C194.024 141.837 192.76 142.275 192.719 142.174Z" fill="#263238"/>
<g opacity="0.3">
<path opacity="0.3" d="M128.624 159.569L126.942 161.465C128.696 163.63 131.073 165.203 133.751 165.971C136.45 166.543 139.207 166.791 141.965 166.71C143.083 166.763 144.202 166.657 145.289 166.394C146.385 166.078 147.401 165.46 148.538 165.392C149.301 165.399 150.059 165.507 150.792 165.715C151.53 165.924 152.309 165.936 153.053 165.749C153.421 165.649 153.747 165.434 153.983 165.135C154.219 164.836 154.353 164.469 154.365 164.088C145.977 161.638 137.345 160.123 128.624 159.569Z" fill="black"/>
</g>
<path d="M183.792 162.003L179.082 156.974L169.293 154.519C169.293 154.519 160.359 157.209 160.144 157.209C159.928 157.209 152.366 155.138 152.366 155.138L149.722 164.834L163.346 165.769L178.901 165.144C178.901 165.144 179.715 164.39 179.23 163.873C178.746 163.355 181.834 164.747 182.197 164.76C182.56 164.774 183.26 165.056 183.744 164.478C184.074 164.048 184.518 162.777 183.792 162.003Z" fill="#FFBE9D"/>
<path d="M179.23 163.839C178.702 163.739 178.184 163.591 177.683 163.395C176.741 163.099 175.429 162.723 173.969 162.319C172.509 161.916 171.164 161.647 170.188 161.479C169.654 161.409 169.129 161.285 168.621 161.109C169.159 161.089 169.699 161.129 170.228 161.23C171.515 161.41 172.791 161.662 174.05 161.983C175.31 162.303 176.55 162.699 177.764 163.167C178.279 163.328 178.771 163.554 179.23 163.839Z" fill="#EB996E"/>
<path d="M183.792 162.003C183.058 161.817 182.335 161.593 181.625 161.331C180.28 160.887 178.443 160.336 176.378 159.764C174.312 159.193 172.482 158.54 171.09 158.46C170.339 158.422 169.587 158.451 168.843 158.547C169.025 158.447 169.223 158.379 169.428 158.345C169.978 158.227 170.541 158.182 171.103 158.211C172.543 158.211 174.467 158.823 176.485 159.428C178.504 160.033 180.401 160.591 181.719 161.102C182.392 161.351 182.897 161.58 183.26 161.741C183.45 161.801 183.629 161.89 183.792 162.003Z" fill="#EB996E"/>
<path d="M129.721 104.31C129.721 104.31 122.69 109.198 120.975 116.232C119.259 123.265 111.852 152.011 113.372 156.308C114.893 160.605 144.455 164.827 144.455 164.827L147.96 150.034L132.943 145.926C132.943 145.926 133.139 132.242 133.327 126.573C133.515 120.905 129.721 104.31 129.721 104.31Z" fill="#0033A0"/>
<path d="M147.771 152.26L152.609 153.45L149.695 164.599L144.946 163.839L147.771 152.26Z" fill="white"/>
<path d="M113.265 154.788C113.272 155.014 113.297 155.239 113.339 155.461C113.501 156.111 113.861 156.696 114.368 157.135C115.653 158.332 118.109 159.327 121.217 159.885C122.637 160.356 124.258 160.726 125.987 161.116C127.716 161.506 129.586 161.902 131.551 162.299C135.486 163.106 139.839 163.953 144.455 164.814L144.253 164.942C144.582 163.597 144.925 162.124 145.296 160.652C146.123 157.29 146.93 153.981 147.691 150.868L147.812 151.07L134.498 147.297C132.659 146.524 130.67 146.174 128.678 146.275C127.165 146.362 125.678 146.713 124.285 147.311C123.401 147.694 122.556 148.163 121.762 148.71L121.15 149.153C121.082 149.207 121.01 149.254 120.934 149.295C120.994 149.232 121.056 149.174 121.123 149.12C121.251 149.012 121.446 148.844 121.715 148.642C122.495 148.062 123.337 147.568 124.224 147.17C125.626 146.537 127.13 146.161 128.665 146.06C130.691 145.933 132.721 146.268 134.598 147.042L147.953 150.781L148.114 150.821L148.074 150.982C147.314 154.096 146.513 157.377 145.692 160.773C145.329 162.239 144.979 163.691 144.643 165.056L144.603 165.217H144.441C139.826 164.35 135.48 163.489 131.544 162.669C129.58 162.259 127.716 161.849 125.98 161.445C124.244 161.042 122.616 160.658 121.19 160.168C118.042 159.569 115.586 158.534 114.287 157.276C113.771 156.814 113.418 156.199 113.278 155.521C113.23 155.28 113.226 155.031 113.265 154.788Z" fill="#263238"/>
<path d="M133.764 146.928C133.724 146.975 133.219 146.511 132.318 145.912C129.956 144.333 127.166 143.518 124.325 143.579C123.235 143.579 122.569 143.727 122.556 143.666C123.12 143.463 123.713 143.352 124.312 143.337C127.231 143.127 130.128 143.969 132.479 145.711C132.972 146.043 133.406 146.454 133.764 146.928Z" fill="#263238"/>
<path d="M135.735 122.855C135.762 123.155 135.762 123.456 135.735 123.756C135.735 124.341 135.675 125.175 135.594 126.21C135.426 128.275 135.123 131.119 134.578 134.239C134.153 136.909 133.53 139.543 132.715 142.12C132.553 142.611 132.378 143.055 132.237 143.465L131.806 144.433C131.679 144.708 131.524 144.97 131.342 145.213C131.427 144.925 131.54 144.646 131.679 144.379C131.793 144.09 131.914 143.761 132.055 143.397C132.197 143.034 132.331 142.564 132.479 142.053C133.212 139.465 133.798 136.839 134.235 134.185C134.773 131.079 135.116 128.248 135.345 126.19C135.446 125.215 135.534 124.402 135.601 123.756C135.609 123.451 135.654 123.149 135.735 122.855Z" fill="#263238"/>
<path d="M152.878 115.237C152.81 115.067 152.734 114.901 152.649 114.739C152.408 114.292 152.059 113.913 151.633 113.636C151.317 113.42 150.956 113.279 150.577 113.223C150.198 113.167 149.812 113.198 149.447 113.313C148.984 113.472 148.57 113.748 148.247 114.115C147.924 114.481 147.702 114.926 147.603 115.405L147.509 115.882L147.3 115.438C146.513 113.75 145.828 112.017 145.248 110.247C144.221 107.299 143.706 104.197 143.728 101.075C143.728 100.477 143.809 99.9389 143.842 99.4615C143.881 99.0572 143.953 98.6569 144.058 98.2646C144.13 97.9255 144.229 97.5927 144.354 97.2694C144.125 98.5259 143.997 99.7985 143.97 101.075C144.025 104.163 144.568 107.222 145.578 110.14C146.156 111.896 146.83 113.62 147.596 115.304L147.294 115.344C147.41 114.816 147.664 114.327 148.029 113.927C148.393 113.527 148.857 113.23 149.373 113.065C149.773 112.944 150.196 112.918 150.608 112.989C151.021 113.06 151.411 113.227 151.747 113.475C152.184 113.782 152.529 114.203 152.743 114.692C152.803 114.82 152.846 114.956 152.871 115.095C152.884 115.183 152.891 115.237 152.878 115.237Z" fill="#263238"/>
<path d="M169.28 116.749C169.208 116.487 169.157 116.22 169.125 115.949C168.977 115.208 168.93 114.45 168.984 113.697C169.135 112.537 169.713 111.475 170.605 110.718C171.157 110.265 171.849 110.015 172.563 110.012C172.952 110.007 173.338 110.087 173.694 110.246C174.049 110.405 174.366 110.64 174.622 110.933L174.326 111.108L173.687 109.501C172.428 106.334 171.312 103.449 170.518 101.371L169.596 98.89C169.469 98.5932 169.373 98.2846 169.307 97.9688C169.473 98.2466 169.612 98.5392 169.724 98.8429C169.993 99.5153 170.336 100.302 170.753 101.284C171.608 103.348 172.772 106.206 174.016 109.353L174.649 110.967L175.059 112.002L174.386 111.135C174.164 110.878 173.888 110.672 173.577 110.533C173.267 110.393 172.93 110.323 172.59 110.328C171.95 110.324 171.327 110.54 170.827 110.94C169.986 111.642 169.425 112.623 169.246 113.703C169.172 114.44 169.186 115.182 169.287 115.916C169.318 116.193 169.316 116.473 169.28 116.749Z" fill="#263238"/>
<path d="M181.76 118.417C181.854 118.417 183.374 128.624 185.157 141.246C186.94 153.867 188.299 164.108 188.205 164.108C188.111 164.108 186.59 153.901 184.807 141.246C183.025 128.591 181.666 118.43 181.76 118.417Z" fill="#263238"/>
<g opacity="0.3">
<path opacity="0.3" d="M145.45 110.355C145.533 112.969 146.101 115.546 147.125 117.953C147.859 117.045 148.673 116.09 149.817 115.822C151.202 115.492 152.609 116.346 153.611 117.395C153.438 116.346 153.024 115.351 152.4 114.49C152.089 114.067 151.684 113.721 151.217 113.48C150.75 113.238 150.234 113.108 149.709 113.098C149.185 113.112 148.681 113.299 148.276 113.63C147.87 113.961 147.586 114.417 147.469 114.927L145.538 110.402" fill="black"/>
</g>
<path d="M134.087 117.745C134.027 117.745 134.047 117.039 133.845 115.942C133.568 114.515 133.012 113.155 132.21 111.942C131.758 111.285 131.242 110.675 130.669 110.119C130.196 109.67 129.68 109.267 129.129 108.916C128.18 108.317 127.514 108.089 127.541 108.028C127.706 108.04 127.868 108.081 128.019 108.149C128.206 108.202 128.389 108.271 128.564 108.358C128.797 108.457 129.022 108.573 129.236 108.707C129.822 109.037 130.37 109.429 130.871 109.877C131.475 110.439 132.014 111.066 132.479 111.747C133.314 112.995 133.857 114.415 134.067 115.902C134.133 116.347 134.156 116.798 134.134 117.247C134.134 117.57 134.114 117.745 134.087 117.745Z" fill="#263238"/>
<path d="M173.142 69.7942C172.757 66.1936 171.031 62.8696 168.306 60.4835C165.581 58.0974 162.057 56.8243 158.435 56.9174H157.688C149.648 57.5898 145.733 64.7914 146.634 72.7999L148.841 100.974L149.776 102.118C151.876 104.695 154.769 106.507 158.006 107.269C161.243 108.032 164.642 107.703 167.672 106.334L167.053 97.2694C167.053 97.2694 174.763 95.8707 174.655 88.1379C174.608 84.3858 173.882 76.7067 173.142 69.7942Z" fill="#FFBE9D"/>
<path d="M167.114 97.2493C163.524 97.3498 159.981 96.4162 156.908 94.5596C156.908 94.5596 159.43 100.067 167.134 99.1724L167.114 97.2493Z" fill="#EB996E"/>
<path d="M170.693 76.1554C170.702 76.443 170.599 76.723 170.406 76.9363C170.213 77.1496 169.944 77.2795 169.657 77.2985C169.517 77.3124 169.377 77.2987 169.243 77.2583C169.109 77.2178 168.984 77.1513 168.876 77.0626C168.768 76.9739 168.679 76.8647 168.613 76.7413C168.547 76.618 168.506 76.4828 168.493 76.3437C168.483 76.056 168.586 75.776 168.78 75.5627C168.973 75.3494 169.241 75.2196 169.529 75.2005C169.667 75.1856 169.807 75.1982 169.94 75.2375C170.074 75.2768 170.198 75.342 170.306 75.4295C170.415 75.517 170.504 75.625 170.571 75.7472C170.637 75.8695 170.678 76.0036 170.693 76.1419V76.1554Z" fill="#263238"/>
<path d="M171.393 73.2144C171.245 73.2763 170.469 72.8615 169.278 72.7334C168.087 72.6054 167.178 72.8402 167.069 72.7496C166.96 72.6589 167.179 72.5884 167.573 72.475C168.157 72.3332 168.761 72.2959 169.358 72.3649C169.938 72.4152 170.502 72.5763 171.021 72.8393C171.372 73.0295 171.469 73.1853 171.393 73.2144Z" fill="#263238"/>
<path d="M159.525 76.7403C159.537 77.0289 159.436 77.3108 159.242 77.5249C159.048 77.7389 158.777 77.8678 158.489 77.8834C158.35 77.8983 158.21 77.8858 158.077 77.8465C157.943 77.8072 157.819 77.7419 157.711 77.6545C157.603 77.567 157.513 77.459 157.447 77.3368C157.38 77.2145 157.339 77.0804 157.325 76.9421C157.315 76.6544 157.418 76.3744 157.611 76.1611C157.805 75.9478 158.073 75.818 158.361 75.7989C158.499 75.784 158.639 75.7966 158.772 75.8359C158.906 75.8752 159.03 75.9404 159.138 76.0279C159.247 76.1154 159.336 76.2233 159.403 76.3456C159.469 76.4679 159.51 76.602 159.525 76.7403Z" fill="#263238"/>
<path d="M159.454 72.6347C158.738 72.6524 158.023 72.7114 157.314 72.8116C156.157 73.0326 155.32 73.4838 155.189 73.4404C155.058 73.397 155.243 73.2676 155.602 73.0657C156.13 72.7803 156.701 72.5806 157.292 72.4739C157.859 72.3617 158.442 72.3441 159.015 72.4218C159.35 72.5049 159.485 72.6056 159.454 72.6347Z" fill="#263238"/>
<path d="M163.409 86.8713C164.124 86.9259 164.84 86.9393 165.556 86.9113C166.73 86.8082 167.608 86.4439 167.734 86.5003C167.86 86.5567 167.663 86.6667 167.285 86.8314C166.731 87.062 166.143 87.2031 165.544 87.2495C164.968 87.3038 164.387 87.2625 163.824 87.1273C163.5 87.0109 163.375 86.897 163.409 86.8713Z" fill="#263238"/>
<path d="M164.019 82.8056C164.642 82.597 165.288 82.4638 165.943 82.4089C166.246 82.4089 166.528 82.3013 166.575 82.0928C166.593 81.7813 166.516 81.4716 166.353 81.2053L165.391 78.9123C164.046 75.6578 163.09 72.9748 163.225 72.9278C163.359 72.8807 164.57 75.4695 165.869 78.724C166.192 79.5309 166.501 80.2975 166.791 81.0304C166.989 81.391 167.056 81.8095 166.979 82.2139C166.937 82.3221 166.871 82.4194 166.786 82.4985C166.701 82.5777 166.599 82.6367 166.488 82.6711C166.322 82.7235 166.15 82.7529 165.977 82.7585C165.329 82.8582 164.671 82.8741 164.019 82.8056Z" fill="#263238"/>
<path d="M159.39 68.9873C159.256 69.3033 158.078 69.0949 156.699 69.189C155.32 69.2832 154.149 69.6194 154.008 69.3168C153.927 69.1756 154.142 68.8797 154.607 68.5906C155.231 68.2353 155.929 68.0276 156.646 67.9833C157.363 67.939 158.081 68.0594 158.744 68.3351C159.188 68.5704 159.43 68.8327 159.39 68.9873Z" fill="#263238"/>
<path d="M171.157 69.2495C170.895 69.5252 169.872 69.2495 168.647 69.2495C167.423 69.2495 166.38 69.458 166.138 69.1756C166.03 69.0411 166.192 68.7654 166.643 68.5032C167.265 68.1794 167.96 68.0197 168.661 68.0392C169.368 68.0343 170.064 68.2152 170.679 68.5637C171.123 68.8394 171.271 69.1218 171.157 69.2495Z" fill="#263238"/>
<path d="M175.395 62.9221C175.327 62.5691 175.132 62.2533 174.847 62.034C174.562 61.8148 174.207 61.7073 173.848 61.7319C174.235 61.6217 174.596 61.4367 174.911 61.1873C175.068 61.0614 175.187 60.8935 175.252 60.703C175.318 60.5125 175.328 60.3073 175.281 60.1114C175.079 59.5129 174.312 59.3852 173.707 59.2171C172.912 58.9862 172.207 58.5167 171.688 57.8722C170.955 56.9443 170.672 55.7339 170.033 54.732C169.671 54.1636 169.2 53.6721 168.647 53.2857C168.095 52.8993 167.471 52.6255 166.813 52.48C166.154 52.3345 165.473 52.3202 164.809 52.4377C164.145 52.5553 163.511 52.8025 162.942 53.1653C162.633 53.3593 162.344 53.5846 162.081 53.8377C161.088 52.8295 159.738 52.2529 158.322 52.2327C156.907 52.2126 155.541 52.7506 154.519 53.7301C154.098 54.1442 153.746 54.6233 153.476 55.1489C152.444 54.7211 151.316 54.5779 150.21 54.7344C149.104 54.8908 148.06 55.3412 147.187 56.0384C146.314 56.7356 145.644 57.6541 145.248 58.6982C144.851 59.7422 144.742 60.8735 144.932 61.974L149.749 64.9259C149.785 64.5859 149.888 64.2563 150.052 63.956C150.215 63.6557 150.436 63.3905 150.703 63.1757C150.969 62.9609 151.275 62.8006 151.603 62.704C151.931 62.6074 152.275 62.5764 152.615 62.6128C152.719 62.6242 152.823 62.6421 152.925 62.6666C154.378 63.0902 155.306 64.7713 156.813 64.8856C157.991 64.973 158.993 64.0652 160.13 63.7626C161.509 63.3928 162.969 63.9442 164.214 64.6435C165.458 65.3428 166.649 66.217 168.035 66.5666C169.691 66.8974 171.409 66.6925 172.94 65.9816C173.62 65.7452 174.241 65.3618 174.756 64.8587C175.008 64.6092 175.197 64.3036 175.308 63.9671C175.419 63.6305 175.449 63.2724 175.395 62.9221Z" fill="#263238"/>
<path d="M150.563 62.6733L172.63 62.5522C171.835 61.0689 170.678 59.8106 169.266 58.8943C166.335 56.7554 162.804 55.5953 159.175 55.5792C155.575 55.5792 148.377 60.1988 145.84 62.7472C143.822 64.7645 143.876 66.5061 143.876 66.5061C143.62 69.3706 145.309 72.5579 146.029 75.3618C146.392 76.8008 147.152 81.1581 147.152 81.1581C148.363 81.1245 148.787 80.1428 148.572 78.9459L148.215 74.2389C149.407 73.2467 150.242 71.8927 150.593 70.3827C150.944 68.8728 150.792 67.2896 150.16 65.874C149.857 65.4571 149.13 63.5138 150.563 62.6733Z" fill="#263238"/>
<path d="M147.899 73.9297C146.776 70.0296 145.74 65.8606 146.937 61.9606H146.264L145.995 62.1556C145.373 61.9466 144.701 61.9412 144.075 62.1401C143.45 62.339 142.904 62.7319 142.517 63.2617C142.13 63.7915 141.922 64.4308 141.924 65.0867C141.925 65.7426 142.135 66.3811 142.524 66.9096C141.868 66.9038 141.232 67.1378 140.737 67.5674C140.241 67.9971 139.92 68.5929 139.833 69.2429C139.832 70.1489 140.081 71.0376 140.552 71.8115C141.023 72.5885 141.311 73.4623 141.393 74.3667C141.423 74.8173 141.292 75.2638 141.024 75.627C140.755 75.9901 140.366 76.2464 139.927 76.3504C140.139 76.8091 140.504 77.1806 140.958 77.4023C141.413 77.624 141.93 77.6823 142.423 77.5675C142.106 78.3327 141.582 78.9942 140.909 79.4771C142.349 80.4589 144.32 80.1496 145.881 79.3628C146.848 78.9725 147.639 78.2401 148.101 77.3052C148.532 76.2226 148.209 75.0324 147.899 73.9297Z" fill="#263238"/>
<path d="M147.536 78.4819C147.401 78.4281 142.154 77.0496 142.483 82.3281C142.813 87.6066 148.034 86.2147 148.034 86.06C148.034 85.9054 147.536 78.4819 147.536 78.4819Z" fill="#FFBE9D"/>
<path d="M146.769 84.1437C146.692 84.1993 146.611 84.2488 146.527 84.2916C146.317 84.3933 146.077 84.4125 145.854 84.3454C145.282 84.1706 144.764 83.3166 144.683 82.3618C144.642 81.9055 144.704 81.4459 144.865 81.0169C144.907 80.8469 144.991 80.69 145.108 80.5598C145.225 80.4297 145.373 80.3303 145.538 80.2705C145.642 80.238 145.755 80.2423 145.856 80.2827C145.958 80.3231 146.043 80.3971 146.096 80.4924C146.177 80.6336 146.143 80.7412 146.177 80.7547C146.21 80.7681 146.284 80.6538 146.231 80.4386C146.19 80.3118 146.11 80.2012 146.002 80.1226C145.927 80.0706 145.843 80.0343 145.754 80.0158C145.665 79.9973 145.573 79.997 145.484 80.015C145.27 80.0712 145.073 80.1809 144.913 80.3338C144.753 80.4867 144.635 80.6778 144.569 80.8892C144.374 81.3612 144.293 81.8727 144.333 82.3819C144.434 83.4444 145.006 84.3992 145.814 84.5875C145.957 84.6176 146.105 84.6163 146.248 84.5838C146.391 84.5514 146.525 84.4884 146.641 84.3992C146.769 84.2714 146.789 84.1504 146.769 84.1437Z" fill="#EB996E"/>
<path d="M142.053 74.1045C141.948 73.9164 141.912 73.6975 141.952 73.4859C142.011 73.2042 142.13 72.9384 142.301 72.7064C142.471 72.4745 142.69 72.2817 142.941 72.141C143.699 71.7803 144.524 71.5811 145.363 71.556C145.832 71.5561 146.295 71.4453 146.714 71.2326C147.132 71.0199 147.495 70.7114 147.771 70.3322C148.21 69.4768 148.356 68.5015 148.188 67.5551C148.061 66.6675 147.825 65.8674 147.711 65.1748C147.497 64.4328 147.508 63.6439 147.744 62.9087C147.75 63.6505 147.833 64.3898 147.993 65.1142C148.141 65.7867 148.404 66.5734 148.565 67.5081C148.768 68.5422 148.611 69.6144 148.121 70.5474C147.83 71.0302 147.388 71.4037 146.863 71.6098C146.394 71.7839 145.902 71.8925 145.403 71.9326C144.608 71.9395 143.821 72.0945 143.082 72.3898C142.616 72.6308 142.265 73.0469 142.107 73.5464C142.078 73.7313 142.06 73.9176 142.053 74.1045Z" fill="#455A64"/>
<path d="M140.775 71.8115C140.684 71.6674 140.628 71.5038 140.613 71.3341C140.56 70.8695 140.652 70.4 140.875 69.9892C141.032 69.6994 141.245 69.4434 141.501 69.2361C141.802 69.0074 142.148 68.8468 142.517 68.7654C142.875 68.6917 143.215 68.5502 143.519 68.3485C143.655 68.228 143.761 68.0781 143.83 67.9103C143.899 67.7425 143.928 67.5612 143.916 67.3802C143.916 66.9835 143.869 66.5599 143.883 66.1363C143.891 65.7318 143.936 65.3289 144.017 64.9326C144.152 64.2635 144.41 63.6251 144.778 63.0499C144.893 62.8378 145.061 62.6583 145.264 62.5279C145.467 62.3974 145.7 62.3202 145.941 62.3035C146.291 62.3035 146.439 62.4648 146.426 62.4783C146.27 62.4488 146.11 62.4488 145.955 62.4783C145.753 62.5215 145.563 62.6106 145.401 62.7389C145.239 62.8672 145.108 63.0311 145.02 63.218C144.716 63.7819 144.502 64.39 144.387 65.02C144.32 65.3928 144.286 65.7709 144.286 66.1497C144.286 66.5397 144.347 66.9566 144.327 67.4139C144.337 67.6532 144.291 67.8916 144.195 68.1108C144.098 68.3299 143.952 68.524 143.768 68.678C143.421 68.9109 143.029 69.0689 142.618 69.142C142.312 69.1943 142.02 69.3114 141.762 69.4853C141.505 69.6592 141.287 69.8861 141.124 70.1506C140.848 70.6584 140.727 71.2356 140.775 71.8115Z" fill="#455A64"/>
<path d="M171.695 57.8723C171.527 57.9642 171.337 58.0095 171.146 58.0036C170.954 57.9977 170.767 57.9408 170.605 57.8387C170.214 57.628 169.873 57.3369 169.603 56.9847C169.27 56.547 168.854 56.1791 168.378 55.9021C167.76 55.5558 167.055 55.3962 166.348 55.4428C165.641 55.4893 164.963 55.74 164.396 56.1643C163.723 56.635 163.164 57.3007 162.377 57.8521C161.977 58.1483 161.518 58.3568 161.032 58.464C160.528 58.5522 160.01 58.5034 159.531 58.3228C158.576 57.9799 157.823 57.3949 157.002 57.099C156.21 56.7957 155.368 56.6429 154.519 56.6485C153.058 56.6487 151.638 57.1335 150.483 58.0269C149.71 58.6283 149.069 59.3811 148.599 60.2392C148.269 60.8511 148.148 61.2277 148.114 61.2142C148.081 61.2008 148.114 61.1134 148.168 60.9318C148.242 60.6693 148.337 60.413 148.451 60.1652C148.886 59.25 149.518 58.4419 150.301 57.7983C151.483 56.8363 152.955 56.2988 154.479 56.2719C155.377 56.2496 156.27 56.4027 157.109 56.7224C157.997 57.0452 158.764 57.6302 159.632 57.9328C160.043 58.0924 160.49 58.1366 160.924 58.0606C161.346 57.965 161.742 57.7817 162.088 57.5226C162.794 57.0183 163.386 56.3526 164.106 55.855C164.772 55.3563 165.582 55.0893 166.414 55.0952C167.123 55.1013 167.818 55.2913 168.432 55.6466C168.922 55.9621 169.348 56.3657 169.69 56.8368C169.926 57.1822 170.231 57.4753 170.585 57.6975C170.918 57.8979 171.316 57.9607 171.695 57.8723Z" fill="#455A64"/>
<path d="M230.704 189.257C228.656 187.496 225.998 186.612 223.303 186.796L218.756 201.232C222.086 201.38 225.409 203.095 228.625 202.214C229.909 201.818 231.054 201.064 231.923 200.039C232.792 199.014 233.349 197.762 233.53 196.431C233.668 195.097 233.484 193.748 232.992 192.499C232.501 191.251 231.716 190.139 230.704 189.257Z" fill="#E3E829"/>
<path d="M223.357 186.466C223.357 186.352 223.848 186.258 224.703 186.264C225.974 186.286 227.232 186.525 228.423 186.97C230.245 187.676 231.821 188.899 232.958 190.487C233.653 191.428 234.166 192.491 234.471 193.621C234.8 194.857 234.836 196.153 234.579 197.406C234.327 198.676 233.761 199.862 232.931 200.856C232.137 201.763 231.129 202.456 229.998 202.873C228.162 203.522 226.183 203.65 224.279 203.243C223.054 203.002 221.859 202.63 220.713 202.133C219.913 201.79 219.489 201.535 219.529 201.421C219.57 201.306 220.054 201.34 220.875 201.481C221.696 201.622 222.94 201.885 224.42 202.019C226.099 202.205 227.797 201.974 229.365 201.347C230.225 200.983 230.986 200.421 231.585 199.706C232.212 198.923 232.641 198 232.837 197.016C233.021 196.04 233.008 195.037 232.796 194.067C232.584 193.096 232.18 192.179 231.605 191.368C230.679 189.964 229.404 188.824 227.905 188.06C226.843 187.561 225.731 187.173 224.588 186.903C223.815 186.728 223.344 186.587 223.357 186.466Z" fill="#F5F5F5"/>
<path d="M181.222 240.63L171.332 268.327L205.744 280.8C206.74 277.438 191.327 264.393 191.327 264.393L198.391 246.91L181.222 240.63Z" fill="#E3E829"/>
<g opacity="0.6">
<path opacity="0.6" d="M181.228 259.047C180.861 259.027 180.498 259.144 180.212 259.375C179.925 259.606 179.733 259.935 179.674 260.298C179.641 260.663 179.75 261.028 179.978 261.315C180.206 261.603 180.535 261.792 180.899 261.844C181.291 261.865 181.677 261.739 181.98 261.49C182.284 261.241 182.484 260.888 182.54 260.5C182.54 259.767 181.814 258.926 181.087 259.027" fill="white"/>
</g>
<path d="M171.332 268.327L172.334 265.536L205.018 278.568C205.018 278.568 206.309 279.785 205.744 280.8L171.332 268.327Z" fill="white"/>
<path d="M191.952 264.42C191.885 264.588 191.017 264.359 189.995 264.601C188.972 264.843 188.272 265.388 188.144 265.274C188.017 265.159 188.615 264.272 189.86 264.003C191.105 263.734 192.04 264.279 191.952 264.42Z" fill="#263238"/>
<path d="M195.047 267.224C195.047 267.399 194.193 267.419 193.365 267.896C192.538 268.374 192.1 269.093 191.932 269.026C191.764 268.959 192.006 267.97 193.049 267.358C194.092 266.746 195.047 267.062 195.047 267.224Z" fill="#263238"/>
<path d="M195.498 272.28C195.336 272.28 195.404 271.339 196.171 270.573C196.938 269.806 197.853 269.732 197.873 269.9C197.893 270.068 197.234 270.378 196.615 271.016C195.996 271.655 195.673 272.328 195.498 272.28Z" fill="#263238"/>
<path d="M193.116 260.258C192.988 260.385 192.302 259.874 191.333 259.585C190.365 259.296 189.51 259.336 189.477 259.162C189.443 258.987 190.365 258.644 191.495 258.993C192.625 259.343 193.251 260.157 193.116 260.258Z" fill="#263238"/>
<path d="M193.775 255.88C193.158 255.825 192.566 255.607 192.06 255.248C191.476 254.915 190.938 254.508 190.459 254.038C190.173 253.762 189.905 253.468 189.658 253.157C189.503 252.98 189.375 252.781 189.281 252.565C189.214 252.406 189.202 252.228 189.247 252.061C189.292 251.894 189.392 251.747 189.53 251.644C189.657 251.557 189.801 251.501 189.953 251.479C190.105 251.458 190.26 251.473 190.405 251.523C190.622 251.604 190.828 251.712 191.017 251.845C191.354 252.068 191.67 252.323 191.959 252.605C192.445 253.077 192.853 253.621 193.17 254.219C193.516 254.743 193.692 255.36 193.675 255.988C193.58 255.988 193.379 255.349 192.793 254.441C192.446 253.919 192.035 253.442 191.569 253.022C191.293 252.775 190.998 252.551 190.687 252.35C190.358 252.121 190.048 252.007 189.9 252.135C189.752 252.262 189.826 252.209 189.867 252.343C189.935 252.502 190.028 252.65 190.143 252.78C190.366 253.076 190.606 253.359 190.862 253.627C191.3 254.086 191.78 254.503 192.295 254.871C193.183 255.51 193.816 255.793 193.775 255.88Z" fill="#263238"/>
<path d="M193.473 256.055C193.326 255.445 193.377 254.804 193.621 254.226C193.825 253.578 194.137 252.969 194.542 252.424C194.785 252.103 195.058 251.806 195.357 251.536C195.534 251.344 195.757 251.2 196.005 251.117C196.254 251.035 196.519 251.017 196.776 251.066C196.929 251.125 197.062 251.226 197.158 251.359C197.255 251.491 197.311 251.648 197.321 251.812C197.334 252.037 197.315 252.264 197.267 252.484C197.161 253.03 196.947 253.549 196.638 254.011C196.328 254.473 195.929 254.869 195.464 255.174C194.468 255.846 193.695 255.766 193.702 255.705C194.236 255.468 194.742 255.17 195.209 254.818C195.685 254.434 196.072 253.949 196.339 253.399C196.496 253.08 196.607 252.74 196.668 252.39C196.749 252.007 196.716 251.657 196.568 251.651C196.416 251.644 196.265 251.671 196.125 251.73C195.985 251.79 195.861 251.88 195.76 251.993C195.481 252.23 195.225 252.491 194.993 252.773C194.6 253.256 194.278 253.793 194.038 254.367C193.621 255.382 193.574 256.055 193.473 256.055Z" fill="#263238"/>
<path d="M147.886 166.663C142.665 166.784 137.713 167.517 134.114 171.303C129.344 176.326 123.451 183.474 123.114 188.43C122.616 195.826 127.09 198.045 130.353 199.861C131.797 200.64 133.423 201.018 135.063 200.957L195.397 200.5L197.287 190.285L158.267 180.67L159.888 165.991L147.886 166.663Z" fill="#263238"/>
<path d="M159.922 165.984L178.9 165.11C178.9 165.11 211.691 166.932 218.682 173.34C225.672 179.749 224.804 187.031 222.469 194.017C220.135 201.004 199.595 245.713 199.595 245.713C199.595 245.713 201.263 248.557 200.328 251.395C199.95 252.638 199.256 253.762 198.312 254.655C197.368 255.549 196.208 256.182 194.946 256.492L176.701 249.768C176.701 249.768 174.225 248.894 175.974 246.56C177.723 244.227 178.887 243.797 178.887 243.797V239.137C178.887 239.137 185.299 227.484 185.877 225.883C186.456 224.283 192.605 200.573 192.605 200.573L196.689 193.56C196.689 193.56 186.819 188.92 178.261 185.558L158.28 180.636L159.922 165.984Z" fill="#263238"/>
<path d="M190.708 248.947C190.156 248.626 189.621 248.276 189.106 247.898C186.528 246.231 183.625 245.128 180.589 244.664C179.952 244.604 179.319 244.51 178.692 244.382C179.332 244.309 179.979 244.32 180.616 244.415C183.728 244.748 186.701 245.878 189.248 247.697C189.787 248.048 190.278 248.469 190.708 248.947Z" fill="#455A64"/>
<path d="M199.824 245.747C199.425 245.422 199.07 245.047 198.767 244.63C198.149 243.911 197.328 242.889 196.473 241.719C195.619 240.549 194.879 239.466 194.374 238.666C194.072 238.248 193.82 237.797 193.621 237.321C193.983 237.686 194.303 238.089 194.576 238.525L196.756 241.51C197.57 242.613 198.317 243.608 198.963 244.476C199.293 244.868 199.582 245.294 199.824 245.747Z" fill="#455A64"/>
<path d="M206.484 187.186C206.484 187.239 205.811 187.387 204.755 187.737C201.989 188.649 199.483 190.213 197.449 192.296C197.052 192.754 196.632 193.192 196.191 193.607C196.474 193.063 196.836 192.564 197.267 192.128C199.239 189.908 201.808 188.302 204.668 187.502C205.254 187.306 205.866 187.199 206.484 187.186Z" fill="#455A64"/>
<path d="M187.848 218.843C187.856 218.708 187.881 218.575 187.922 218.446L188.205 217.337L189.295 213.269L193.029 199.881C193.789 197.265 194.435 194.777 195.168 192.518C195.942 190.554 197.113 188.771 198.606 187.28C199.594 186.271 200.685 185.37 201.862 184.59C202.286 184.321 202.616 184.119 202.851 183.998C202.964 183.926 203.083 183.865 203.208 183.817C203.208 183.817 202.75 184.126 201.943 184.698C200.804 185.511 199.745 186.432 198.781 187.448C197.342 188.935 196.217 190.696 195.471 192.625C194.798 194.851 194.125 197.373 193.365 199.975L189.537 213.329L188.333 217.364C188.191 217.808 188.084 218.171 187.99 218.453C187.963 218.59 187.915 218.721 187.848 218.843Z" fill="#455A64"/>
<path d="M171.063 184.691C170.962 184.691 170.565 181.154 170.168 176.77C169.771 172.385 169.495 168.822 169.63 168.815C169.764 168.808 170.121 172.352 170.518 176.736C170.915 181.12 171.157 184.684 171.063 184.691Z" fill="#455A64"/>
<path d="M139.469 194.192C139.415 194.192 139.126 193.647 138.527 192.807C137.755 191.713 136.828 190.737 135.776 189.909C134.715 189.092 133.544 188.428 132.298 187.939C131.335 187.562 130.71 187.421 130.723 187.36C131.29 187.387 131.848 187.503 132.378 187.703C135.009 188.571 137.256 190.325 138.736 192.666C139.063 193.131 139.311 193.646 139.469 194.192Z" fill="#455A64"/>
<path d="M151.095 181.282C151.095 181.335 150.261 180.824 148.868 180.186C145.214 178.525 141.161 177.947 137.189 178.518C135.675 178.733 134.753 179.002 134.74 178.942C134.935 178.831 135.146 178.749 135.365 178.7C135.95 178.519 136.546 178.375 137.148 178.269C141.166 177.563 145.305 178.156 148.962 179.964C149.51 180.234 150.041 180.54 150.55 180.878C150.751 180.985 150.934 181.121 151.095 181.282Z" fill="#455A64"/>
<path d="M196.547 190.265C196.385 190.259 196.225 190.232 196.07 190.185L194.724 189.895L189.813 188.813C185.662 187.885 179.916 186.634 173.545 185.377C167.174 184.119 161.388 183.077 157.197 182.358L152.225 181.504L150.88 181.268C150.72 181.251 150.564 181.212 150.415 181.154C150.577 181.154 150.732 181.154 150.893 181.194L152.239 181.369C153.416 181.53 155.118 181.786 157.224 182.116C161.429 182.788 167.228 183.77 173.606 185.034C179.984 186.298 185.716 187.582 189.86 188.571C191.925 189.068 193.601 189.485 194.751 189.788L196.097 190.137C196.25 190.167 196.401 190.209 196.547 190.265Z" fill="#455A64"/>
<path d="M158.3 182.391C158.058 181.735 157.78 181.093 157.466 180.468C157.1 179.816 156.647 179.217 156.12 178.686C155.454 178.034 154.749 177.423 154.008 176.857C152.64 175.846 151.194 174.947 149.682 174.168C149.042 173.865 148.425 173.515 147.839 173.119C148.516 173.333 149.171 173.61 149.796 173.946C151.357 174.671 152.84 175.551 154.223 176.575C154.975 177.149 155.686 177.776 156.349 178.451C156.889 179.01 157.343 179.647 157.695 180.34C157.936 180.81 158.119 181.306 158.24 181.82C158.293 182.005 158.314 182.199 158.3 182.391Z" fill="#455A64"/>
<path d="M225.503 191.502C225.577 191.583 224.568 192.598 223.781 194.152C222.994 195.705 222.738 197.104 222.637 197.084C222.695 196.004 222.98 194.949 223.474 193.987C223.968 193.025 224.659 192.178 225.503 191.502Z" fill="#263238"/>
<g opacity="0.3">
<path opacity="0.3" d="M182.318 122.606L186.637 153.013L186.853 153.497C187.866 142.985 186.31 132.384 182.318 122.606Z" fill="black"/>
</g>
<path d="M205.576 140.076L191.535 164.606L156.935 165.359L156.847 166.925L190.351 166.677L191.414 166.636L226.788 166.71L233.94 154.385L243.076 141.299C243.172 141.159 243.239 141.001 243.273 140.835C243.308 140.669 243.309 140.497 243.277 140.331C243.245 140.164 243.181 140.005 243.088 139.863C242.994 139.721 242.874 139.599 242.733 139.504C242.517 139.362 242.265 139.285 242.007 139.282L206.693 139.417C206.465 139.419 206.242 139.481 206.046 139.597C205.85 139.713 205.688 139.878 205.576 140.076Z" fill="#E3E7F2"/>
<path d="M233.94 154.405C233.94 154.405 235.757 156.073 235.474 157.485C235.191 158.897 235.279 159.953 233.94 160.047C233.965 160.563 233.79 161.07 233.452 161.462C233.114 161.853 232.639 162.1 232.124 162.151C232.124 162.151 232.534 164.37 229.951 164.754C229.951 164.754 229.157 167.127 227.529 166.549C226.589 166.233 225.687 165.815 224.837 165.305L224.36 164.444C224.36 164.444 221.958 163.543 222.55 162.192C222.913 161.371 224.151 161.156 224.151 161.156C224.009 160.819 223.949 160.453 223.976 160.089C224.003 159.724 224.116 159.371 224.306 159.058C224.878 158.285 226.748 158.924 226.748 158.924C226.713 158.262 226.924 157.611 227.34 157.095C228.013 156.335 230.96 158.386 230.96 158.386L232.581 156.449L233.94 154.405Z" fill="#FFBE9D"/>
<path d="M229.95 164.754C227.902 163.759 225.962 162.554 224.165 161.156C225.214 161.605 226.215 162.159 227.152 162.81C228.147 163.363 229.085 164.014 229.95 164.754Z" fill="#EB996E"/>
<path d="M232.123 162.151C231.148 161.768 230.218 161.276 229.352 160.685C228.426 160.196 227.557 159.605 226.762 158.924C227.738 159.306 228.668 159.797 229.533 160.39C230.459 160.879 231.328 161.47 232.123 162.151Z" fill="#EB996E"/>
<path d="M229.163 157.283C229.217 157.182 230.327 157.767 231.619 158.587C232.419 159.05 233.19 159.562 233.927 160.121C233.879 160.235 232.722 159.71 231.431 158.883C230.621 158.43 229.861 157.894 229.163 157.283Z" fill="#EB996E"/>
<path d="M243.076 140.224H240.5L233.476 140.277L210.299 140.331H208.61C208.361 140.308 208.111 140.351 207.885 140.458C207.659 140.564 207.465 140.73 207.325 140.936C206.787 141.898 206.262 142.839 205.751 143.774L202.764 149.153L197.698 158.251C196.258 160.82 195.081 162.904 194.253 164.377C193.856 165.049 193.533 165.628 193.305 166.031L193.049 166.455L192.955 166.596C192.961 166.538 192.982 166.483 193.015 166.435L193.244 165.991L194.139 164.31L197.503 158.13L202.508 148.992L205.468 143.613L207.049 140.755C207.222 140.5 207.459 140.294 207.737 140.16C208.015 140.025 208.323 139.966 208.63 139.988H210.319L233.496 140.035L240.52 140.096L242.43 140.13H242.928C242.983 140.152 243.033 140.184 243.076 140.224Z" fill="#263238"/>
<path d="M218.184 152.563C218.02 152.799 217.929 153.077 217.92 153.364C217.911 153.651 217.985 153.935 218.133 154.181C218.281 154.427 218.497 154.625 218.755 154.751C219.013 154.878 219.302 154.927 219.587 154.893C219.873 154.86 220.142 154.745 220.364 154.562C220.585 154.379 220.749 154.136 220.836 153.862C220.923 153.589 220.929 153.296 220.854 153.019C220.778 152.742 220.624 152.492 220.411 152.3C220.08 152.042 219.66 151.925 219.243 151.974C218.826 152.023 218.446 152.235 218.184 152.563Z" fill="white"/>
<g opacity="0.3">
<path opacity="0.3" d="M119.959 143.088C119.663 143.209 119.32 143.411 119.32 143.761C119.33 143.89 119.385 144.013 119.474 144.108C119.563 144.203 119.682 144.266 119.811 144.285C120.304 144.214 120.788 144.086 121.251 143.902C124.89 143.102 127.884 143.902 131.342 145.247L131.457 145.132C130.084 142.153 123.874 141.494 119.959 143.088Z" fill="black"/>
</g>
<path d="M307.4 279.59C307.4 279.684 246.548 279.764 171.5 279.764C96.4523 279.764 35.6 279.657 35.6 279.59C35.6 279.522 96.4388 279.415 171.5 279.415C246.561 279.415 307.4 279.462 307.4 279.59Z" fill="#263238"/>
<circle cx="43" cy="18" r="18" fill="#00AEC7"/>
<circle cx="160" cy="18" r="17.55" fill="#00AEC7" fill-opacity="0.26" stroke="#00AEC7" stroke-width="0.9"/>
<circle cx="277" cy="18" r="17.55" stroke="#00AEC7" stroke-width="0.9"/>
<mask id="mask0_644_968" style="mask-type:alpha" maskUnits="userSpaceOnUse" x="32" y="7" width="22" height="22">
<rect x="32.2" y="7.19995" width="21.6" height="21.6" fill="white"/>
</mask>
<g mask="url(#mask0_644_968)">
<path fill-rule="evenodd" clip-rule="evenodd" d="M52.3823 15.612L50.7208 11.1045C50.4524 10.3821 49.7668 9.90237 48.9995 9.8999H37.1681C36.4009 9.90245 35.7154 10.3822 35.447 11.1045L33.805 15.5582L33.1062 16.2054C32.5329 16.6947 32.2018 17.4119 32.2 18.1677V26.1759C32.2059 26.3842 32.3757 26.55 32.5831 26.5499H36.7346C36.9396 26.5491 37.1055 26.3819 37.1058 26.1759V23.6664H48.7688V26.1759C48.7691 26.3819 48.935 26.5491 49.14 26.5499H53.2915C53.4989 26.55 53.6687 26.3842 53.6746 26.1759V17.999C53.671 17.2926 53.3812 16.6181 52.872 16.131L52.3823 15.612ZM36.1414 11.3575C36.3021 10.9278 36.7113 10.6434 37.1681 10.644H48.9995C49.4564 10.6434 49.8656 10.9278 50.0263 11.3575L51.514 15.3879H34.6536L36.1414 11.3575ZM32.9405 25.8058H36.3653V23.6664H32.9405V25.8058ZM49.5093 25.8058V23.6664H52.9341V25.8058H49.5093ZM52.9341 22.9222V21.4641V17.999C52.9309 17.4923 52.7217 17.0089 52.355 16.6611C52.3528 16.659 52.3494 16.6564 52.3459 16.6536C52.3409 16.6496 52.3355 16.6453 52.3325 16.642L51.8626 16.132H34.2672L33.6079 16.7506C33.6061 16.7523 33.6036 16.7551 33.601 16.758C33.5978 16.7616 33.5945 16.7653 33.5921 16.7673C33.1808 17.1153 32.9425 17.6274 32.9405 18.1677V22.9222H52.9341Z" fill="white"/>
<path fill-rule="evenodd" clip-rule="evenodd" d="M35.9423 18.2249H36.2952C37.15 18.2249 37.843 18.9281 37.843 19.7956C37.843 20.6631 37.15 21.3664 36.2952 21.3664H35.9423C35.0875 21.3664 34.3945 20.6631 34.3945 19.7956C34.3945 18.9281 35.0875 18.2249 35.9423 18.2249ZM35.9423 20.6272H36.2952C36.7478 20.6272 37.1146 20.2549 37.1146 19.7956C37.1146 19.3364 36.7478 18.9641 36.2952 18.9641H35.9423C35.4897 18.9641 35.1229 19.3364 35.1229 19.7956C35.1229 20.2549 35.4897 20.6272 35.9423 20.6272Z" fill="white"/>
<path fill-rule="evenodd" clip-rule="evenodd" d="M49.5794 18.2249H49.9324C50.7872 18.2249 51.4801 18.9281 51.4801 19.7956C51.4801 20.6631 50.7872 21.3664 49.9324 21.3664H49.5794C48.7246 21.3664 48.0316 20.6631 48.0316 19.7956C48.0316 18.9281 48.7246 18.2249 49.5794 18.2249ZM49.5794 20.6272H49.9323C50.3849 20.6272 50.7518 20.2549 50.7518 19.7956C50.7518 19.3364 50.3849 18.9641 49.9323 18.9641H49.5794C49.1269 18.9641 48.76 19.3364 48.76 19.7956C48.76 20.2549 49.1269 20.6272 49.5794 20.6272Z" fill="white"/>
<path fill-rule="evenodd" clip-rule="evenodd" d="M46.0953 18.2249C46.299 18.2249 46.4642 18.3928 46.4642 18.6V20.9913C46.4642 21.1984 46.299 21.3664 46.0953 21.3664H39.7793C39.5756 21.3664 39.4105 21.1984 39.4105 20.9913V18.6C39.4105 18.3928 39.5756 18.2249 39.7793 18.2249H46.0953ZM40.1481 20.6162H45.6804V18.9752H40.1481V20.6162Z" fill="white"/>
<path d="M38.7998 14.4598C38.6596 14.5157 38.5024 14.4425 38.4488 14.2963C38.3952 14.1501 38.4654 13.9863 38.6056 13.9304L45.5387 11.1673C45.6789 11.1114 45.8361 11.1846 45.8897 11.3308C45.9433 11.477 45.8731 11.6408 45.7329 11.6967L38.7998 14.4598Z" fill="white"/>
<path d="M42.9863 14.463C42.8346 14.509 42.6638 14.4505 42.6047 14.3323C42.5457 14.2141 42.6209 14.081 42.7726 14.035L46.7522 12.8294C46.9039 12.7834 47.0747 12.842 47.1337 12.9602C47.1927 13.0784 47.1176 13.2115 46.9658 13.2574L42.9863 14.463Z" fill="white"/>
<ellipse cx="47.7769" cy="11.7731" rx="0.207691" ry="0.208125" fill="white"/>
</g>
<line x1="64.15" y1="17.55" x2="139.75" y2="17.55" stroke="#00AEC7" stroke-width="0.9" stroke-linecap="round"/>
<line x1="180.25" y1="17.55" x2="259.45" y2="17.55" stroke="#00AEC7" stroke-width="0.9" stroke-linecap="round" stroke-dasharray="3.6 3.6"/>
<circle cx="160" cy="18" r="7.2" fill="#00AEC7"/>
</svg>
