<svg width="72" height="72" viewBox="0 0 72 72" fill="none" xmlns="http://www.w3.org/2000/svg">
<circle opacity="0.0594076" cx="36" cy="36" r="36" fill="#0033A0"/>
<g clip-path="url(#clip0_858_1232)">
<path d="M50.5188 57.9972H19.9725C18.3757 57.3275 18 56.7508 18 55.0075V16.5317C18 14.811 18.974 13.8407 20.7032 13.8388C22.764 13.8388 24.8257 13.8435 26.8875 13.8304C27.0612 13.8304 27.3148 13.7637 27.3937 13.6425C27.8634 12.9043 28.534 12.6178 29.3803 12.6431C29.8734 12.6582 30.3684 12.6431 30.8832 12.6431C30.8926 12.4309 30.9038 12.2778 30.9057 12.1247C30.9245 10.774 31.69 10.0047 33.0285 10C34.5432 10 36.0583 10 37.5736 10C38.7853 10 39.5884 10.804 39.6213 12.0232C39.626 12.2186 39.6213 12.4139 39.6213 12.6413C40.2534 12.6413 40.8132 12.6337 41.374 12.6413C42.0559 12.6525 42.6392 12.9024 42.998 13.4951C43.1746 13.7872 43.3737 13.8398 43.679 13.8379C45.756 13.8279 47.8328 13.8279 49.9092 13.8379C51.5173 13.8379 52.4997 14.8279 52.5044 16.4425C52.511 18.1454 52.5044 19.8474 52.5044 21.5503C52.5044 21.8321 52.5138 22.1139 52.4932 22.3957C52.4659 22.7714 52.2489 23.0024 51.8714 23.0353C51.4703 23.0691 51.2139 22.8625 51.1284 22.4718C51.1014 22.3168 51.0916 22.1593 51.0993 22.0021C51.0993 20.1752 51.0993 18.3474 51.0993 16.5195C51.0993 15.5803 50.7621 15.2402 49.8378 15.2393C47.8234 15.2393 45.8086 15.2393 43.7936 15.2393C43.6574 15.2393 43.5221 15.2543 43.3737 15.2637V16.6445H43.9016C45.2754 16.6445 46.6499 16.6445 48.025 16.6445C49.2461 16.6445 49.6932 17.0887 49.6932 18.3032C49.6932 21.4905 49.6932 24.6772 49.6932 27.8632V28.3469C49.8354 28.2532 49.9541 28.1278 50.0398 27.9806C51.2589 26.0551 52.4784 24.1302 53.6983 22.2059C54.399 21.107 55.6106 20.5932 56.7227 21.0788C57.9795 21.6226 59.2381 22.2482 59.6044 23.7802V24.6255C59.3227 25.1769 59.0794 25.7527 58.7506 26.2768C55.8248 30.9271 52.8801 35.5653 49.9552 40.2166C49.7966 40.4778 49.7098 40.7762 49.7035 41.0817C49.6875 45.2681 49.695 49.4544 49.6913 53.6417C49.6913 54.6796 49.1972 55.185 48.1884 55.185C39.5671 55.185 30.9461 55.185 22.3254 55.185C21.3194 55.185 20.8094 54.6656 20.8094 53.6464C20.8094 41.8197 20.8094 29.9935 20.8094 18.168C20.8094 17.1582 21.3232 16.6539 22.3451 16.651C23.7822 16.651 25.2184 16.651 26.6555 16.651H27.1411V15.2421H26.7024C24.7024 15.2421 22.7033 15.2421 20.7051 15.2421C19.7527 15.2459 19.4089 15.5925 19.4089 16.543V55.3024C19.4089 56.2417 19.7668 56.593 20.7183 56.593H49.8106C50.7677 56.593 51.104 56.2567 51.104 55.293C51.104 52.122 51.104 48.9507 51.104 45.779C51.104 43.8413 51.104 41.9045 51.104 39.9677C51.104 39.4239 51.3857 39.1064 51.8216 39.112C52.2574 39.1177 52.5044 39.4154 52.5044 39.9405C52.5044 45.1585 52.5044 50.3765 52.5044 55.5945C52.5044 56.7057 51.831 57.5604 50.778 57.9004C50.6869 57.9286 50.6052 57.9662 50.5188 57.9972ZM22.2502 18.0778V53.761H36.1018C36.2896 52.973 36.4916 52.2056 36.6522 51.4297C37.1049 49.2318 37.6788 47.0874 39.1028 45.2746C39.4174 44.8736 39.7781 44.7252 40.136 44.9356C40.5117 45.161 40.5793 45.5686 40.2938 46.0345C39.9829 46.5399 39.657 47.0349 39.3461 47.5374C39.2052 47.7684 39.0859 48.0117 38.9459 48.2681L39.9895 48.6044L53.0774 27.9299L52.1334 27.3363C52.031 27.4922 51.9352 27.6312 51.8451 27.774L42.3583 42.7696C42.2744 42.9193 42.1779 43.0616 42.07 43.1951C41.8211 43.4722 41.5149 43.5482 41.1871 43.3501C40.8405 43.1406 40.7719 42.8175 40.91 42.4549C40.9761 42.3134 41.056 42.1787 41.1485 42.0529C43.4504 38.4135 45.7504 34.7716 48.0485 31.1272C48.1984 30.8783 48.2794 30.594 48.2833 30.3035C48.2983 26.3989 48.2936 22.4934 48.2936 18.5878V18.0778H22.2502ZM41.9451 16.6313C41.9451 15.9917 41.9516 15.3708 41.9451 14.7528C41.9375 14.2155 41.776 14.0596 41.2387 14.053C40.6301 14.0464 40.0177 14.0633 39.4128 14.0436C38.713 14.0211 38.2593 13.5561 38.2274 12.8535C38.2142 12.5717 38.2274 12.29 38.218 12.0082C38.1992 11.6184 37.9954 11.407 37.5934 11.408C36.0323 11.408 34.4715 11.408 32.9111 11.408C32.5353 11.408 32.3296 11.5958 32.3212 11.9819C32.3156 12.2317 32.3212 12.4816 32.3156 12.7333C32.2874 13.5693 31.8262 14.0333 31.0006 14.0483C30.4079 14.0586 29.8143 14.0483 29.2216 14.0483C28.9097 14.0483 28.6223 14.1422 28.6063 14.4869C28.5735 15.1961 28.597 15.9081 28.597 16.6294L41.9451 16.6313ZM48.2673 42.9001C48.0992 43.1519 47.995 43.3012 47.8982 43.4553C46.5137 45.6428 45.1236 47.8267 43.7494 50.0218C43.2572 50.82 42.6261 51.5237 41.8859 52.0994C41.2152 52.6189 40.5643 53.1646 39.8317 53.7582H48.2673V42.9001ZM41.9648 50.2012L55.2086 29.2768L54.2562 28.6982L41.1795 49.3558L41.9648 50.2012ZM57.3859 25.8522C57.7287 25.1139 58.5957 24.5316 58.033 23.6722C57.5549 22.9414 56.7791 22.4088 55.8727 22.3703C54.9221 22.329 54.7765 23.2852 54.29 23.8901L57.3859 25.8522ZM40.8545 51.1188C40.2572 50.3082 39.5133 49.8339 38.5345 49.6526C38.2095 51.0061 37.8921 52.3249 37.5417 53.7855L40.8545 51.1188ZM52.8773 26.134L55.9525 28.0821C56.1892 27.7064 56.3977 27.371 56.6166 27.0235L53.5452 25.0801L52.8773 26.134Z" fill="#0033A0"/>
<path d="M28.9041 42.7123C29.7776 42.7123 30.6512 42.7066 31.5247 42.7123C32.634 42.7207 33.3713 43.4524 33.3769 44.5636C33.3857 46.3263 33.3857 48.0897 33.3769 49.8536C33.3713 50.93 32.6349 51.6927 31.5613 51.704C29.7836 51.7228 28.0052 51.7228 26.2262 51.704C25.1545 51.6946 24.3974 50.9366 24.388 49.8668C24.373 48.0878 24.373 46.3088 24.388 44.5298C24.3984 43.4562 25.162 42.7207 26.2356 42.7123C27.1251 42.7066 28.0146 42.7123 28.9041 42.7123ZM31.9737 47.1861C31.9737 46.3586 31.9615 45.5311 31.9737 44.7036C31.9821 44.2903 31.8346 44.109 31.4026 44.1127C29.7163 44.1259 28.0306 44.1259 26.3455 44.1127C25.9425 44.1127 25.7819 44.279 25.7819 44.6716C25.7876 46.3573 25.7876 48.0436 25.7819 49.7306C25.7819 50.1185 25.9379 50.3073 26.337 50.3064C28.0384 50.3007 29.7397 50.3007 31.4411 50.3064C31.8168 50.3064 31.9765 50.1392 31.9708 49.7625C31.9652 48.904 31.9737 48.0455 31.9737 47.1861Z" fill="#0033A0"/>
<path d="M33.3788 24.6528C33.3788 25.5272 33.3863 26.4008 33.3788 27.2743C33.3675 28.3826 32.6274 29.1247 31.5256 29.1294C29.7623 29.135 27.9992 29.135 26.2365 29.1294C25.1686 29.1294 24.4002 28.3779 24.3899 27.3081C24.373 25.5291 24.373 23.7501 24.3899 21.9711C24.3993 20.8975 25.1629 20.1442 26.2271 20.1386C28.0061 20.1292 29.7848 20.1292 31.5632 20.1386C32.6114 20.1452 33.3619 20.89 33.3769 21.9382C33.3882 22.8381 33.3779 23.7435 33.3788 24.6528ZM28.8778 21.5409C28.0503 21.5409 27.2228 21.5541 26.3962 21.5353C25.9491 21.525 25.7829 21.7128 25.7857 22.1486C25.7969 23.8036 25.7969 25.459 25.7857 27.1146C25.7857 27.5467 25.9388 27.7345 26.3906 27.7308C28.0606 27.7157 29.7307 27.7157 31.4007 27.7308C31.8281 27.7308 31.9812 27.5617 31.9783 27.1437C31.9665 25.4724 31.9665 23.8018 31.9783 22.1317C31.9783 21.6762 31.7905 21.5268 31.3584 21.5362C30.5328 21.5531 29.7053 21.5362 28.8778 21.5362V21.5409Z" fill="#0033A0"/>
<path d="M33.3788 35.91C33.3788 36.7995 33.3863 37.689 33.3788 38.5776C33.3676 39.6221 32.6838 40.3791 31.6459 40.3979C29.8061 40.4311 27.9658 40.4311 26.1248 40.3979C25.1188 40.3801 24.4021 39.623 24.3918 38.6133C24.373 36.8192 24.373 35.0249 24.3918 33.2303C24.4021 32.197 25.1263 31.4456 26.1577 31.4268C27.983 31.3968 29.808 31.3968 31.6327 31.4268C32.6716 31.4456 33.36 32.2027 33.3816 33.2387C33.3816 33.2697 33.3816 33.3016 33.3816 33.3326C33.3804 34.1924 33.3795 35.0515 33.3788 35.91ZM31.9699 35.9232C31.9699 35.0966 31.9539 34.2691 31.9755 33.4425C31.9878 33.0048 31.8309 32.816 31.3829 32.8189C29.7134 32.8301 28.044 32.8301 26.3746 32.8189C25.9632 32.8189 25.7801 32.9795 25.7819 33.4031C25.7926 35.0731 25.7926 36.7432 25.7819 38.4132C25.7819 38.8265 25.9397 39.0134 26.3605 39.0115C28.045 39.004 29.7297 39.004 31.4148 39.0115C31.8037 39.0115 31.9784 38.8584 31.9784 38.448C31.9615 37.6092 31.9737 36.7695 31.9737 35.9241L31.9699 35.9232Z" fill="#0033A0"/>
<path d="M40.5126 23.8685C39.1094 23.8685 37.7051 23.876 36.3018 23.8685C35.6444 23.8638 35.2564 23.2899 35.603 22.8155C35.6844 22.7183 35.7846 22.6386 35.8976 22.5811C36.0106 22.5236 36.134 22.4896 36.2605 22.4811C39.0981 22.4586 41.9366 22.4642 44.7751 22.468C45.2645 22.468 45.55 22.7291 45.5603 23.1443C45.5707 23.5773 45.2738 23.8656 44.7685 23.8685C43.3511 23.8741 41.9319 23.8685 40.5126 23.8685Z" fill="#0033A0"/>
<path d="M39.0906 35.1426C38.171 35.1426 37.2515 35.1426 36.3319 35.1426C35.7975 35.1426 35.5091 34.9031 35.4941 34.4748C35.4781 34.0305 35.7862 33.7431 36.3254 33.7403C38.1795 33.7334 40.0343 33.7334 41.8896 33.7403C42.3922 33.7403 42.7143 34.0333 42.7162 34.4438C42.7181 34.8543 42.4034 35.137 41.8962 35.1408C40.9616 35.1473 40.0261 35.1426 39.0906 35.1426Z" fill="#0033A0"/>
<path d="M38.3523 26.7943C37.6648 26.7943 36.9772 26.7943 36.2859 26.7943C35.7881 26.7887 35.5063 26.5454 35.4894 26.1302C35.4725 25.6991 35.7712 25.3976 36.2718 25.3938C37.6619 25.3832 39.0518 25.3832 40.4413 25.3938C40.9109 25.3938 41.2209 25.6935 41.2256 26.0917C41.2312 26.5069 40.9119 26.7887 40.4084 26.7934C39.7265 26.799 39.0399 26.7943 38.3523 26.7943Z" fill="#00AEC7"/>
<path d="M38.3504 38.0938C37.6788 38.0938 37.0082 38.1014 36.3366 38.0938C35.7881 38.0863 35.4837 37.8121 35.4913 37.3706C35.5016 36.9423 35.789 36.6953 36.3235 36.6934C37.6817 36.6859 39.0399 36.6859 40.3981 36.6934C40.909 36.6934 41.2246 36.9752 41.2274 37.3828C41.2303 37.7905 40.9128 38.0835 40.4084 38.0929C39.7236 38.1023 39.0399 38.0938 38.3504 38.0938Z" fill="#00AEC7"/>
<path d="M28.4373 47.4322C28.8834 46.8254 29.2958 46.26 29.7147 45.6983C30.0557 45.2437 30.4239 45.1431 30.7864 45.3958C31.149 45.6485 31.179 46.0702 30.839 46.5399C30.3346 47.233 29.8302 47.9262 29.3155 48.611C28.7764 49.3267 28.0804 49.3229 27.5459 48.611C27.312 48.3001 27.0763 47.9882 26.8584 47.667C26.5972 47.2828 26.6574 46.8639 26.988 46.6338C27.3186 46.4037 27.6849 46.4722 27.9752 46.8216C28.1226 47.0001 28.256 47.1955 28.4373 47.4322Z" fill="#00AEC7"/>
<path d="M28.4391 24.8566C28.8947 24.2367 29.307 23.6703 29.725 23.1095C30.0538 22.669 30.4473 22.5713 30.8005 22.8324C31.1537 23.0936 31.1762 23.4974 30.855 23.9408C30.3431 24.6471 29.8293 25.3497 29.3061 26.0485C28.7829 26.7474 28.085 26.7455 27.5665 26.0645C27.3205 25.7433 27.08 25.4173 26.8527 25.082C26.6047 24.7166 26.6554 24.3146 26.9579 24.0798C27.2763 23.8328 27.6915 23.9013 27.9836 24.2564C28.1301 24.4348 28.2635 24.6246 28.4391 24.8566Z" fill="#00AEC7"/>
<path d="M28.4373 36.3938C28.8881 35.7813 29.3005 35.2159 29.7185 34.6542C30.0472 34.2137 30.4379 34.1104 30.7921 34.3621C31.1462 34.6138 31.179 35.028 30.8606 35.4676C30.3403 36.1871 29.819 36.9047 29.2826 37.6129C28.7801 38.277 28.0804 38.2704 27.5731 37.6129C27.3264 37.2917 27.0885 36.9642 26.8593 36.6305C26.5972 36.2444 26.6555 35.8292 26.9861 35.5972C27.3017 35.3775 27.6981 35.4488 27.9761 35.7851C28.1226 35.9589 28.256 36.1495 28.4373 36.3938Z" fill="#00AEC7"/>
</g>
<defs>
<clipPath id="clip0_858_1232">
<rect width="41.6101" height="48" fill="white" transform="translate(18 10)"/>
</clipPath>
</defs>
</svg>
