<svg width="77" height="72" viewBox="0 0 77 72" fill="none" xmlns="http://www.w3.org/2000/svg">
<g id="support (2)">
<path id="Shape" fill-rule="evenodd" clip-rule="evenodd" d="M38.0377 0C53.0491 0 65.2076 12.1585 65.2076 27.2377C71.2528 27.5774 76.0755 32.6038 76.0755 38.717V40.0755C76.0755 46.4604 70.9132 51.6226 64.5283 51.6226H59.7736C58.2792 51.6226 57.0566 50.4 57.0566 48.9057V29.8868C57.0566 28.3925 58.2792 27.1698 59.7736 27.1698H62.4906C62.4906 13.6528 51.5547 2.71698 38.0377 2.71698C24.5208 2.71698 13.5849 13.6528 13.5849 27.1698H16.3019C17.7962 27.1698 19.0189 28.3925 19.0189 29.8868V48.9057C19.0189 50.4 17.7962 51.6226 16.3019 51.6226H15.3509L19.2906 57.8038C22.1434 62.4226 27.1019 65.2076 32.5359 65.2076H33.4868C34.0981 62.8981 36.2038 61.1321 38.717 61.1321C41.7057 61.1321 44.1509 63.5774 44.1509 66.566C44.1509 69.5547 41.7057 72 38.717 72C36.2038 72 34.0981 70.234 33.4868 67.9245H32.5359C26.1509 67.9245 20.3774 64.7321 16.9811 59.2981L12.1585 51.6226H11.5472C5.16226 51.6226 0 46.4604 0 40.0755V38.717C0 32.6038 4.82264 27.5774 10.8679 27.2377V27.1698C10.8679 12.1585 23.0264 0 38.0377 0ZM41.434 66.566C41.434 65.0717 40.2113 63.8491 38.717 63.8491C37.2226 63.8491 36 65.0717 36 66.566C36 68.0604 37.2226 69.283 38.717 69.283C40.2113 69.283 41.434 68.0604 41.434 66.566ZM16.3019 29.8868V48.9057H11.5472C6.6566 48.9057 2.71698 44.966 2.71698 40.0755V38.717C2.71698 33.8264 6.6566 29.8868 11.5472 29.8868H16.3019ZM64.5283 48.9057C69.4189 48.9057 73.3585 44.966 73.3585 40.0755V38.717C73.3585 33.8264 69.4189 29.8868 64.5283 29.8868H59.7736V48.9057H64.5283Z" fill="#0033A0"/>
<path id="Path" d="M49.3132 10.2566C49.1774 10.1887 48.9736 10.0529 48.7698 9.91702C48.566 9.78117 48.3623 9.64532 48.2264 9.57739C47.6151 9.16985 46.7321 9.37362 46.3925 10.0529C46.0528 10.7321 46.1887 11.4793 46.8679 11.8868C47.0038 11.9548 47.2076 12.0906 47.4113 12.2264C47.6151 12.3623 47.8189 12.4981 48.0226 12.5661C48.2264 12.7019 48.4981 12.7698 48.7019 12.7698C49.1774 12.7698 49.5849 12.5661 49.8566 12.0906C50.1962 11.4793 49.9925 10.6642 49.3132 10.2566Z" fill="#00AEC7"/>
<path id="Path_2" d="M38.0377 6.79248C32.2641 6.79248 26.8302 9.30569 23.0943 13.6529C22.6189 14.1963 22.6868 15.0793 23.2302 15.5547C23.5019 15.7585 23.7736 15.8944 24.1132 15.8944C24.5207 15.8944 24.8604 15.7585 25.1321 15.4189C28.3924 11.683 33.0792 9.50946 38.0377 9.50946C39.2604 9.50946 40.483 9.64531 41.7057 9.91701C42.4528 10.0529 43.1321 9.57739 43.3358 8.89814C43.5396 8.2189 42.9962 7.47173 42.317 7.26795C40.8906 6.92833 39.4641 6.79248 38.0377 6.79248Z" fill="#00AEC7"/>
</g>
</svg>
