<svg width="120" height="120" viewBox="0 0 120 120" fill="none" xmlns="http://www.w3.org/2000/svg">
<circle opacity="0.0594076" cx="60" cy="60" r="60" fill="#0033A0"/>
<mask id="mask0_904_1142" style="mask-type:alpha" maskUnits="userSpaceOnUse" x="24" y="24" width="72" height="72">
<rect x="24" y="24" width="72" height="72" fill="white"/>
</mask>
<g mask="url(#mask0_904_1142)">
<path d="M57.782 63.3658C57.591 63.5568 57.4821 63.8218 57.4821 64.0918C57.4821 64.363 57.591 64.6269 57.782 64.8179C57.9741 65.0098 58.238 65.1188 58.5081 65.1188C58.7792 65.1188 59.0431 65.0098 59.2352 64.8179C59.4262 64.6269 59.535 64.3619 59.535 64.0918C59.535 63.8218 59.4262 63.5578 59.2352 63.3658C59.0441 63.1749 58.7792 63.0659 58.5081 63.0659C58.238 63.0659 57.973 63.1748 57.782 63.3658Z" fill="#00AEC7"/>
<path fill-rule="evenodd" clip-rule="evenodd" d="M75.8864 82.7432L75.9512 82.808C76.5871 83.444 76.7756 84.3918 76.4312 85.2228C76.0871 86.0537 75.2835 86.5906 74.3842 86.5906H67.4309C67.068 86.5906 66.732 86.3991 66.5471 86.0867L63.1006 80.2625L62.7852 80.4653C62.4779 80.6628 62.1438 80.7916 61.8018 80.8573C62.3983 82.3097 62.7282 83.8987 62.7282 85.5636C62.7282 86.1307 62.2684 86.5906 61.7012 86.5906C61.1341 86.5906 60.6743 86.1307 60.6743 85.5636C60.6743 83.0725 59.7915 80.784 58.3227 78.9937L53.9631 83.3532C54.3542 83.9988 54.5796 84.7553 54.5796 85.5635C54.5796 86.1306 54.1198 86.5905 53.5526 86.5905C52.9854 86.5905 52.5257 86.1306 52.5257 85.5635C52.5257 84.3366 51.5275 83.3383 50.3005 83.3383C49.0735 83.3383 48.0753 84.3366 48.0753 85.5635C48.0753 86.1306 47.6155 86.5905 47.0483 86.5905C46.4811 86.5905 46.0213 86.1306 46.0213 85.5635C46.0213 84.7553 46.2468 83.9988 46.6378 83.3532L42.2783 78.9936C40.8094 80.7839 39.9267 83.0724 39.9267 85.5635C39.9267 86.1306 39.4669 86.5905 38.8997 86.5905C38.3325 86.5905 37.8727 86.1306 37.8727 85.5635C37.8727 83.8986 38.2026 82.3096 38.7992 80.8572C38.4572 80.7915 38.123 80.6627 37.8157 80.4652L37.5004 80.2624L34.0538 86.0866C33.8689 86.399 33.5329 86.5905 33.17 86.5905H26.2168C25.3175 86.5905 24.514 86.0537 24.1697 85.2227C23.8256 84.3918 24.0142 83.4439 24.65 82.808L24.7143 82.7437L27.4081 71.3593C27.9643 69.0084 29.3142 66.8883 31.2089 65.3895C33.1037 63.8907 35.4776 63.0654 37.8934 63.0654H45.1484V58.8231C42.9071 57.4189 41.2774 55.1258 40.757 52.4414H39.9584C38.033 52.4414 36.4667 50.8751 36.4667 48.9497V48.3959C36.4667 46.4705 38.033 44.9042 39.9584 44.9042H40.5791V43.7189C40.5791 38.3655 44.9344 34.0103 50.2877 34.0103C55.6411 34.0103 59.9964 38.3655 59.9964 43.7189V44.9041H60.6171C62.5424 44.9041 64.1087 46.4704 64.1087 48.3958V48.9496C64.1087 50.875 62.5424 52.4413 60.6171 52.4413H59.8185C59.2981 55.1257 57.6684 57.4188 55.427 58.823V64.0922C55.427 64.3646 55.3188 64.6257 55.1262 64.8184C53.8337 66.1108 52.1154 66.8226 50.2876 66.8226C48.6077 66.8226 47.0212 66.2199 45.7719 65.1192H37.8932C33.8316 65.1192 30.3418 67.8796 29.4066 71.8321L27.4791 79.9788L36.2317 71.2263C36.4242 71.0337 36.6855 70.9255 36.9578 70.9255H41.5298C41.6593 70.9255 41.7849 70.9509 41.9019 70.9964C44.4482 69.5259 47.3401 68.7505 50.3006 68.7505C53.2549 68.7505 56.1542 69.5279 58.6978 70.997C58.8152 70.951 58.9413 70.9255 59.0713 70.9255H63.6433C63.9157 70.9255 64.1769 71.0337 64.3695 71.2263L73.1158 79.9726L71.1761 71.8212C70.237 67.8751 66.7483 65.1192 62.6922 65.1192H62.6155C62.0483 65.1192 61.5886 64.6593 61.5886 64.0922C61.5886 63.5251 62.0483 63.0652 62.6155 63.0652H62.6922C67.7036 63.0652 72.014 66.4702 73.1742 71.3456L75.8864 82.7432ZM62.0551 48.9497V48.3959C62.0551 47.6032 61.4102 46.9582 60.6173 46.9582H59.9967V50.3875H60.6173C61.4102 50.3875 62.0551 49.7426 62.0551 48.9497ZM42.6328 43.719C42.6328 39.4981 46.0668 36.0642 50.2875 36.0642C54.5083 36.0642 57.9423 39.4982 57.9423 43.719V44.9043H55.2454C54.7073 44.9043 54.191 44.7609 53.7407 44.4922C54.3089 44.0815 54.8483 43.6224 55.3536 43.1171C55.7547 42.716 55.7547 42.0658 55.3536 41.6646C54.9526 41.2637 54.3023 41.2637 53.9013 41.6646C51.8124 43.7537 49.0349 44.9042 46.0805 44.9042H42.6329V43.719H42.6328ZM38.5212 48.3959V48.9497C38.5212 49.7426 39.1661 50.3875 39.9589 50.3875H40.5796V46.9582H39.9589C39.1661 46.9582 38.5212 47.6031 38.5212 48.3959ZM42.6328 50.5921V46.9582H46.0804C48.1139 46.9582 50.0767 46.4985 51.8502 45.6283C52.7767 46.4874 53.9747 46.9582 55.2454 46.9582H57.9423V50.59C57.9423 54.8109 54.5083 58.2448 50.2875 58.2448C46.0673 58.2449 42.6338 54.812 42.6328 50.5921ZM53.3723 59.7959C52.4026 60.1218 51.365 60.2987 50.2869 60.2987C49.2088 60.2987 48.1713 60.1218 47.2015 59.7959V63.6426C48.9778 65.1414 51.596 65.1414 53.3723 63.6426V59.7959ZM57.4681 72.6605L56.6351 74.0856C56.517 74.2877 56.4274 74.5006 56.3641 74.7187C54.5694 73.7113 52.5011 73.1357 50.3006 73.1357C48.1001 73.1357 46.0319 73.7113 44.2371 74.7187C44.1738 74.5006 44.0842 74.2878 43.9661 74.0857L43.1334 72.6609C45.3175 71.4456 47.78 70.8046 50.3006 70.8046C52.8161 70.8046 55.2857 71.4461 57.4681 72.6605ZM26.2169 84.5366H32.5846L34.6175 81.1011L31.9396 78.4232L26.1025 84.2603C26.0816 84.2812 26.026 84.3368 26.0674 84.4367C26.1088 84.5366 26.1873 84.5366 26.2169 84.5366ZM37.7144 77.9585C37.4799 77.8077 37.1941 77.7586 36.9224 77.8231C36.651 77.8874 36.4174 78.0593 36.2753 78.2994L35.6972 79.2764L33.3917 76.971L37.3831 72.9796H40.9405L42.1928 75.1223C42.355 75.3998 42.3242 75.7509 42.1163 75.996L39.9152 78.5902C39.67 78.8791 39.2449 78.9423 38.9262 78.7377L37.7144 77.9585ZM43.731 77.5413L48.0906 81.9009C48.7361 81.5099 49.4927 81.2845 50.301 81.2846C51.1092 81.2846 51.8658 81.5099 52.5113 81.9009L56.871 77.5413C55.0807 76.0725 52.7921 75.1897 50.301 75.1897C47.8099 75.1897 45.5213 76.0725 43.731 77.5413ZM62.8859 77.9584L61.6741 78.7375C61.3554 78.9425 60.9302 78.879 60.6852 78.5901L58.4841 75.9959C58.2762 75.7508 58.2454 75.3997 58.4076 75.1221L59.6599 72.9795H63.2173L67.2086 76.9709L64.9032 79.2763L64.3251 78.2993C64.183 78.0592 63.9494 77.8873 63.678 77.823C63.4063 77.7587 63.1205 77.8077 62.8859 77.9584ZM74.3839 84.5366C74.4135 84.5366 74.492 84.5366 74.5334 84.4367C74.5748 84.3368 74.5192 84.2812 74.4983 84.2605L68.6611 78.4234L65.9833 81.1013L68.0162 84.5366H74.3839Z" fill="#0033A0"/>
<circle cx="87.2191" cy="62.0974" r="8.78049" fill="#00AEC7"/>
<path d="M87.5676 58.1463V66.0198" stroke="white" stroke-width="2.04878" stroke-linecap="round" stroke-linejoin="round"/>
<path d="M91.1689 62.4473H83.2955" stroke="white" stroke-width="2.04878" stroke-linecap="round" stroke-linejoin="round"/>
</g>
</svg>
