<svg width="72" height="72" viewBox="0 0 72 72" fill="none" xmlns="http://www.w3.org/2000/svg">
<rect x="34.2" y="59.3999" width="2.7" height="2.7" fill="#00AEC7"/>
<path fill-rule="evenodd" clip-rule="evenodd" d="M70.8 62.4029H69.6V19.2158C69.6 16.5656 67.451 14.4172 64.8 14.4172H53.64C51.6618 4.67781 42.1604 -1.61431 32.418 0.363448C25.3344 1.80137 19.7983 7.33591 18.36 14.4172H7.2C4.54905 14.4172 2.4 16.5656 2.4 19.2158V62.4029H1.2C0.5373 62.4029 0 62.94 0 63.6025V67.2014C0 69.8516 2.14905 72 4.8 72H67.2C69.851 72 72 69.8516 72 67.2014V63.6025C72 62.94 71.4627 62.4029 70.8 62.4029ZM24.7337 7.2188C27.6767 4.14936 31.7469 2.41603 36 2.42083C44.6057 2.41123 51.5898 9.37755 51.5994 17.9806C51.6042 22.2325 49.8702 26.3013 46.8 29.2436V22.8147C46.7957 19.2648 44.2031 16.2482 40.6932 15.7093C41.5334 14.6617 41.994 13.3607 42 12.018C42 8.7053 39.3137 6.01975 36 6.01975C32.6864 6.01975 30 8.7053 30 12.018C30.006 13.3607 30.4667 14.6617 31.3068 15.7093C27.7969 16.2482 25.2043 19.2648 25.2 22.8147V29.2436C18.9874 23.2904 18.7787 13.4295 24.7337 7.2188ZM39.6 33.176V24.0144H42V32.4119C42.8358 32.058 43.6389 31.6312 44.4 31.1366V22.8147C44.4 20.1646 42.2509 18.0162 39.6 18.0162H32.4C29.749 18.0162 27.6 20.1646 27.6 22.8147V31.1402C28.3612 31.6336 29.1643 32.059 30 32.4119V24.0144H32.4V33.176C34.7649 33.7567 37.2351 33.7567 39.6 33.176ZM32.4 12.018C32.4 10.0303 34.0117 8.41904 36 8.41904C37.9882 8.41904 39.6 10.0303 39.6 12.018C39.6 14.0056 37.9882 15.6169 36 15.6169C34.0117 15.6169 32.4 14.0056 32.4 12.018ZM25.2 32.4119V32.3783C21.6833 29.7445 19.2507 25.9167 18.36 21.6151H9.6V55.205H62.4V21.6151H53.64C52.7493 25.9167 50.3167 29.7445 46.8 32.3783V32.4119H46.7544C40.3883 37.2106 31.6118 37.2106 25.2456 32.4119H25.2ZM4.8 19.2158C4.8 17.8907 5.87445 16.8165 7.2 16.8165H18.0612C18.0561 16.8936 18.0507 16.9706 18.0452 17.0475L18.0452 17.0488C18.0226 17.3692 18 17.6896 18 18.0162C18 18.3428 18.0226 18.6631 18.0452 18.9835C18.0506 19.0609 18.0561 19.1383 18.0612 19.2158H8.4C7.7373 19.2158 7.2 19.7529 7.2 20.4154V56.4047C7.2 57.0672 7.7373 57.6043 8.4 57.6043H63.6C64.2627 57.6043 64.8 57.0672 64.8 56.4047V20.4154C64.8 19.7529 64.2627 19.2158 63.6 19.2158H53.9388C53.9439 19.1383 53.9494 19.061 53.9548 18.9836C53.9774 18.6632 54 18.3428 54 18.0162C54 17.6895 53.9774 17.3692 53.9548 17.0487C53.9494 16.9714 53.9439 16.894 53.9388 16.8165H64.8C66.1255 16.8165 67.2 17.8907 67.2 19.2158V62.4029H46.8C46.482 62.4026 46.1767 62.5287 45.9516 62.7532L43.9032 64.8022H28.0968L26.0484 62.7532C25.8232 62.5287 25.518 62.4026 25.2 62.4029H4.8V19.2158ZM67.2 69.6007C68.5255 69.6007 69.6 68.5266 69.6 67.2014V64.8022H47.2968L45.2484 66.8499C45.0234 67.0749 44.7183 67.2014 44.4 67.2014H27.6C27.2817 67.2014 26.9766 67.0749 26.7516 66.8499L24.7032 64.8022H2.4V67.2014C2.4 68.5266 3.47445 69.6007 4.8 69.6007H67.2Z" fill="#0033A0"/>
<path fill-rule="evenodd" clip-rule="evenodd" d="M16.4912 38.7H54.6089C55.2667 38.7 55.8001 39.2238 55.8001 39.87V49.23C55.8001 49.8761 55.2667 50.4 54.6089 50.4H16.4912C15.8334 50.4 15.3 49.8761 15.3 49.23V39.87C15.3 39.2238 15.8334 38.7 16.4912 38.7ZM17.6824 48.06H53.4177V41.04H17.6824V48.06Z" fill="#00AEC7"/>
<rect x="34.2" y="43.2" width="2.7" height="2.7" fill="#00AEC7"/>
<rect x="39.6001" y="43.2" width="2.7" height="2.7" fill="#00AEC7"/>
<rect x="44.1001" y="43.2" width="2.7" height="2.7" fill="#00AEC7"/>
<rect x="48.6001" y="43.2" width="2.7" height="2.7" fill="#00AEC7"/>
<rect x="19.8" y="43.2" width="2.7" height="2.7" fill="#00AEC7"/>
<rect x="25.2" y="43.2" width="2.7" height="2.7" fill="#00AEC7"/>
<rect x="29.7" y="43.2" width="2.7" height="2.7" fill="#00AEC7"/>
</svg>
