<svg width="120" height="120" viewBox="0 0 120 120" fill="none" xmlns="http://www.w3.org/2000/svg">
<circle opacity="0.0594076" cx="60" cy="60" r="60" fill="#0033A0"/>
<mask id="mask0_904_1143" style="mask-type:alpha" maskUnits="userSpaceOnUse" x="23" y="24" width="72" height="72">
<rect x="23" y="24" width="72" height="72" fill="white"/>
</mask>
<g mask="url(#mask0_904_1143)">
<path d="M81.3932 74.772C81.9759 74.772 82.4479 74.3 82.4479 73.7173C82.4479 73.1347 81.9759 72.6626 81.3932 72.6626H80.7554C80.1728 72.6626 79.7007 73.1347 79.7007 73.7173C79.7007 74.3 80.1728 74.772 80.7554 74.772H81.3932Z" fill="#00AEC7"/>
<path fill-rule="evenodd" clip-rule="evenodd" d="M40.4331 88.6452C40.4331 90.5228 38.9055 92.0505 37.0277 92.0505C35.1498 92.0505 33.6222 90.5226 33.6222 88.6452C33.6222 86.7671 35.1498 85.2395 37.0277 85.2395C38.9055 85.2395 40.4331 86.7671 40.4331 88.6452ZM38.3237 88.6452C38.3237 87.9305 37.7424 87.3489 37.0277 87.3489C36.3131 87.3489 35.7316 87.9305 35.7316 88.6452C35.7316 89.3598 36.3131 89.9412 37.0277 89.9412C37.7424 89.9412 38.3237 89.3598 38.3237 88.6452Z" fill="#00AEC7"/>
<path d="M49.6295 72.105C49.0469 72.105 48.5749 72.5769 48.5749 73.1597V73.8209C48.5749 74.4035 49.0469 74.8756 49.6295 74.8756C50.2122 74.8756 50.6842 74.4035 50.6842 73.8209V73.1597C50.6842 72.5771 50.2122 72.105 49.6295 72.105Z" fill="#00AEC7"/>
<path d="M70.657 64.1116H72.441C73.0235 64.1116 73.4957 63.6396 73.4957 63.0569C73.4957 62.4743 73.0235 62.0022 72.441 62.0022H70.657C70.0744 62.0022 69.6024 62.4743 69.6024 63.0569C69.6024 63.6396 70.0744 64.1116 70.657 64.1116Z" fill="#00AEC7"/>
<path d="M70.657 67.093H72.441C73.0235 67.093 73.4957 66.6211 73.4957 66.0383C73.4957 65.4557 73.0235 64.9836 72.441 64.9836H70.657C70.0744 64.9836 69.6024 65.4557 69.6024 66.0383C69.6024 66.6211 70.0744 67.093 70.657 67.093Z" fill="#00AEC7"/>
<path d="M70.657 70.0745H72.441C73.0235 70.0745 73.4957 69.6025 73.4957 69.0198C73.4957 68.4372 73.0235 67.9651 72.441 67.9651H70.657C70.0744 67.9651 69.6024 68.4372 69.6024 69.0198C69.6024 69.6025 70.0744 70.0745 70.657 70.0745Z" fill="#00AEC7"/>
<mask id="mask1_904_1143" style="mask-type:alpha" maskUnits="userSpaceOnUse" x="23" y="35" width="72" height="62">
<path fill-rule="evenodd" clip-rule="evenodd" d="M23 35.3906H94.9997V96.2086H23V35.3906Z" fill="white"/>
</mask>
<g mask="url(#mask1_904_1143)">
<path fill-rule="evenodd" clip-rule="evenodd" d="M87.4833 57.5262C89.0678 57.5262 90.5088 58.5231 91.069 60.0067C92.4789 63.8619 93.3901 66.2007 93.9758 67.7042C94.8509 69.9502 94.9997 70.332 94.9997 71.1207V85.0258C94.9997 86.3844 93.8943 87.4896 92.5358 87.4896H89.0394C89.0823 87.8189 89.1069 88.1539 89.1069 88.4948C89.1069 92.7482 85.6465 96.2086 81.3931 96.2086C77.1394 96.2086 73.6791 92.7482 73.6791 88.4948C73.6791 88.154 73.7037 87.819 73.7469 87.4896H70.5045V88.9487C70.5045 90.1884 69.4959 91.197 68.2563 91.197H53.5291C52.2895 91.197 51.2809 90.1884 51.2809 88.9487V87.4896H44.6739C44.7168 87.8189 44.7415 88.1539 44.7415 88.4948C44.7415 92.7482 41.281 96.2086 37.0276 96.2086C36.126 96.2086 35.2418 96.0538 34.399 95.7483C33.8514 95.5499 33.5683 94.9452 33.7669 94.3975C33.9653 93.85 34.5699 93.5667 35.1177 93.7654C35.7293 93.9871 36.3718 94.0994 37.0276 94.0994C40.1178 94.0994 42.632 91.5851 42.632 88.4949C42.632 85.4045 40.1178 82.8903 37.0276 82.8903C33.9373 82.8903 31.4231 85.4044 31.4231 88.4949C31.4231 89.5788 31.7343 90.6314 32.3232 91.5391C32.6402 92.0278 32.5011 92.6809 32.0125 92.998C31.5241 93.3148 30.8709 93.1762 30.5536 92.6872C29.7425 91.4369 29.3137 89.9872 29.3137 88.4949C29.3137 88.1542 29.3383 87.8192 29.3814 87.4897H28.8917V89.6144C28.8917 90.197 28.4196 90.6691 27.837 90.6691H24.0546C23.472 90.6691 22.9999 90.197 22.9999 89.6144C22.9999 89.0318 23.472 88.5597 24.0546 88.5597H26.7823V87.483C24.6769 87.3648 22.9999 85.6149 22.9999 83.4805V78.7964V76.0483C22.9999 75.4658 23.472 74.9936 24.0546 74.9936C24.6372 74.9936 25.1093 75.4658 25.1093 76.0483V77.7417H38.3238V76.0483C38.3238 75.4658 38.7959 74.9936 39.3787 74.9936C39.9611 74.9936 40.4334 75.4658 40.4334 76.0483V77.7417H43.4318V74.6591C43.4318 72.8317 44.2274 71.1869 45.4898 70.0515V60.7676C45.0907 60.6174 44.8062 60.2331 44.8062 59.7814C44.8062 59.3297 45.0906 58.9455 45.4898 58.7952V54.0262C45.0907 53.876 44.8062 53.4916 44.8062 53.04C44.8062 52.5883 45.0906 52.2041 45.4898 52.0538V47.179L33.7545 40.6368L33.0064 41.9787V52.8618C35.18 53.3447 36.81 55.2878 36.81 57.6048C36.81 60.2837 34.6306 62.4632 31.9517 62.4632C29.2728 62.4632 27.0933 60.2837 27.0933 57.6048C27.0933 57.0222 27.5653 56.5501 28.1479 56.5501C28.7305 56.5501 29.2026 57.0222 29.2026 57.6048C29.2026 59.1204 30.4359 60.3537 31.9517 60.3537C33.4674 60.3537 34.7006 59.1204 34.7006 57.6048C34.7006 56.0891 33.4674 54.8558 31.9517 54.8558C31.3691 54.8558 30.897 54.3838 30.897 53.8012V45.7626L30.4728 46.5235C30.2798 46.8696 29.9207 47.0649 29.5505 47.0649C29.3766 47.0649 29.2004 47.0219 29.0378 46.9312C28.5292 46.6477 28.3466 46.0052 28.6303 45.4964L33.2232 37.2573C33.696 36.4094 34.4707 35.7962 35.4046 35.5307C36.3385 35.2652 37.3201 35.3796 38.168 35.8523L39.9537 36.8478C40.4626 37.1315 40.6447 37.7738 40.3612 38.2826C40.0777 38.7914 39.4352 38.9738 38.9264 38.6902L37.1409 37.6947C36.7851 37.4964 36.3727 37.4483 35.9812 37.5598C35.5891 37.6712 35.264 37.9284 35.0656 38.2843L34.7814 38.7944L45.5902 44.82C45.7491 44.11 46.0897 43.4679 46.5619 42.9466L42.6308 40.7551C42.1221 40.4716 41.9396 39.8291 42.2234 39.3203C42.5069 38.8117 43.1494 38.6291 43.6582 38.9128L48.6575 41.6998C48.9696 41.6244 49.2948 41.5834 49.6298 41.5834C51.9126 41.5834 53.7697 43.4405 53.7697 45.7234V52.0539C54.1688 52.2041 54.4533 52.5884 54.4533 53.0401C54.4533 53.4918 54.1689 53.876 53.7697 54.0263V58.7953C54.1688 58.9455 54.4533 59.3298 54.4533 59.7815C54.4533 60.2332 54.1689 60.6174 53.7697 60.7677V70.0516C55.0321 71.1869 55.8274 72.8317 55.8274 74.6591V77.7417H61.9026V74.9294C61.9026 73.4496 63.1065 72.2455 64.5864 72.2455H65.559V67.5506C65.559 66.9682 66.0309 66.4959 66.6137 66.4959C67.1961 66.4959 67.6683 66.9682 67.6683 67.5506V85.3802H74.3386C75.5377 82.6741 78.2478 80.7808 81.3933 80.7808C84.5387 80.7808 87.2487 82.6741 88.4481 85.3802H92.536C92.7315 85.3802 92.8906 85.2214 92.8906 85.0258V83.5933H91.605C91.0224 83.5933 90.5503 83.1213 90.5503 82.5386C90.5503 81.9561 91.0224 81.4839 91.605 81.4839H92.8906V71.388H78.419C77.3017 71.388 76.3924 70.479 76.3924 69.3616V59.6356H68.4134C68.0025 59.6356 67.6682 59.9698 67.6682 60.3807V63.3337C67.6682 63.9165 67.1961 64.3884 66.6135 64.3884C66.0308 64.3884 65.5588 63.9165 65.5588 63.3337V60.3807C65.5588 58.8067 66.8394 57.5262 68.4134 57.5262H78.6191V55.6588C78.6191 53.4661 80.4032 51.6819 82.5961 51.6819C84.789 51.6819 86.5731 53.4659 86.5731 55.6588V57.5262H87.4833ZM51.6602 45.7231V51.9851H47.599V45.7231C47.599 44.6033 48.51 43.6925 49.6295 43.6925C50.749 43.6925 51.6602 44.6034 51.6602 45.7231ZM80.7286 55.6588C80.7286 54.629 81.5665 53.7913 82.5961 53.7913C83.6259 53.7913 84.4638 54.629 84.4638 55.6588V57.5262H80.7285V55.6588H80.7286ZM89.0955 60.7517C88.8435 60.084 88.1955 59.6356 87.4833 59.6356C84.1739 59.6357 82.3735 59.6356 79.8917 59.6355L78.5018 59.6354V61.6933H78.8095C80.8062 61.6933 82.4923 63.1231 82.8186 65.0932L83.5126 69.2786H89.0418L87.6974 67.9344L87.4426 68.1891C87.2366 68.3949 86.9666 68.498 86.6966 68.498C86.4267 68.498 86.1569 68.3949 85.9509 68.1891C85.539 67.7773 85.539 67.1096 85.9509 66.6976L87.952 64.6964C88.3638 64.2848 89.0315 64.2848 89.4436 64.6964C89.8555 65.1083 89.8555 65.7759 89.4436 66.1881L89.1888 66.4428L92.0246 69.2788H92.3129L89.0955 60.7517ZM78.8095 63.8028H78.5018V69.2788H81.3742L80.7375 65.4382C80.5805 64.4906 79.7698 63.8028 78.8095 63.8028ZM75.7886 88.4949C75.7886 91.5851 78.3027 94.0994 81.3932 94.0994C84.4836 94.0994 86.9977 91.5851 86.9977 88.4949C86.9977 85.4045 84.4834 82.8903 81.3932 82.8903C78.3028 82.8903 75.7886 85.4045 75.7886 88.4949ZM68.3952 88.9487C68.3952 89.0253 68.3328 89.0876 68.2564 89.0876H53.5293C53.4528 89.0876 53.3905 89.0253 53.3905 88.9487V87.4896H66.6135H68.3952V88.9487ZM29.973 85.3802C31.1722 82.6741 33.8822 80.7808 37.0277 80.7808C40.1732 80.7808 42.8832 82.6741 44.0827 85.3801H65.5588V79.851H25.1093V83.4804C25.1093 84.528 25.9616 85.3802 27.0094 85.3802H29.973ZM45.5411 74.6591C45.5411 72.4049 47.3752 70.5708 49.6295 70.5708C51.8838 70.5708 53.7178 72.4049 53.7178 74.6591V77.7417H45.5409V74.6591H45.5411ZM51.6602 60.8361H47.5992V68.8047C48.2358 68.5834 48.9185 68.4615 49.6297 68.4615C50.3407 68.4615 51.0235 68.5834 51.6602 68.8047V60.8361ZM51.6602 58.7267H47.599V54.0946H51.6602V58.7267ZM64.0118 74.9294C64.0118 74.6125 64.2694 74.3549 64.5863 74.3549H65.5588V77.7417H64.0118V74.9294Z" fill="#0033A0"/>
</g>
<path fill-rule="evenodd" clip-rule="evenodd" d="M77.9878 88.6452C77.9878 86.7673 79.5153 85.2395 81.3932 85.2395C83.2711 85.2395 84.7987 86.7673 84.7987 88.6452C84.7987 90.5229 83.2711 92.0505 81.3932 92.0505C79.5153 92.0505 77.9878 90.5229 77.9878 88.6452ZM80.0972 88.6452C80.0972 89.3598 80.6785 89.9412 81.3932 89.9412C82.1078 89.9412 82.6893 89.3598 82.6893 88.6452C82.6893 87.9305 82.1078 87.3489 81.3932 87.3489C80.6785 87.3489 80.0972 87.9305 80.0972 88.6452Z" fill="#00AEC7"/>
</g>
</svg>
