<svg width="72" height="72" viewBox="0 0 72 72" fill="none" xmlns="http://www.w3.org/2000/svg">
<mask id="mask0_633_689" style="mask-type:alpha" maskUnits="userSpaceOnUse" x="0" y="0" width="72" height="72">
<rect width="72" height="72" fill="white"/>
</mask>
<g mask="url(#mask0_633_689)">
<mask id="mask1_633_689" style="mask-type:alpha" maskUnits="userSpaceOnUse" x="0" y="6" width="72" height="65">
<path fill-rule="evenodd" clip-rule="evenodd" d="M4.57764e-05 6.14124H71.9758V70.2377H4.57764e-05V6.14124Z" fill="white"/>
</mask>
<g mask="url(#mask1_633_689)">
<path fill-rule="evenodd" clip-rule="evenodd" d="M4.57764e-05 62.5846C4.89492 54.0169 9.77327 45.44 14.6892 36.8845C19.9484 27.7318 25.2389 18.5971 30.5244 9.45946C32.3063 6.37899 35.7445 5.29179 38.7338 6.84176C39.7813 7.38487 40.5958 8.17616 41.1867 9.19969C45.2808 16.2893 49.3788 23.3766 53.4694 30.4682C53.9919 31.3741 53.8442 32.188 53.1187 32.6282C52.3774 33.0779 51.5751 32.7845 51.017 31.8575C50.9081 31.6765 50.8069 31.4912 50.7013 31.3084C46.9016 24.726 43.1028 18.1431 39.2995 11.563C39.0417 11.1169 38.7818 10.6661 38.4688 10.2588C37.1595 8.55508 34.692 8.56115 33.3783 10.2629C33.1642 10.5402 32.979 10.8421 32.8034 11.1462C22.9953 28.1282 13.1895 45.1113 3.38419 62.0951C2.29755 63.977 2.52894 65.8026 4.12579 66.8038C4.73849 67.1879 5.57412 67.3634 6.31247 67.3757C9.85741 67.4346 13.4038 67.4063 16.9498 67.4065C33.0825 67.407 49.215 67.4035 65.3478 67.4135C66.497 67.4144 67.5486 67.2383 68.3382 66.3148C69.3648 65.1142 69.4349 63.7678 68.5378 62.2091C66.4432 58.5698 64.3409 54.9347 62.2409 51.2987C60.4695 48.2313 58.6953 45.1655 56.9273 42.0961C56.8 41.875 56.6904 41.6364 56.6163 41.3927C56.4291 40.7759 56.6903 40.1303 57.2286 39.8147C57.7679 39.4986 58.4677 39.5793 58.9116 40.0388C59.0883 40.2217 59.2315 40.4439 59.3595 40.6657C63.2664 47.43 67.1801 54.1905 71.0683 60.9654C72.8063 63.9938 71.9823 67.5049 69.1582 69.3095C68.0969 69.9877 66.9249 70.2347 65.6735 70.2301C62.1982 70.2176 58.7227 70.2308 55.2472 70.2306C38.9736 70.2294 22.7001 70.2159 6.42654 70.2378C4.0007 70.2409 2.07929 69.4058 0.77821 67.3277C0.458728 66.8173 0.25614 66.2341 4.57764e-05 65.6844V62.5846Z" fill="#0033A0"/>
</g>
<path fill-rule="evenodd" clip-rule="evenodd" d="M34.2398 37.9094C34.2398 39.9748 34.2249 42.0405 34.2457 44.1058C34.2568 45.2085 34.9965 45.9712 35.9593 45.9493C36.9033 45.9278 37.6092 45.1893 37.6133 44.1172C37.6294 39.9864 37.6401 35.8552 37.5928 31.7248C37.5873 31.2439 37.3015 30.687 36.978 30.3088C36.5511 29.81 35.9004 29.7634 35.286 30.0271C34.5559 30.3405 34.2465 30.949 34.2429 31.7129C34.2334 33.7783 34.2396 35.8439 34.2398 37.9094ZM40.4357 37.9355C40.436 40.0473 40.471 42.1597 40.4254 44.2706C40.3843 46.1736 39.4888 47.6073 37.7344 48.3775C36.01 49.1347 34.3767 48.842 32.946 47.6197C31.9473 46.7664 31.4414 45.6331 31.434 44.333C31.4097 40.0392 31.3859 35.7448 31.4394 31.4516C31.4704 28.9601 33.4991 27.0503 35.9303 27.0635C38.4108 27.0771 40.3665 28.9828 40.4253 31.5299C40.4745 33.6641 40.4354 35.8003 40.4357 37.9355Z" fill="#00AEC7"/>
<path fill-rule="evenodd" clip-rule="evenodd" d="M37.6092 56.6986C37.6273 55.8206 36.8664 55.0248 35.9764 54.9906C35.0785 54.9562 34.2459 55.7696 34.2507 56.6761C34.2553 57.5581 35.0342 58.339 35.9187 58.3488C36.7941 58.3584 37.591 57.5804 37.6092 56.6986ZM35.9278 52.1621C38.4024 52.1727 40.4565 54.2446 40.4336 56.7072C40.4107 59.1635 38.3832 61.1747 35.9314 61.1729C33.4613 61.1712 31.4068 59.1027 31.4226 56.6335C31.438 54.1964 33.4982 52.1518 35.9278 52.1621Z" fill="#00AEC7"/>
<path fill-rule="evenodd" clip-rule="evenodd" d="M54.0804 36.7415C54.0773 35.9736 54.6906 35.3543 55.4566 35.3522C56.2152 35.3502 56.854 35.9787 56.8569 36.7299C56.8598 37.4825 56.2288 38.1126 55.4679 38.1167C54.6992 38.1209 54.0835 37.5108 54.0804 36.7415Z" fill="#00AEC7"/>
</g>
</svg>
