<svg width="32" height="32" viewBox="0 0 32 32" fill="none" xmlns="http://www.w3.org/2000/svg">
<mask id="mask0_820_1416" style="mask-type:alpha" maskUnits="userSpaceOnUse" x="0" y="0" width="32" height="32">
<path fill-rule="evenodd" clip-rule="evenodd" d="M0 0H32V32H0V0Z" fill="white"/>
</mask>
<g mask="url(#mask0_820_1416)">
<path d="M27.7085 30.9333H28.2103V13.3333C28.2103 13.0388 27.9802 12.8 27.6965 12.8H20.5042V0.533333C20.5042 0.2388 20.2742 0 19.9904 0H6.63321C6.3495 0 6.11947 0.2388 6.11947 0.533333V30.9333H6.51374C6.23003 30.9333 6 31.1721 6 31.4667C6 31.7612 6.23003 32 6.51374 32H27.7085C27.9922 32 28.2222 31.7612 28.2222 31.4667C28.2222 31.1721 27.9922 30.9333 27.7085 30.9333ZM11.7706 30.9333H9.71565V26.1333C9.71565 25.8388 9.94568 25.6 10.2294 25.6H11.2569C11.5406 25.6 11.7706 25.8388 11.7706 26.1333V30.9333ZM13.8256 13.3333V30.9333H12.7981V26.1333C12.7981 25.2497 12.1081 24.5333 11.2569 24.5333H10.2294C9.37819 24.5333 8.68817 25.2497 8.68817 26.1333V30.9333H7.14695V1.06667H19.4767V12.8H14.3393C14.0556 12.8 13.8256 13.0388 13.8256 13.3333ZM27.1828 30.9333H14.853V13.8667H27.1828V30.9333Z" fill="#0033A0"/>
<path d="M17.4214 7.46666H14.3389C14.0552 7.46666 13.8252 7.70546 13.8252 7.99999V11.2C13.8252 11.4945 14.0552 11.7333 14.3389 11.7333H17.4214C17.7051 11.7333 17.9351 11.4945 17.9351 11.2V7.99999C17.9351 7.70546 17.7051 7.46666 17.4214 7.46666ZM16.9076 10.6667H14.8527V8.53333H16.9076V10.6667Z" fill="#00AEC7"/>
<path d="M17.4214 2.13333H14.3389C14.0552 2.13333 13.8252 2.37213 13.8252 2.66666V5.86666C13.8252 6.1612 14.0552 6.4 14.3389 6.4H17.4214C17.7051 6.4 17.9351 6.1612 17.9351 5.86666V2.66666C17.9351 2.37213 17.7051 2.13333 17.4214 2.13333ZM16.9076 5.33333H14.8527V3.2H16.9076V5.33333Z" fill="#00AEC7"/>
<path d="M12.2842 7.46666H9.20173C8.91802 7.46666 8.68799 7.70546 8.68799 7.99999V11.2C8.68799 11.4945 8.91802 11.7333 9.20173 11.7333H12.2842C12.5679 11.7333 12.7979 11.4945 12.7979 11.2V7.99999C12.7979 7.70546 12.5679 7.46666 12.2842 7.46666ZM11.7704 10.6667H9.71547V8.53333H11.7704V10.6667Z" fill="#00AEC7"/>
<path d="M12.2842 2.13333H9.20173C8.91802 2.13333 8.68799 2.37213 8.68799 2.66666V5.86666C8.68799 6.1612 8.91802 6.4 9.20173 6.4H12.2842C12.5679 6.4 12.7979 6.1612 12.7979 5.86666V2.66666C12.7979 2.37213 12.5679 2.13333 12.2842 2.13333ZM11.7704 5.33333H9.71547V3.2H11.7704V5.33333Z" fill="#00AEC7"/>
<path d="M12.2842 12.8H9.20173C8.91802 12.8 8.68799 13.0388 8.68799 13.3333V16.5333C8.68799 16.8279 8.91802 17.0667 9.20173 17.0667H12.2842C12.5679 17.0667 12.7979 16.8279 12.7979 16.5333V13.3333C12.7979 13.0388 12.5679 12.8 12.2842 12.8ZM11.7704 16H9.71547V13.8667H11.7704V16Z" fill="#00AEC7"/>
<path d="M12.2842 18.1333H9.20173C8.91802 18.1333 8.68799 18.3721 8.68799 18.6667V21.8667C8.68799 22.1612 8.91802 22.4 9.20173 22.4H12.2842C12.5679 22.4 12.7979 22.1612 12.7979 21.8667V18.6667C12.7979 18.3721 12.5679 18.1333 12.2842 18.1333ZM11.7704 21.3333H9.71547V19.2H11.7704V21.3333Z" fill="#00AEC7"/>
<path d="M22.045 24.5333H25.1274C25.4111 24.5333 25.6412 24.2945 25.6412 24V20.8C25.6412 20.5055 25.4111 20.2667 25.1274 20.2667H22.045C21.7613 20.2667 21.5312 20.5055 21.5312 20.8V24C21.5312 24.2945 21.7613 24.5333 22.045 24.5333ZM22.5587 21.3333H24.6137V23.4667H22.5587V21.3333Z" fill="#00AEC7"/>
<path d="M22.045 19.2H25.1274C25.4111 19.2 25.6412 18.9612 25.6412 18.6667V15.4667C25.6412 15.1721 25.4111 14.9333 25.1274 14.9333H22.045C21.7613 14.9333 21.5312 15.1721 21.5312 15.4667V18.6667C21.5312 18.9612 21.7613 19.2 22.045 19.2ZM22.5587 16H24.6137V18.1333H22.5587V16Z" fill="#00AEC7"/>
<path d="M22.045 29.8667H25.1274C25.4111 29.8667 25.6412 29.6279 25.6412 29.3333V26.1333C25.6412 25.8388 25.4111 25.6 25.1274 25.6H22.045C21.7613 25.6 21.5312 25.8388 21.5312 26.1333V29.3333C21.5312 29.6279 21.7613 29.8667 22.045 29.8667ZM22.5587 26.6667H24.6137V28.8H22.5587V26.6667Z" fill="#00AEC7"/>
<path d="M16.9078 24.5333H19.9902C20.2739 24.5333 20.504 24.2945 20.504 24V20.8C20.504 20.5055 20.2739 20.2667 19.9902 20.2667H16.9078C16.6241 20.2667 16.394 20.5055 16.394 20.8V24C16.394 24.2945 16.6241 24.5333 16.9078 24.5333ZM17.4215 21.3333H19.4765V23.4667H17.4215V21.3333Z" fill="#00AEC7"/>
<path d="M16.9078 19.2H19.9902C20.2739 19.2 20.504 18.9612 20.504 18.6667V15.4667C20.504 15.1721 20.2739 14.9333 19.9902 14.9333H16.9078C16.6241 14.9333 16.394 15.1721 16.394 15.4667V18.6667C16.394 18.9612 16.6241 19.2 16.9078 19.2ZM17.4215 16H19.4765V18.1333H17.4215V16Z" fill="#00AEC7"/>
<path d="M16.9078 29.8667H19.9902C20.2739 29.8667 20.504 29.6279 20.504 29.3333V26.1333C20.504 25.8388 20.2739 25.6 19.9902 25.6H16.9078C16.6241 25.6 16.394 25.8388 16.394 26.1333V29.3333C16.394 29.6279 16.6241 29.8667 16.9078 29.8667ZM17.4215 26.6667H19.4765V28.8H17.4215V26.6667Z" fill="#00AEC7"/>
</g>
</svg>
