<svg width="120" height="120" viewBox="0 0 120 120" fill="none" xmlns="http://www.w3.org/2000/svg">
<circle opacity="0.0594076" cx="60" cy="60" r="60" fill="#0033A0"/>
<mask id="mask0_806_795" style="mask-type:alpha" maskUnits="userSpaceOnUse" x="24" y="24" width="72" height="72">
<rect x="24" y="24" width="72" height="72" fill="white"/>
</mask>
<g mask="url(#mask0_806_795)">
<path d="M76.9152 40.1807H68.6866C68.0626 40.1807 67.5552 40.6881 67.5552 41.3121C67.5552 41.9368 68.0626 42.4442 68.6866 42.4442H76.9152C77.5392 42.4442 78.0466 41.9368 78.0466 41.3121C78.0466 40.6881 77.5392 40.1807 76.9152 40.1807Z" fill="#00AEC7"/>
<path d="M37.352 75.0015C36.728 75.0015 36.2206 75.5089 36.2206 76.1329V89.0689C36.2206 89.6929 36.728 90.2003 37.352 90.2003C37.976 90.2003 38.4834 89.6929 38.4834 89.0689V76.1329C38.4834 75.5089 37.976 75.0015 37.352 75.0015Z" fill="#00AEC7"/>
<path d="M37.344 72.809C37.9639 72.809 38.4692 72.3043 38.4692 71.6837C38.4692 71.0638 37.9639 70.5598 37.344 70.5598C36.7241 70.5598 36.2187 71.0638 36.2187 71.6837C36.2187 72.3043 36.7241 72.809 37.344 72.809Z" fill="#00AEC7"/>
<mask id="mask1_806_795" style="mask-type:alpha" maskUnits="userSpaceOnUse" x="30" y="23" width="58" height="72">
<path fill-rule="evenodd" clip-rule="evenodd" d="M30.75 23.5608H87.7595V94.6465H30.75V23.5608Z" fill="white"/>
</mask>
<g mask="url(#mask1_806_795)">
<path fill-rule="evenodd" clip-rule="evenodd" d="M82.3375 65.6373C82.4061 65.6373 82.474 65.6435 82.5391 65.6558C83.9208 65.9054 86.4991 67.2035 86.364 70.3256C86.2639 72.6206 84.9953 73.9379 83.9174 74.6476C84.2493 75.596 84.5311 76.9866 84.0806 78.3649C83.7007 79.5272 82.8861 80.4522 81.6593 81.1153C82.1585 82.4901 82.1921 83.7676 81.7581 84.9141C81.2747 86.1875 80.3201 87.0001 79.5816 87.4664C79.836 88.5779 79.9663 90.1873 79.2045 91.6849C78.4612 93.1427 77.0712 94.126 75.0731 94.6088C74.988 94.63 74.8982 94.6403 74.8077 94.6403H61.9361C61.8909 94.6417 61.6337 94.6465 61.2223 94.6465C59.2049 94.6465 54.1697 94.532 50.9915 93.4725C48.1361 92.5201 45.3329 91.9372 43.7613 91.7713V93.4444C43.7613 94.0684 43.2539 94.5765 42.6292 94.5765H31.9457C31.3238 94.5765 30.8164 94.0698 30.8143 93.4472L30.7499 66.611C30.7492 66.308 30.8671 66.0227 31.0811 65.8088C31.2943 65.5948 31.5789 65.4762 31.882 65.4762H42.6292C43.2539 65.4762 43.7613 65.9836 43.7613 66.6083V67.9653C45.5181 67.8268 48.7931 67.2398 51.7622 64.9132C52.7119 64.1685 55.3958 62.4426 57.1355 61.7987C60.1958 60.6659 63.6353 60.081 65.4703 59.828V50.3294C60.6847 47.6723 57.7142 42.6419 57.7142 37.1857C57.7142 31.3928 60.9515 26.2163 66.1622 23.6757C66.5147 23.5043 66.9247 23.5256 67.2566 23.7333C67.5905 23.9418 67.7894 24.3004 67.7894 24.6933V34.1349H78.0511L78.0388 24.873C78.0381 24.4801 78.2472 24.1084 78.5839 23.9041C78.9199 23.699 79.3457 23.686 79.6948 23.8691C84.6689 26.4734 87.7595 31.5765 87.7595 37.1857C87.7595 42.622 84.8047 47.6428 80.0465 50.3041V65.6373H82.3375ZM66.6573 36.3985H79.1839C79.4863 36.3985 79.7709 36.2798 79.9848 36.0666C80.196 35.8554 80.316 35.5633 80.3153 35.2657L80.305 26.9096C83.5595 29.3034 85.4959 33.1297 85.4959 37.1857C85.4959 44.2218 79.7723 49.9454 72.7375 49.9454C65.7014 49.9454 59.9777 44.2218 59.9777 37.1857C59.9777 32.9452 62.0479 29.0229 65.5259 26.6538V35.267C65.5259 35.891 66.0333 36.3985 66.6573 36.3985ZM41.4977 67.7397V92.313H33.0744L33.0161 67.7397H41.4977ZM67.7339 51.3512V65.6373H77.783V51.3361C76.1647 51.9148 74.4676 52.209 72.7375 52.209C71.0225 52.209 69.3405 51.9203 67.7339 51.3512ZM70.463 73.0067C69.839 73.0067 69.3316 73.5141 69.3316 74.1381C69.3316 74.7621 69.839 75.2696 70.463 75.2696H81.7368C81.983 75.9155 82.2038 76.835 81.9268 77.6702C81.7142 78.31 81.2294 78.8113 80.4443 79.2008H70.5124C69.8877 79.2008 69.3803 79.7082 69.3803 80.3322C69.3803 80.9562 69.8877 81.4643 70.5124 81.4643H79.3677C79.8251 82.4826 79.9183 83.3685 79.6475 84.0968C79.2936 85.0485 78.3933 85.5745 77.999 85.7644H70.1256C69.5016 85.7644 68.9942 86.2718 68.9942 86.8965C68.9942 87.5205 69.5016 88.028 70.1256 88.028H77.3894C77.5512 88.7603 77.6363 89.7875 77.183 90.6673C76.7675 91.4764 75.9206 92.0524 74.6678 92.3774L61.9087 92.3781L61.8695 92.3785H61.8694C61.3162 92.3855 55.1208 92.4638 51.708 91.3256C48.9775 90.4149 45.732 89.6702 43.7613 89.5002V70.2419C45.7903 70.1096 49.62 69.4664 53.1576 66.6947C54.1197 65.9404 56.5985 64.4099 57.9199 63.9203C60.6251 62.9192 63.7649 62.3651 65.4703 62.1155V66.7688C65.4703 67.3928 65.9777 67.9002 66.6017 67.9002L82.2079 67.8974C82.5384 67.9749 84.18 68.4515 84.1032 70.2268C84.0251 72.0268 82.6859 72.8003 82.2429 73.0067H70.463Z" fill="#0033A0"/>
</g>
</g>
</svg>
