<svg width="120" height="120" viewBox="0 0 120 120" fill="none" xmlns="http://www.w3.org/2000/svg">
<circle cx="60" cy="60" r="60" fill="white"/>
<mask id="mask0_903_1138" style="mask-type:alpha" maskUnits="userSpaceOnUse" x="24" y="22" width="72" height="72">
<rect x="24" y="22" width="72" height="72" fill="white"/>
</mask>
<g mask="url(#mask0_903_1138)">
<mask id="mask1_903_1138" style="mask-type:alpha" maskUnits="userSpaceOnUse" x="24" y="28" width="72" height="65">
<path fill-rule="evenodd" clip-rule="evenodd" d="M24 28.1412H95.9758V92.2377H24V28.1412Z" fill="white"/>
</mask>
<g mask="url(#mask1_903_1138)">
<path fill-rule="evenodd" clip-rule="evenodd" d="M24 84.5846C28.8949 76.0169 33.7733 67.44 38.6892 58.8845C43.9484 49.7318 49.2389 40.5971 54.5244 31.4595C56.3063 28.379 59.7445 27.2918 62.7338 28.8418C63.7813 29.3849 64.5957 30.1762 65.1867 31.1997C69.2808 38.2893 73.3788 45.3766 77.4693 52.4682C77.9918 53.3741 77.8442 54.188 77.1187 54.6282C76.3773 55.0779 75.575 54.7845 75.017 53.8575C74.9081 53.6765 74.8069 53.4912 74.7013 53.3084C70.9015 46.726 67.1028 40.1431 63.2995 33.563C63.0417 33.1169 62.7818 32.6661 62.4688 32.2588C61.1595 30.5551 58.692 30.5612 57.3782 32.2629C57.1642 32.5402 56.979 32.8421 56.8034 33.1462C46.9953 50.1282 37.1894 67.1113 27.3842 84.0951C26.2975 85.977 26.5289 87.8026 28.1258 88.8038C28.7385 89.1879 29.5741 89.3634 30.3125 89.3757C33.8574 89.4346 37.4037 89.4063 40.9498 89.4065C57.0825 89.407 73.215 89.4035 89.3478 89.4135C90.497 89.4144 91.5486 89.2383 92.3382 88.3148C93.3648 87.1142 93.4349 85.7678 92.5378 84.2091C90.4432 80.5698 88.3409 76.9347 86.2409 73.2987C84.4694 70.2313 82.6953 67.1655 80.9273 64.0961C80.8 63.875 80.6904 63.6364 80.6163 63.3927C80.4291 62.7759 80.6903 62.1303 81.2286 61.8147C81.7679 61.4986 82.4677 61.5793 82.9116 62.0388C83.0883 62.2217 83.2315 62.4439 83.3595 62.6657C87.2664 69.43 91.1801 76.1905 95.0683 82.9654C96.8063 85.9938 95.9822 89.5049 93.1581 91.3095C92.0969 91.9877 90.9249 92.2347 89.6735 92.2301C86.1982 92.2176 82.7227 92.2308 79.2472 92.2306C62.9736 92.2294 46.7001 92.2159 30.4265 92.2378C28.0007 92.2409 26.0793 91.4058 24.7782 89.3277C24.4587 88.8173 24.2561 88.2341 24 87.6844V84.5846Z" fill="#0033A0"/>
</g>
<path fill-rule="evenodd" clip-rule="evenodd" d="M58.2397 59.9094C58.2397 61.9748 58.2249 64.0405 58.2457 66.1058C58.2568 67.2085 58.9964 67.9712 59.9593 67.9493C60.9033 67.9278 61.6092 67.1893 61.6133 66.1172C61.6294 61.9864 61.6401 57.8552 61.5928 53.7248C61.5873 53.2439 61.3014 52.687 60.978 52.3088C60.5511 51.81 59.9004 51.7634 59.286 52.0271C58.5558 52.3405 58.2465 52.949 58.2428 53.7129C58.2334 55.7783 58.2396 57.8439 58.2397 59.9094ZM64.4357 59.9355C64.436 62.0473 64.471 64.1597 64.4254 66.2706C64.3843 68.1736 63.4888 69.6073 61.7344 70.3775C60.0099 71.1347 58.3767 70.842 56.946 69.6197C55.9473 68.7664 55.4413 67.6331 55.434 66.333C55.4097 62.0392 55.3858 57.7448 55.4394 53.4516C55.4704 50.9601 57.4991 49.0503 59.9303 49.0635C62.4108 49.0771 64.3665 50.9828 64.4252 53.5299C64.4745 55.6641 64.4354 57.8003 64.4357 59.9355Z" fill="#00AEC7"/>
<path fill-rule="evenodd" clip-rule="evenodd" d="M61.6092 78.6986C61.6273 77.8206 60.8663 77.0248 59.9764 76.9906C59.0785 76.9562 58.2458 77.7696 58.2506 78.6761C58.2553 79.5581 59.0342 80.339 59.9186 80.3488C60.7941 80.3584 61.591 79.5804 61.6092 78.6986ZM59.9278 74.1621C62.4023 74.1727 64.4565 76.2446 64.4336 78.7072C64.4107 81.1635 62.3831 83.1747 59.9313 83.1729C57.4613 83.1712 55.4068 81.1027 55.4226 78.6335C55.438 76.1964 57.4982 74.1518 59.9278 74.1621Z" fill="#00AEC7"/>
<path fill-rule="evenodd" clip-rule="evenodd" d="M78.0804 58.7415C78.0773 57.9736 78.6906 57.3543 79.4566 57.3522C80.2151 57.3502 80.8539 57.9787 80.8569 58.7299C80.8597 59.4825 80.2288 60.1126 79.4679 60.1167C78.6992 60.1209 78.0835 59.5108 78.0804 58.7415Z" fill="#00AEC7"/>
</g>
</svg>
