<svg width="72" height="72" viewBox="0 0 72 72" fill="none" xmlns="http://www.w3.org/2000/svg">
<circle cx="36" cy="36" r="36" fill="white"/>
<circle opacity="0.0594076" cx="36" cy="36" r="36" fill="#0033A0"/>
<mask id="mask0_804_1682" style="mask-type:alpha" maskUnits="userSpaceOnUse" x="13" y="10" width="48" height="48">
<rect x="13" y="10" width="48" height="48" fill="white"/>
</mask>
<g mask="url(#mask0_804_1682)">
<mask id="mask1_804_1682" style="mask-type:alpha" maskUnits="userSpaceOnUse" x="13" y="14" width="48" height="43">
<path fill-rule="evenodd" clip-rule="evenodd" d="M13 14.0941H60.9838V56.8251H13V14.0941Z" fill="white"/>
</mask>
<g mask="url(#mask1_804_1682)">
<path fill-rule="evenodd" clip-rule="evenodd" d="M13 51.723C16.2632 46.0112 19.5155 40.2933 22.7928 34.5897C26.2989 28.4878 29.8259 22.3981 33.3496 16.3063C34.5375 14.2526 36.8296 13.5278 38.8225 14.5612C39.5208 14.9232 40.0638 15.4508 40.4578 16.1331C43.1872 20.8595 45.9192 25.5844 48.6462 30.3121C48.9945 30.9161 48.8961 31.4587 48.4124 31.7521C47.9182 32.0519 47.3833 31.8563 47.0113 31.2383C46.9387 31.1177 46.8713 30.9941 46.8008 30.8722C44.2677 26.484 41.7352 22.0954 39.1996 17.7086C39.0278 17.4112 38.8545 17.1107 38.6458 16.8392C37.773 15.7034 36.128 15.7074 35.2521 16.8419C35.1095 17.0268 34.986 17.2281 34.8689 17.4308C28.3302 28.7521 21.7929 40.0742 15.2561 51.3967C14.5317 52.6513 14.6859 53.8684 15.7505 54.5359C16.159 54.7919 16.716 54.9089 17.2083 54.9171C19.5716 54.9564 21.9358 54.9375 24.2999 54.9376C35.055 54.938 45.81 54.9357 56.5652 54.9423C57.3313 54.9429 58.0324 54.8255 58.5588 54.2098C59.2432 53.4094 59.2899 52.5118 58.6919 51.4727C57.2954 49.0465 55.8939 46.6231 54.4939 44.1991C53.3129 42.1542 52.1302 40.1103 50.9515 38.064C50.8666 37.9166 50.7936 37.7576 50.7442 37.5951C50.6194 37.1839 50.7935 36.7535 51.1524 36.5431C51.5119 36.3324 51.9784 36.3862 52.2744 36.6926C52.3922 36.8144 52.4876 36.9626 52.573 37.1104C55.1776 41.62 57.7867 46.127 60.3788 50.6436C61.5375 52.6625 60.9881 55.0032 59.1054 56.2063C58.3979 56.6585 57.6166 56.8231 56.7823 56.8201C54.4654 56.8117 52.1484 56.8206 49.8314 56.8204C38.9824 56.8196 28.1334 56.8106 17.2843 56.8252C15.6671 56.8272 14.3862 56.2705 13.5188 54.8851C13.3058 54.5449 13.1707 54.1561 13 53.7896V51.723Z" fill="#0033A0"/>
</g>
<path fill-rule="evenodd" clip-rule="evenodd" d="M35.8265 35.2729C35.8265 36.6498 35.8166 38.0269 35.8305 39.4038C35.8379 40.1389 36.331 40.6474 36.9729 40.6328C37.6022 40.6185 38.0728 40.1261 38.0755 39.4114C38.0863 36.6575 38.0934 33.9034 38.0619 31.1498C38.0582 30.8292 37.8676 30.4579 37.652 30.2058C37.3674 29.8733 36.9336 29.8422 36.524 30.018C36.0372 30.2269 35.831 30.6326 35.8286 31.1419C35.8223 32.5188 35.8264 33.8958 35.8265 35.2729ZM39.9572 35.2903C39.9574 36.6981 39.9807 38.1064 39.9503 39.5137C39.9229 40.7824 39.3259 41.7381 38.1563 42.2516C37.0067 42.7564 35.9178 42.5613 34.964 41.7464C34.2982 41.1776 33.9609 40.422 33.956 39.5553C33.9398 36.6928 33.9239 33.8298 33.9596 30.9677C33.9803 29.3067 35.3328 28.0335 36.9536 28.0423C38.6072 28.0513 39.911 29.3218 39.9502 31.0199C39.983 32.4427 39.957 33.8668 39.9572 35.2903Z" fill="#00AEC7"/>
<path fill-rule="evenodd" clip-rule="evenodd" d="M38.0729 47.799C38.0849 47.2137 37.5776 46.6831 36.9843 46.6604C36.3857 46.6374 35.8306 47.1797 35.8338 47.784C35.8369 48.372 36.3562 48.8927 36.9458 48.8991C37.5294 48.9055 38.0607 48.3869 38.0729 47.799ZM36.9519 44.7747C38.6016 44.7818 39.971 46.1631 39.9557 47.8048C39.9405 49.4423 38.5888 50.7831 36.9542 50.7819C35.3075 50.7808 33.9379 49.4018 33.9484 47.7556C33.9587 46.1309 35.3321 44.7679 36.9519 44.7747Z" fill="#00AEC7"/>
<path fill-rule="evenodd" clip-rule="evenodd" d="M49.0537 34.4943C49.0516 33.9824 49.4604 33.5695 49.9711 33.5681C50.4768 33.5668 50.9027 33.9858 50.9047 34.4866C50.9066 34.9883 50.4859 35.4084 49.9786 35.4111C49.4662 35.4139 49.0557 35.0071 49.0537 34.4943Z" fill="#00AEC7"/>
</g>
</svg>
