<svg width="120" height="120" viewBox="0 0 120 120" fill="none" xmlns="http://www.w3.org/2000/svg">
<circle opacity="0.0594076" cx="60" cy="60" r="60" fill="#0033A0"/>
<g clip-path="url(#clip0_807_820)">
<path d="M96 53.6934C95.9183 53.9822 95.8295 54.2682 95.7535 54.5585C95.3731 56.0054 94.6348 57.2381 93.4796 58.1877C92.3764 59.095 91.2381 59.9586 90.1025 60.8265C89.4742 61.3069 88.8669 61.2816 88.4837 60.7983C88.0935 60.3052 88.209 59.7262 88.8373 59.226C89.7911 58.4681 90.7647 57.7369 91.7241 56.9859C94.4235 54.8712 94.7222 51.4618 92.3341 49.0188C89.2065 45.8179 86.0393 42.6564 82.8398 39.5287C80.5236 37.2647 77.3114 37.3689 75.2066 39.7781C73.9611 41.2024 72.8594 42.7508 71.5619 44.4132L75.8969 44.9275C75.9716 44.433 75.9899 44.0568 76.0885 43.7018C76.6662 41.6209 79.2064 40.8178 80.8928 42.1746C81.0379 42.2915 81.1774 42.4183 81.3098 42.5507C83.9796 45.2163 86.6564 47.8734 89.3107 50.5531C90.9408 52.1986 90.6322 54.605 88.6838 55.5672C87.6018 56.1012 86.5479 55.9969 85.5631 55.3136C85.2771 55.115 85.0264 54.8614 84.7784 54.6134C82.3242 52.1634 79.8798 49.7035 77.4129 47.269C77.1931 47.0535 76.8169 46.8562 76.5267 46.8745C74.6332 46.9957 72.7862 46.7421 70.9631 46.2828C70.439 46.1518 70.1347 46.2377 69.7951 46.6886C67.9735 49.0991 66.1081 51.4759 64.2625 53.8667C62.3535 56.3393 62.5296 59.0358 64.7444 61.2548C66.697 63.2117 68.6525 65.1672 70.6095 67.1185C72.8284 69.3332 75.5123 69.5122 77.999 67.606C79.5797 66.3957 81.1478 65.17 82.7257 63.9542C82.9286 63.7978 83.1371 63.6428 83.3625 63.5217C83.8218 63.2751 84.2459 63.3949 84.56 63.771C84.8968 64.1754 84.8996 64.6375 84.5643 65.0573C84.4206 65.2363 84.2247 65.3785 84.0402 65.5223C82.5045 66.7141 80.9378 67.868 79.4346 69.1008C76.7817 71.2761 73.3807 71.5818 70.57 69.7531C70.5122 69.715 70.4404 69.7009 70.3023 69.646C69.3161 70.6322 68.3116 71.6395 67.3043 72.6469C66.7914 73.1611 66.2744 73.6711 65.7644 74.1882C65.2459 74.7151 64.6443 74.9969 63.8821 74.9659C63.6426 74.956 63.3665 75.1082 63.1566 75.2547C62.9114 75.4266 62.7043 75.6633 62.5057 75.8929C60.8277 77.8357 58.8215 79.3249 56.4659 80.3604C56.1207 80.5112 55.822 80.8789 55.6191 81.217C55.1754 81.9581 54.7752 82.7301 54.416 83.5177C54.044 84.3306 53.4861 84.9237 52.6422 85.2069C51.0319 85.7479 49.8766 86.7679 49.1553 88.3177C48.8805 88.908 48.4396 89.418 48.131 89.9928C47.6858 90.8226 46.9969 91.1537 46.0868 91.2495C44.8146 91.3834 43.5522 91.6116 42.2857 91.799H41.5826C40.2808 91.2819 40.0117 90.8593 40.1695 89.4518C40.3245 88.0796 40.5218 86.7116 40.6866 85.3407C40.7655 84.6842 41.0994 84.2221 41.6545 83.8783C42.8112 83.1655 43.9664 82.4526 45.0977 81.7017C45.3894 81.5072 45.6585 81.2085 45.8177 80.8958C47.5562 77.4821 46.5968 78.3697 50.0598 76.5903C50.8656 76.1761 51.5053 75.6943 51.8307 74.8278C52.7521 72.3778 54.6005 70.6392 56.4377 68.8979C56.7575 68.595 56.9632 68.3005 56.9153 67.8102C56.842 67.0805 57.2436 66.5197 57.7423 66.0238C59.2357 64.5375 60.7249 63.0469 62.0788 61.6958C61.6843 60.4489 61.1968 59.3486 61.0024 58.2004C60.6572 56.1561 61.3081 54.3218 62.5691 52.6945C64.2766 50.4911 65.9813 48.2862 67.6861 46.0813C67.827 45.8996 67.9552 45.7094 68.0848 45.5277C66.397 44.7556 64.7514 44.0033 63.0692 43.234C63.0115 43.8145 62.9903 44.3963 62.8889 44.9627C62.5888 46.6491 61.7956 48.0847 60.5854 49.2935C55.15 54.7275 49.7245 60.17 44.2764 65.5913C42.3505 67.5073 39.8328 67.5102 37.9097 65.5997C33.7367 61.4549 29.5791 57.2959 25.4342 53.1228C23.5013 51.1772 23.528 48.6666 25.4511 46.6998C26.0076 46.1306 26.567 45.5615 27.1418 45.0106C27.6983 44.4766 28.2477 44.4428 28.6957 44.8768C29.1339 45.3022 29.1142 45.894 28.6014 46.4336C28.0209 47.045 27.4038 47.6226 26.8191 48.2299C25.7963 49.2921 25.7667 50.5615 26.7994 51.5999C30.9964 55.8194 35.2047 60.0277 39.4257 64.2247C40.44 65.2334 41.7348 65.2405 42.7421 64.2374C48.2536 58.747 53.7566 53.2496 59.2427 47.7339C60.8446 46.125 61.2278 44.1301 60.839 41.952C60.8066 41.7716 60.6488 41.5941 60.5079 41.4574C59.4977 40.4853 58.4538 39.547 57.4732 38.5481C57.1562 38.2255 56.9266 38.3495 56.6124 38.4439C54.9133 38.9497 53.1043 37.9832 52.5816 36.3066C52.0533 34.609 52.9691 32.7957 54.6428 32.2308C56.3264 31.6616 58.2058 32.5154 58.7271 34.2145C58.9286 34.8682 58.782 35.629 58.7961 36.3404C58.8004 36.5574 58.7285 36.842 58.8384 36.9815C59.3245 37.6 59.8626 38.1762 60.3825 38.7665L60.5389 38.6876C60.4389 37.5633 60.3417 36.4391 60.2374 35.3162C60.1825 34.7329 60.1388 34.1483 60.0486 33.5706C59.8049 32.0082 58.8088 31.0783 57.2295 30.9262C54.3159 30.6458 51.3996 30.3852 48.4875 30.0879C46.3164 29.8667 44.4976 30.5106 42.9549 32.0758C39.9638 35.1147 36.9306 38.1142 33.9142 41.1278C33.7324 41.3095 33.5507 41.4955 33.3464 41.649C32.8857 41.997 32.4208 41.9675 32.0193 41.5589C31.6135 41.1475 31.6234 40.6783 31.9587 40.2247C32.0967 40.0373 32.2714 39.8781 32.4377 39.7119C35.3188 36.8279 38.2478 33.9891 41.0698 31.0459C43.2719 28.7551 45.8177 27.6844 49.013 28.0803C51.8476 28.4311 54.6992 28.6424 57.5422 28.92C58.7229 29.0355 59.7485 29.4863 60.6164 30.3091C60.7812 30.4655 61.0574 30.5923 61.28 30.5909C66.8703 30.5444 71.8169 32.4717 76.3928 35.5149C76.9691 35.8981 77.4749 36.0714 78.1821 35.9629C80.3743 35.6262 82.3594 36.2263 83.9359 37.7634C87.3595 41.0982 90.7168 44.502 94.0854 47.8917C95.0152 48.8286 95.5534 49.9923 95.8464 51.2744C95.8817 51.428 95.9479 51.5745 96 51.7238V53.692V53.6934ZM63.5384 63.1455C62.1168 64.5642 60.6544 66.0139 59.2103 67.482C59.0695 67.6257 58.9708 67.8891 58.9821 68.0906C59.0258 68.8754 58.7299 69.5009 58.1917 70.0391C57.314 70.9154 56.418 71.7762 55.5684 72.6807C55.1754 73.1005 54.7513 73.5598 54.554 74.0825C53.596 76.6171 51.8941 78.3471 49.3398 79.2756C48.9975 79.3996 48.6706 79.7814 48.4973 80.1251C46.8081 83.4754 47.7436 82.4202 44.5891 84.4616C44.5497 84.487 44.5074 84.5081 44.468 84.5321C43.2517 85.2928 42.5707 86.3983 42.4251 87.8485C42.366 88.4374 42.3012 89.0263 42.2349 89.6533C43.448 89.5039 44.5455 89.4081 45.6261 89.2137C45.9614 89.1531 46.3432 88.8911 46.539 88.6079C47.2547 87.5682 47.8718 86.4594 48.5875 85.4196C48.8679 85.0111 49.2539 84.5292 49.6892 84.3982C51.8237 83.7501 53.0437 82.261 53.7862 80.266C53.8271 80.1575 53.8693 80.0364 53.9482 79.9561C54.3596 79.5278 54.709 78.9403 55.2148 78.7177C57.7071 77.6188 59.7668 75.9817 61.5462 73.9529C61.6688 73.812 61.8083 73.6852 61.9449 73.557C62.4479 73.0879 63.0284 72.8498 63.73 72.8977C63.9174 72.9103 64.1738 72.861 64.2977 72.7385C65.7982 71.262 67.2803 69.7658 68.7216 68.3217C66.9957 66.5958 65.2952 64.8981 63.5398 63.1441L63.5384 63.1455ZM61.99 32.607C62.0422 32.993 62.0872 33.2691 62.114 33.5481C62.3112 35.6219 62.5198 37.6944 62.6902 39.771C62.7367 40.3318 62.9058 40.7234 63.4482 40.9728C65.2924 41.8209 67.1253 42.693 68.954 43.575C69.3471 43.7638 69.5627 43.6595 69.8275 43.334C71.5351 41.2377 72.9425 38.8933 75.0587 37.0562C71.0518 34.5117 66.8182 32.8155 61.9872 32.6084L61.99 32.607ZM79.4036 46.2913C79.474 46.3758 79.5262 46.4519 79.5896 46.5167C81.8691 48.8004 84.1501 51.0828 86.4324 53.3638C86.5479 53.4793 86.6762 53.661 86.8058 53.6653C87.1932 53.6807 87.7088 53.7625 87.9399 53.5554C88.1738 53.3454 88.1963 52.8213 88.1794 52.4409C88.1695 52.2367 87.8962 52.0296 87.7159 51.8492C85.6026 49.7289 83.4851 47.6142 81.3675 45.4995C81.2422 45.3741 81.1013 45.2628 80.99 45.1642C80.4335 45.5601 79.9249 45.9207 79.4036 46.2927V46.2913ZM55.7234 34.1426C55.1866 34.1074 54.7217 34.3554 54.6174 34.8625C54.5343 35.2641 54.6358 35.7966 54.8555 36.1446C55.1021 36.5321 55.5938 36.6659 56.0672 36.4292C55.9488 35.6459 55.8389 34.9161 55.722 34.144L55.7234 34.1426ZM79.412 43.8257C78.5104 43.4975 78.1976 43.7088 78.0849 44.5767C78.5653 44.3048 78.988 44.0653 79.412 43.8257Z" fill="#0033A0"/>
<path d="M40.9317 61.4577C39.8666 61.4872 38.9748 61.066 38.2323 60.3278C35.7105 57.8172 33.1759 55.3178 30.6893 52.7734C29.1184 51.1659 29.148 49.0639 30.7006 47.4423C31.6403 46.4617 32.6011 45.5009 33.5817 44.5612C35.1807 43.0283 37.2743 42.979 38.8593 44.5203C41.4431 47.0337 43.9946 49.5838 46.5066 52.1704C48.0423 53.7512 47.9859 55.8504 46.4531 57.4494C45.5133 58.43 44.5426 59.3796 43.5747 60.332C42.8464 61.0477 41.9813 61.4703 40.9331 61.4577H40.9317ZM45.712 54.774C45.4232 54.2894 45.2485 53.8132 44.9258 53.4849C42.4801 50.9997 40.0131 48.5356 37.5364 46.0813C36.6995 45.2529 35.8006 45.2642 34.9455 46.0898C34.0198 46.983 33.1083 47.8931 32.2137 48.8188C31.3853 49.6753 31.3782 50.5643 32.2179 51.4111C34.6721 53.8878 37.1377 56.3534 39.6144 58.8076C40.4654 59.6501 41.3375 59.6346 42.1997 58.7977C43.1225 57.9003 44.0453 57.0014 44.9216 56.0603C45.2386 55.7208 45.4218 55.2573 45.712 54.7754V54.774Z" fill="#00AEC7"/>
<path d="M56.935 45.4179C56.9533 46.4985 56.5194 47.3804 55.7826 48.1257C54.8443 49.0739 53.9116 50.0291 52.9493 50.9547C51.308 52.5355 49.1947 52.558 47.5647 50.9604C45.04 48.485 42.5421 45.9828 40.0639 43.4624C38.462 41.8323 38.4775 39.7247 40.0611 38.0805C40.9867 37.1197 41.9306 36.1743 42.8915 35.2501C44.5412 33.6623 46.6433 33.6426 48.2705 35.2416C50.7924 37.7198 53.2762 40.2347 55.7755 42.7354C56.518 43.4793 56.9505 44.3584 56.9336 45.4179H56.935ZM50.2556 50.2292C50.7262 49.953 51.1742 49.7868 51.4968 49.4853C52.4534 48.5906 53.3734 47.6552 54.2849 46.714C55.1176 45.856 55.1232 44.9882 54.2737 44.1302C51.8194 41.6534 49.3539 39.1865 46.8743 36.7336C46.0234 35.8925 45.1527 35.9123 44.2848 36.752C43.3606 37.648 42.4477 38.5567 41.5545 39.4837C40.7303 40.3389 40.7303 41.2251 41.5699 42.0718C44.0256 44.5472 46.4897 47.0169 48.9749 49.4613C49.3032 49.784 49.7808 49.953 50.2542 50.2306L50.2556 50.2292Z" fill="#00AEC7"/>
</g>
<defs>
<clipPath id="clip0_807_820">
<rect width="72" height="63.799" fill="white" transform="translate(24 28)"/>
</clipPath>
</defs>
</svg>
