<svg width="72" height="72" viewBox="0 0 72 72" fill="none" xmlns="http://www.w3.org/2000/svg">
<circle opacity="0.0594076" cx="36" cy="36" r="36" fill="#0033A0"/>
<g clip-path="url(#clip0_804_1718)">
<path d="M13.7143 57.3217C13.7143 43.3529 13.7143 29.384 13.7143 15.4152C14.2685 13.5872 14.8396 13.1683 16.7756 13.1683C19.8519 13.1683 22.9283 13.1683 26.0046 13.1683H26.5052C26.7767 11.98 27.2887 11.5714 28.4741 11.5714C31.9402 11.5714 35.4073 11.5714 38.8735 11.5714C40.213 11.5714 40.5934 11.8523 40.9973 13.1683C41.1542 13.1683 41.3233 13.1683 41.4923 13.1683C44.6466 13.1683 47.8009 13.1683 50.9552 13.1683C52.831 13.1683 53.7375 14.0776 53.7375 15.9562C53.7375 24.1397 53.7384 32.3241 53.7328 40.5076C53.7328 40.8045 53.791 41.0205 54.0334 41.2328C56.9322 43.7756 58.1674 46.9834 57.5737 50.7858C56.9604 54.7151 54.69 57.4147 51.0069 58.881C50.1492 59.2229 49.2052 59.3469 48.3006 59.5714H15.6832C15.1365 59.3591 14.556 59.1656 14.2469 58.6312C14.014 58.2272 13.8881 57.7604 13.7143 57.3217ZM48.9178 38.845V17.9645C48.3936 17.9645 47.8977 17.9645 47.4017 17.9645C45.3868 17.9645 43.3719 17.9598 41.358 17.9739C41.2105 17.9749 40.9691 18.0697 40.9306 18.1787C40.538 19.2777 40.1641 19.5642 39.0181 19.5642C35.5041 19.5652 31.99 19.5652 28.476 19.5642C27.2717 19.5642 26.7964 19.1847 26.5071 17.9908H18.5801V54.7526H38.5278C36.404 50.9587 36.2856 47.16 38.6471 43.5154C41.0292 39.8398 44.5874 38.4561 48.9178 38.845ZM56.1366 49.127C56.0248 44.0067 52.0523 40.331 47.2589 40.3883C42.1621 40.4494 38.3935 44.5036 38.5532 49.5656C38.6997 54.2304 42.8102 58.092 47.4928 57.9708C52.4309 57.8421 56.1356 53.9101 56.1366 49.127ZM26.5269 14.7661H26.013C22.8418 14.7661 19.6706 14.7661 16.4995 14.7661C15.5658 14.7661 15.3403 14.9906 15.3403 15.9309C15.3403 29.5559 15.3403 43.18 15.3403 56.8051C15.3403 57.7519 15.5611 57.9746 16.4929 57.9746C24.7412 57.9746 32.9895 57.9746 41.2378 57.9746H41.7009C41.1438 57.5077 40.6404 57.1179 40.1773 56.6858C39.9283 56.4538 39.6794 56.3711 39.346 56.3711C32.5348 56.3796 25.7237 56.3777 18.9126 56.3777C17.5402 56.3777 16.9428 55.784 16.9428 54.4098C16.9419 42.3788 16.9419 30.3478 16.9428 18.3168C16.9428 16.9688 17.5468 16.3649 18.8825 16.3639C21.2572 16.363 23.6318 16.3639 26.0065 16.3639C26.1727 16.3639 26.339 16.3639 26.5269 16.3639V14.7661ZM40.9644 16.3639C41.1561 16.3639 41.3242 16.3639 41.4914 16.3639C43.8341 16.3639 46.1768 16.3639 48.5186 16.3639C49.9595 16.3639 50.5447 16.9444 50.5447 18.3722C50.5447 24.7137 50.5447 31.0551 50.5447 37.3966C50.5447 37.9273 50.5353 38.4589 50.5522 38.9897C50.556 39.1043 50.6236 39.279 50.711 39.3194C51.159 39.5251 51.624 39.696 52.1416 39.9036V39.4077C52.1416 31.567 52.1416 23.7255 52.1416 15.8849C52.1416 15.0075 51.903 14.767 51.0322 14.767C47.831 14.7652 44.6297 14.7661 41.4275 14.767C41.2782 14.767 41.1288 14.784 40.9635 14.7933V16.3639H40.9644ZM39.3103 17.9439V13.204H28.1848V17.9429H39.3103V17.9439Z" fill="#0033A0"/>
<path d="M43.2498 35.5686C42.86 36.7249 42.1574 37.5093 41.0123 37.8324C39.4286 38.2805 37.7829 37.4811 37.1874 35.9547C37.0709 35.656 36.9422 35.5611 36.6247 35.563C34.5798 35.5789 32.5358 35.5714 30.4758 35.5714C30.3556 35.8316 30.2588 36.0937 30.1198 36.3295C29.4688 37.4332 28.4929 38.0024 27.2144 37.9479C25.8749 37.8906 24.9178 37.2012 24.403 35.9659C24.2677 35.6419 24.1137 35.5395 23.7924 35.5667C23.5285 35.5883 23.2617 35.5771 22.9968 35.5667C21.8292 35.5235 21.0092 34.772 20.9585 33.6045C20.9096 32.4979 20.9134 31.3867 20.9566 30.2792C20.9998 29.1999 21.7372 28.4588 22.8061 28.3179C22.9452 28.2991 23.0926 28.2596 23.2241 28.2878C24.3391 28.5283 24.9901 27.9929 25.5443 27.078C26.1567 26.0663 26.9261 25.1504 27.5921 24.1698C28.2186 23.2474 29.0734 22.8359 30.1696 22.8397C32.5564 22.8472 34.9433 22.8463 37.3301 22.8397C38.4066 22.8369 39.2483 23.2427 39.872 24.1444C40.7596 25.4276 41.6933 26.6797 42.5885 27.9581C42.7632 28.207 42.9464 28.2953 43.2432 28.2897C43.7881 28.2803 44.3394 28.2737 44.8786 28.3414C45.8377 28.4616 46.5666 29.2431 46.6004 30.2125C46.6389 31.32 46.6474 32.4312 46.6023 33.5378C46.5544 34.7035 45.6658 35.5235 44.4926 35.5658C44.0877 35.5799 43.6819 35.5677 43.2498 35.5677V35.5686ZM43.2818 33.9746C43.6331 33.9746 43.9759 33.9783 44.3188 33.9746C44.8476 33.967 45.0176 33.8008 45.0205 33.2719C45.0252 32.3974 45.0242 31.5229 45.0205 30.6484C45.0186 30.051 44.8664 29.8819 44.2784 29.8894C43.5467 29.8988 42.8149 29.9608 42.0832 29.9617C36.5251 29.9683 30.9671 29.9683 25.409 29.9617C24.6773 29.9617 23.9456 29.8978 23.2138 29.8913C22.7178 29.8866 22.5431 30.0773 22.5384 30.5789C22.5309 31.2815 22.5365 31.9841 22.5365 32.6867C22.5365 33.9858 22.5365 33.9783 23.831 33.9821C24.1146 33.9821 24.2677 33.9238 24.3805 33.6289C24.867 32.358 26.0525 31.5445 27.391 31.5755C28.8066 31.6084 29.8192 32.2978 30.3866 33.5932C30.5134 33.8844 30.6421 33.9858 30.9586 33.983C32.8476 33.967 34.7366 33.9661 36.6256 33.983C36.9478 33.9858 37.0643 33.8769 37.1874 33.5885C37.7453 32.28 38.7748 31.6215 40.1829 31.5708C41.4698 31.5248 42.5265 32.2405 43.076 33.488C43.1446 33.643 43.2076 33.8008 43.2808 33.9746H43.2818ZM32.9143 24.3896C31.8313 24.3896 30.783 24.3417 29.745 24.4178C29.4144 24.4422 29.0217 24.7277 28.8066 25.0086C28.134 25.8878 27.5319 26.8215 26.9035 27.7346C26.7936 27.8942 26.6875 28.0558 26.5531 28.2559H32.9134V24.3905L32.9143 24.3896ZM34.561 28.2549H40.8348C40.7305 28.0943 40.662 27.9778 40.584 27.8679C39.8983 26.9023 39.1985 25.9461 38.5297 24.9692C38.2441 24.5521 37.8796 24.3699 37.3903 24.3736C36.5646 24.3802 35.738 24.3736 34.9113 24.3774C34.7949 24.3774 34.6775 24.4084 34.561 24.4253V28.2549ZM40.15 36.3614C41.0198 36.3576 41.7309 35.6531 41.7384 34.7871C41.7459 33.905 41.0142 33.1714 40.134 33.178C39.2454 33.1846 38.5381 33.9116 38.5522 34.803C38.5663 35.6738 39.2755 36.3652 40.151 36.3614H40.15ZM28.9315 34.7796C28.9353 33.891 28.2101 33.1658 27.3281 33.1771C26.4639 33.1883 25.7519 33.9022 25.7453 34.7636C25.7387 35.6409 26.4771 36.3717 27.3591 36.3633C28.2289 36.3548 28.9278 35.6503 28.9315 34.7796Z" fill="#0033A0"/>
<path d="M27.7226 45.9755C29.6727 45.9755 31.6218 45.9764 33.5719 45.9736C33.9326 45.9736 34.2595 46.03 34.4436 46.3907C34.6953 46.882 34.4323 47.4428 33.8912 47.5461C33.725 47.578 33.5493 47.5705 33.3784 47.5705C29.6191 47.5714 25.8599 47.5714 22.1007 47.5705C22.0068 47.5705 21.9138 47.5733 21.8198 47.5686C21.2553 47.5423 20.9294 47.2333 20.9472 46.7439C20.9641 46.2686 21.276 45.9793 21.8255 45.9774C23.7906 45.9699 25.7566 45.9746 27.7217 45.9746L27.7226 45.9755Z" fill="#00AEC7"/>
<path d="M27.7743 49.978C29.7112 49.978 31.6491 49.9733 33.586 49.9808C34.252 49.9836 34.576 50.3021 34.5225 50.8619C34.4896 51.2095 34.3111 51.449 33.9617 51.5213C33.7654 51.5617 33.5597 51.5758 33.3586 51.5768C29.6098 51.5796 25.8599 51.5786 22.111 51.5786C22.0481 51.5786 21.9861 51.5805 21.9232 51.5786C21.275 51.5561 20.9341 51.2668 20.9481 50.752C20.9613 50.2476 21.2769 49.9827 21.9166 49.9808C23.8695 49.9742 25.8224 49.978 27.7752 49.978H27.7743Z" fill="#00AEC7"/>
<path d="M27.6804 43.5652C25.7585 43.5652 23.8375 43.5633 21.9157 43.5652C21.4761 43.5652 21.106 43.4694 20.981 42.9753C20.8655 42.5216 21.0975 42.1242 21.5531 42.0134C21.6733 41.9843 21.7992 41.9664 21.9232 41.9664C25.797 41.9636 29.6718 41.9636 33.5456 41.9664C33.6996 41.9664 33.8603 41.9861 34.0068 42.0312C34.391 42.1486 34.5441 42.4361 34.5244 42.8212C34.5046 43.212 34.3064 43.4806 33.9119 43.5332C33.6048 43.5746 33.2891 43.5624 32.9763 43.5633C31.2113 43.5652 29.4454 43.5642 27.6804 43.5633V43.5652Z" fill="#00AEC7"/>
<path d="M47.0231 51.1644C48.3344 49.2913 49.6213 47.4521 50.9101 45.6129C51.1158 45.3189 51.3121 45.0164 51.5366 44.7384C51.8372 44.3674 52.2167 44.3335 52.6094 44.6125C52.9842 44.8793 53.0584 45.209 52.8282 45.6298C52.754 45.766 52.6638 45.8947 52.5746 46.0225C51.0595 48.1989 49.5396 50.3725 48.0292 52.5527C47.614 53.152 47.3585 53.4291 46.5065 52.7659C45.3248 51.8463 44.1769 50.8826 43.014 49.9376C42.6881 49.6727 42.4702 49.3637 42.6486 48.9259C42.8694 48.3849 43.4527 48.2628 43.9618 48.6704C44.8758 49.4012 45.7747 50.1518 46.6803 50.8929C46.7761 50.9709 46.8738 51.0469 47.0231 51.1644Z" fill="#00AEC7"/>
</g>
<defs>
<clipPath id="clip0_804_1718">
<rect width="44.006" height="48" fill="white" transform="translate(13.7143 11.5714)"/>
</clipPath>
</defs>
</svg>
