<svg width="72" height="72" viewBox="0 0 72 72" fill="none" xmlns="http://www.w3.org/2000/svg">
<mask id="mask0_806_798" style="mask-type:alpha" maskUnits="userSpaceOnUse" x="0" y="0" width="72" height="72">
<rect width="72" height="72" fill="white"/>
</mask>
<g mask="url(#mask0_806_798)">
<path d="M52.9152 16.1807H44.6866C44.0626 16.1807 43.5552 16.6881 43.5552 17.3121C43.5552 17.9368 44.0626 18.4442 44.6866 18.4442H52.9152C53.5392 18.4442 54.0466 17.9368 54.0466 17.3121C54.0466 16.6881 53.5392 16.1807 52.9152 16.1807Z" fill="#00AEC7"/>
<path d="M13.352 51.0015C12.728 51.0015 12.2206 51.5089 12.2206 52.1329V65.0689C12.2206 65.6929 12.728 66.2003 13.352 66.2003C13.976 66.2003 14.4834 65.6929 14.4834 65.0689V52.1329C14.4834 51.5089 13.976 51.0015 13.352 51.0015Z" fill="#00AEC7"/>
<path d="M13.344 48.809C13.9639 48.809 14.4692 48.3043 14.4692 47.6837C14.4692 47.0638 13.9639 46.5598 13.344 46.5598C12.7241 46.5598 12.2187 47.0638 12.2187 47.6837C12.2187 48.3043 12.7241 48.809 13.344 48.809Z" fill="#00AEC7"/>
<mask id="mask1_806_798" style="mask-type:alpha" maskUnits="userSpaceOnUse" x="6" y="-1" width="58" height="72">
<path fill-rule="evenodd" clip-rule="evenodd" d="M6.75 -0.439209H63.7595V70.6465H6.75V-0.439209Z" fill="white"/>
</mask>
<g mask="url(#mask1_806_798)">
<path fill-rule="evenodd" clip-rule="evenodd" d="M58.3375 41.6373C58.4061 41.6373 58.474 41.6435 58.5391 41.6558C59.9208 41.9054 62.4991 43.2035 62.364 46.3256C62.2639 48.6206 60.9953 49.9379 59.9174 50.6476C60.2493 51.596 60.5311 52.9866 60.0806 54.3649C59.7007 55.5272 58.8861 56.4522 57.6593 57.1153C58.1585 58.4901 58.1921 59.7676 57.7581 60.9141C57.2747 62.1875 56.3201 63.0001 55.5816 63.4664C55.836 64.5779 55.9663 66.1873 55.2045 67.6849C54.4612 69.1427 53.0712 70.126 51.0731 70.6088C50.988 70.63 50.8982 70.6403 50.8077 70.6403H37.9361C37.8909 70.6417 37.6337 70.6465 37.2223 70.6465C35.2049 70.6465 30.1697 70.532 26.9915 69.4725C24.1361 68.5201 21.3329 67.9372 19.7613 67.7713V69.4444C19.7613 70.0684 19.2539 70.5765 18.6292 70.5765H7.94574C7.3238 70.5765 6.81637 70.0698 6.81431 69.4472L6.74985 42.611C6.74917 42.308 6.86711 42.0227 7.08105 41.8088C7.29431 41.5948 7.57888 41.4762 7.88197 41.4762H18.6292C19.2539 41.4762 19.7613 41.9836 19.7613 42.6083V43.9653C21.5181 43.8268 24.7931 43.2398 27.7622 40.9132C28.7119 40.1685 31.3958 38.4426 33.1355 37.7987C36.1958 36.6659 39.6353 36.081 41.4703 35.828V26.3294C36.6847 23.6723 33.7142 18.6419 33.7142 13.1857C33.7142 7.39276 36.9515 2.2163 42.1622 -0.324272C42.5147 -0.495701 42.9247 -0.474444 43.2566 -0.266672C43.5905 -0.0582153 43.7894 0.300413 43.7894 0.693328V10.1349H54.0511L54.0388 0.872985C54.0381 0.48007 54.2472 0.108413 54.5839 -0.0959296C54.9199 -0.300958 55.3457 -0.313987 55.6948 -0.130901C60.6689 2.47344 63.7595 7.57653 63.7595 13.1857C63.7595 18.622 60.8047 23.6428 56.0465 26.3041V41.6373H58.3375ZM42.6573 12.3985H55.1839C55.4863 12.3985 55.7709 12.2798 55.9848 12.0666C56.196 11.8554 56.316 11.5633 56.3153 11.2657L56.305 2.90956C59.5595 5.30338 61.4959 9.12967 61.4959 13.1857C61.4959 20.2218 55.7723 25.9454 48.7375 25.9454C41.7014 25.9454 35.9777 20.2218 35.9777 13.1857C35.9777 8.94521 38.0479 5.02293 41.5259 2.65378V11.267C41.5259 11.891 42.0333 12.3985 42.6573 12.3985ZM17.4977 43.7397V68.313H9.07442L9.01614 43.7397H17.4977ZM43.7339 27.3512V41.6373H53.783V27.3361C52.1647 27.9148 50.4676 28.209 48.7375 28.209C47.0225 28.209 45.3405 27.9203 43.7339 27.3512ZM46.463 49.0067C45.839 49.0067 45.3316 49.5141 45.3316 50.1381C45.3316 50.7621 45.839 51.2696 46.463 51.2696H57.7368C57.983 51.9155 58.2038 52.835 57.9268 53.6702C57.7142 54.31 57.2294 54.8113 56.4443 55.2008H46.5124C45.8877 55.2008 45.3803 55.7082 45.3803 56.3322C45.3803 56.9562 45.8877 57.4643 46.5124 57.4643H55.3677C55.8251 58.4826 55.9183 59.3685 55.6475 60.0968C55.2936 61.0485 54.3933 61.5745 53.999 61.7644H46.1256C45.5016 61.7644 44.9942 62.2718 44.9942 62.8965C44.9942 63.5205 45.5016 64.028 46.1256 64.028H53.3894C53.5512 64.7603 53.6363 65.7875 53.183 66.6673C52.7675 67.4764 51.9206 68.0524 50.6678 68.3774L37.9087 68.3781L37.8695 68.3785H37.8694C37.3162 68.3855 31.1208 68.4638 27.708 67.3256C24.9775 66.4149 21.732 65.6702 19.7613 65.5002V46.2419C21.7903 46.1096 25.62 45.4664 29.1576 42.6947C30.1197 41.9404 32.5985 40.4099 33.9199 39.9203C36.6251 38.9192 39.7649 38.3651 41.4703 38.1155V42.7688C41.4703 43.3928 41.9777 43.9002 42.6017 43.9002L58.2079 43.8974C58.5384 43.9749 60.18 44.4515 60.1032 46.2268C60.0251 48.0268 58.6859 48.8003 58.2429 49.0067H46.463Z" fill="#0033A0"/>
</g>
</g>
</svg>
