<svg width="72" height="72" viewBox="0 0 72 72" fill="none" xmlns="http://www.w3.org/2000/svg">
<circle opacity="0.0594076" cx="36" cy="36" r="36" fill="#0033A0"/>
<g clip-path="url(#clip0_804_1701)">
<path d="M23.6338 61.5C22.7159 61.1364 22.3232 60.46 22.4059 59.4801C22.4369 59.108 22.4059 58.7304 22.4125 58.3555C22.4275 57.3718 23.0748 56.7133 24.0669 56.7095C26.5359 56.7001 29.005 56.7057 31.474 56.7057C31.6271 56.7057 31.7802 56.7057 31.9672 56.7057V46.2998C31.2532 46.2998 30.5251 46.3167 29.7988 46.2914C29.4944 46.281 29.1675 46.236 28.895 46.111C28.3426 45.8573 28.0429 45.3885 28.0251 44.7722C28.01 44.2433 28.0222 43.7134 28.0222 43.1431H26.3405C26.0559 44.4819 25.3653 45.5783 24.1891 46.3374C23.3661 46.8692 22.4585 47.1134 21.4777 47.0843C19.221 47.0167 17.7413 45.7559 16.8431 43.1018C15.8613 43.1018 14.8645 43.1027 13.8668 43.1018C12.6191 43.0999 12.0075 42.4817 12.0056 41.2228C12.0056 40.8009 12.0075 40.3791 12.0056 39.9563C12.0019 39.4415 12.2067 39.0281 12.5693 38.6655C12.6933 38.5414 12.7939 38.3319 12.7986 38.1591C12.8202 37.1904 12.8023 36.2209 12.8117 35.2523C12.8221 34.1145 13.4515 33.5029 14.5977 33.4888C15.2206 33.4813 15.9215 33.6354 16.4448 33.3996C16.9512 33.1713 17.2772 32.539 17.6783 32.0805C18.8311 30.7643 19.9951 29.4565 21.1291 28.1233C21.7407 27.4046 22.4792 27.0777 23.4234 27.0805C28.1425 27.0955 32.8616 27.0936 37.5807 27.0805C38.3379 27.0786 38.9759 27.3032 39.5621 27.7767C41.8103 29.5927 44.0661 31.4003 46.3369 33.1882C46.5839 33.3827 46.9409 33.5132 47.2566 33.5358C50.5129 33.7754 53.7711 33.9811 57.0284 34.2085C58.1793 34.2883 59.0962 35.2175 59.1902 36.3684C59.2127 36.6484 59.2071 36.9302 59.2099 37.2121C59.2165 37.865 59.0671 38.5518 59.7369 39.0272C59.8816 39.1305 59.9267 39.3748 60.0179 39.5542V41.8992C59.6129 42.8462 58.8782 43.1666 57.8814 43.1121C56.9795 43.0623 56.0729 43.1018 55.1841 43.1018C54.1845 45.8423 52.7255 47.0637 50.4575 47.0871C48.183 47.1097 46.7371 45.9222 45.6491 43.1403C45.1127 43.1403 44.5753 43.1403 44.0041 43.1403C44.0041 43.5819 44.0041 43.9859 44.0041 44.3898C44.0013 45.7192 43.4197 46.2998 42.0894 46.3008C41.4082 46.3008 40.7271 46.3008 40.0525 46.3008V56.7067C40.2536 56.7067 40.4218 56.7067 40.5909 56.7067C43.0129 56.7067 45.4359 56.7029 47.8579 56.7086C48.9712 56.7104 49.6035 57.3455 49.6119 58.4476C49.6148 58.7914 49.5885 59.1372 49.6166 59.4791C49.6993 60.4581 49.3076 61.1355 48.3906 61.5019H23.6338V61.5ZM13.6272 41.499C14.5817 41.499 15.5147 41.483 16.4467 41.5074C16.7755 41.5159 16.8967 41.4116 16.9784 41.0941C17.5271 38.9576 19.4277 37.492 21.6111 37.493C23.7935 37.493 25.7045 38.967 26.2409 41.0988C26.3255 41.4342 26.4617 41.5056 26.7774 41.5046C32.933 41.4962 39.0877 41.4952 45.2433 41.5065C45.6022 41.5065 45.7036 41.3816 45.7891 41.0527C46.4017 38.6833 48.7467 37.151 51.1537 37.5662C53.1999 37.9195 54.487 39.1455 55.0676 41.1345C55.1071 41.2698 55.2443 41.4783 55.341 41.4811C56.351 41.5065 57.3619 41.4971 58.385 41.4971V39.8925C57.8363 39.8925 57.3205 39.9122 56.8076 39.8868C56.3228 39.8624 56.0005 39.5044 56.0156 39.0685C56.0297 38.6486 56.3416 38.3395 56.8104 38.3047C57.0556 38.2859 57.3036 38.3019 57.608 38.3019C57.608 37.7485 57.6137 37.2525 57.6071 36.7573C57.5986 36.0865 57.3553 35.8366 56.6807 35.7897C55.1071 35.6797 53.5344 35.5661 51.9598 35.4627C50.0122 35.3349 48.0637 35.116 46.1151 35.1095C35.7261 35.0738 25.3371 35.0925 14.9491 35.0935C14.7837 35.0935 14.6184 35.1085 14.4427 35.117V38.2944C14.6541 38.2944 14.8382 38.2906 15.0224 38.2944C15.65 38.3103 16.0201 38.6204 16.006 39.1145C15.9919 39.5946 15.6302 39.8878 15.0289 39.8962C14.5667 39.9028 14.1045 39.8971 13.6272 39.8971V41.4999V41.499ZM29.6382 33.4418H44.0736C42.1138 31.8757 40.2414 30.3678 38.3492 28.8862C38.1632 28.7406 37.856 28.6946 37.6042 28.6936C35.1042 28.6795 32.6051 28.6852 30.1051 28.6852H29.6382V33.4418ZM47.9894 58.3348H24.0453V59.8784H47.9894V58.3348ZM36.8122 46.3205C36.8122 47.4338 36.8122 48.4954 36.8122 49.5561C36.8122 51.0716 36.816 52.586 36.8094 54.1014C36.8066 54.7328 36.4956 55.1048 36.0023 55.0992C35.511 55.0936 35.2179 54.7225 35.2066 54.0874C35.2047 53.9784 35.2066 53.8684 35.2066 53.7595C35.2066 51.4633 35.2066 49.1672 35.2066 46.8711C35.2066 46.6916 35.2066 46.5122 35.2066 46.3243H33.6414V56.6841H38.383V46.3205H36.8122ZM28.0166 28.6852C26.4373 28.6852 24.9247 28.6955 23.413 28.6786C22.9696 28.6739 22.6427 28.8167 22.3533 29.153C21.2118 30.4787 20.0534 31.7902 18.9034 33.1083C18.818 33.206 18.7484 33.3178 18.647 33.4569H27.9818C27.995 33.3394 28.0147 33.2492 28.0147 33.1581C28.0166 31.6916 28.0157 30.2259 28.0157 28.6842L28.0166 28.6852ZM50.4152 45.4844C52.1796 45.4844 53.6105 44.0638 53.6189 42.3041C53.6274 40.5398 52.1608 39.0807 50.3889 39.092C48.6358 39.1033 47.2031 40.5548 47.2153 42.307C47.2275 44.076 48.6461 45.4844 50.4152 45.4834V45.4844ZM21.6214 45.4844C23.3896 45.4787 24.8054 44.0591 24.8035 42.2919C24.8016 40.5322 23.3717 39.0967 21.6167 39.092C19.8476 39.0882 18.383 40.5586 18.4027 42.3201C18.4224 44.0826 19.8533 45.49 21.6214 45.4844ZM29.6401 44.6707H42.3675V43.129H29.6401V44.6707Z" fill="#0033A0"/>
<path d="M60.0178 23.796C58.975 25.8723 57.3572 27.2468 55.0676 27.7268C51.9983 28.3704 48.8857 26.9781 47.2829 24.2789C47.1166 23.998 46.9466 23.8993 46.6262 23.9003C38.7184 23.9031 30.8107 23.8984 22.9029 23.8834C22.4416 23.8834 22.1109 24.0252 21.8046 24.3728C20.1605 26.2434 17.5947 26.8071 15.3653 25.8112C13.1621 24.8257 11.7905 22.5145 12.0263 20.1827C12.2771 17.6977 14.0481 15.6909 16.4983 15.2108C18.5586 14.8078 20.3333 15.4138 21.7586 16.9545C22.1081 17.3322 22.4651 17.5032 22.9762 17.5023C30.837 17.4919 38.6978 17.4929 46.5585 17.5023C46.909 17.5023 47.0969 17.4083 47.2885 17.0908C48.6968 14.7524 50.7872 13.4981 53.5146 13.5C56.242 13.5019 58.323 14.758 59.7472 17.0908C59.8346 17.2336 59.9276 17.3717 60.0178 17.5126V18.1693C59.7341 18.8721 59.2023 19.1192 58.462 19.1041C57.1054 19.075 55.7469 19.0957 54.3893 19.0957C54.146 19.0957 53.9017 19.0957 53.6583 19.0957V22.2533C53.7232 22.2712 53.7523 22.2871 53.7814 22.2871C55.326 22.29 56.8714 22.3219 58.415 22.2806C59.1516 22.2608 59.6805 22.4854 60.0169 23.1411V23.7979L60.0178 23.796ZM58.0984 17.4948C57.9462 17.2909 57.8626 17.1669 57.7668 17.0523C55.2546 14.0731 50.5082 14.54 48.6114 17.9777C48.1717 18.7744 47.5779 19.1285 46.6873 19.1004C45.7825 19.0722 44.8759 19.0938 43.9693 19.0938C43.7269 19.0938 43.4845 19.0938 43.2449 19.0938V22.2909C44.3432 22.2909 45.4189 22.3369 46.489 22.2777C47.5131 22.2204 48.1613 22.5991 48.6922 23.4982C50.6952 26.8907 55.5214 27.2458 57.8645 24.2169C57.9321 24.1295 57.9782 24.0262 58.058 23.889C56.567 23.889 55.1465 23.8946 53.7251 23.8871C52.6775 23.8815 52.0349 23.2407 52.0236 22.1913C52.0133 21.2227 52.018 20.2541 52.0217 19.2854C52.0264 18.1007 52.6287 17.4976 53.8087 17.4957C55.1982 17.4929 56.5877 17.4957 58.0984 17.4957V17.4948ZM41.5961 19.1351H27.233V22.2599H41.5961V19.1361V19.1351ZM25.588 19.0938C24.703 19.0938 23.8612 19.0703 23.0213 19.1004C22.0141 19.1361 21.224 18.7922 20.5598 18.0134C19.7302 17.041 18.615 16.6097 17.3448 16.6962C15.5053 16.8211 14.0162 18.159 13.6873 19.913C13.35 21.714 14.2257 23.4737 15.8566 24.2742C17.497 25.0793 19.3882 24.7111 20.618 23.298C21.239 22.584 21.9756 22.2496 22.9189 22.2843C23.802 22.3163 24.687 22.2909 25.588 22.2909V19.0947V19.0938Z" fill="#0033A0"/>
<path d="M32.8024 38.2774C32.5064 38.2774 32.2077 38.3037 31.9146 38.2708C31.4805 38.2229 31.2127 37.8913 31.2212 37.4723C31.2297 37.057 31.5143 36.7329 31.954 36.7132C32.5299 36.6878 33.1087 36.6869 33.6836 36.716C34.1158 36.7376 34.407 37.0815 34.408 37.4883C34.4099 37.8932 34.1224 38.2267 33.6893 38.2718C33.3961 38.3018 33.0974 38.2774 32.8014 38.2774V38.2755L32.8024 38.2774Z" fill="#00AEC7"/>
<path d="M17.6257 23.0773C16.286 23.0867 15.2009 22.0128 15.2046 20.6815C15.2084 19.3766 16.2804 18.2971 17.5872 18.2811C18.9119 18.2651 19.997 19.3503 19.997 20.69C19.997 22.0185 18.9542 23.0679 17.6267 23.0773H17.6257ZM17.6595 19.8895C17.233 19.8576 16.8347 20.2099 16.8084 20.644C16.783 21.0602 17.1099 21.4331 17.5299 21.4688C17.9902 21.5074 18.3604 21.1992 18.3924 20.7511C18.4243 20.3039 18.0992 19.9224 17.6595 19.8895Z" fill="#00AEC7"/>
</g>
<defs>
<clipPath id="clip0_804_1701">
<rect width="48.0178" height="48" fill="white" transform="translate(12 13.5)"/>
</clipPath>
</defs>
</svg>
