<svg width="72" height="64" viewBox="0 0 72 64" fill="none" xmlns="http://www.w3.org/2000/svg">
<g clip-path="url(#clip0_816_1525)">
<path d="M72 25.6934C71.9183 25.9822 71.8295 26.2682 71.7535 26.5585C71.3731 28.0054 70.6348 29.2381 69.4796 30.1877C68.3764 31.095 67.2381 31.9586 66.1025 32.8265C65.4742 33.3069 64.8669 33.2816 64.4837 32.7983C64.0935 32.3052 64.209 31.7262 64.8373 31.226C65.7911 30.4681 66.7647 29.7369 67.7241 28.9859C70.4235 26.8712 70.7222 23.4618 68.3341 21.0188C65.2065 17.8179 62.0393 14.6564 58.8398 11.5287C56.5236 9.26466 53.3114 9.36892 51.2066 11.7781C49.9611 13.2024 48.8594 14.7508 47.5619 16.4132L51.8969 16.9275C51.9716 16.433 51.9899 16.0568 52.0885 15.7018C52.6662 13.6209 55.2064 12.8178 56.8928 14.1746C57.0379 14.2915 57.1774 14.4183 57.3098 14.5507C59.9796 17.2163 62.6564 19.8734 65.3107 22.5531C66.9408 24.1986 66.6322 26.605 64.6838 27.5672C63.6018 28.1012 62.5479 27.9969 61.5631 27.3136C61.2771 27.115 61.0264 26.8614 60.7784 26.6134C58.3242 24.1634 55.8798 21.7035 53.4129 19.269C53.1931 19.0535 52.8169 18.8562 52.5267 18.8745C50.6332 18.9957 48.7862 18.7421 46.9631 18.2828C46.439 18.1518 46.1347 18.2377 45.7951 18.6886C43.9735 21.0991 42.1081 23.4759 40.2625 25.8667C38.3535 28.3393 38.5296 31.0358 40.7444 33.2548C42.697 35.2117 44.6525 37.1672 46.6095 39.1185C48.8284 41.3332 51.5123 41.5122 53.999 39.606C55.5797 38.3957 57.1478 37.17 58.7257 35.9542C58.9286 35.7978 59.1371 35.6428 59.3625 35.5217C59.8218 35.2751 60.2459 35.3949 60.56 35.771C60.8968 36.1754 60.8996 36.6375 60.5643 37.0573C60.4206 37.2363 60.2247 37.3785 60.0402 37.5223C58.5045 38.7141 56.9378 39.868 55.4346 41.1008C52.7817 43.2761 49.3807 43.5818 46.57 41.7531C46.5122 41.715 46.4404 41.7009 46.3023 41.646C45.3161 42.6322 44.3116 43.6395 43.3043 44.6469C42.7914 45.1611 42.2744 45.6711 41.7644 46.1882C41.2459 46.7151 40.6443 46.9969 39.8821 46.9659C39.6426 46.956 39.3665 47.1082 39.1566 47.2547C38.9114 47.4266 38.7043 47.6633 38.5057 47.8929C36.8277 49.8357 34.8215 51.3249 32.4659 52.3604C32.1207 52.5112 31.822 52.8789 31.6191 53.217C31.1754 53.9581 30.7752 54.7301 30.416 55.5177C30.044 56.3306 29.4861 56.9237 28.6422 57.2069C27.0319 57.7479 25.8766 58.7679 25.1553 60.3177C24.8805 60.908 24.4396 61.418 24.131 61.9928C23.6858 62.8226 22.9969 63.1537 22.0868 63.2495C20.8146 63.3834 19.5522 63.6116 18.2857 63.799H17.5826C16.2808 63.2819 16.0117 62.8593 16.1695 61.4518C16.3245 60.0796 16.5218 58.7116 16.6866 57.3407C16.7655 56.6842 17.0994 56.2221 17.6545 55.8783C18.8112 55.1655 19.9664 54.4526 21.0977 53.7017C21.3894 53.5072 21.6585 53.2085 21.8177 52.8958C23.5562 49.4821 22.5968 50.3697 26.0598 48.5903C26.8656 48.1761 27.5053 47.6943 27.8307 46.8278C28.7521 44.3778 30.6005 42.6392 32.4377 40.8979C32.7575 40.595 32.9632 40.3005 32.9153 39.8102C32.842 39.0805 33.2436 38.5197 33.7423 38.0238C35.2357 36.5375 36.7249 35.0469 38.0788 33.6958C37.6843 32.4489 37.1968 31.3486 37.0024 30.2004C36.6572 28.1561 37.3081 26.3218 38.5691 24.6945C40.2766 22.4911 41.9813 20.2862 43.6861 18.0813C43.827 17.8996 43.9552 17.7094 44.0848 17.5277C42.397 16.7556 40.7514 16.0033 39.0692 15.234C39.0115 15.8145 38.9903 16.3963 38.8889 16.9627C38.5888 18.6491 37.7956 20.0847 36.5854 21.2935C31.15 26.7275 25.7245 32.17 20.2764 37.5913C18.3505 39.5073 15.8328 39.5102 13.9097 37.5997C9.73667 33.4549 5.57911 29.2959 1.43423 25.1228C-0.498733 23.1772 -0.471964 20.6666 1.45114 18.6998C2.00764 18.1306 2.56696 17.5615 3.14177 17.0106C3.69827 16.4766 4.24773 16.4428 4.69575 16.8768C5.13391 17.3022 5.11418 17.894 4.60136 18.4336C4.0209 19.045 3.40382 19.6226 2.81914 20.2299C1.79631 21.2921 1.76672 22.5615 2.79942 23.5999C6.99643 27.8194 11.2047 32.0277 15.4257 36.2247C16.44 37.2334 17.7348 37.2405 18.7421 36.2374C24.2536 30.747 29.7566 25.2496 35.2427 19.7339C36.8446 18.125 37.2278 16.1301 36.839 13.952C36.8066 13.7716 36.6488 13.5941 36.5079 13.4574C35.4977 12.4853 34.4538 11.547 33.4732 10.5481C33.1562 10.2255 32.9266 10.3495 32.6124 10.4439C30.9133 10.9497 29.1043 9.98318 28.5816 8.30663C28.0533 6.60895 28.9691 4.79574 30.6428 4.23079C32.3264 3.66161 34.2058 4.51538 34.7271 6.21447C34.9286 6.86818 34.782 7.62897 34.7961 8.34045C34.8004 8.55741 34.7285 8.842 34.8384 8.98148C35.3245 9.59997 35.8626 10.1762 36.3825 10.7665L36.5389 10.6876C36.4389 9.56334 36.3417 8.43907 36.2374 7.3162C36.1825 6.73293 36.1388 6.14825 36.0486 5.57062C35.8049 4.00819 34.8088 3.07834 33.2295 2.92618C30.3159 2.64582 27.3996 2.38518 24.4875 2.08791C22.3164 1.86672 20.4976 2.51057 18.9549 4.07582C15.9638 7.11474 12.9306 10.1142 9.91418 13.1278C9.73244 13.3095 9.5507 13.4955 9.34641 13.649C8.88571 13.997 8.42079 13.9675 8.01926 13.5589C7.61351 13.1475 7.62337 12.6783 7.95868 12.2247C8.09675 12.0373 8.27145 11.8781 8.43769 11.7119C11.3188 8.82791 14.2478 5.98905 17.0698 3.04594C19.2719 0.755122 21.8177 -0.315614 25.013 0.0802764C27.8476 0.431084 30.6992 0.642413 33.5422 0.919959C34.7229 1.03549 35.7485 1.48632 36.6164 2.3091C36.7812 2.46548 37.0574 2.59228 37.28 2.59087C42.8703 2.54438 47.8169 4.47171 52.3928 7.51485C52.9691 7.89806 53.4749 8.07135 54.1821 7.96287C56.3743 7.62615 58.3594 8.22633 59.9359 9.7634C63.3595 13.0982 66.7168 16.502 70.0854 19.8917C71.0152 20.8286 71.5534 21.9923 71.8464 23.2744C71.8817 23.428 71.9479 23.5745 72 23.7238V25.692V25.6934ZM39.5384 35.1455C38.1168 36.5642 36.6544 38.0139 35.2103 39.482C35.0695 39.6257 34.9708 39.8891 34.9821 40.0906C35.0258 40.8754 34.7299 41.5009 34.1917 42.0391C33.314 42.9154 32.418 43.7762 31.5684 44.6807C31.1754 45.1005 30.7513 45.5598 30.554 46.0825C29.596 48.6171 27.8941 50.3471 25.3398 51.2756C24.9975 51.3996 24.6706 51.7814 24.4973 52.1251C22.8081 55.4754 23.7436 54.4202 20.5891 56.4616C20.5497 56.487 20.5074 56.5081 20.468 56.5321C19.2517 57.2928 18.5707 58.3983 18.4251 59.8485C18.366 60.4374 18.3012 61.0263 18.2349 61.6533C19.448 61.5039 20.5455 61.4081 21.6261 61.2137C21.9614 61.1531 22.3432 60.8911 22.539 60.6079C23.2547 59.5682 23.8718 58.4594 24.5875 57.4196C24.8679 57.0111 25.2539 56.5292 25.6892 56.3982C27.8237 55.7501 29.0437 54.261 29.7862 52.266C29.8271 52.1575 29.8693 52.0364 29.9482 51.9561C30.3596 51.5278 30.709 50.9403 31.2148 50.7177C33.7071 49.6188 35.7668 47.9817 37.5462 45.9529C37.6688 45.812 37.8083 45.6852 37.9449 45.557C38.4479 45.0879 39.0284 44.8498 39.73 44.8977C39.9174 44.9103 40.1738 44.861 40.2977 44.7385C41.7982 43.262 43.2803 41.7658 44.7216 40.3217C42.9957 38.5958 41.2952 36.8981 39.5398 35.1441L39.5384 35.1455ZM37.99 4.60696C38.0422 4.99299 38.0872 5.26912 38.114 5.54808C38.3112 7.62193 38.5198 9.69437 38.6902 11.771C38.7367 12.3318 38.9058 12.7234 39.4482 12.9728C41.2924 13.8209 43.1253 14.693 44.954 15.575C45.3471 15.7638 45.5627 15.6595 45.8275 15.334C47.5351 13.2377 48.9425 10.8933 51.0587 9.05615C47.0518 6.51174 42.8182 4.81547 37.9872 4.60837L37.99 4.60696ZM55.4036 18.2913C55.474 18.3758 55.5262 18.4519 55.5896 18.5167C57.8691 20.8004 60.1501 23.0828 62.4324 25.3638C62.5479 25.4793 62.6762 25.661 62.8058 25.6653C63.1932 25.6807 63.7088 25.7625 63.9399 25.5554C64.1738 25.3454 64.1963 24.8213 64.1794 24.4409C64.1695 24.2367 63.8962 24.0296 63.7159 23.8492C61.6026 21.7289 59.4851 19.6142 57.3675 17.4995C57.2422 17.3741 57.1013 17.2628 56.99 17.1642C56.4335 17.5601 55.9249 17.9207 55.4036 18.2927V18.2913ZM31.7234 6.14262C31.1866 6.1074 30.7217 6.35536 30.6174 6.86255C30.5343 7.26408 30.6358 7.79663 30.8555 8.14462C31.1021 8.53205 31.5938 8.6659 32.0672 8.42921C31.9488 7.64588 31.8389 6.91609 31.722 6.14403L31.7234 6.14262ZM55.412 15.8257C54.5104 15.4975 54.1976 15.7088 54.0849 16.5767C54.5653 16.3048 54.988 16.0653 55.412 15.8257Z" fill="#0033A0"/>
<path d="M16.9317 33.4577C15.8666 33.4872 14.9748 33.066 14.2323 32.3278C11.7105 29.8172 9.17593 27.3178 6.68928 24.7734C5.1184 23.1659 5.14799 21.0639 6.70055 19.4423C7.64027 18.4617 8.60111 17.5009 9.58168 16.5612C11.1807 15.0283 13.2743 14.979 14.8593 16.5203C17.4431 19.0337 19.9946 21.5838 22.5066 24.1704C24.0423 25.7512 23.9859 27.8504 22.4531 29.4494C21.5133 30.43 20.5426 31.3796 19.5747 32.332C18.8464 33.0477 17.9813 33.4703 16.9331 33.4577H16.9317ZM21.712 26.774C21.4232 26.2894 21.2485 25.8132 20.9258 25.4849C18.4801 22.9997 16.0131 20.5356 13.5364 18.0813C12.6995 17.2529 11.8006 17.2642 10.9455 18.0898C10.0198 18.983 9.1083 19.8931 8.21367 20.8188C7.38526 21.6753 7.37822 22.5643 8.2179 23.4111C10.6721 25.8878 13.1377 28.3534 15.6144 30.8076C16.4654 31.6501 17.3375 31.6346 18.1997 30.7977C19.1225 29.9003 20.0453 29.0014 20.9216 28.0603C21.2386 27.7208 21.4218 27.2573 21.712 26.7754V26.774Z" fill="#00AEC7"/>
<path d="M32.935 17.4179C32.9533 18.4985 32.5194 19.3804 31.7826 20.1257C30.8443 21.0739 29.9116 22.0291 28.9493 22.9547C27.308 24.5355 25.1947 24.558 23.5647 22.9604C21.04 20.485 18.5421 17.9828 16.0639 15.4624C14.462 13.8323 14.4775 11.7247 16.0611 10.0805C16.9867 9.11967 17.9306 8.17432 18.8915 7.2501C20.5412 5.66231 22.6433 5.64259 24.2705 7.24165C26.7924 9.71984 29.2762 12.2347 31.7755 14.7354C32.518 15.4793 32.9505 16.3584 32.9336 17.4179H32.935ZM26.2556 22.2292C26.7262 21.953 27.1742 21.7868 27.4968 21.4853C28.4534 20.5906 29.3734 19.6552 30.2849 18.714C31.1176 17.856 31.1232 16.9882 30.2737 16.1302C27.8194 13.6534 25.3539 11.1865 22.8743 8.73364C22.0234 7.89254 21.1527 7.91227 20.2848 8.75195C19.3606 9.64799 18.4477 10.5567 17.5545 11.4837C16.7303 12.3389 16.7303 13.2251 17.5699 14.0718C20.0256 16.5472 22.4897 19.0169 24.9749 21.4613C25.3032 21.784 25.7808 21.953 26.2542 22.2306L26.2556 22.2292Z" fill="#00AEC7"/>
</g>
<defs>
<clipPath id="clip0_816_1525">
<rect width="72" height="63.799" fill="white"/>
</clipPath>
</defs>
</svg>
