<svg width="48" height="48" viewBox="0 0 48 48" fill="none" xmlns="http://www.w3.org/2000/svg">
<path fill-rule="evenodd" clip-rule="evenodd" d="M38.8437 4.125H43.3125C45.8972 4.125 48 6.22781 48 8.8125V44.4369C48 46.4017 46.4016 48 44.4369 48H3.5625C1.59816 48 0 46.4018 0 44.4375V42.0117C0 41.4939 0.419813 41.0742 0.9375 41.0742H3.47334C1.83516 39.6634 0.794906 37.5765 0.794906 35.25C0.794906 31.0111 4.2435 27.5625 8.48241 27.5625C12.7213 27.5625 16.1699 31.0111 16.1699 35.25C16.1699 37.5765 15.1297 39.6634 13.4915 41.0742H22.8586C23.3763 41.0742 23.7961 41.4939 23.7961 42.0117C23.7961 42.5295 23.3763 42.9492 22.8586 42.9492H1.875V44.4375C1.875 45.368 2.63203 46.125 3.5625 46.125H41.3C41.0284 45.6222 40.8739 45.0473 40.8739 44.4369V42.9492H30.9063C30.3886 42.9492 29.9688 42.5295 29.9688 42.0117C29.9688 41.4939 30.3886 41.0742 30.9063 41.0742H41.8114C42.3291 41.0742 42.7489 41.4939 42.7489 42.0117V44.4369C42.7489 45.3677 43.5061 46.125 44.4369 46.125C45.3678 46.125 46.125 45.3677 46.125 44.4369V8.8125C46.125 7.26169 44.8633 6 43.3125 6H38.8437V7.17188C38.8437 8.72269 37.582 9.98438 36.0312 9.98438C34.4804 9.98438 33.2187 8.72269 33.2187 7.17188V6H17.4687V7.17188C17.4687 8.72269 16.207 9.98438 14.6562 9.98438C13.1054 9.98438 11.8437 8.72269 11.8437 7.17188V5.96531C11.764 5.98725 11.6805 6 11.5938 6H7.85841C6.30759 6 5.04591 7.26169 5.04591 8.8125V11.9063H38.8437C39.3614 11.9063 39.7812 12.326 39.7812 12.8438C39.7812 13.3615 39.3614 13.7813 38.8437 13.7813H5.04591V24.7812C5.04591 25.299 4.62609 25.7187 4.10841 25.7187C3.59072 25.7187 3.17091 25.299 3.17091 24.7812V8.8125C3.17091 6.22781 5.27372 4.125 7.85841 4.125H11.5938C11.6805 4.125 11.764 4.13766 11.8437 4.15969V2.8125C11.8437 1.26169 13.1054 0 14.6562 0C16.207 0 17.4687 1.26169 17.4687 2.8125V4.125H33.2187V2.8125C33.2187 1.26169 34.4804 0 36.0312 0C37.582 0 38.8437 1.26169 38.8437 2.8125V4.125ZM14.6562 8.10938C15.1731 8.10938 15.5937 7.68881 15.5937 7.17188V2.8125C15.5937 2.29556 15.1731 1.875 14.6562 1.875C14.1393 1.875 13.7187 2.29556 13.7187 2.8125V7.17188C13.7187 7.68881 14.1393 8.10938 14.6562 8.10938ZM36.9687 7.17188C36.9687 7.68881 36.5481 8.10938 36.0312 8.10938C35.5143 8.10938 35.0937 7.68881 35.0937 7.17188V2.8125C35.0937 2.29556 35.5143 1.875 36.0312 1.875C36.5481 1.875 36.9687 2.29556 36.9687 2.8125V7.17188ZM8.4824 29.4375C5.27737 29.4375 2.6699 32.045 2.6699 35.25C2.6699 38.455 5.27737 41.0625 8.4824 41.0625C11.6874 41.0625 14.2949 38.455 14.2949 35.25C14.2949 32.045 11.6874 29.4375 8.4824 29.4375Z" fill="#0033A0"/>
<path d="M43.904 12.1809C43.7297 12.0066 43.4878 11.9062 43.2412 11.9062C42.9946 11.9062 42.7528 12.0066 42.5784 12.1809C42.4041 12.3553 42.3037 12.5972 42.3037 12.8438C42.3037 13.0903 42.404 13.3322 42.5784 13.5066C42.7529 13.6809 42.9946 13.7812 43.2412 13.7812C43.4878 13.7812 43.7297 13.6809 43.904 13.5066C44.0783 13.3322 44.1787 13.0903 44.1787 12.8438C44.1787 12.5972 44.0784 12.3553 43.904 12.1809Z" fill="#00AEC7"/>
<path d="M27.9984 41.3484C27.8241 41.1741 27.5822 41.0747 27.3356 41.0747C27.0891 41.0747 26.8472 41.1741 26.6728 41.3484C26.4984 41.5238 26.3981 41.7647 26.3981 42.0113C26.3981 42.2588 26.4984 42.4997 26.6728 42.675C26.8472 42.8494 27.0891 42.9488 27.3356 42.9488C27.5822 42.9488 27.8241 42.8494 27.9984 42.675C28.1727 42.4997 28.2731 42.2578 28.2731 42.0113C28.2731 41.7647 28.1728 41.5238 27.9984 41.3484Z" fill="#00AEC7"/>
<path fill-rule="evenodd" clip-rule="evenodd" d="M17.648 32.0625C17.648 30.0982 19.2462 28.5 21.2105 28.5C23.1749 28.5 24.773 30.0982 24.773 32.0625C24.773 34.0268 23.1749 35.625 21.2105 35.625C19.2462 35.625 17.648 34.0268 17.648 32.0625ZM19.523 32.0625C19.523 32.993 20.28 33.75 21.2105 33.75C22.141 33.75 22.898 32.993 22.898 32.0625C22.898 31.132 22.141 30.375 21.2105 30.375C20.28 30.375 19.523 31.132 19.523 32.0625Z" fill="#00AEC7"/>
<path fill-rule="evenodd" clip-rule="evenodd" d="M26.3979 32.0625C26.3979 30.0982 27.9961 28.5 29.9604 28.5C31.9248 28.5 33.5229 30.0982 33.5229 32.0625C33.5229 34.0268 31.9248 35.625 29.9604 35.625C27.9961 35.625 26.3979 34.0268 26.3979 32.0625ZM28.2729 32.0625C28.2729 32.993 29.03 33.75 29.9604 33.75C30.8909 33.75 31.6479 32.993 31.6479 32.0625C31.6479 31.132 30.8909 30.375 29.9604 30.375C29.03 30.375 28.2729 31.132 28.2729 32.0625Z" fill="#00AEC7"/>
<path fill-rule="evenodd" clip-rule="evenodd" d="M35.148 32.0625C35.148 30.0982 36.7462 28.5 38.7105 28.5C40.6749 28.5 42.273 30.0982 42.273 32.0625C42.273 34.0268 40.6749 35.625 38.7105 35.625C36.7462 35.625 35.148 34.0268 35.148 32.0625ZM37.023 32.0625C37.023 32.993 37.78 33.75 38.7105 33.75C39.641 33.75 40.398 32.993 40.398 32.0625C40.398 31.132 39.641 30.375 38.7105 30.375C37.78 30.375 37.023 31.132 37.023 32.0625Z" fill="#00AEC7"/>
<path fill-rule="evenodd" clip-rule="evenodd" d="M8.89801 22.3125C8.89801 20.3482 10.4962 18.75 12.4605 18.75C14.4249 18.75 16.023 20.3482 16.023 22.3125C16.023 24.2768 14.4249 25.875 12.4605 25.875C10.4962 25.875 8.89801 24.2768 8.89801 22.3125ZM10.773 22.3125C10.773 23.243 11.53 24 12.4605 24C13.391 24 14.148 23.243 14.148 22.3125C14.148 21.382 13.391 20.625 12.4605 20.625C11.53 20.625 10.773 21.382 10.773 22.3125Z" fill="#00AEC7"/>
<path fill-rule="evenodd" clip-rule="evenodd" d="M26.3979 22.3125C26.3979 20.3482 27.9961 18.75 29.9604 18.75C31.9248 18.75 33.5229 20.3482 33.5229 22.3125C33.5229 24.2768 31.9248 25.875 29.9604 25.875C27.9961 25.875 26.3979 24.2768 26.3979 22.3125ZM28.2729 22.3125C28.2729 23.243 29.03 24 29.9604 24C30.8909 24 31.6479 23.243 31.6479 22.3125C31.6479 21.382 30.8909 20.625 29.9604 20.625C29.03 20.625 28.2729 21.382 28.2729 22.3125Z" fill="#00AEC7"/>
<path fill-rule="evenodd" clip-rule="evenodd" d="M35.148 22.3125C35.148 20.3482 36.7462 18.75 38.7105 18.75C40.6749 18.75 42.273 20.3482 42.273 22.3125C42.273 24.2768 40.6749 25.875 38.7105 25.875C36.7462 25.875 35.148 24.2768 35.148 22.3125ZM37.023 22.3125C37.023 23.243 37.78 24 38.7105 24C39.641 24 40.398 23.243 40.398 22.3125C40.398 21.382 39.641 20.625 38.7105 20.625C37.78 20.625 37.023 21.382 37.023 22.3125Z" fill="#00AEC7"/>
<path fill-rule="evenodd" clip-rule="evenodd" d="M17.648 22.3125C17.648 20.3482 19.2462 18.75 21.2105 18.75C23.1749 18.75 24.773 20.3482 24.773 22.3125C24.773 24.2768 23.1749 25.875 21.2105 25.875C19.2462 25.875 17.648 24.2768 17.648 22.3125ZM19.523 22.3125C19.523 23.243 20.28 24 21.2105 24C22.141 24 22.898 23.243 22.898 22.3125C22.898 21.382 22.141 20.625 21.2105 20.625C20.28 20.625 19.523 21.382 19.523 22.3125Z" fill="#00AEC7"/>
<path d="M11.8223 32.9652C11.4561 32.5991 10.8627 32.5991 10.4964 32.9652L7.44332 36.0184L6.39998 34.975C6.03379 34.6089 5.44035 34.6089 5.07407 34.975C4.70798 35.3411 4.70798 35.9347 5.07407 36.3009L6.78041 38.0071C6.95629 38.1829 7.19469 38.2817 7.44332 38.2817C7.69195 38.2817 7.93035 38.1829 8.10623 38.0071L11.8223 34.291C12.1884 33.9249 12.1884 33.3313 11.8223 32.9652Z" fill="#00AEC7"/>
</svg>
