<svg width="48" height="48" viewBox="0 0 48 48" fill="none" xmlns="http://www.w3.org/2000/svg">
<g clip-path="url(#clip0_638_851)">
<path d="M4.77519 48C3.92328 47.6572 3.57294 47.0166 3.65184 46.1168C3.66405 45.9768 3.64338 45.835 3.65559 45.6951C3.72228 44.8741 3.65278 44.1528 2.95397 43.5226C2.35284 42.9797 2.16123 42.1512 2.15841 41.3313C2.14808 38.3792 2.14996 35.4261 2.15653 32.4731C2.15841 31.6184 2.45334 30.8566 2.95303 30.1663C3.61145 29.2552 4.26142 28.3375 4.91327 27.4218C4.99968 27.2996 5.07576 27.171 5.21101 26.9606C4.96211 26.9606 4.79774 26.9606 4.6343 26.9606C3.61896 26.9606 2.60362 26.9671 1.58828 26.9578C0.896046 26.9512 0.655595 26.706 0.651838 26.0251C0.647141 25.1656 0.647141 24.3062 0.651838 23.4477C0.655595 22.795 0.897924 22.546 1.56386 22.5404C2.68816 22.5301 3.81339 22.5404 4.93769 22.5367C5.42798 22.5348 5.7276 22.7433 5.83938 23.2373C5.96524 23.7962 6.12116 24.3475 6.29774 25.0341C6.81997 23.5567 7.29711 22.2117 7.77144 20.8648C8.39886 19.0858 9.02535 17.3059 9.65278 15.526C10.3056 13.6766 11.583 12.7646 13.5423 12.7636C20.4458 12.7608 27.3494 12.7608 34.253 12.7636C36.2123 12.7636 37.4925 13.6775 38.1443 15.5241C39.1982 18.5091 40.2511 21.4941 41.3049 24.479C41.3547 24.6209 41.4111 24.7599 41.5059 25.0116C41.6722 24.3635 41.8056 23.8225 41.9493 23.2843C42.108 22.6869 42.2865 22.5432 42.9036 22.5395C43.9969 22.5329 45.0902 22.532 46.1835 22.5395C46.9114 22.5442 47.1415 22.7771 47.1443 23.4928C47.1481 24.3363 47.1481 25.1797 47.1443 26.0232C47.1406 26.706 46.9011 26.9521 46.2107 26.9587C45.1954 26.9681 44.18 26.9615 43.1647 26.9615C43.0003 26.9615 42.8369 26.9615 42.5626 26.9615C42.8218 27.3297 43.0135 27.6058 43.2088 27.8801C43.7611 28.6559 44.3134 29.4327 44.8694 30.2057C45.3973 30.9402 45.649 31.7555 45.6462 32.6609C45.6396 35.4731 45.6387 38.2852 45.6462 41.0974C45.65 42.2893 45.2395 43.2868 44.3557 44.0955C44.2382 44.2035 44.1603 44.4073 44.1518 44.5708C44.1265 45.0845 44.1143 45.603 44.1481 46.1168C44.2091 47.0175 43.8738 47.6581 43.0219 48.0009H37.8663C37.0163 47.691 36.6584 47.0786 36.7213 46.1854C36.7486 45.8021 36.726 45.4161 36.726 45.0329H11.0692C11.0692 45.4405 11.0466 45.8143 11.0739 46.1854C11.1406 47.0805 10.7799 47.691 9.9308 48.0019H4.77519V48ZM44.2317 40.562C44.2317 37.7902 44.257 35.072 44.2073 32.3547C44.1988 31.8936 43.9461 31.3882 43.6784 30.9891C42.8359 29.7314 41.9249 28.5197 41.0589 27.2762C40.8823 27.0226 40.6878 26.9521 40.3976 26.9549C39.0855 26.9671 37.7733 26.9634 36.4612 26.9578C36.2132 26.9568 35.9549 26.9606 35.7182 26.8995C35.2552 26.7793 35.0448 26.1923 35.3763 25.8607C35.5585 25.6785 35.8901 25.5705 36.1587 25.563C37.314 25.531 38.4702 25.5498 39.6265 25.5479C39.7899 25.5479 39.9533 25.532 40.1525 25.5216C40.0961 25.33 40.0623 25.1957 40.0172 25.067C38.9493 22.037 37.8823 19.0069 36.8106 15.9787C36.355 14.691 35.6111 14.1716 34.2351 14.1716C27.3456 14.1707 20.4571 14.1707 13.5676 14.1716C12.1728 14.1716 11.4411 14.6948 10.9734 16.0182C9.91295 19.0182 8.85347 22.0172 7.79586 25.0182C7.74138 25.1722 7.70287 25.331 7.63806 25.5498C7.90763 25.5498 8.10769 25.5498 8.30682 25.5498C16.3366 25.5498 24.3663 25.5498 32.3951 25.5507C32.613 25.5507 32.8337 25.5526 33.0488 25.5846C33.4133 25.639 33.5945 25.8955 33.6021 26.2373C33.6096 26.5802 33.4367 26.8432 33.0761 26.9117C32.8638 26.9521 32.6421 26.9587 32.4252 26.9587C24.1456 26.9606 15.866 26.9653 7.5864 26.9493C7.12429 26.9493 6.85566 27.0902 6.59924 27.4668C5.79899 28.6409 4.96492 29.7915 4.12804 30.9402C3.73543 31.4794 3.55228 32.0626 3.55509 32.7304C3.56636 35.1838 3.55885 37.6362 3.56073 40.0896C3.56073 40.2408 3.57482 40.392 3.58327 40.5526H16.4239C16.4239 40.3525 16.4239 40.1835 16.4239 40.0144C16.4239 38.5304 16.4183 37.0454 16.4248 35.5614C16.4361 33.1306 17.9859 31.5799 20.4083 31.5676C21.1738 31.5639 21.9393 31.5639 22.7047 31.5676C24.4856 31.5752 26.2674 31.5395 28.0463 31.6099C29.7051 31.6757 31.2154 33.1597 31.2999 34.8175C31.3882 36.5476 31.3553 38.2834 31.3751 40.0163C31.3769 40.1957 31.3751 40.3751 31.3751 40.5629H44.2326L44.2317 40.562ZM44.0354 42.0329H3.71289C3.75516 42.1512 3.77206 42.2264 3.80775 42.2931C4.30744 43.2427 5.12178 43.593 6.16342 43.5921C17.9859 43.5845 29.8084 43.5874 41.6299 43.5874C41.8018 43.5874 41.9746 43.5902 42.1446 43.5723C43.0839 43.4737 43.8926 42.8125 44.0354 42.0329ZM29.9305 40.5573V39.0207H17.8619V40.5573H29.9305ZM17.8638 36V37.5526H29.9277V36H17.8638ZM29.7689 34.5526C29.6046 33.7167 28.7714 33.0244 27.835 32.9953C26.7586 32.9624 25.6794 32.9775 24.6021 32.9775C23.0711 32.9775 21.5401 32.9643 20.01 32.9925C19.0398 33.0103 18.1982 33.6969 18.0282 34.5526H29.7689ZM5.08233 46.5535H9.63399V45.0235H5.08233V46.5535ZM42.7129 46.5714V45.0226H38.1669V46.5714H42.7129ZM2.08891 23.9521V25.5028H4.94802C4.83625 25.0482 4.75077 24.6368 4.62585 24.2386C4.59016 24.1249 4.44082 23.9681 4.33844 23.9653C3.59548 23.9418 2.85253 23.9531 2.08797 23.9531L2.08891 23.9521ZM45.7129 25.5207V23.9502C45.3494 23.9502 45.0113 23.9455 44.6741 23.9512C44.2101 23.9596 43.5892 23.799 43.3225 24.0357C43.0116 24.3109 43.0106 24.9355 42.8782 25.4099C42.8716 25.4333 42.8923 25.4653 42.9073 25.5216H45.7129V25.5207Z" fill="#0033A0"/>
<path d="M47.9915 13.6822C47.8028 13.995 47.5407 14.1462 47.1622 14.1951C45.8312 14.367 45.1493 15.0855 44.9915 16.4155C44.9324 16.9124 44.6797 17.1735 44.2655 17.165C43.8719 17.1566 43.6381 16.9067 43.578 16.4296C43.4051 15.0658 42.7354 14.3839 41.3698 14.181C40.8419 14.1021 40.592 13.8814 40.5845 13.4878C40.577 13.0708 40.8541 12.8181 41.3876 12.7543C42.6678 12.6021 43.4173 11.8601 43.5704 10.593C43.6362 10.052 43.8823 9.76553 44.2805 9.76459C44.6806 9.76459 44.938 10.0633 44.9944 10.593C45.1249 11.8234 45.9186 12.5983 47.1255 12.7674C47.4289 12.8097 47.7032 13.0595 47.9915 13.2136V13.6822ZM44.3312 12.7712C44.0758 13.006 43.8053 13.2549 43.5949 13.4484C43.8146 13.701 44.0542 13.9762 44.2627 14.2167L44.9906 13.5057C44.7595 13.2483 44.5144 12.975 44.3303 12.7712H44.3312Z" fill="#00AEC7"/>
<path d="M28.4417 4.45681C28.4408 4.85881 28.1768 5.11241 27.6659 5.15749C26.6994 5.24203 25.8569 5.59237 25.3206 6.4161C25.0416 6.84441 24.9242 7.37885 24.7382 7.86726C24.7166 7.92362 24.727 7.99124 24.7185 8.05324C24.6405 8.63652 24.401 8.91078 23.9784 8.90233C23.5688 8.89481 23.3491 8.63464 23.2673 8.07202C23.2335 7.8419 23.2194 7.60427 23.1509 7.38448C22.7695 6.15029 21.9345 5.42518 20.6618 5.20821C20.5238 5.18473 20.3838 5.16783 20.2439 5.15468C19.8278 5.11523 19.5779 4.89638 19.5488 4.47465C19.5216 4.08486 19.7949 3.78711 20.2505 3.75424C20.9718 3.70164 21.6265 3.50346 22.1834 3.02725C22.8034 2.49751 23.1715 1.83439 23.2504 1.01817C23.2523 1.0022 23.2523 0.987174 23.2542 0.971207C23.3218 0.313724 23.5529 0.00658568 23.984 1.08478e-05C24.4179 -0.00656398 24.6678 0.303392 24.7288 0.953361C24.8378 2.10865 25.4229 2.94741 26.458 3.43489C26.8412 3.61523 27.293 3.66407 27.7185 3.74015C28.1712 3.82186 28.4436 4.06983 28.4417 4.45587V4.45681ZM23.9812 5.54447C24.3381 5.18567 24.7598 4.76113 25.0679 4.45117C24.7476 4.11491 24.3334 3.68191 24.0047 3.33627C23.6496 3.70352 23.2335 4.13558 22.9424 4.43708C23.2439 4.75737 23.6543 5.196 23.9821 5.54447H23.9812Z" fill="#00AEC7"/>
<path d="M3.69411 9.76549C4.08202 9.75892 4.36098 10.0463 4.40701 10.5385C4.4906 11.4299 4.88697 12.1193 5.69943 12.5156C5.97182 12.6481 6.29023 12.7016 6.59455 12.7486C7.12711 12.8312 7.40701 13.0689 7.40043 13.4859C7.3948 13.8804 7.14401 14.1021 6.61615 14.181C5.24671 14.3848 4.58265 15.0629 4.40701 16.4342C4.34595 16.9095 4.10832 17.1603 3.71383 17.1659C3.30056 17.1716 3.05165 16.9095 2.99342 16.4079C2.84032 15.0892 2.14808 14.3754 0.811516 14.1885C0.484653 14.1424 0.198178 14.0692 0.0572893 13.7329C-0.141834 13.2586 0.189725 12.881 0.789913 12.7411C1.27551 12.6284 1.77614 12.4527 2.18659 12.1794C2.73137 11.8168 2.94176 11.212 2.9953 10.5592C3.03663 10.0632 3.30619 9.77207 3.69317 9.76549H3.69411ZM4.40889 13.4897C4.17971 13.2351 3.93362 12.9627 3.72792 12.7345C3.46962 12.989 3.21602 13.2398 2.95773 13.4934C3.18785 13.7151 3.45366 13.9715 3.7251 14.2336L4.40889 13.4897Z" fill="#00AEC7"/>
<path d="M23.8685 24.6998C19.4004 24.6998 14.9314 24.6998 10.4633 24.6998C10.3384 24.6998 10.2135 24.7017 10.0886 24.6998C9.23386 24.6866 8.95302 24.3006 9.2301 23.5022C9.58326 22.4859 9.94676 21.4725 10.3046 20.4581C10.8034 19.0464 11.3002 17.6337 11.8018 16.2229C12.1108 15.3551 12.5635 15.0197 13.4793 15.0188C20.4317 15.015 27.3841 15.0141 34.3365 15.0188C35.2223 15.0188 35.6928 15.3645 35.9878 16.1957C36.8481 18.6218 37.7028 21.0489 38.5566 23.4769C38.8497 24.3109 38.5801 24.6979 37.6944 24.6988C33.0854 24.7026 28.4765 24.7007 23.8675 24.7007L23.8685 24.6998ZM36.9599 23.258C36.912 23.0927 36.881 22.9603 36.8368 22.8335C36.1324 20.8328 35.4186 18.836 34.7301 16.8297C34.6164 16.4991 34.4492 16.4183 34.1233 16.4192C27.3118 16.4277 20.5012 16.4286 13.6897 16.4174C13.3328 16.4174 13.1722 16.5244 13.0566 16.8607C12.3766 18.8369 11.6731 20.8047 10.979 22.7762C10.9283 22.9199 10.8945 23.0692 10.8409 23.259H36.9599V23.258Z" fill="#0033A0"/>
<path d="M10.3647 33.0742C11.5595 33.0807 12.7007 33.3071 13.6756 34.036C15.2047 35.1781 15.2076 36.8078 13.7085 37.9884C12.0704 39.279 8.76423 39.2978 7.08202 38.025C5.45522 36.7946 5.56511 34.8973 7.32153 33.8556C8.19598 33.3372 9.20944 33.077 10.3638 33.0742H10.3647ZM10.3929 34.4821C9.48558 34.4821 8.61865 34.6465 7.86912 35.1885C7.15246 35.706 7.16467 36.3334 7.87193 36.8604C9.11927 37.7893 11.5764 37.8015 12.8406 36.8848C13.5977 36.3362 13.6014 35.6863 12.834 35.1565C12.1014 34.6512 11.2674 34.4868 10.3929 34.4821Z" fill="#0033A0"/>
<path d="M37.4399 38.984C36.2376 38.9371 35.0711 38.7426 34.0895 37.9818C32.5783 36.8106 32.5989 35.1922 34.1205 34.0294C35.7905 32.753 39.1042 32.7605 40.7461 34.0426C42.3409 35.288 42.2217 37.1403 40.4812 38.181C39.6199 38.6957 38.5538 38.9774 37.4408 38.9831L37.4399 38.984ZM37.4202 34.4831C36.479 34.484 35.6233 34.7113 35.0147 35.1218C34.1929 35.676 34.1816 36.3381 34.9828 36.9036C36.2404 37.7902 38.6093 37.7865 39.8754 36.897C40.6568 36.3475 40.6597 35.6882 39.865 35.1443C39.1305 34.6418 38.2946 34.485 37.4211 34.4831H37.4202Z" fill="#0033A0"/>
<path d="M10.4042 30.8181C11.1058 30.8181 11.8065 30.8106 12.5081 30.82C13.0144 30.8275 13.2934 31.0651 13.314 31.4746C13.3356 31.9048 13.0482 32.2138 12.5391 32.2195C11.0899 32.2354 9.64058 32.2354 8.19224 32.2176C7.71791 32.212 7.41641 31.8982 7.42111 31.5056C7.4258 31.1083 7.72918 30.8303 8.20727 30.8218C8.93989 30.8096 9.67158 30.819 10.4042 30.8181Z" fill="#00AEC7"/>
<path d="M37.422 32.2242C36.7054 32.2242 35.985 32.2646 35.273 32.2035C35.0119 32.181 34.6757 31.9697 34.5526 31.7452C34.4596 31.5752 34.5968 31.2154 34.7329 31.005C34.8156 30.8782 35.0899 30.8266 35.2787 30.8247C36.712 30.8106 38.1462 30.8116 39.5795 30.82C40.0642 30.8228 40.3647 31.0943 40.3779 31.4925C40.391 31.8983 40.0736 32.2064 39.572 32.2195C38.8554 32.2374 38.1387 32.2242 37.4211 32.2242H37.422Z" fill="#00AEC7"/>
</g>
<defs>
<clipPath id="clip0_638_851">
<rect width="47.9915" height="48" fill="white"/>
</clipPath>
</defs>
</svg>
