<svg width="49" height="48" viewBox="0 0 49 48" fill="none" xmlns="http://www.w3.org/2000/svg">
<g clip-path="url(#clip0_623_3770)">
<path d="M48.0901 22.1028C47.7656 23.1596 46.9102 23.8027 46.1819 24.5419C45.9536 24.7733 45.8885 24.9946 45.8554 25.3412C45.7853 26.0694 46.0958 26.5512 46.4804 27.1042C47.3088 28.2992 47.1576 29.8988 46.1329 30.9716C44.8447 32.3209 43.5075 33.625 42.1823 34.9392C41.7946 35.3239 41.3269 35.3159 40.9933 34.9603C40.6738 34.6207 40.6848 34.183 41.0574 33.8063C42.3245 32.5282 43.6057 31.2651 44.8708 29.984C45.626 29.2197 45.583 28.235 44.6664 27.5048C44.5663 27.6551 44.4791 27.8444 44.3409 27.9836C39.9726 32.3589 35.6033 36.7312 31.221 41.0915C30.9736 41.3379 30.638 41.5452 30.3055 41.6464C28.6177 42.1563 26.9168 42.62 25.224 43.1129C24.8634 43.218 24.5319 43.2461 24.2474 42.9656C23.9639 42.6871 23.9729 42.3606 24.0791 41.995C24.5779 40.2861 25.0487 38.5693 25.5586 36.8644C25.6497 36.5609 25.832 36.2514 26.0554 36.027C30.7112 31.3512 35.3819 26.6895 40.0397 22.0157C40.6157 21.4377 41.2607 21.1843 42.0691 21.3105C42.2003 21.3305 42.3866 21.2564 42.4888 21.1623C42.9035 20.7776 43.2941 20.3649 43.6968 19.9673C45.2193 18.4638 47.3108 18.9606 48.007 20.987C48.022 21.03 48.0631 21.0641 48.0921 21.1022V22.1018L48.0901 22.1028ZM36.035 34.0057C38.7265 31.3182 41.414 28.6327 44.1065 25.9532C44.3679 25.6928 44.3509 25.4875 44.0955 25.2381C43.4053 24.5619 42.7292 23.8708 42.0441 23.1886C41.6193 22.7649 41.5623 22.7669 41.1225 23.2067C38.5773 25.7519 36.032 28.2972 33.4878 30.8434C33.3746 30.9566 33.2704 31.0798 33.1963 31.1609C34.1549 32.1215 35.0814 33.0491 36.035 34.0047V34.0057ZM27.6731 36.7492C28.6127 37.6848 29.5492 38.6174 30.4006 39.4658C31.815 38.0534 33.2804 36.59 34.6648 35.2067C33.7753 34.3192 32.8397 33.3856 31.9312 32.4801C30.5269 33.8885 29.0714 35.3469 27.6731 36.7502V36.7492ZM44.7856 23.6103C45.2925 23.1175 45.8093 22.6517 46.2811 22.1449C46.5966 21.8053 46.5566 21.3506 46.2571 21.014C45.9576 20.6774 45.4567 20.5542 45.1402 20.8487C44.5993 21.3506 44.1265 21.9265 43.6628 22.4294C44.0143 22.8 44.4 23.2047 44.7856 23.6113V23.6103ZM28.7078 40.4494C28.0387 39.7843 27.3916 39.1402 26.7436 38.4962C26.5042 39.3436 26.2467 40.2521 25.9693 41.2337C26.9679 40.9472 27.8694 40.6898 28.7078 40.4494Z" fill="#0033A0"/>
<path d="M33.595 8.00232C32.3038 8.00232 31.0748 8.00432 29.8447 8.00232C28.183 7.99931 27.1983 7.02068 27.1953 5.36793C27.1933 4.13687 27.1953 2.90482 27.1953 1.60365H26.6424C18.6611 1.60365 10.6808 1.60365 2.69949 1.60365C1.83906 1.60365 1.60166 1.83904 1.60166 2.69647C1.60166 16.8951 1.60166 31.0938 1.60166 45.2925C1.60166 46.1599 1.83605 46.3993 2.68747 46.3993C12.6351 46.3993 22.5816 46.3993 32.5292 46.3993C33.3496 46.3993 33.595 46.1509 33.596 45.3235C33.598 44.1065 33.594 42.8905 33.598 41.6734C33.6 41.0684 33.8825 40.7359 34.3863 40.7309C34.8922 40.7249 35.1896 41.0604 35.1916 41.6574C35.1957 42.9576 35.2027 44.2577 35.1896 45.5569C35.1756 46.9552 34.1459 47.996 32.7516 47.996C22.6548 48.002 12.5579 48.001 2.46009 47.996C1.03972 47.996 0.00499984 46.9522 0.00399817 45.5239C-8.50752e-06 31.1749 -8.50752e-06 16.826 0.0029965 2.47811C0.0029965 1.04672 1.03171 0.00398513 2.45508 0.00298346C10.9192 -0.00302656 19.3833 -0.00202489 27.8474 0.0180085C28.1279 0.0180085 28.4745 0.172266 28.6758 0.370596C30.7432 2.40399 32.7937 4.4534 34.824 6.52285C35.0304 6.7332 35.1746 7.10482 35.1756 7.40332C35.1967 12.9025 35.1916 18.4027 35.1896 23.9018C35.1896 24.5409 34.8982 24.8804 34.3753 24.8694C33.8584 24.8584 33.595 24.5259 33.595 23.8688C33.595 18.8023 33.595 13.7359 33.595 8.67043C33.595 8.4721 33.595 8.27377 33.595 8.00332V8.00232ZM28.796 2.85874C28.796 3.77928 28.785 4.67577 28.8 5.57126C28.809 6.10415 29.1085 6.38462 29.6524 6.39864C30.1673 6.41167 30.6821 6.40265 31.196 6.40265C31.5806 6.40265 31.9643 6.40265 32.3349 6.40265C31.1399 5.20666 29.983 4.04873 28.795 2.85874H28.796Z" fill="#0033A0"/>
<path d="M22.807 11.8768C21.4077 11.407 20.0654 10.8611 18.6731 10.5175C17.2968 10.1779 15.9295 10.4774 14.6274 11.0353C13.9122 11.3419 13.189 11.6323 12.4327 11.9459C12.4688 12.04 12.5149 12.1752 12.572 12.3055C13.3533 14.0704 14.1195 15.8424 14.9279 17.5943C15.1723 18.1242 15.2204 18.626 15.1112 19.1879C14.6955 21.3275 13.0528 22.5576 10.797 22.3923C8.7606 22.243 7.25109 20.6283 7.21803 18.5318C7.21403 18.2634 7.32221 17.9789 7.43339 17.7255C8.28181 15.7933 9.14324 13.8671 9.98965 11.9629C9.42972 11.6594 8.8788 11.399 8.37096 11.0714C7.99433 10.829 7.87914 10.4474 8.11853 10.0237C8.35793 9.59895 8.83172 9.45672 9.22738 9.7442C10.3903 10.5896 11.6124 10.5275 12.8815 10.0537C13.8912 9.67608 14.9048 9.30647 15.9255 8.95789C16.186 8.86874 16.4785 8.86974 16.801 8.82266C16.801 8.3048 16.794 7.80897 16.803 7.31314C16.813 6.75521 17.1175 6.41064 17.5863 6.40563C18.0541 6.40062 18.3806 6.75021 18.3927 7.29511C18.4037 7.79395 18.3947 8.29278 18.3947 8.87074C19.9653 8.87375 21.2594 9.69712 22.6678 10.1799C23.8097 10.5716 24.9245 10.5125 25.9472 9.76523C26.3269 9.48777 26.7255 9.57291 27.006 9.9285C27.2825 10.2791 27.2895 10.7268 26.9149 10.9923C26.395 11.3619 25.814 11.6434 25.216 11.9859C25.801 13.3071 26.412 14.6864 27.023 16.0667C27.2053 16.4774 27.3436 16.9162 27.582 17.2918C28.7499 19.1238 27.022 21.8734 25.21 22.2691C22.9452 22.7639 20.5192 21.9495 20.0624 18.9696C20.0033 18.5839 20.0654 18.1302 20.2187 17.7696C20.997 15.9315 21.8244 14.1145 22.6337 12.2894C22.6858 12.1722 22.7339 12.054 22.808 11.8778L22.807 11.8768ZM13.1589 17.5823C12.5018 16.1048 11.8748 14.6965 11.2007 13.1809C10.5185 14.7225 9.8955 16.1298 9.25242 17.5823H13.1589ZM23.99 13.1869C23.3098 14.7205 22.6848 16.1338 22.0507 17.5642H25.9342C25.2861 16.1068 24.6641 14.7045 23.99 13.1869ZM9.00201 19.226C9.22838 20.2437 10.0728 20.8036 11.2648 20.8056C12.2805 20.8066 13.3032 20.1596 13.3983 19.226H9.00101H9.00201ZM26.1786 19.233H21.8103C21.9316 20.1505 22.775 20.7806 23.8868 20.8036C25.1259 20.8297 26.0093 20.2337 26.1786 19.233Z" fill="#00AEC7"/>
<path d="M16.7469 30.4026C13.1649 30.4026 9.58197 30.4026 6 30.4026C5.83372 30.4026 5.66544 30.4126 5.50116 30.3916C5.05843 30.3345 4.77495 30.002 4.805 29.5652C4.83505 29.1235 5.07746 28.8611 5.5222 28.81C5.67045 28.793 5.8217 28.804 5.97195 28.804C13.187 28.804 20.402 28.804 27.616 28.804C27.7663 28.804 27.9175 28.794 28.0658 28.81C28.5135 28.8581 28.7539 29.1235 28.788 29.5622C28.822 29.9939 28.5336 30.3335 28.0938 30.3916C27.9296 30.4136 27.7613 30.4036 27.595 30.4036C23.979 30.4036 20.3639 30.4036 16.7479 30.4036L16.7469 30.4026Z" fill="#0033A0"/>
<path d="M16.799 24.006V23.423C16.799 20.0083 16.799 16.5926 16.799 13.1779C16.799 13.0116 16.786 12.8414 16.813 12.6791C16.8811 12.2654 17.1306 12.017 17.5543 12.008C17.99 11.9979 18.2865 12.2143 18.3736 12.655C18.4057 12.8163 18.3927 12.9866 18.3927 13.1529C18.3927 16.5676 18.3927 19.9833 18.3927 23.398V24.011C19.0808 24.011 19.7399 24.011 20.4 24.011C20.7997 24.011 21.2003 23.995 21.599 24.017C22.1099 24.045 22.4154 24.3806 22.3993 24.8524C22.3833 25.3071 22.0858 25.6036 21.582 25.6046C18.9336 25.6106 16.2851 25.6096 13.6367 25.6016C13.1038 25.5996 12.7973 25.2981 12.7923 24.8233C12.7873 24.3315 13.1068 24.018 13.6638 24.01C14.5292 23.997 15.3957 24.006 16.2621 24.006C16.4244 24.006 16.5866 24.006 16.798 24.006H16.799Z" fill="#00AEC7"/>
<path d="M20.8738 42.5449C20.6784 42.7392 20.4991 43.0568 20.2527 43.1239C20.0033 43.192 19.6648 43.0538 19.4073 42.9235C19.2511 42.8444 19.184 42.602 19.0617 42.4447C18.3976 41.5923 17.3439 41.2648 16.231 41.6444C15.638 41.8467 15.0821 42.1633 14.5222 42.4538C13.2481 43.1169 11.9339 43.5165 10.4905 43.1149C9.45975 42.8274 8.70348 42.1753 8.15357 41.2768C7.85707 40.793 7.94722 40.3583 8.35991 40.1028C8.7756 39.8454 9.1953 39.9636 9.50182 40.4264C10.2741 41.5913 11.3379 41.986 12.6541 41.5272C13.215 41.3319 13.7419 41.0324 14.2708 40.7549C15.5589 40.0788 16.8891 39.6711 18.3486 40.1028C19.3532 40.4003 20.0955 41.0464 20.6384 41.9269C20.7315 42.0771 20.7686 42.2614 20.8738 42.5459V42.5449Z" fill="#00AEC7"/>
<path d="M11.0594 35.2016C9.21233 35.2016 7.36626 35.2046 5.51918 35.1996C4.92819 35.1976 4.61668 34.9362 4.59364 34.4504C4.5696 33.9385 4.89915 33.61 5.47811 33.604C6.52586 33.594 7.5746 33.601 8.62235 33.601C11.3008 33.601 13.9793 33.605 16.6587 33.598C17.1045 33.597 17.4551 33.7182 17.5823 34.1809C17.7405 34.7539 17.3599 35.1956 16.6998 35.1986C14.8197 35.2056 12.9395 35.2006 11.0594 35.2006V35.2016Z" fill="#0033A0"/>
<path d="M21.5339 33.603C22.0838 33.603 22.6337 33.593 23.1836 33.606C23.7055 33.619 24.007 33.9285 24 34.4123C23.994 34.8731 23.7025 35.1876 23.2087 35.1946C22.0758 35.2107 20.9429 35.2097 19.81 35.1966C19.2841 35.1906 18.9836 34.8751 18.9896 34.3933C18.9956 33.9225 19.3082 33.619 19.835 33.606C20.401 33.592 20.9679 33.603 21.5349 33.603H21.5339Z" fill="#0033A0"/>
</g>
<defs>
<clipPath id="clip0_623_3770">
<rect width="48.0901" height="48" fill="white"/>
</clipPath>
</defs>
</svg>
