<svg width="16" height="16" viewBox="0 0 16 16" fill="none" xmlns="http://www.w3.org/2000/svg">
<path fill-rule="evenodd" clip-rule="evenodd" d="M10.5639 6.92707L8.88891 8.59556V0.888889C8.88891 0.397969 8.49094 0 8.00002 0C7.5091 0 7.11113 0.39797 7.11113 0.88889V8.59556L5.43618 6.92707C5.08955 6.58178 4.52881 6.58232 4.18285 6.92828C3.83642 7.27472 3.83641 7.83639 4.18285 8.18283L7.29291 11.2929C7.68344 11.6834 8.3166 11.6834 8.70713 11.2929L11.8172 8.18283C12.1636 7.8364 12.1636 7.27472 11.8172 6.92828C11.4712 6.58232 10.9105 6.58178 10.5639 6.92707ZM14.2222 8.88889C14.2222 8.39797 14.6202 8 15.1111 8C15.602 8 16 8.39797 16 8.88889V14.2222C16 15.2 15.2 16 14.2222 16H1.77778C0.8 16 0 15.2 0 14.2222V8.88889C0 8.39797 0.397969 8 0.888889 8C1.37981 8 1.77778 8.39797 1.77778 8.88889V14.2222H14.2222V8.88889Z" fill="#0033A0"/>
</svg>
