<svg width="48" height="43" viewBox="0 0 48 43" fill="none" xmlns="http://www.w3.org/2000/svg">
<g clip-path="url(#clip0_638_865)">
<path d="M48 17.129C47.9455 17.3215 47.8864 17.5122 47.8356 17.7057C47.582 18.6703 47.0899 19.4921 46.3197 20.1252C45.5843 20.73 44.8254 21.3058 44.0683 21.8844C43.6494 22.2046 43.2446 22.1877 42.9891 21.8656C42.729 21.5368 42.806 21.1508 43.2249 20.8174C43.8608 20.3121 44.5098 19.8246 45.1494 19.324C46.949 17.9142 47.1481 15.6412 45.5561 14.0126C43.471 11.8786 41.3596 9.77094 39.2265 7.68583C37.6824 6.17646 35.5409 6.24597 34.1377 7.85207C33.3074 8.80165 32.5729 9.83387 31.7079 10.9422L34.5979 11.285C34.6477 10.9553 34.6599 10.7046 34.7257 10.4679C35.1108 9.0806 36.8042 8.54523 37.9285 9.44972C38.0252 9.52768 38.1182 9.61221 38.2065 9.7005C39.9864 11.4775 41.7709 13.249 43.5405 15.0354C44.6272 16.1324 44.4215 17.7367 43.1225 18.3782C42.4012 18.7341 41.6986 18.6646 41.0421 18.2091C40.8514 18.0767 40.6842 17.9076 40.5189 17.7423C38.8828 16.109 37.2532 14.469 35.6086 12.846C35.4621 12.7023 35.2113 12.5708 35.0178 12.583C33.7554 12.6638 32.5241 12.4947 31.3087 12.1886C30.9593 12.1012 30.7564 12.1585 30.5301 12.4591C29.3156 14.0661 28.0721 15.6506 26.8417 17.2445C25.569 18.8929 25.6864 20.6906 27.1629 22.1699C28.4647 23.4745 29.7684 24.7782 31.073 26.079C32.5523 27.5555 34.3415 27.6748 35.9993 26.404C37.0531 25.5972 38.0985 24.78 39.1505 23.9695C39.2857 23.8652 39.4247 23.7619 39.575 23.6811C39.8812 23.5168 40.1639 23.5966 40.3734 23.8474C40.5978 24.1169 40.5997 24.425 40.3762 24.7049C40.2804 24.8242 40.1498 24.9191 40.0268 25.0149C39.003 25.8095 37.9586 26.5787 36.9564 27.4005C35.1878 28.8507 32.9205 29.0545 31.0467 27.8354C31.0082 27.81 30.9603 27.8007 30.8682 27.764C30.2107 28.4215 29.5411 29.093 28.8695 29.7646C28.5276 30.1074 28.1829 30.4474 27.8429 30.7921C27.4973 31.1434 27.0962 31.3313 26.5881 31.3106C26.4284 31.304 26.2443 31.4055 26.1044 31.5031C25.9409 31.6177 25.8029 31.7755 25.6704 31.9286C24.5518 33.2238 23.2143 34.2166 21.6439 34.907C21.4138 35.0075 21.2147 35.2526 21.0794 35.478C20.7836 35.9721 20.5168 36.4868 20.2773 37.0118C20.0294 37.5537 19.6574 37.9492 19.0948 38.138C18.0213 38.4986 17.2511 39.1786 16.7702 40.2118C16.587 40.6053 16.293 40.9454 16.0874 41.3286C15.7906 41.8818 15.3313 42.1025 14.7245 42.1664C13.8764 42.2556 13.0348 42.4078 12.1904 42.5327H11.7218C10.8539 42.188 10.6745 41.9062 10.7797 40.9679C10.883 40.0531 11.0145 39.1411 11.1244 38.2272C11.177 37.7895 11.3996 37.4814 11.7697 37.2523C12.5408 36.777 13.311 36.3017 14.0652 35.8011C14.2596 35.6715 14.439 35.4724 14.5451 35.2639C15.7041 32.9881 15.0645 33.5798 17.3732 32.3936C17.9104 32.1174 18.3368 31.7962 18.5538 31.2186C19.1681 29.5852 20.4004 28.4262 21.6251 27.2653C21.8383 27.0633 21.9755 26.867 21.9435 26.5402C21.8947 26.0537 22.1624 25.6798 22.4949 25.3492C23.4905 24.3583 24.4832 23.3646 25.3859 22.4639C25.1229 21.6326 24.7979 20.8991 24.6683 20.1336C24.4382 18.7708 24.8721 17.5479 25.7127 16.4631C26.8511 14.9941 27.9876 13.5242 29.124 12.0542C29.218 11.9331 29.3034 11.8063 29.3898 11.6851C28.2646 11.1704 27.1676 10.6689 26.0461 10.156C26.0076 10.543 25.9935 10.9309 25.9259 11.3085C25.7259 12.4328 25.1971 13.3898 24.3903 14.1957C20.7667 17.8184 17.1496 21.4467 13.5176 25.0609C12.2336 26.3382 10.5552 26.3401 9.27315 25.0665C6.49111 22.3033 3.7194 19.5306 0.956152 16.7486C-0.332489 15.4515 -0.314643 13.7778 0.967423 12.4666C1.33842 12.0871 1.7113 11.7077 2.09451 11.3404C2.46552 10.9844 2.83182 10.9619 3.1305 11.2512C3.4226 11.5348 3.40945 11.9293 3.06757 12.2891C2.6806 12.6967 2.26921 13.0818 1.87943 13.4866C1.19754 14.1948 1.17781 15.041 1.86628 15.7333C4.66428 18.5463 7.4698 21.3518 10.2838 24.1498C10.96 24.8223 11.8232 24.827 12.4948 24.1583C16.1691 20.498 19.8377 16.8331 23.4952 13.156C24.5631 12.0834 24.8186 10.7534 24.5593 9.30132C24.5377 9.1811 24.4325 9.06275 24.3386 8.97165C23.6652 8.32357 22.9692 7.69804 22.3155 7.03211C22.1041 6.81703 21.951 6.89968 21.7416 6.96261C20.6089 7.2998 19.4029 6.65548 19.0544 5.53778C18.7022 4.40599 19.3127 3.19718 20.4285 2.82055C21.5509 2.44109 22.8039 3.01027 23.1514 4.143C23.2857 4.57881 23.188 5.086 23.1974 5.56032C23.2002 5.70496 23.1523 5.89469 23.2256 5.98767C23.5496 6.4 23.9084 6.78415 24.255 7.17769L24.3593 7.1251C24.2926 6.37558 24.2278 5.62607 24.1583 4.87749C24.1216 4.48864 24.0925 4.09886 24.0324 3.71377C23.8699 2.67215 23.2059 2.05225 22.153 1.95081C20.2106 1.7639 18.2664 1.59014 16.325 1.39196C14.8776 1.2445 13.665 1.67373 12.6366 2.71723C10.6426 4.74318 8.62037 6.74283 6.60945 8.75187C6.48829 8.87303 6.36713 8.99701 6.23094 9.09939C5.92381 9.33138 5.61386 9.31165 5.34617 9.03927C5.07567 8.76501 5.08225 8.45225 5.30579 8.14981C5.39783 8.02489 5.5143 7.91876 5.62513 7.80793C7.54588 5.8853 9.49857 3.99272 11.3799 2.03064C12.8479 0.503435 14.5451 -0.210389 16.6753 0.0535379C18.5651 0.287409 20.4661 0.428296 22.3615 0.613327C23.1486 0.690345 23.8323 0.990902 24.4109 1.53942C24.5208 1.64368 24.7049 1.72821 24.8533 1.72727C28.5802 1.69627 31.8779 2.98116 34.9286 5.00992C35.3127 5.2654 35.6499 5.38092 36.1214 5.3086C37.5829 5.08412 38.9063 5.48424 39.9573 6.50895C42.2396 8.73214 44.4778 11.0014 46.7236 13.2612C47.3435 13.8858 47.7023 14.6616 47.8976 15.5163C47.9211 15.6187 47.9653 15.7164 48 15.8159V17.128V17.129ZM26.3589 23.4304C25.4112 24.3762 24.4363 25.3427 23.4736 26.3213C23.3796 26.4171 23.3139 26.5928 23.3214 26.7271C23.3505 27.2503 23.1533 27.6673 22.7945 28.0261C22.2093 28.6103 21.612 29.1842 21.0456 29.7871C20.7836 30.067 20.5009 30.3732 20.3694 30.7217C19.7307 32.4114 18.5961 33.5648 16.8932 34.1837C16.665 34.2664 16.4471 34.5209 16.3316 34.7501C15.2054 36.9836 15.8291 36.2801 13.7261 37.6411C13.6998 37.658 13.6716 37.6721 13.6453 37.6881C12.8344 38.1953 12.3805 38.9322 12.2834 39.899C12.244 40.2916 12.2008 40.6842 12.1566 41.1022C12.9653 41.0026 13.697 40.9388 14.4174 40.8092C14.6409 40.7688 14.8955 40.5941 15.026 40.4053C15.5031 39.7121 15.9145 38.9729 16.3917 38.2798C16.5786 38.0074 16.8359 37.6862 17.1262 37.5988C18.5491 37.1668 19.3625 36.174 19.8575 34.844C19.8847 34.7717 19.9129 34.6909 19.9655 34.6374C20.2397 34.3519 20.4727 33.9602 20.8099 33.8118C22.4714 33.0792 23.8446 31.9878 25.0308 30.6353C25.1125 30.5414 25.2055 30.4568 25.2966 30.3714C25.6319 30.0586 26.0189 29.8999 26.4866 29.9318C26.6116 29.9402 26.7825 29.9074 26.8652 29.8257C27.8655 28.8413 28.8535 27.8439 29.8144 26.8811C28.6638 25.7306 27.5301 24.5988 26.3598 23.4294L26.3589 23.4304ZM25.3267 3.07133C25.3614 3.32868 25.3915 3.51277 25.4093 3.69874C25.5408 5.08131 25.6798 6.46293 25.7935 7.84737C25.8245 8.22119 25.9372 8.4823 26.2988 8.64855C27.5283 9.21397 28.7502 9.79536 29.9694 10.3833C30.2314 10.5092 30.3751 10.4397 30.5517 10.2227C31.6901 8.82513 32.6284 7.26223 34.0391 6.03745C31.3679 4.34118 28.5455 3.21033 25.3248 3.07226L25.3267 3.07133ZM36.9357 12.1942C36.9827 12.2505 37.0174 12.3013 37.0597 12.3445C38.5794 13.867 40.1 15.3886 41.6216 16.9092C41.6986 16.9862 41.7841 17.1074 41.8705 17.1102C42.1288 17.1205 42.4726 17.175 42.6266 17.0369C42.7825 16.897 42.7975 16.5476 42.7863 16.294C42.7797 16.1578 42.5975 16.0197 42.4773 15.8995C41.0684 14.4859 39.6567 13.0761 38.245 11.6663C38.1614 11.5827 38.0675 11.5085 37.9933 11.4428C37.6223 11.7067 37.2832 11.9472 36.9357 12.1951V12.1942ZM21.1489 4.0951C20.7911 4.07162 20.4811 4.23693 20.4116 4.57505C20.3562 4.84274 20.4238 5.19777 20.5704 5.42976C20.7347 5.68806 21.0625 5.77728 21.3781 5.61949C21.2992 5.09727 21.226 4.61074 21.148 4.09604L21.1489 4.0951ZM36.9414 10.5505C36.3402 10.3317 36.1317 10.4726 36.0566 11.0511C36.3769 10.8699 36.6586 10.7102 36.9414 10.5505Z" fill="#0033A0"/>
<path d="M11.2878 22.3051C10.5777 22.3249 9.98319 22.044 9.48821 21.5519C7.80697 19.8781 6.11727 18.2119 4.45951 16.5156C3.41226 15.444 3.43198 14.0426 4.46703 12.9616C5.0935 12.3078 5.73406 11.6673 6.38778 11.0408C7.45382 10.0189 8.84953 9.98603 9.90618 11.0136C11.6287 12.6892 13.3297 14.3892 15.0044 16.1136C16.0282 17.1675 15.9906 18.5669 14.9687 19.633C14.3422 20.2867 13.6951 20.9197 13.0498 21.5547C12.5642 22.0318 11.9875 22.3136 11.2887 22.3051H11.2878ZM14.4747 17.8494C14.2821 17.5263 14.1656 17.2088 13.9506 16.99C12.32 15.3331 10.6754 13.6904 9.02423 12.0542C8.46632 11.502 7.86708 11.5095 7.29696 12.0599C6.67988 12.6554 6.07219 13.2621 5.47577 13.8792C4.9235 14.4503 4.9188 15.0429 5.47859 15.6074C7.11475 17.2586 8.75842 18.9023 10.4096 20.5384C10.9769 21.1001 11.5583 21.0898 12.1331 20.5318C12.7483 19.9335 13.3635 19.3343 13.9477 18.7069C14.1591 18.4805 14.2812 18.1715 14.4747 17.8503V17.8494Z" fill="#00AEC7"/>
<path d="M21.9567 11.6119C21.9689 12.3323 21.6796 12.9202 21.1884 13.4171C20.5628 14.0492 19.9411 14.686 19.2996 15.3031C18.2054 16.3569 16.7965 16.372 15.7098 15.3069C14.0267 13.6566 12.3614 11.9885 10.7093 10.3082C9.64134 9.22151 9.65167 7.8164 10.7074 6.7203C11.3245 6.07974 11.9538 5.4495 12.5943 4.83336C13.6942 3.77483 15.0955 3.76168 16.1803 4.82772C17.8616 6.47985 19.5175 8.1564 21.1837 9.82356C21.6787 10.3195 21.967 10.9056 21.9557 11.6119H21.9567ZM17.5037 14.8194C17.8174 14.6353 18.1161 14.5245 18.3312 14.3235C18.969 13.7271 19.5823 13.1034 20.19 12.476C20.7451 11.904 20.7488 11.3254 20.1825 10.7534C18.5463 9.10222 16.9026 7.45761 15.2496 5.82238C14.6823 5.26166 14.1018 5.2748 13.5232 5.83459C12.9071 6.43195 12.2985 7.03776 11.703 7.65579C11.1535 8.22591 11.1535 8.81669 11.7133 9.38118C13.3504 11.0314 14.9931 12.6779 16.65 14.3075C16.8688 14.5226 17.1872 14.6353 17.5028 14.8203L17.5037 14.8194Z" fill="#00AEC7"/>
</g>
<defs>
<clipPath id="clip0_638_865">
<rect width="48" height="42.5327" fill="white"/>
</clipPath>
</defs>
</svg>
