<svg width="48" height="41" viewBox="0 0 48 41" fill="none" xmlns="http://www.w3.org/2000/svg">
<g clip-path="url(#clip0_637_813)">
<path d="M10.9672 40.4757C10.9146 40.4466 10.8658 40.4062 10.8095 40.3893C9.38892 39.9556 8.6256 38.9322 8.62467 37.4393C8.62185 34.4574 8.62467 31.4755 8.62467 28.4936C8.62467 28.3236 8.62467 28.1537 8.62467 27.918C8.43407 27.918 8.26882 27.918 8.10452 27.918C6.91776 27.918 5.73006 27.9218 4.5433 27.9161C3.90391 27.9133 3.47859 27.5378 3.47296 26.9894C3.46732 26.4355 3.88607 26.0496 4.52546 26.0468C5.86807 26.0402 7.20975 26.0449 8.62467 26.0449V25.4853C8.62467 22.3156 8.63405 19.1469 8.61528 15.9772C8.61246 15.4241 8.79742 15.0411 9.2265 14.6984C10.7635 13.4703 12.276 12.2122 13.8055 10.9757C14.044 10.7832 14.1491 10.5842 14.1472 10.2677C14.1332 7.8792 14.1369 5.49065 14.1407 3.10211C14.1425 1.18301 15.3199 0.00469551 17.2306 0.00281772C19.621 0.00093993 22.0105 0.0056344 24.4009 1.03578e-06C24.8459 -0.000937858 25.2008 0.134263 25.4018 0.549254C25.7125 1.19334 25.2412 1.86746 24.4619 1.87309C22.9785 1.88342 21.4941 1.87591 20.0097 1.87591C19.0727 1.87591 18.1357 1.87309 17.1977 1.87591C16.3762 1.87873 16.0166 2.22894 16.0156 3.04014C16.0128 8.41061 16.0109 13.7811 16.0269 19.1516C16.0269 19.3431 16.163 19.5975 16.317 19.7158C20.2106 22.694 24.1173 25.6553 28.0138 28.6288C28.2466 28.8071 28.3884 28.794 28.6128 28.6231C32.5101 25.6496 36.4159 22.6884 40.3095 19.7102C40.4625 19.5928 40.5893 19.3337 40.5902 19.1412C40.6053 13.7867 40.6034 8.43127 40.6015 3.07582C40.6015 2.22706 40.2504 1.87685 39.4082 1.87591C37.0337 1.87309 34.6592 1.88436 32.2857 1.86371C31.9956 1.86089 31.6623 1.7623 31.4276 1.59612C31.114 1.37454 31.0407 1.00274 31.1853 0.625304C31.3421 0.215947 31.652 0.00845108 32.0867 0.00469551C32.9617 -0.00187675 33.8358 0.00187882 34.7109 0.00187882C36.3042 0.00187882 37.8975 -0.00281565 39.4908 0.00281772C41.2512 0.00938998 42.469 1.21305 42.4755 2.97066C42.4849 5.37517 42.4859 7.77968 42.4699 10.1832C42.468 10.5447 42.5722 10.7823 42.8567 11.0104C44.3909 12.2413 45.9016 13.5022 47.4366 14.7331C47.8394 15.0561 48.0019 15.427 48.0009 15.9405C47.9906 23.0912 47.9944 30.2418 47.9934 37.3915C47.9934 38.9547 47.2686 39.9246 45.7617 40.3978C45.7203 40.4109 45.6875 40.4485 45.6499 40.4748H10.9672V40.4757ZM33.4734 27.2861C33.3758 27.3584 33.2509 27.4495 33.127 27.5434C31.7468 28.5912 30.3694 29.6428 28.9855 30.6859C28.4954 31.0549 28.1161 31.0436 27.6241 30.6784C27.3481 30.4737 27.0758 30.2643 26.8026 30.0559C25.5736 29.1236 24.3455 28.1903 23.232 27.3453C19.4407 31.1347 15.6861 34.8865 12.0066 38.5651H44.757C40.993 34.8029 37.2403 31.052 33.4725 27.2861H33.4734ZM10.5344 17.6944V36.9877C14.1726 33.3523 17.8324 29.6963 21.5025 26.029C17.8915 23.2846 14.2402 20.5101 10.5344 17.6944ZM46.079 37.0572V17.7C42.3694 20.5195 38.7124 23.2987 35.0789 26.0599C38.7641 29.7442 42.4154 33.3946 46.079 37.0572ZM42.4934 18.07C43.5825 17.2428 44.5871 16.4795 45.6302 15.687C44.5646 14.8186 43.5609 13.9989 42.4934 13.1286V18.07ZM14.0975 18.0437V13.1492C13.0328 14.0205 12.0291 14.842 10.9944 15.6889C12.0497 16.4898 13.0487 17.2475 14.0975 18.0437Z" fill="#0033A0"/>
<path d="M0 32.6998C0.270401 32.1872 0.692904 32.02 1.26845 32.0304C2.77913 32.0595 4.29074 32.0379 5.80236 32.0416C6.50935 32.0435 6.94593 32.4181 6.93279 32.9974C6.91965 33.5617 6.49527 33.9119 5.808 33.9128C4.29638 33.9156 2.78476 33.8941 1.27408 33.9241C0.699476 33.9354 0.276974 33.7664 0 33.2612V32.6988V32.6998Z" fill="#0033A0"/>
<path d="M28.3377 5.99202C32.5289 6.00235 35.9127 9.40584 35.9071 13.6046C35.9014 17.8118 32.4764 21.204 28.2551 21.1824C24.0695 21.1617 20.696 17.747 20.7101 13.5445C20.7242 9.35983 24.1362 5.98075 28.3377 5.99202ZM22.5842 13.5717C22.5785 16.7273 25.1333 19.2999 28.2814 19.3093C31.4417 19.3187 34.019 16.7705 34.0321 13.6252C34.0452 10.4414 31.4877 7.86793 28.3114 7.86605C25.1539 7.86511 22.5898 10.4198 22.5842 13.5717Z" fill="#00AEC7"/>
<path d="M29.2418 0.921995C29.2522 1.43745 28.8175 1.87591 28.302 1.8731C27.8035 1.87028 27.3847 1.45529 27.3744 0.956735C27.3641 0.441282 27.7978 0.00281821 28.3142 0.00657378C28.8128 0.0103294 29.2325 0.424382 29.2418 0.921995Z" fill="#00AEC7"/>
<path d="M27.8129 13.7567C28.5771 12.9877 29.2663 12.2911 29.961 11.6C30.4389 11.124 31.0051 11.0808 31.4032 11.477C31.8088 11.8808 31.7694 12.4281 31.2849 12.9173C30.3958 13.813 29.5047 14.7068 28.6072 15.5941C28.0889 16.1067 27.5885 16.0983 27.0627 15.5819C26.5745 15.1012 26.0881 14.6176 25.6083 14.1275C25.1539 13.6628 25.1304 13.1192 25.5332 12.722C25.9266 12.3352 26.4796 12.3662 26.9378 12.8197C27.2251 13.1041 27.4899 13.4102 27.8119 13.7567H27.8129Z" fill="#00AEC7"/>
</g>
<defs>
<clipPath id="clip0_637_813">
<rect width="48" height="40.4757" fill="white"/>
</clipPath>
</defs>
</svg>
