<svg width="48" height="48" viewBox="0 0 48 48" fill="none" xmlns="http://www.w3.org/2000/svg">
<mask id="mask0_637_821" style="mask-type:alpha" maskUnits="userSpaceOnUse" x="0" y="0" width="48" height="49">
<rect y="0.00012207" width="48" height="48" fill="#C4C4C4"/>
</mask>
<g mask="url(#mask0_637_821)">
</g>
<mask id="mask1_637_821" style="mask-type:alpha" maskUnits="userSpaceOnUse" x="5" y="0" width="38" height="48">
<path fill-rule="evenodd" clip-rule="evenodd" d="M5.25018 0.261505H42.5887V47.9999H5.25018V0.261505Z" fill="white"/>
</mask>
<g mask="url(#mask1_637_821)">
</g>
<mask id="mask2_637_821" style="mask-type:alpha" maskUnits="userSpaceOnUse" x="5" y="0" width="38" height="48">
<path fill-rule="evenodd" clip-rule="evenodd" d="M5.25 47.25H42.75V0H5.25V47.25Z" fill="white"/>
</mask>
<g mask="url(#mask2_637_821)">
<path fill-rule="evenodd" clip-rule="evenodd" d="M40.2836 46.6009H37.4421V40.9286C37.4421 40.5437 37.1233 40.2298 36.7314 40.2298C36.3396 40.2298 36.0208 40.5437 36.0208 40.9286V46.6009H27.0939L25.7289 36.9473L26.6749 35.8646L26.8914 35.955C27.1071 36.0446 27.333 36.088 27.5542 36.088C28.0821 36.088 28.5921 35.8415 28.9174 35.3929L32.1686 30.9141L36.2646 31.6637C36.4783 31.7273 36.6874 31.8012 36.8908 31.8824C36.1399 32.7086 36.0846 33.976 36.8139 34.8677L37.5864 35.812C37.9802 36.2901 38.5389 36.591 39.1605 36.6566C39.2458 36.6649 39.3302 36.6704 39.4146 36.6704C39.9424 36.6704 40.4496 36.496 40.8677 36.1683C41.0655 36.8052 41.1677 37.4707 41.1677 38.1529V45.7304C41.1677 46.2104 40.7711 46.6009 40.2836 46.6009ZM22.1796 46.6009L23.4761 37.4301H24.363L25.6586 46.6009H22.1796ZM20.3917 34.6673C20.2783 34.7144 20.1489 34.6784 20.0777 34.5806L17.2127 30.6326L17.958 30.4969C17.9983 30.4895 18.0405 30.4997 18.0733 30.5227L18.2589 30.6593C18.2608 30.6603 18.2617 30.6612 18.2627 30.6612L22.5039 33.784L20.3917 34.6673ZM18.7324 25.1735C17.2774 23.9403 16.4186 22.0914 16.3755 20.1012C16.3671 19.7218 16.0511 19.4172 15.6649 19.4172H15.0996C14.6674 19.4172 14.3158 19.071 14.3158 18.6455V17.0154C14.3158 16.78 14.4236 16.563 14.6036 16.4181C14.8539 16.4394 15.3217 16.5132 15.7183 16.7615C15.7221 16.7643 15.7267 16.767 15.7305 16.7689C15.7867 16.8049 15.8411 16.8437 15.8927 16.887L15.9105 16.9018C15.9367 16.924 15.9611 16.9461 15.9855 16.9692C16.0061 16.9895 16.0286 17.0089 16.0511 17.0274C16.0577 17.0329 16.0642 17.0375 16.0708 17.043C16.0877 17.056 16.1055 17.0689 16.1233 17.0809C16.1299 17.0846 16.1374 17.0901 16.1439 17.0947C16.1683 17.1095 16.1927 17.1243 16.218 17.1372C16.2433 17.1501 16.2696 17.1621 16.2958 17.1732C16.3033 17.176 16.3108 17.1787 16.3183 17.1815C16.338 17.1889 16.3577 17.1963 16.3783 17.2027C16.3867 17.2046 16.3942 17.2074 16.4017 17.2092C16.4289 17.2166 16.4552 17.224 16.4824 17.2295H16.4842C16.5124 17.235 16.5405 17.2387 16.5686 17.2415C16.5761 17.2424 16.5846 17.2434 16.5921 17.2434C16.6127 17.2452 16.6352 17.2461 16.6567 17.247H16.6708H16.6811C16.7092 17.2461 16.7364 17.2452 16.7646 17.2424H16.7674C16.7955 17.2397 16.8246 17.236 16.8527 17.2304C16.8611 17.2286 16.8686 17.2267 16.8771 17.2249C16.8986 17.2203 16.9192 17.2157 16.9408 17.2092C16.9483 17.2074 16.9567 17.2046 16.9652 17.2018C16.9933 17.1935 17.0214 17.1843 17.0486 17.1732C17.4152 17.0218 17.6514 16.6729 17.6514 16.2824V14.6089C19.4814 15.1766 21.7305 15.4692 23.9196 15.4692C26.1086 15.4692 28.3577 15.1766 30.1867 14.6089V16.2824C30.1867 16.6729 30.423 17.0227 30.7896 17.1732C30.8167 17.1843 30.8458 17.1935 30.8739 17.2027C30.8814 17.2046 30.8899 17.2074 30.8974 17.2092C30.9199 17.2157 30.9405 17.2203 30.963 17.2258C30.9705 17.2267 30.978 17.2286 30.9855 17.2304C31.0427 17.2406 31.1008 17.2461 31.1589 17.247H31.1674H31.1814C31.203 17.2461 31.2255 17.2452 31.2471 17.2434C31.2546 17.2434 31.2621 17.2424 31.2696 17.2415C31.3258 17.236 31.383 17.2249 31.4374 17.2092L31.4599 17.2027C31.4796 17.1963 31.5011 17.1889 31.5208 17.1815C31.5283 17.1787 31.5358 17.176 31.5433 17.1732C31.5696 17.1621 31.5949 17.1501 31.6211 17.1372C31.6464 17.1234 31.6699 17.1095 31.6942 17.0947C31.7017 17.0901 31.7092 17.0846 31.7158 17.0809C31.7336 17.068 31.7505 17.056 31.7674 17.043C31.7749 17.0375 31.7824 17.0329 31.7871 17.0274C31.8105 17.0089 31.833 16.9895 31.8536 16.9692C31.8771 16.9461 31.9033 16.924 31.9277 16.9027C31.9342 16.8972 31.9408 16.8917 31.9464 16.8861C31.9708 16.8667 31.9942 16.8483 32.0186 16.8307C32.0205 16.8289 32.0224 16.827 32.0252 16.8261C32.0514 16.8067 32.0777 16.7892 32.1039 16.7717L32.1264 16.7578C32.1499 16.743 32.1742 16.7292 32.1996 16.7154C32.2024 16.7135 32.2061 16.7117 32.2099 16.7089C32.2371 16.6941 32.2652 16.6794 32.2933 16.6655C32.2999 16.6627 32.3074 16.659 32.3149 16.6563C32.3392 16.6443 32.3646 16.6323 32.3899 16.6212C32.3936 16.6203 32.3974 16.6184 32.4011 16.6175C32.4302 16.6046 32.4583 16.5935 32.4883 16.5824C32.4921 16.5806 32.4977 16.5787 32.5033 16.5769C32.5305 16.5667 32.5586 16.5566 32.5858 16.5474C32.5877 16.5474 32.5896 16.5464 32.5905 16.5464C32.6214 16.5363 32.6514 16.527 32.6824 16.5187C32.6833 16.5187 32.6852 16.5178 32.6861 16.5178C32.9027 16.4569 33.1005 16.4292 33.2346 16.4181C33.4155 16.5621 33.5233 16.78 33.5233 17.0144V18.6455C33.5233 19.071 33.1717 19.4172 32.7396 19.4172H32.1742C31.7871 19.4172 31.473 19.7209 31.4636 20.1012C31.4214 22.0914 30.5608 23.9403 29.1067 25.1735C27.5983 26.4529 25.8527 27.1129 23.9196 27.135C21.9864 27.1138 20.2417 26.4529 18.7324 25.1735ZM31.608 14.0763C32.0467 13.8732 32.4124 13.6627 32.718 13.4495V15.075C32.3936 15.1323 31.998 15.2394 31.608 15.4397V14.0763ZM16.2311 14.0763V15.4397C15.8402 15.2403 15.4446 15.1332 15.1211 15.076V13.4495C15.4258 13.6627 15.7924 13.8732 16.2311 14.0763ZM16.1636 12.4507L16.1336 12.4323C16.0877 12.4037 16.0436 12.3741 16.0005 12.3446C15.9836 12.3326 15.9658 12.3206 15.948 12.3095C15.9133 12.2846 15.8796 12.2597 15.8458 12.2347C15.8233 12.2172 15.8008 12.2006 15.7792 12.183C15.753 12.1627 15.7277 12.1424 15.7033 12.1212C15.6771 12.1 15.6517 12.0778 15.6274 12.0557C15.6096 12.039 15.5908 12.0233 15.573 12.0058C15.5449 11.98 15.5186 11.9532 15.4942 11.9274C15.4821 11.9144 15.4689 11.9015 15.4577 11.8895C15.4567 11.8877 15.4558 11.8867 15.4539 11.8849H27.3817C27.7736 11.8849 28.0924 11.572 28.0924 11.1852C28.0924 10.7994 27.7736 10.4855 27.3817 10.4855H15.1211V8.69658C15.1211 8.35689 15.3527 8.05597 15.6855 7.96366C17.6242 7.42735 20.5474 6.78766 23.4658 6.78766H23.4742C26.8746 6.7895 30.3611 7.53904 32.1358 7.98489C32.478 8.07166 32.718 8.37443 32.718 8.72335V10.4855H30.8121C30.4202 10.4855 30.1024 10.7994 30.1024 11.1852C30.1024 11.572 30.4202 11.8849 30.8121 11.8849H32.3842C32.3842 11.8867 32.3824 11.8886 32.3814 11.8895C32.3702 11.9015 32.3571 11.9144 32.3449 11.9274C32.3205 11.9532 32.2942 11.98 32.2652 12.0058C32.2492 12.0233 32.2305 12.039 32.2127 12.0557C32.1864 12.0778 32.163 12.1 32.1367 12.1212C32.1114 12.1424 32.0861 12.1627 32.0608 12.183C32.0383 12.2006 32.0167 12.2172 31.9924 12.2347C31.9596 12.2597 31.9258 12.2846 31.8902 12.3095C31.8733 12.3206 31.8564 12.3326 31.8386 12.3446C31.7946 12.3741 31.7505 12.4037 31.7055 12.4323C31.6961 12.4387 31.6849 12.4452 31.6755 12.4507C31.3802 12.6344 31.0277 12.8107 30.6264 12.9741C30.6171 12.9778 30.6105 12.9824 30.6021 12.9861C29.0796 13.6037 26.7921 14.0707 23.9196 14.0707C21.0471 14.0707 18.7596 13.6037 17.2371 12.9861C17.2296 12.9824 17.2211 12.9778 17.2136 12.9741C16.8105 12.8107 16.4589 12.6344 16.1636 12.4507ZM13.6999 9.99535C12.7867 9.44058 12.2955 8.82858 12.2955 8.22304C12.2955 6.96212 14.0064 5.24797 15.5955 4.18827C17.0121 3.24397 19.9764 1.65997 23.9196 1.65997C27.8617 1.65997 30.8261 3.24397 32.2436 4.18827C33.8327 5.24797 35.5436 6.96212 35.5436 8.22304C35.5436 8.82858 35.0524 9.44058 34.1383 9.99535V8.72335C34.1383 7.73566 33.4596 6.87443 32.4874 6.62981C30.6489 6.16643 27.0311 5.39012 23.4742 5.3892H23.4658C20.3852 5.3892 17.3261 6.05658 15.3011 6.61689C14.358 6.87812 13.6999 7.73289 13.6999 8.69658V9.99535ZM25.3024 35.2904L24.6555 36.0317H23.1836L22.5367 35.2904L23.9196 34.7126L25.3024 35.2904ZM23.9196 33.0787L19.7796 30.0326C20.1705 29.5258 20.4067 28.8833 20.4067 28.2418V27.8329C21.5027 28.2852 22.6736 28.5215 23.9121 28.5353H23.9196H23.9271C25.1655 28.5215 26.3364 28.2852 27.4324 27.8329V28.2418C27.4324 28.8833 27.6686 29.5258 28.0596 30.0326L23.9196 33.0787ZM29.5764 30.6612C29.5774 30.6612 29.5783 30.6603 29.5792 30.6593L29.7649 30.5227C29.7986 30.4987 29.8408 30.4895 29.8811 30.4969L30.6264 30.6326L27.7614 34.5806C27.6892 34.6784 27.5599 34.7144 27.4464 34.6673L25.3352 33.784L29.5764 30.6612ZM38.0589 32.7132L38.2146 32.5895C38.5333 32.8083 38.8314 33.0501 39.1061 33.316C39.1117 33.3224 39.1192 33.3289 39.1249 33.3354C39.1999 33.4073 39.2711 33.4821 39.3424 33.5578C39.3649 33.5809 39.3846 33.604 39.4061 33.6261C39.4783 33.7046 39.5477 33.7849 39.6152 33.867C39.6321 33.8864 39.6461 33.9049 39.663 33.9252C39.7221 33.999 39.7811 34.0747 39.8383 34.1513C39.858 34.1772 39.8767 34.204 39.8964 34.2317C39.9602 34.3193 40.0239 34.4098 40.083 34.5021C40.0839 34.504 40.0839 34.5049 40.0858 34.5049C40.1552 34.6138 40.2217 34.7237 40.2855 34.8353L39.9892 35.0698C39.7961 35.2221 39.5571 35.2913 39.3124 35.2664C39.0677 35.2397 38.8483 35.1215 38.6936 34.9323L37.9202 33.9898C37.6014 33.6003 37.6633 33.027 38.0589 32.7132ZM9.91893 33.9898L9.1455 34.9332C8.99175 35.1215 8.77143 35.2397 8.52675 35.2664C8.28206 35.2913 8.04206 35.223 7.84987 35.0698L7.55362 34.8353C7.61737 34.7237 7.68393 34.6138 7.75331 34.5058C7.75425 34.5049 7.75518 34.504 7.75612 34.5021C7.81612 34.4098 7.87893 34.3203 7.94268 34.2317C7.96143 34.204 7.98112 34.1781 8.00081 34.1513C8.058 34.0747 8.11612 33.999 8.17612 33.9252C8.19206 33.9049 8.208 33.8864 8.223 33.867C8.29143 33.7849 8.36081 33.7046 8.433 33.6261C8.45362 33.604 8.47518 33.5809 8.49675 33.5587C8.56706 33.4821 8.63925 33.4073 8.71425 33.3354L8.733 33.316C9.00768 33.051 9.30581 32.8083 9.62456 32.5904L9.78018 32.7132C9.97143 32.8655 10.0914 33.0824 10.1177 33.3224C10.1439 33.5643 10.0736 33.8006 9.91893 33.9898ZM41.3917 33.9252L41.3749 33.8975C41.3336 33.832 41.2924 33.7673 41.2492 33.7027C41.2258 33.6667 41.2024 33.6307 41.178 33.5966C41.1489 33.5532 41.1199 33.5107 41.0889 33.4683C41.0505 33.4138 41.0102 33.3584 40.9699 33.3058C40.9586 33.2892 40.9464 33.2735 40.9352 33.2569C40.9267 33.2458 40.9174 33.2357 40.908 33.2237C40.8602 33.16 40.8105 33.0981 40.7608 33.0363C40.743 33.0141 40.7252 32.9929 40.7074 32.9707C40.6567 32.9117 40.6061 32.8517 40.5546 32.7935C40.533 32.7695 40.5114 32.7437 40.4899 32.7206C40.4467 32.6717 40.4027 32.6246 40.3586 32.5784C40.3249 32.5433 40.293 32.5073 40.2583 32.4732C40.233 32.4483 40.2067 32.4233 40.1824 32.3975C39.2017 31.4209 37.9933 30.7064 36.6321 30.3123C36.6086 30.3049 36.5852 30.2993 36.5608 30.2957C36.5608 30.2957 30.1417 29.1206 30.1408 29.1206C30.1296 29.1187 30.1174 29.1187 30.1071 29.1169C29.8061 29.068 29.4986 29.1077 29.2239 29.2267C29.0008 28.9563 28.8536 28.5852 28.8536 28.2418V27.0981C29.2586 26.8433 29.6524 26.5563 30.033 26.2341C31.6249 24.8855 32.6261 22.9378 32.8427 20.8138C34.0108 20.7612 34.9446 19.8086 34.9446 18.6455V17.0154C34.9446 16.3554 34.6436 15.7452 34.1383 15.3381V11.5895C36.4605 10.4634 36.9649 9.14981 36.9649 8.22304C36.9649 6.6335 35.4602 4.64335 33.0396 3.02981C31.4889 1.99597 28.2405 0.261505 23.9196 0.261505C19.5977 0.261505 16.3502 1.99597 14.7986 3.02981C12.378 4.64335 10.8742 6.6335 10.8742 8.22304C10.8742 9.14981 11.3786 10.4634 13.6999 11.5895V15.3381C13.1946 15.7452 12.8946 16.3554 12.8946 17.0154V18.6455C12.8946 19.8086 13.8283 20.7612 14.9964 20.8138C15.2121 22.9378 16.2152 24.8855 17.8052 26.2341C18.1858 26.5563 18.5805 26.8433 18.9855 27.0981V28.2418C18.9855 28.5852 18.8383 28.9563 18.6152 29.2267C18.3292 29.104 18.0096 29.0643 17.6983 29.1206L11.2783 30.2957C11.2539 30.2993 11.2305 30.3049 11.2071 30.3123C9.84675 30.7064 8.63925 31.419 7.65862 32.3957L7.57987 32.4732C7.54706 32.5073 7.51425 32.5434 7.48237 32.5775C7.43737 32.6246 7.39237 32.6717 7.34925 32.7206C7.32768 32.7437 7.30612 32.7695 7.28456 32.7926C7.233 32.8517 7.18143 32.9117 7.13081 32.9717C7.11393 32.9929 7.09612 33.0141 7.07925 33.0363C7.02862 33.0981 6.97893 33.16 6.93018 33.2237C6.92175 33.2357 6.91237 33.2449 6.90393 33.2569C6.89175 33.2735 6.8805 33.2892 6.86831 33.3058C6.828 33.3584 6.78862 33.4138 6.74925 33.4683C6.71925 33.5107 6.69018 33.5532 6.66112 33.5966C6.63675 33.6317 6.61331 33.6667 6.58987 33.7027C6.54675 33.7673 6.5055 33.832 6.46425 33.8975C6.45862 33.9067 6.453 33.916 6.44737 33.9252C5.66268 35.1981 5.25018 36.6446 5.25018 38.1529V39.0049C5.25018 39.3917 5.568 39.7046 5.96081 39.7046C6.35268 39.7046 6.6705 39.3917 6.6705 39.0049V38.1529C6.6705 37.4707 6.77362 36.8052 6.97143 36.1683C7.38956 36.496 7.89675 36.6704 8.42456 36.6704C8.508 36.6704 8.59331 36.6649 8.67862 36.6566C9.30018 36.591 9.85893 36.2901 10.2517 35.812L11.0252 34.8677C11.4171 34.3886 11.5971 33.7858 11.5305 33.1738C11.4771 32.6873 11.2736 32.2397 10.9474 31.8824C11.1517 31.8012 11.3599 31.7273 11.5736 31.6637L15.6714 30.9141L18.9217 35.3938C19.2471 35.8415 19.7561 36.088 20.2849 36.088C20.5061 36.088 20.7321 36.0446 20.9477 35.955L21.1642 35.8646L22.1102 36.9473L20.7461 46.6009H11.8183V40.9286C11.8183 40.5437 11.4996 40.2298 11.1077 40.2298C10.7149 40.2298 10.3971 40.5437 10.3971 40.9286V46.6009H7.5555C7.068 46.6009 6.6705 46.2104 6.6705 45.7304V42.2606C6.6705 41.8738 6.35268 41.5609 5.96081 41.5609C5.568 41.5609 5.25018 41.8738 5.25018 42.2606V45.7304C5.25018 46.9812 6.28425 48.0003 7.5555 48.0003H40.2836C41.5539 48.0003 42.5889 46.9812 42.5889 45.7304V38.1529C42.5889 36.6455 42.1764 35.1981 41.3917 33.9252Z" fill="#0033A0"/>
<path fill-rule="evenodd" clip-rule="evenodd" d="M30.4097 42.7669H33.6626V41.2321H30.4097V42.7669ZM33.9249 39.75H30.1474C29.5008 39.75 28.9745 40.2936 28.9745 40.9603V43.0387C28.9745 43.7064 29.5008 44.25 30.1474 44.25H33.9249C34.5715 44.25 35.0969 43.7064 35.0969 43.0387V40.9603C35.0969 40.2936 34.5715 39.75 33.9249 39.75Z" fill="#00AEC7"/>
<path fill-rule="evenodd" clip-rule="evenodd" d="M14.3373 42.7676H17.5903V41.2324H14.3373V42.7676ZM17.8535 39.75H14.0751C13.4285 39.75 12.903 40.2937 12.903 40.9606V43.0394C12.903 43.7073 13.4285 44.25 14.0751 44.25H17.8535C18.4991 44.25 19.0255 43.7073 19.0255 43.0394V40.9606C19.0255 40.2937 18.4991 39.75 17.8535 39.75Z" fill="#00AEC7"/>
</g>
</svg>
