<svg width="49" height="48" viewBox="0 0 49 48" fill="none" xmlns="http://www.w3.org/2000/svg">
<g clip-path="url(#clip0_638_834)">
<path d="M11.6339 48C10.716 47.6364 10.3233 46.96 10.4059 45.9801C10.4369 45.608 10.4059 45.2304 10.4125 44.8555C10.4275 43.8718 11.0749 43.2132 12.067 43.2095C14.536 43.2001 17.005 43.2057 19.474 43.2057C19.6271 43.2057 19.7803 43.2057 19.9672 43.2057V32.7998C19.2532 32.7998 18.5251 32.8167 17.7989 32.7914C17.4945 32.781 17.1675 32.7359 16.8951 32.611C16.3426 32.3573 16.0429 31.8885 16.0251 31.2722C16.0101 30.7433 16.0223 30.2134 16.0223 29.6431H14.3406C14.0559 30.9819 13.3654 32.0783 12.1891 32.8374C11.3661 33.3692 10.4585 33.6134 9.47771 33.5843C7.22103 33.5167 5.74131 32.2559 4.84315 29.6018C3.86138 29.6018 2.86457 29.6027 1.86682 29.6018C0.61916 29.5999 0.00754506 28.9817 0.00566606 27.7228C0.00566606 27.3009 0.00754506 26.8791 0.00566606 26.4563C0.00190805 25.9415 0.206719 25.5281 0.569366 25.1655C0.69338 25.0414 0.793907 24.8319 0.798604 24.6591C0.820213 23.6904 0.802362 22.7209 0.811757 21.7523C0.822092 20.6145 1.45156 20.0029 2.59775 19.9888C3.22064 19.9813 3.9215 20.1354 4.4448 19.8996C4.9512 19.6713 5.2772 19.039 5.67837 18.5805C6.83114 17.2643 7.99518 15.9565 9.12915 14.6233C9.74077 13.9046 10.4792 13.5777 11.4234 13.5805C16.1425 13.5955 20.8616 13.5936 25.5807 13.5805C26.338 13.5786 26.9759 13.8031 27.5621 14.2767C29.8104 16.0927 32.0661 17.9003 34.3369 19.6882C34.584 19.8826 34.941 20.0132 35.2567 20.0358C38.513 20.2754 41.7712 20.4811 45.0284 20.7085C46.1793 20.7883 47.0962 21.7175 47.1902 22.8684C47.2127 23.1483 47.2071 23.4302 47.2099 23.712C47.2165 24.365 47.0671 25.0518 47.737 25.5272C47.8817 25.6305 47.9268 25.8748 48.0179 26.0542V28.3992C47.613 29.3462 46.8783 29.6666 45.8815 29.6121C44.9795 29.5623 44.0729 29.6018 43.1842 29.6018C42.1845 32.3423 40.7255 33.5636 38.4575 33.5871C36.183 33.6097 34.7371 32.4221 33.6492 29.6403C33.1127 29.6403 32.5753 29.6403 32.0041 29.6403C32.0041 30.0819 32.0041 30.4858 32.0041 30.8898C32.0013 32.2192 31.4197 32.7998 30.0894 32.8008C29.4083 32.8008 28.7271 32.8008 28.0526 32.8008V43.2067C28.2536 43.2067 28.4218 43.2067 28.5909 43.2067C31.0129 43.2067 33.4359 43.2029 35.8579 43.2085C36.9712 43.2104 37.6035 43.8455 37.612 44.9476C37.6148 45.2914 37.5885 45.6372 37.6167 45.9791C37.6994 46.9581 37.3076 47.6355 36.3906 48.0019H11.6339V48ZM1.62724 27.999C2.58178 27.999 3.5147 27.983 4.44668 28.0074C4.77551 28.0159 4.8967 27.9116 4.97844 27.5941C5.52711 25.4576 7.42772 23.992 9.61112 23.993C11.7936 23.993 13.7045 25.467 14.241 27.5988C14.3255 27.9342 14.4618 28.0056 14.7774 28.0046C20.933 27.9962 27.0877 27.9952 33.2433 28.0065C33.6022 28.0065 33.7037 27.8815 33.7892 27.5527C34.4017 25.1833 36.7467 23.651 39.1537 24.0662C41.1999 24.4195 42.487 25.6455 43.0677 27.6345C43.1071 27.7698 43.2443 27.9783 43.3411 27.9811C44.351 28.0065 45.3619 27.9971 46.385 27.9971V26.3924C45.8364 26.3924 45.3206 26.4122 44.8076 26.3868C44.3228 26.3624 44.0006 26.0044 44.0156 25.5685C44.0297 25.1485 44.3416 24.8394 44.8104 24.8047C45.0556 24.7859 45.3037 24.8019 45.6081 24.8019C45.6081 24.2485 45.6137 23.7524 45.6071 23.2573C45.5987 22.5865 45.3553 22.3366 44.6808 22.2896C43.1071 22.1797 41.5344 22.066 39.9598 21.9627C38.0122 21.8349 36.0637 21.616 34.1152 21.6094C23.7262 21.5737 13.3372 21.5925 2.94912 21.5935C2.78377 21.5935 2.61842 21.6085 2.44273 21.617V24.7944C2.65412 24.7944 2.83826 24.7906 3.0224 24.7944C3.64999 24.8103 4.02015 25.1204 4.00606 25.6145C3.99197 26.0946 3.63026 26.3877 3.02898 26.3962C2.56674 26.4028 2.10451 26.3971 1.62724 26.3971V27.9999V27.999ZM17.6382 19.9418H32.0736C30.1138 18.3757 28.2414 16.8678 26.3493 15.3862C26.1632 15.2406 25.856 15.1945 25.6042 15.1936C23.1042 15.1795 20.6051 15.1852 18.1051 15.1852H17.6382V19.9418ZM35.9895 44.8348H12.0454V46.3784H35.9895V44.8348ZM24.8122 32.8205C24.8122 33.9338 24.8122 34.9954 24.8122 36.0561C24.8122 37.5715 24.816 39.086 24.8094 40.6014C24.8066 41.2328 24.4956 41.6048 24.0024 41.5992C23.511 41.5935 23.2179 41.2224 23.2066 40.5873C23.2047 40.4784 23.2066 40.3684 23.2066 40.2595C23.2066 37.9633 23.2066 35.6672 23.2066 33.371C23.2066 33.1916 23.2066 33.0122 23.2066 32.8243H21.6414V43.1841H26.3831V32.8205H24.8122ZM16.0166 15.1852C14.4373 15.1852 12.9247 15.1955 11.4131 15.1786C10.9696 15.1739 10.6427 15.3167 10.3533 15.653C9.21183 16.9787 8.05343 18.2902 6.90348 19.6083C6.81798 19.706 6.74846 19.8178 6.64699 19.9569H15.9819C15.995 19.8394 16.0148 19.7492 16.0148 19.6581C16.0166 18.1915 16.0157 16.7259 16.0157 15.1842L16.0166 15.1852ZM38.4153 31.9843C40.1796 31.9843 41.6105 30.5638 41.6189 28.8041C41.6274 27.0398 40.1608 25.5807 38.389 25.592C36.6358 25.6033 35.2031 27.0548 35.2153 28.807C35.2275 30.576 36.6462 31.9843 38.4153 31.9834V31.9843ZM9.62145 31.9843C11.3896 31.9787 12.8054 30.5591 12.8035 28.7919C12.8017 27.0322 11.3717 25.5967 9.61675 25.592C7.84767 25.5882 6.38299 27.0585 6.40272 28.8201C6.42245 30.5826 7.85331 31.99 9.62145 31.9843ZM17.6401 31.1707H30.3675V29.629H17.6401V31.1707Z" fill="#0033A0"/>
<path d="M48.0179 10.296C46.975 12.3723 45.3572 13.7468 43.0676 14.2268C39.9983 14.8704 36.8857 13.4781 35.2829 10.7789C35.1166 10.498 34.9466 10.3993 34.6262 10.4003C26.7185 10.4031 18.8107 10.3984 10.9029 10.3834C10.4416 10.3834 10.1109 10.5252 9.80464 10.8728C8.16051 12.7434 5.59474 13.3071 3.3653 12.3112C1.16218 11.3257 -0.209494 9.0145 0.0263208 6.68266C0.277167 4.19769 2.04812 2.19092 4.49834 1.71083C6.55866 1.30779 8.33338 1.91376 9.7586 3.45454C10.1081 3.83222 10.4651 4.00321 10.9762 4.00227C18.837 3.99194 26.6978 3.99288 34.5586 4.00227C34.909 4.00227 35.0969 3.90832 35.2886 3.59077C36.6969 1.25236 38.7873 -0.00187689 41.5146 2.10815e-06C44.242 0.00188111 46.323 1.25799 47.7473 3.59077C47.8347 3.73357 47.9277 3.87168 48.0179 4.0126V4.66932C47.7341 5.37206 47.2024 5.61915 46.462 5.60412C45.1054 5.57499 43.7469 5.59566 42.3893 5.59566C42.146 5.59566 41.9017 5.59566 41.6584 5.59566V8.75332C41.7232 8.77117 41.7523 8.78714 41.7815 8.78714C43.326 8.78996 44.8715 8.8219 46.4151 8.78057C47.1516 8.76084 47.6806 8.98538 48.0169 9.64115V10.2979L48.0179 10.296ZM46.0985 3.99475C45.9463 3.79088 45.8626 3.66687 45.7668 3.55225C43.2546 0.573097 38.5082 1.04003 36.6114 4.47766C36.1717 5.27435 35.5779 5.62854 34.6873 5.60036C33.7826 5.57217 32.8759 5.59378 31.9693 5.59378C31.7269 5.59378 31.4845 5.59378 31.245 5.59378V8.7909C32.3432 8.7909 33.419 8.83694 34.4891 8.77775C35.5131 8.72044 36.1614 9.09906 36.6922 9.99816C38.6952 13.3907 43.5214 13.7458 45.8645 10.7169C45.9322 10.6295 45.9782 10.5262 46.0581 10.389C44.5671 10.389 43.1465 10.3946 41.7251 10.3871C40.6775 10.3815 40.0349 9.74073 40.0237 8.69131C40.0133 7.72269 40.018 6.75407 40.0218 5.78544C40.0265 4.60073 40.6287 3.99757 41.8087 3.99569C43.1982 3.99288 44.5877 3.99569 46.0985 3.99569V3.99475ZM29.5961 5.63512H15.2331V8.7599H29.5961V5.63606V5.63512ZM13.588 5.59378C12.703 5.59378 11.8612 5.5703 11.0213 5.60036C10.0141 5.63606 9.22403 5.2922 8.5598 4.51336C7.73022 3.54098 6.61503 3.10975 5.34483 3.19618C3.50529 3.32113 2.01618 4.65898 1.68736 6.41303C1.35008 8.21405 2.22569 9.97373 3.85666 10.7742C5.49703 11.5793 7.38824 11.2111 8.61805 9.79804C9.23906 9.08402 9.97563 8.74956 10.9189 8.78432C11.802 8.81627 12.687 8.7909 13.588 8.7909V5.59472V5.59378Z" fill="#0033A0"/>
<path d="M20.8024 24.7774C20.5065 24.7774 20.2077 24.8037 19.9146 24.7708C19.4806 24.7229 19.2128 24.3913 19.2213 23.9723C19.2297 23.557 19.5144 23.2329 19.9541 23.2132C20.53 23.1878 21.1087 23.1869 21.6837 23.216C22.1159 23.2376 22.4071 23.5815 22.408 23.9882C22.4099 24.3932 22.1224 24.7267 21.6893 24.7718C21.3962 24.8018 21.0974 24.7774 20.8015 24.7774V24.7755L20.8024 24.7774Z" fill="#00AEC7"/>
<path d="M5.62575 9.57727C4.28603 9.58666 3.2009 8.51281 3.20466 7.18154C3.20842 5.87658 4.28039 4.79709 5.58723 4.78112C6.91193 4.76515 7.99705 5.85027 7.99705 7.19C7.99705 8.51845 6.95421 9.56787 5.62669 9.57727H5.62575ZM5.65957 6.38954C5.23304 6.3576 4.83469 6.70991 4.80839 7.14396C4.78302 7.56016 5.10997 7.93314 5.52992 7.96884C5.99028 8.00736 6.36044 7.69921 6.39238 7.25106C6.42433 6.80386 6.09926 6.42243 5.65957 6.38954Z" fill="#00AEC7"/>
</g>
<defs>
<clipPath id="clip0_638_834">
<rect width="48.0178" height="48" fill="white"/>
</clipPath>
</defs>
</svg>
