<svg width="40" height="48" viewBox="0 0 40 48" fill="none" xmlns="http://www.w3.org/2000/svg">
<g clip-path="url(#clip0_637_727)">
<path d="M5.36716 0C12.9896 0 20.611 0 28.2325 0C28.3978 0.139955 28.5735 0.2677 28.7266 0.419866C32.3391 4.02959 35.9479 7.64401 39.5633 11.2509C39.8488 11.5355 39.9841 11.8464 39.9756 12.2494C39.9596 13.0299 39.9709 13.8114 39.9709 14.592C39.9709 23.7145 39.9709 32.8379 39.9709 41.9603C39.9709 42.9841 39.753 43.2058 38.7451 43.2058C37.7147 43.2058 36.6843 43.2058 35.653 43.2068C35.5036 43.2068 35.3533 43.2227 35.173 43.2331C35.173 44.4429 35.173 45.6114 35.173 46.7808C35.173 47.7793 34.9579 47.9972 33.9716 47.9972C23.041 47.9972 12.1104 47.9972 1.17977 47.9972C1.03888 47.9972 0.897043 48.0066 0.758966 47.9878C0.318435 47.9277 0.0488564 47.6863 0.0122238 47.2279C-0.00186572 47.0569 0.000952181 46.8851 0.000952181 46.7132C0.000952181 32.6397 0.000952181 18.5652 0.000952181 4.48984C0.000952181 4.36492 -0.00280501 4.23999 0.00283078 4.11506C0.0272525 3.49982 0.313739 3.20864 0.940251 3.19643C1.57991 3.18422 2.22051 3.19361 2.86112 3.19361C3.49514 3.19361 4.12917 3.19361 4.79889 3.19361C4.79889 2.44687 4.82143 1.76118 4.79137 1.07831C4.76883 0.585183 4.94072 0.234824 5.36716 0ZM38.3516 12.8026C38.1158 12.8026 37.9308 12.8026 37.7448 12.8026C34.6056 12.8026 31.4675 12.8036 28.3283 12.8017C27.4266 12.8017 27.1908 12.5622 27.1908 11.6614C27.1908 8.50628 27.1908 5.35024 27.1908 2.19514V1.63062H6.42763V41.5714H38.3516V12.8026ZM4.79795 4.82423H1.6297V46.3731H33.5442V43.2068H32.9083C23.9596 43.2068 15.01 43.2068 6.06131 43.2068C5.00741 43.2068 4.79795 42.9982 4.79795 41.95C4.79795 29.7786 4.79795 17.6081 4.79795 5.43666V4.82423ZM28.8233 2.87707V11.1523H37.1032C34.3342 8.38417 31.5867 5.63861 28.8233 2.87613V2.87707Z" fill="#0033A0"/>
<path d="M24.7177 35.9986C21.6725 35.9986 18.6282 35.9986 15.583 35.9986C15.4421 35.9986 15.3012 36.0052 15.1622 35.9901C14.7094 35.9413 14.391 35.605 14.3957 35.1908C14.4004 34.7747 14.7226 34.4487 15.1781 34.4074C15.3181 34.3952 15.459 34.4008 15.5999 34.4008C21.7204 34.4008 27.8418 34.4008 33.9622 34.4008C34.0562 34.4008 34.1501 34.399 34.2431 34.4008C34.8057 34.4159 35.1589 34.7146 35.1683 35.1814C35.1777 35.6661 34.8151 35.9939 34.2281 35.9948C31.4797 35.9995 28.7313 35.9967 25.9838 35.9967C25.5621 35.9967 25.1403 35.9967 24.7186 35.9967L24.7177 35.9986Z" fill="#0033A0"/>
<path d="M24.8078 24.8012C27.868 24.8012 30.9283 24.8012 33.9885 24.8012C34.7944 24.8012 35.1758 25.0661 35.1673 25.6109C35.1589 26.15 34.7756 26.4037 33.965 26.4037C27.8446 26.4037 21.7241 26.4037 15.6036 26.4037C14.8005 26.4037 14.4079 26.1435 14.3976 25.6109C14.3872 25.0736 14.7827 24.8012 15.5801 24.8012C18.6563 24.8012 21.7316 24.8012 24.8078 24.8012Z" fill="#0033A0"/>
<path d="M24.7806 29.6057C27.8258 29.6057 30.871 29.6057 33.9153 29.6057C34.0562 29.6057 34.197 29.601 34.337 29.6095C34.8405 29.6405 35.1579 29.9382 35.1664 30.3844C35.1749 30.8033 34.8809 31.1255 34.4131 31.1931C34.275 31.2129 34.1332 31.2063 33.9923 31.2063C27.8558 31.2063 21.7185 31.2072 15.582 31.2044C15.381 31.2044 15.1744 31.1931 14.9809 31.1452C14.5751 31.0438 14.3816 30.7423 14.4098 30.345C14.437 29.9476 14.6719 29.6818 15.0851 29.6245C15.2542 29.601 15.428 29.6057 15.5989 29.6057C18.6592 29.6048 21.7203 29.6057 24.7806 29.6057Z" fill="#0033A0"/>
<path d="M24.7646 16.7918C21.7194 16.7918 18.6751 16.7918 15.6299 16.7918C15.458 16.7918 15.2852 16.7984 15.1152 16.7796C14.7094 16.7336 14.406 16.4283 14.4041 16.0385C14.4022 15.6384 14.592 15.3481 14.9959 15.2476C15.1593 15.2072 15.335 15.1969 15.505 15.1969C21.6884 15.1941 27.8718 15.195 34.0552 15.1969C34.2102 15.1969 34.3699 15.1988 34.5192 15.2326C34.9504 15.3293 35.2143 15.6741 35.1598 16.0789C35.1025 16.5054 34.8423 16.7439 34.414 16.7853C34.259 16.8003 34.1022 16.7937 33.9463 16.7937C30.886 16.7937 27.8258 16.7937 24.7646 16.7937V16.7918Z" fill="#0033A0"/>
<path d="M24.7608 21.5935C21.7006 21.5935 18.6404 21.5935 15.5801 21.5935C14.7799 21.5935 14.3882 21.3239 14.3966 20.7867C14.406 20.2541 14.8015 19.992 15.6027 19.992C21.7231 19.992 27.8436 19.992 33.965 19.9948C34.182 19.9948 34.4065 20.0023 34.6131 20.0606C34.9879 20.1667 35.1805 20.4466 35.1617 20.8336C35.1439 21.2187 34.9297 21.4789 34.5483 21.5578C34.352 21.5982 34.1444 21.5926 33.9425 21.5926C30.8822 21.5944 27.822 21.5935 24.7618 21.5935H24.7608Z" fill="#0033A0"/>
<path d="M12.7707 7.20814C13.5193 7.20814 14.268 7.20345 15.0166 7.21002C15.6816 7.21566 15.9737 7.48618 15.9784 8.13617C15.9887 9.64938 15.9887 11.1626 15.9784 12.6758C15.9737 13.3023 15.6778 13.5916 15.0541 13.5944C13.5419 13.602 12.0287 13.6029 10.5164 13.5944C9.90304 13.5907 9.59589 13.2863 9.59213 12.6655C9.5818 11.1523 9.5818 9.63905 9.59213 8.12584C9.59683 7.50966 9.90492 7.21754 10.5258 7.21096C11.2744 7.20157 12.023 7.20908 12.7717 7.20908L12.7707 7.20814ZM11.204 11.9629H14.3553V8.83689H11.204V11.9629Z" fill="#00AEC7"/>
<path d="M11.1683 16.7862C10.9034 16.7862 10.6366 16.8003 10.3727 16.7824C9.93685 16.7533 9.62782 16.4499 9.59871 16.0479C9.57147 15.6769 9.82977 15.2786 10.2327 15.2457C10.8658 15.1941 11.5102 15.1903 12.1423 15.2457C12.5622 15.2824 12.7829 15.6092 12.7707 16.0441C12.7594 16.4508 12.4514 16.7542 12.0108 16.7834C11.7309 16.8021 11.4491 16.7871 11.1683 16.7862Z" fill="#00AEC7"/>
<path d="M11.188 31.2007C10.9231 31.2007 10.6554 31.2213 10.3924 31.196C9.9096 31.149 9.58084 30.7949 9.59681 30.375C9.61372 29.9373 9.94059 29.6283 10.4412 29.6123C10.94 29.5963 11.4407 29.5963 11.9394 29.6123C12.4476 29.6283 12.7604 29.9307 12.7726 30.3788C12.7838 30.8203 12.4795 31.1499 11.9826 31.1978C11.7196 31.2232 11.4529 31.2025 11.187 31.2016L11.188 31.2007Z" fill="#00AEC7"/>
<path d="M11.1964 34.4093C11.4773 34.4093 11.76 34.3896 12.038 34.414C12.4711 34.4516 12.7651 34.7756 12.7735 35.1824C12.782 35.59 12.5002 35.9498 12.0709 35.9779C11.4961 36.0146 10.9165 36.0127 10.3407 35.9836C9.91524 35.9629 9.60527 35.6088 9.59494 35.2162C9.5846 34.8076 9.9096 34.4488 10.3539 34.4131C10.6329 34.3905 10.9156 34.4084 11.1964 34.4084V34.4103V34.4093Z" fill="#00AEC7"/>
<path d="M11.1692 21.5775C10.8884 21.5775 10.6066 21.5945 10.3276 21.5738C9.888 21.5409 9.65787 21.2629 9.60246 20.8487C9.55361 20.4805 9.83164 20.0822 10.2318 20.0512C10.8649 20.0024 11.5073 20.0005 12.1404 20.0493C12.5565 20.0813 12.8045 20.4457 12.7698 20.8411C12.7331 21.2704 12.4908 21.5334 12.0578 21.571C11.7638 21.5973 11.466 21.5757 11.1701 21.5766L11.1692 21.5775Z" fill="#00AEC7"/>
<path d="M11.2312 26.4215C10.8949 26.4027 10.5821 26.4046 10.274 26.3642C9.83539 26.3069 9.62499 26.0092 9.6015 25.5921C9.58084 25.2136 9.87954 24.8595 10.2853 24.836C10.8902 24.8012 11.5008 24.8022 12.1057 24.8379C12.5171 24.8623 12.7378 25.1516 12.7697 25.5583C12.8007 25.9547 12.549 26.2844 12.1367 26.3548C11.8314 26.4065 11.5167 26.4018 11.2302 26.4206L11.2312 26.4215Z" fill="#00AEC7"/>
</g>
<defs>
<clipPath id="clip0_637_727">
<rect width="39.9765" height="48" fill="white"/>
</clipPath>
</defs>
</svg>
