<svg width="45" height="48" viewBox="0 0 45 48" fill="none" xmlns="http://www.w3.org/2000/svg">
<g clip-path="url(#clip0_638_841)">
<path d="M0 45.7503C0 31.7814 0 17.8126 0 3.84376C0.554207 2.01581 1.12532 1.59687 3.06129 1.59687C6.13761 1.59687 9.21393 1.59687 12.2903 1.59687H12.7909C13.0624 0.408611 13.5743 0 14.7598 0C18.2259 0 21.693 0 25.1591 0C26.4986 0 26.8791 0.280861 27.283 1.59687C27.4398 1.59687 27.6089 1.59687 27.778 1.59687C30.9323 1.59687 34.0866 1.59687 37.2409 1.59687C39.1167 1.59687 40.0232 2.50614 40.0232 4.38481C40.0232 12.5683 40.0241 20.7527 40.0185 28.9362C40.0185 29.233 40.0767 29.4491 40.3191 29.6614C43.2178 32.2041 44.4531 35.412 43.8594 39.2144C43.246 43.1436 40.9757 45.8433 37.2925 47.3096C36.4349 47.6515 35.4909 47.7755 34.5863 48H1.96885C1.42215 47.7877 0.841644 47.5942 0.532603 47.0597C0.299648 46.6558 0.173777 46.189 0 45.7503ZM35.2034 27.2736V6.39311C34.6793 6.39311 34.1833 6.39311 33.6874 6.39311C31.6725 6.39311 29.6576 6.38842 27.6437 6.40251C27.4962 6.40344 27.2548 6.49832 27.2163 6.60728C26.8236 7.7063 26.4498 7.9928 25.3038 7.9928C21.7897 7.99374 18.2757 7.99374 14.7616 7.9928C13.5574 7.9928 13.0821 7.61331 12.7928 6.41941H4.86575V43.1812H24.8135C22.6896 39.3872 22.5713 35.5886 24.9328 31.944C27.3149 28.2683 30.8731 26.8847 35.2034 27.2736ZM42.4222 37.5555C42.3104 32.4352 38.338 28.7596 33.5446 28.8169C28.4477 28.878 24.6791 32.9321 24.8388 37.9942C24.9854 42.6589 29.0959 46.5205 33.7785 46.3994C38.7166 46.2707 42.4213 42.3386 42.4222 37.5555ZM12.8125 3.19468H12.2987C9.12751 3.19468 5.95632 3.19468 2.78513 3.19468C1.85143 3.19468 1.62599 3.41918 1.62599 4.35945C1.62599 17.9845 1.62599 31.6086 1.62599 45.2337C1.62599 46.1805 1.84673 46.4031 2.77855 46.4031C11.0268 46.4031 19.2751 46.4031 27.5234 46.4031H27.9865C27.4295 45.9363 26.926 45.5465 26.4629 45.1144C26.214 44.8823 25.9651 44.7997 25.6316 44.7997C18.8205 44.8081 12.0094 44.8063 5.19828 44.8063C3.82591 44.8063 3.22849 44.2126 3.22849 42.8384C3.22755 30.8074 3.22755 18.7764 3.22849 6.74536C3.22849 5.39742 3.83249 4.79342 5.16822 4.79249C7.54286 4.79155 9.91749 4.79249 12.2921 4.79249C12.4584 4.79249 12.6247 4.79249 12.8125 4.79249V3.19468ZM27.2501 4.79249C27.4417 4.79249 27.6099 4.79249 27.7771 4.79249C30.1198 4.79249 32.4625 4.79249 34.8042 4.79249C36.2452 4.79249 36.8304 5.37299 36.8304 6.80078C36.8304 13.1422 36.8304 19.4837 36.8304 25.8251C36.8304 26.3559 36.821 26.8875 36.8379 27.4182C36.8416 27.5328 36.9093 27.7076 36.9966 27.7479C37.4447 27.9537 37.9097 28.1246 38.4272 28.3322V27.8362C38.4272 19.9956 38.4272 12.1541 38.4272 4.31342C38.4272 3.43609 38.1886 3.19562 37.3179 3.19562C34.1166 3.19374 30.9154 3.19468 27.7132 3.19562C27.5638 3.19562 27.4145 3.21252 27.2492 3.22192V4.79249H27.2501ZM25.5959 6.37245V1.63256H14.4705V6.37151H25.5959V6.37245Z" fill="#0033A0"/>
<path d="M29.5355 23.9972C29.1457 25.1535 28.443 25.9378 27.298 26.261C25.7143 26.709 24.0686 25.9097 23.473 24.3832C23.3566 24.0845 23.2279 23.9897 22.9104 23.9915C20.8654 24.0075 18.8214 24 16.7615 24C16.6412 24.2602 16.5445 24.5223 16.4055 24.758C15.7545 25.8618 14.7785 26.431 13.5001 26.3765C12.1606 26.3192 11.2034 25.6297 10.6887 24.3945C10.5534 24.0704 10.3994 23.9681 10.0781 23.9953C9.81416 24.0169 9.54739 24.0056 9.2825 23.9953C8.11491 23.9521 7.29487 23.2006 7.24414 22.033C7.1953 20.9265 7.19905 19.8153 7.24226 18.7078C7.28547 17.6285 8.02285 16.8874 9.09181 16.7465C9.23084 16.7277 9.37831 16.6882 9.50982 16.7164C10.6248 16.9569 11.2758 16.4214 11.83 15.5065C12.4424 14.4949 13.2117 13.579 13.8777 12.5984C14.5043 11.6759 15.3591 11.2645 16.4553 11.2683C18.8421 11.2758 21.229 11.2748 23.6158 11.2683C24.6923 11.2654 25.5339 11.6712 26.1576 12.573C27.0453 13.8561 27.979 15.1083 28.8742 16.3867C29.0489 16.6356 29.2321 16.7239 29.5289 16.7183C30.0737 16.7089 30.6251 16.7023 31.1643 16.7699C32.1234 16.8902 32.8523 17.6717 32.8861 18.6411C32.9246 19.7486 32.9331 20.8598 32.888 21.9663C32.8401 23.132 31.9515 23.9521 30.7782 23.9944C30.3734 24.0084 29.9676 23.9962 29.5355 23.9962V23.9972ZM29.5674 22.4031C29.9187 22.4031 30.2616 22.4069 30.6045 22.4031C31.1333 22.3956 31.3033 22.2293 31.3061 21.7005C31.3108 20.826 31.3099 19.9515 31.3061 19.0769C31.3043 18.4795 31.1521 18.3104 30.5641 18.318C29.8323 18.3274 29.1006 18.3894 28.3688 18.3903C22.8108 18.3969 17.2528 18.3969 11.6947 18.3903C10.963 18.3903 10.2312 18.3264 9.49949 18.3198C9.00352 18.3151 8.8288 18.5058 8.8241 19.0074C8.81659 19.7101 8.82222 20.4127 8.82222 21.1153C8.82222 22.4144 8.82222 22.4069 10.1166 22.4106C10.4003 22.4106 10.5534 22.3524 10.6661 22.0575C11.1527 20.7865 12.3382 19.9731 13.6767 20.0041C15.0923 20.0369 16.1049 20.7264 16.6722 22.0218C16.7991 22.3129 16.9277 22.4144 17.2443 22.4116C19.1333 22.3956 21.0223 22.3947 22.9113 22.4116C23.2335 22.4144 23.35 22.3054 23.473 22.0171C24.031 20.7086 25.0605 20.0501 26.4686 19.9994C27.7555 19.9533 28.8122 20.6691 29.3617 21.9166C29.4303 22.0715 29.4932 22.2293 29.5665 22.4031H29.5674ZM19.2 12.8182C18.1169 12.8182 17.0686 12.7703 16.0307 12.8463C15.7 12.8708 15.3074 13.1563 15.0923 13.4372C14.4197 14.3164 13.8176 15.2501 13.1892 16.1631C13.0793 16.3228 12.9731 16.4844 12.8388 16.6845H19.1991V12.8191L19.2 12.8182ZM20.8466 16.6835H27.1205C27.0162 16.5229 26.9476 16.4064 26.8697 16.2965C26.1839 15.3309 25.4841 14.3746 24.8153 13.3977C24.5298 12.9807 24.1653 12.7984 23.6759 12.8022C22.8502 12.8088 22.0236 12.8022 21.197 12.8059C21.0805 12.8059 20.9631 12.8369 20.8466 12.8539V16.6835ZM26.4357 24.79C27.3055 24.7862 28.0166 24.0817 28.0241 23.2156C28.0316 22.3336 27.2999 21.6 26.4197 21.6066C25.5311 21.6131 24.8238 22.3402 24.8379 23.2316C24.852 24.1024 25.5612 24.7937 26.4366 24.79H26.4357ZM15.2172 23.2081C15.221 22.3195 14.4958 21.5944 13.6138 21.6056C12.7496 21.6169 12.0376 22.3308 12.031 23.1922C12.0244 24.0695 12.7627 24.8003 13.6448 24.7919C14.5146 24.7834 15.2135 24.0789 15.2172 23.2081Z" fill="#0033A0"/>
<path d="M14.0083 34.4041C15.9584 34.4041 17.9075 34.405 19.8575 34.4022C20.2182 34.4022 20.5451 34.4585 20.7292 34.8193C20.981 35.3105 20.718 35.8713 20.1769 35.9746C20.0106 36.0066 19.835 35.9991 19.664 35.9991C15.9048 36 12.1456 36 8.38638 35.9991C8.29244 35.9991 8.19945 36.0019 8.10552 35.9972C7.54098 35.9709 7.21503 35.6618 7.23287 35.1724C7.24978 34.6971 7.56164 34.4078 8.11115 34.4059C10.0762 34.3984 12.0423 34.4031 14.0074 34.4031L14.0083 34.4041Z" fill="#00AEC7"/>
<path d="M14.06 38.4066C15.9969 38.4066 17.9347 38.4019 19.8716 38.4094C20.5376 38.4122 20.8617 38.7306 20.8082 39.2905C20.7753 39.638 20.5968 39.8776 20.2474 39.9499C20.0511 39.9903 19.8453 40.0044 19.6443 40.0053C15.8954 40.0081 12.1456 40.0072 8.39672 40.0072C8.33378 40.0072 8.27178 40.0091 8.20885 40.0072C7.56071 39.9847 7.21973 39.6953 7.23382 39.1806C7.24697 38.6762 7.56259 38.4113 8.20227 38.4094C10.1552 38.4028 12.108 38.4066 14.0609 38.4066H14.06Z" fill="#00AEC7"/>
<path d="M13.966 31.9938C12.0442 31.9938 10.1232 31.9919 8.20135 31.9938C7.76174 31.9938 7.39164 31.8979 7.26671 31.4039C7.15117 30.9501 7.38318 30.5528 7.83876 30.442C7.959 30.4128 8.08487 30.395 8.20886 30.395C12.0827 30.3922 15.9574 30.3922 19.8312 30.395C19.9853 30.395 20.1459 30.4147 20.2925 30.4598C20.6767 30.5772 20.8298 30.8647 20.81 31.2498C20.7903 31.6406 20.5921 31.9092 20.1976 31.9618C19.8904 32.0032 19.5748 31.9909 19.262 31.9919C17.497 31.9938 15.7311 31.9928 13.966 31.9919V31.9938Z" fill="#00AEC7"/>
<path d="M33.3088 39.5929C34.6201 37.7199 35.907 35.8807 37.1958 34.0415C37.4015 33.7475 37.5978 33.445 37.8223 33.167C38.1229 32.7959 38.5024 32.7621 38.895 33.0411C39.2698 33.3079 39.344 33.6376 39.1139 34.0584C39.0397 34.1946 38.9495 34.3233 38.8603 34.451C37.3451 36.6275 35.8253 38.8011 34.3148 40.9813C33.8996 41.5806 33.6441 41.8577 32.7922 41.1945C31.6105 40.2749 30.4626 39.3111 29.2997 38.3662C28.9738 38.1013 28.7558 37.7922 28.9343 37.3545C29.1551 36.8135 29.7384 36.6913 30.2475 37.099C31.1615 37.8298 32.0604 38.5803 32.9659 39.3215C33.0618 39.3994 33.1594 39.4755 33.3088 39.5929Z" fill="#00AEC7"/>
</g>
<defs>
<clipPath id="clip0_638_841">
<rect width="44.006" height="48" fill="white"/>
</clipPath>
</defs>
</svg>
