<svg width="49" height="48" viewBox="0 0 49 48" fill="none" xmlns="http://www.w3.org/2000/svg">
<g clip-path="url(#clip0_623_3719)">
<path d="M21.2981 0C22.3971 0.245162 23.1842 0.949649 23.9563 1.72177C27.2477 5.01125 30.5569 8.28195 33.8727 11.547C34.6871 12.3492 35.0975 13.2838 35.0844 14.4307C35.0647 16.1948 35.0788 17.9597 35.0788 19.7238V20.2639C35.2892 20.2009 35.447 20.1408 35.6114 20.1051C36.4088 19.9342 37.1143 20.061 37.7173 20.6706C39.967 22.9475 42.1706 25.2761 44.5095 27.4581C46.0133 28.8614 45.2262 31.1985 43.3579 31.7489C42.9737 31.8625 42.5238 31.8325 42.1199 31.7696C41.8569 31.7292 41.6981 31.7461 41.515 31.9368C41.159 32.3078 40.7757 32.6525 40.3737 33.0367C41.5469 33.9657 42.6703 34.8571 43.7947 35.7466C44.5292 36.3281 45.2497 36.9273 46.003 37.4834C46.9104 38.1522 47.6825 38.9131 48.016 40.029V41.0603C47.6891 42.1988 47.0485 43.0996 46.0368 43.7383C44.6429 44.6185 43.3372 44.5405 42.1753 43.3494C41.3938 42.5482 40.7278 41.6314 40.0271 40.7532C38.975 39.4353 37.938 38.1052 36.8935 36.7808C36.8747 36.7564 36.8484 36.7385 36.7573 36.654C36.3656 37.0617 35.9627 37.4674 35.5813 37.8911C35.5202 37.9587 35.5137 38.1184 35.5437 38.217C35.7645 38.9563 35.6142 39.6298 35.2375 40.2826C35.1426 40.446 35.0985 40.6555 35.0853 40.8471C35.044 41.4379 35.0853 42.0391 34.9933 42.6205C34.6626 44.6917 32.8535 46.2482 30.756 46.3064C30.3211 46.3186 29.8853 46.3083 29.4307 46.3083C29.4128 46.4285 29.3921 46.5168 29.3884 46.6061C29.3508 47.5961 28.9497 47.9934 27.9728 47.9944C25.2075 47.9962 22.4421 47.9944 19.6777 47.9944C19.5528 47.9944 19.4232 48.0066 19.3048 47.9775C18.9441 47.8901 18.73 47.659 18.7375 47.2795C18.745 46.901 18.9592 46.6709 19.3274 46.6032C19.4786 46.5751 19.6392 46.5901 19.7951 46.5901C22.3416 46.5901 24.8881 46.5901 27.4346 46.5901C27.6018 46.5901 27.7699 46.5901 27.9287 46.5901C28.1006 45.4357 27.6516 44.8909 26.5639 44.8899C22.5802 44.8871 18.5966 44.8871 14.6129 44.8899C13.5177 44.8899 13.0725 45.4103 13.2068 46.5901C13.6605 46.5901 14.1226 46.5901 14.5848 46.5901C15.1155 46.5901 15.6481 46.5741 16.1778 46.6004C16.5742 46.6201 16.8119 46.8634 16.8288 47.2645C16.8457 47.6665 16.6184 47.9643 16.2333 47.9746C15.0788 48.0066 13.9207 48.0113 12.7672 47.969C12.229 47.9493 11.8551 47.5003 11.7781 46.9376C11.749 46.7225 11.7546 46.5018 11.7415 46.2068C11.5752 46.2068 11.4127 46.2068 11.2492 46.2068C9.09352 46.2068 6.93779 46.2087 4.78112 46.2068C1.9209 46.2031 0.0197248 44.3047 0.0197248 41.452C0.0197248 31.2041 0.0197248 20.9552 0.0197248 10.7073C0.0197248 10.5664 0.00657434 10.4236 0.0281786 10.2865C0.0882948 9.89852 0.309973 9.65899 0.714819 9.65429C1.11966 9.6496 1.35074 9.88349 1.41461 10.2705C1.44279 10.4377 1.42588 10.6133 1.42588 10.7852C1.42588 20.9862 1.42588 31.1881 1.42588 41.3891C1.42588 43.5439 2.67517 44.7998 4.82057 44.8007C7.10123 44.8016 9.38189 44.796 11.6635 44.8073C11.9575 44.8091 12.1247 44.7068 12.3238 44.4917C12.6141 44.1789 12.9738 43.9121 13.3458 43.7008C13.5778 43.5683 13.7084 43.4659 13.6858 43.1851C13.5571 41.623 14.8318 40.3408 16.5367 40.3812C19.2532 40.447 21.9725 40.3972 24.6909 40.3991C26.4154 40.4 27.4778 41.4417 27.4806 43.155C27.4806 43.4424 27.5755 43.558 27.8254 43.7092C28.2424 43.96 28.5853 44.332 28.9713 44.6372C29.1122 44.749 29.2898 44.889 29.4504 44.889C30.0882 44.889 30.7429 44.9228 31.3591 44.7932C32.8404 44.4813 33.8595 42.97 33.6209 41.5234C33.4105 41.5384 33.1964 41.5647 32.9831 41.5676C32.4083 41.5751 31.9189 41.3703 31.5103 40.9617C29.1583 38.6078 26.7959 36.2642 24.456 33.899C23.2471 32.6779 23.9225 30.4865 25.6931 29.9313C26.1327 29.7932 26.6409 29.8862 27.1162 29.8477C27.3069 29.8327 27.5501 29.8083 27.6723 29.688C29.6298 27.7568 31.5742 25.8134 33.5082 23.8586C33.6181 23.7469 33.6501 23.5205 33.651 23.3458C33.6538 23.0067 33.5899 22.6666 33.589 22.3266C33.5834 19.4899 33.5862 16.6531 33.5862 13.7488H33.0348C30.3005 13.7488 27.567 13.7497 24.8327 13.7488C22.552 13.7478 21.2163 12.4159 21.2154 10.1465C21.2154 7.44408 21.2154 4.74073 21.2154 2.03832V1.45876C20.4142 1.45876 19.6542 1.46064 18.8943 1.45876C14.1921 1.44279 9.48991 1.42306 4.78769 1.41085C2.69114 1.40522 1.42682 2.6686 1.42494 4.75388C1.42494 5.47246 1.4287 6.19103 1.42306 6.90961C1.41931 7.44502 1.13563 7.7766 0.705426 7.76533C0.291187 7.75406 0.0206641 7.43563 0.0206641 6.92558C0.0206641 5.94118 -0.0422701 4.9502 0.0572974 3.97519C0.263947 1.96223 1.72271 0.468719 3.73754 0.0789026C3.81174 0.0638735 3.88219 0.0272402 3.95452 0C9.73601 0 15.5166 0 21.2981 0ZM34.5077 36.8024C36.5272 34.781 38.573 32.7333 40.6668 30.6386C40.0167 30.0046 39.3179 29.3358 38.6341 28.651C38.2762 28.2931 38.2696 27.8733 38.5805 27.5802C38.8943 27.2853 39.2756 27.3163 39.6532 27.692C40.4845 28.5176 41.3036 29.3555 42.1368 30.1793C42.5595 30.5973 43.0357 30.5484 43.526 30.0628C43.9863 29.6063 44.0549 29.0465 43.6716 28.6595C41.3731 26.3403 39.0709 24.0249 36.7658 21.7132C36.3562 21.3028 35.8443 21.3525 35.3699 21.8213C34.89 22.2956 34.8374 22.8423 35.246 23.2584C35.8471 23.8718 36.4586 24.4758 37.0635 25.0863C37.4843 25.5118 37.5369 25.9035 37.2223 26.2267C36.9076 26.5507 36.5009 26.5037 36.0838 26.0914C35.6198 25.633 35.1586 25.1718 34.7387 24.7547C32.66 26.8363 30.6123 28.8868 28.6078 30.8932C30.5729 32.861 32.568 34.859 34.5077 36.8015V36.8024ZM22.7831 2.43565L22.6197 2.52394V2.92973C22.6197 5.36631 22.6187 7.80384 22.6197 10.2404C22.6197 11.5902 23.357 12.3389 24.6974 12.3417C27.197 12.3464 29.6965 12.3436 32.196 12.3417C32.3125 12.3417 32.428 12.321 32.5435 12.3097L32.4412 12.3699C29.2221 9.05783 26.0021 5.74674 22.7831 2.43471V2.43565ZM37.8441 35.7194C39.5527 37.8807 41.2848 40.0853 43.0366 42.2749C43.3588 42.6778 43.8144 42.8948 44.3517 42.8798C45.1755 42.8563 46.2181 41.9978 46.514 41.1007C46.7639 40.3418 46.5084 39.6908 45.6921 39.0436C44.2014 37.8601 42.7079 36.6812 41.2153 35.5015C40.6188 35.0299 40.0214 34.5593 39.4494 34.1075C38.9027 34.6561 38.388 35.1727 37.8432 35.7203L37.8441 35.7194ZM34.239 38.8022C34.1845 38.7158 34.1019 38.5101 33.9572 38.3645C31.6568 36.0528 29.3499 33.7459 27.0354 31.4474C26.903 31.3159 26.6963 31.2107 26.5131 31.19C26.0641 31.1402 25.5522 31.5385 25.324 32.0326C25.1136 32.4881 25.324 32.7925 25.6349 33.1024C27.8695 35.3258 30.1013 37.5529 32.3209 39.7913C32.6441 40.1173 32.9625 40.2657 33.3993 40.0759C33.8623 39.8749 34.2484 39.3527 34.2381 38.8013L34.239 38.8022ZM15.1408 43.4481H26.0501C26.1534 42.2861 25.725 41.8043 24.6157 41.8043C21.902 41.8033 19.1883 41.8024 16.4747 41.8043C15.4189 41.8043 14.952 42.3754 15.1408 43.4481Z" fill="#0033A0"/>
<path d="M15.1559 25.0619C12.5493 25.0619 9.94172 25.0619 7.33512 25.0619C7.16323 25.0619 6.99039 25.0666 6.82132 25.044C6.45968 24.9952 6.26242 24.7538 6.23612 24.4137C6.20982 24.069 6.38359 23.8051 6.72926 23.7111C6.90585 23.6632 7.09935 23.6595 7.2844 23.6595C12.5446 23.6567 17.8057 23.6576 23.0659 23.6576C23.1908 23.6576 23.3167 23.652 23.4397 23.667C23.8831 23.7205 24.1489 24.008 24.1132 24.41C24.0747 24.8374 23.8136 25.0534 23.3974 25.0572C22.352 25.0666 21.3056 25.0628 20.2601 25.0628C18.559 25.0628 16.857 25.0628 15.1559 25.0628V25.0619Z" fill="#00AEC7"/>
<path d="M13.729 36.3112C11.5912 36.3112 9.45234 36.3112 7.31446 36.3112C7.1435 36.3112 6.96879 36.3168 6.80065 36.2895C6.44184 36.2304 6.20419 35.9721 6.25115 35.6461C6.28685 35.401 6.50759 35.1436 6.71518 34.9773C6.84668 34.8721 7.10405 34.9078 7.30507 34.9078C11.6128 34.905 15.9205 34.905 20.2282 34.9059C20.3371 34.9059 20.447 34.9012 20.556 34.9097C21.0407 34.9473 21.315 35.214 21.3046 35.633C21.2943 36.051 21.0181 36.3065 20.5184 36.3074C18.2556 36.314 15.9919 36.3102 13.729 36.3112Z" fill="#00AEC7"/>
<path d="M12.9616 30.6865C11.1347 30.6865 9.30675 30.6865 7.47978 30.6856C7.30882 30.6856 7.08996 30.7354 6.97537 30.6499C6.75839 30.4883 6.47002 30.2563 6.45405 30.0356C6.43902 29.8148 6.6823 29.5284 6.88519 29.3574C7.012 29.2494 7.27313 29.2832 7.47414 29.2822C11.144 29.2785 14.814 29.2794 18.4848 29.2822C18.6708 29.2822 18.8633 29.2851 19.0409 29.332C19.3884 29.4241 19.5528 29.6777 19.5321 30.0328C19.5115 30.3906 19.3114 30.6095 18.9573 30.6668C18.8042 30.6912 18.6464 30.6856 18.4904 30.6856C16.6475 30.6865 14.8046 30.6856 12.9616 30.6856V30.6865Z" fill="#00AEC7"/>
<path d="M12.4957 13.8126C10.8247 13.8126 9.15364 13.8126 7.48259 13.8117C7.31164 13.8117 7.09278 13.8615 6.97818 13.7769C6.76026 13.6163 6.47095 13.3853 6.45498 13.1645C6.43901 12.9438 6.68887 12.6704 6.88143 12.4807C6.97818 12.3858 7.20737 12.4093 7.37739 12.4084C10.7974 12.4046 14.2175 12.4055 17.6375 12.4084C17.7925 12.4084 17.9531 12.4149 18.1006 12.4553C18.4472 12.5521 18.6135 12.8001 18.5938 13.1561C18.574 13.5139 18.3768 13.745 18.0217 13.7901C17.7446 13.8249 17.4609 13.8117 17.1801 13.8117C15.618 13.8136 14.0569 13.8117 12.4948 13.8117L12.4957 13.8126Z" fill="#00AEC7"/>
<path d="M12.0561 19.4372C10.464 19.4372 8.87278 19.4372 7.28064 19.4372C7.12471 19.4372 6.96691 19.441 6.8138 19.4185C6.4531 19.3649 6.25866 19.1216 6.23612 18.7816C6.21358 18.4378 6.39017 18.1786 6.73677 18.0828C6.88425 18.0414 7.04487 18.0339 7.19892 18.0339C10.4292 18.0311 13.6595 18.0311 16.8908 18.0339C17.0307 18.0339 17.1745 18.0349 17.3088 18.0658C17.6779 18.1494 17.8752 18.3927 17.8592 18.7703C17.8433 19.1461 17.6328 19.379 17.2524 19.4232C17.0674 19.4448 16.8786 19.4372 16.6917 19.4372C15.1465 19.4372 13.6013 19.4372 12.0561 19.4372Z" fill="#0033A0"/>
<path d="M24.2992 19.4372C23.0818 19.4372 21.8654 19.4401 20.648 19.4363C20.0732 19.4344 19.7773 19.2015 19.7642 18.7628C19.751 18.3063 20.0666 18.0348 20.6499 18.0339C23.0997 18.0292 25.5485 18.0273 27.9982 18.0348C28.6604 18.0367 29.0277 18.5007 28.8041 19.0127C28.6482 19.3696 28.3476 19.441 27.9963 19.4391C26.7639 19.4344 25.5315 19.4372 24.2992 19.4372Z" fill="#0033A0"/>
</g>
<defs>
<clipPath id="clip0_623_3719">
<rect width="48.0169" height="48" fill="white"/>
</clipPath>
</defs>
</svg>
