<svg width="21" height="20" viewBox="0 0 21 20" fill="none" xmlns="http://www.w3.org/2000/svg">
<path fill-rule="evenodd" clip-rule="evenodd" d="M10.8331 0C5.38979 0 0.972015 4.48 0.972015 10C0.972015 15.52 5.38979 20 10.8331 20C16.2765 20 20.6942 15.52 20.6942 10C20.6942 4.48 16.2765 0 10.8331 0ZM11.8191 7V5H9.84685V7H11.8191ZM11.8191 15V9H9.84685V15H11.8191ZM2.94407 10C2.94407 14.41 6.48421 18 10.833 18C15.1817 18 18.7219 14.41 18.7219 10C18.7219 5.59 15.1817 2 10.833 2C6.48421 2 2.94407 5.59 2.94407 10Z" fill="#0033A0"/>
</svg>
