<svg width="57" height="62" viewBox="0 0 57 62" fill="none" xmlns="http://www.w3.org/2000/svg">
<path d="M48.4299 25.5047C49.081 25.5047 49.6195 25.4972 50.1591 25.506C51.8195 25.5323 52.8513 26.5603 52.8538 28.2094C52.8601 31.7305 52.8451 35.2504 52.8726 38.7715C52.8751 39.0983 53.0767 39.4539 53.2695 39.7394C53.4762 40.045 53.8005 40.2679 54.0409 40.5546C54.6645 41.2997 54.6933 42.3527 54.0434 43.0727C53.7354 43.4146 53.6903 43.6763 53.9169 44.0482C54.0346 44.241 54.0584 44.4952 54.1911 44.673C54.3176 44.8433 54.5167 45.0474 54.7058 45.0712C55.998 45.2352 56.6742 45.9552 56.688 47.2675C56.698 48.2254 56.7018 49.1846 56.6867 50.1425C56.6679 51.4122 55.9793 52.1347 54.7221 52.2938C54.5305 52.3175 54.3264 52.5104 54.1987 52.6782C54.0647 52.8535 54.0384 53.1064 53.9257 53.303C53.7191 53.6649 53.7091 53.9266 54.0321 54.281C54.7233 55.0373 54.682 56.1317 53.9683 56.8905C53.1982 57.7094 52.403 58.5083 51.5816 59.2759C50.8003 60.0072 49.7096 60.0209 48.9195 59.3047C48.6102 59.0242 48.3785 59.0004 48.0592 59.2108C47.9566 59.2784 47.8351 59.3285 47.7161 59.356C47.2028 59.4787 46.9536 59.7104 46.9285 60.3227C46.8922 61.2268 46.0307 61.9518 45.1016 61.9768C43.9571 62.0081 42.8089 62.0069 41.6644 61.9781C40.6501 61.9518 39.865 61.208 39.7799 60.1612C39.7448 59.7342 39.6083 59.5263 39.2089 59.4224C38.971 59.361 38.7581 59.187 38.5202 59.1407C38.3361 59.1056 38.0769 59.1244 37.9404 59.2321C36.9399 60.0234 35.7942 60.0635 34.9978 59.0768C34.0098 57.8534 32.8491 57.5629 31.3214 57.5767C22.9882 57.6506 14.6525 57.623 6.31923 57.598C5.37008 57.5955 4.4034 57.4765 3.47679 57.2699C1.11894 56.744 0.0170272 55.3228 0.00325325 52.9211C-0.00425981 51.4623 0.00325325 50.0048 0.0057576 48.546C0.0145228 41.5676 0.0232881 34.588 0.0333055 27.6096C0.0358098 25.6725 0.822176 24.8886 2.76555 24.8861C4.5762 24.8836 6.38559 24.8861 8.25759 24.8861C8.36653 23.7504 8.47672 22.6585 8.57439 21.5654C9.13161 15.3233 9.68257 9.07993 10.241 2.83783C10.4163 0.87442 11.7186 -0.16113 13.682 0.0204357C19.1565 0.525063 24.6323 1.00965 30.1081 1.50051C34.8375 1.92499 39.5657 2.35574 44.2965 2.7627C45.044 2.82656 45.6288 3.08701 46.1409 3.65174C47.1489 4.76117 48.2045 5.82928 49.2601 6.89488C49.8173 7.45711 50.0026 8.09822 49.93 8.88083C49.5105 13.3799 49.1161 17.8802 48.7129 22.3805C48.6227 23.3935 48.5301 24.4053 48.4299 25.5047ZM42.1064 4.60966C41.6994 4.56583 41.3513 4.52326 41.0032 4.49195C36.6269 4.10128 32.2493 3.71435 27.8742 3.32117C23.042 2.88667 18.2099 2.44214 13.3777 2.00889C12.6177 1.94127 12.3071 2.2155 12.237 2.98559C11.9415 6.24124 11.651 9.4969 11.358 12.7526C10.8208 18.7254 10.2836 24.6971 9.74893 30.6699C9.69259 31.2998 9.65252 31.9321 9.60368 32.5757C9.76646 32.5895 9.84786 32.6033 9.928 32.6033C15.8245 32.6045 21.721 32.6096 27.6175 32.5883C27.8404 32.587 28.1547 32.3867 28.2699 32.1876C29.2716 30.4596 30.2546 28.7203 31.21 26.966C31.7647 25.9467 32.5586 25.4822 33.7381 25.4922C37.7175 25.5273 41.6969 25.506 45.6764 25.506C45.9168 25.506 46.1559 25.506 46.4201 25.506C46.8697 20.4847 47.3104 15.5587 47.755 10.5875C46.3651 10.4648 45.0603 10.3421 43.753 10.2344C42.4245 10.1255 41.7195 9.32535 41.8197 7.99679C41.901 6.89738 42.005 5.79923 42.1064 4.60966ZM32.0439 55.5857C32.3407 55.0373 32.6049 54.579 32.8353 54.1044C32.9129 53.9441 32.9593 53.7313 32.9242 53.5635C32.8741 53.3243 32.69 53.1139 32.6425 52.876C32.5473 52.3977 32.2743 52.2787 31.8135 52.2487C30.8556 52.1861 30.1131 51.396 30.0893 50.4293C30.0605 49.2635 30.0592 48.0965 30.0893 46.9307C30.1143 45.9678 30.8644 45.1689 31.816 45.115C32.2818 45.0887 32.5561 44.9623 32.64 44.4864C32.6675 44.3274 32.7527 44.1721 32.8365 44.0294C33.0369 43.6888 33.0244 43.4359 32.7289 43.1065C32.0139 42.3077 32.0577 41.2295 32.8002 40.4532C33.5628 39.6555 34.3166 38.8391 35.1593 38.1316C35.5387 37.8136 36.1335 37.5757 36.6144 37.602C37.1678 37.6333 37.7025 37.9989 38.2459 38.2181C38.5289 38.2256 38.8445 38.0578 39.1801 37.9601C39.5958 37.8399 39.7486 37.6283 39.7861 37.175C39.8725 36.1382 40.6739 35.4057 41.6932 35.3806C42.8176 35.3531 43.9433 35.3518 45.0678 35.3819C46.0833 35.4094 46.9173 36.1945 46.9548 37.1913C46.9711 37.6245 47.1063 37.8274 47.5083 37.9338C47.7875 38.0077 48.0417 38.1667 48.3184 38.2569C48.4336 38.2944 48.6315 38.3007 48.6966 38.2318C49.2789 37.617 50.0064 37.4868 50.8554 37.6057C50.8554 37.344 50.8554 37.1412 50.8554 36.9371C50.8554 34.1247 50.8554 31.3123 50.8554 28.4999C50.8554 27.5858 50.774 27.5044 49.8549 27.5044C44.5206 27.5032 39.1876 27.5107 33.8533 27.4919C33.365 27.4907 33.1033 27.6534 32.8754 28.0679C31.8461 29.9474 30.7642 31.7994 29.7524 33.6877C29.3893 34.3664 28.916 34.6168 28.1584 34.6143C21.304 34.5943 14.4483 34.603 7.59394 34.603C7.34726 34.603 7.10058 34.603 6.80883 34.603C6.80883 41.624 6.80883 48.5911 6.80883 55.5845C15.2723 55.5857 23.7044 55.5857 32.0439 55.5857ZM34.2039 41.8982C34.4155 42.071 34.6034 42.205 34.7674 42.3628C35.4223 42.9951 35.4361 43.2556 35.0516 44.0645C34.7236 44.7569 34.4393 45.4732 34.1876 46.1969C33.9823 46.7892 33.6179 47.0922 32.9918 47.0822C32.69 47.0772 32.3883 47.0809 32.1128 47.0809C32.1128 48.2179 32.1128 49.2472 32.1128 50.2978C32.357 50.2978 32.541 50.3028 32.7264 50.2965C33.7243 50.2677 33.9372 50.4305 34.2402 51.3947C34.3642 51.7904 34.4681 52.2124 34.6873 52.5555C35.411 53.6874 35.6076 54.7117 34.3104 55.433C35.0855 56.2306 35.8205 56.9869 36.5981 57.7858C36.7646 57.6042 36.9412 57.4001 37.1303 57.2085C37.6674 56.6626 37.9755 56.6413 38.6855 56.9694C39.4004 57.3 40.1317 57.6005 40.873 57.8634C41.429 58.0613 41.7658 58.3706 41.752 58.9891C41.7445 59.3135 41.7508 59.639 41.7508 59.9583C42.879 59.9583 43.912 59.9583 44.9801 59.9583C44.9801 59.6065 44.9827 59.2984 44.9801 58.9904C44.9764 58.4419 45.2469 58.1051 45.7502 57.906C46.5792 57.5792 47.4056 57.2424 48.2195 56.8805C48.6979 56.6676 49.1236 56.6989 49.4755 57.0746C49.7146 57.33 49.8874 57.6468 50.0402 57.8647C50.968 56.9781 51.7168 56.2619 52.5533 55.463C52.3755 55.324 52.2014 55.2088 52.0524 55.0673C51.3162 54.3674 51.2861 54.1069 51.7394 53.2179C51.9748 52.7558 52.1902 52.2812 52.3667 51.7941C52.8801 50.3779 52.8714 50.3754 54.4115 50.2765C54.4904 50.2715 54.5681 50.2439 54.6544 50.2252C54.6544 49.1783 54.6544 48.1516 54.6544 47.0784C54.3765 47.0784 54.1511 47.0759 53.9257 47.0784C53.0604 47.0897 52.815 46.8869 52.5232 46.0617C52.2816 45.378 52.0036 44.7043 51.6918 44.0494C51.3249 43.2806 51.3349 42.9939 51.9535 42.3953C52.1426 42.2125 52.4055 42.1061 52.5232 42.0334C51.6442 41.1206 50.9267 40.3743 50.1066 39.5203C49.9651 39.7106 49.8348 39.926 49.6645 40.1026C49.0735 40.7174 48.768 40.7512 48.0154 40.3693C47.5534 40.1351 47.0863 39.8935 46.5967 39.7307C45.0014 39.2023 44.9739 39.2799 44.9651 37.5156C44.9651 37.4805 44.9301 37.4467 44.9138 37.4154C43.862 37.4154 42.8151 37.4154 41.747 37.4154C41.747 37.6784 41.7458 37.885 41.747 38.0916C41.757 39.0758 41.6231 39.2423 40.6651 39.5541C40.2119 39.7019 39.7223 39.8208 39.3378 40.0813C38.271 40.805 37.3794 40.7324 36.6131 39.6618C36.5931 39.6343 36.5417 39.6293 36.5492 39.6318C35.7879 40.3655 35.0441 41.0855 34.2039 41.8982ZM8.0898 26.8871C6.27039 26.8871 4.52486 26.9122 2.78058 26.8746C2.15574 26.8608 2.02051 27.09 2.02051 27.671C2.02677 36.0631 2.00924 44.4539 2.00173 52.846C2.00047 54.5665 2.90454 55.4305 4.76402 55.4305C4.76402 55.1888 4.76402 54.9434 4.76402 54.6992C4.76402 48.2229 4.76402 41.7467 4.76653 35.2717C4.76653 34.9812 4.76903 34.6869 4.81411 34.4002C4.97189 33.3709 5.78705 32.6521 6.82761 32.6083C7.06928 32.5983 7.3122 32.6071 7.5714 32.6071C7.74545 30.68 7.91199 28.838 8.0898 26.8871ZM43.8006 8.22219C45.2406 8.34991 46.5742 8.46761 48.0167 8.59533C46.9411 7.15283 44.587 4.88514 44.1061 4.82128C44.006 5.9307 43.9058 7.04013 43.8006 8.22219Z" fill="#0033A0"/>
<path d="M18.2562 11.7884C21.5982 12.0864 24.8539 12.3744 28.1083 12.6662C31.6119 12.9805 35.1155 13.2973 38.6191 13.6141C38.9709 13.6454 39.3253 13.6729 39.6746 13.723C40.3082 13.8132 40.6651 14.2502 40.5988 14.8299C40.5349 15.3871 40.0616 15.754 39.4317 15.7002C38.0005 15.5787 36.5705 15.4435 35.1405 15.3145C31.1386 14.9551 27.1379 14.597 23.1359 14.2351C21.4768 14.0849 19.8176 13.9421 18.1623 13.7693C17.4999 13.7005 17.158 13.2772 17.2056 12.6925C17.2507 12.1252 17.7077 11.7633 18.2562 11.7884Z" fill="#00AEC7"/>
<path d="M38.7292 21.365C35.3083 21.0595 31.8861 20.7565 28.4652 20.4497C24.9403 20.1329 21.4142 19.8261 17.893 19.4767C17.5224 19.4404 17.0816 19.2301 16.8537 18.9521C16.6884 18.7505 16.6997 18.2208 16.8562 17.9892C17.029 17.7325 17.4623 17.5046 17.7741 17.5133C18.9374 17.5484 20.0981 17.6836 21.2589 17.7863C25.7792 18.1895 30.2996 18.594 34.8187 18.9997C36.166 19.1211 37.5134 19.2514 38.862 19.3666C39.6959 19.4379 40.1354 19.8173 40.0966 20.4622C40.0578 21.1058 39.5995 21.4089 38.7292 21.365Z" fill="#00AEC7"/>
<path d="M43.3849 42.195C46.9924 42.2012 49.8799 45.1138 49.8599 48.7263C49.8411 52.2963 46.9248 55.19 43.3586 55.1788C39.7999 55.1675 36.8786 52.2524 36.8648 48.7C36.8523 45.1225 39.7924 42.1887 43.3849 42.195ZM43.3911 44.1947C40.9143 44.1859 38.8896 46.1781 38.8658 48.6462C38.842 51.123 40.9031 53.1903 43.3824 53.1778C45.8654 53.1653 47.8589 51.1643 47.8601 48.685C47.8626 46.1982 45.8779 44.2034 43.3911 44.1947Z" fill="#00AEC7"/>
</svg>
