<svg width="62" height="62" viewBox="0 0 62 62" fill="none" xmlns="http://www.w3.org/2000/svg">
<g clip-path="url(#clip0_3_137)">
<path d="M2.19783 61.9999C0.580994 61.443 -0.00363718 60.3001 1.60905e-06 58.6112C0.0327507 43.9205 0.0181955 29.2285 0.0194085 14.5378C0.0194085 13.5586 0.304447 13.1085 0.925466 13.1061C1.54891 13.1037 1.83637 13.5538 1.83637 14.5329C1.83637 29.2649 1.83637 43.9957 1.83637 58.7277C1.83637 59.9592 2.05713 60.1836 3.2652 60.1836C16.2981 60.1836 29.3298 60.1836 42.3627 60.1836C43.4944 60.1836 43.7297 59.9434 43.7297 58.792C43.7297 55.6434 43.7297 52.4961 43.7297 49.3476C43.7297 49.1474 43.7297 48.9472 43.7297 48.6548C43.4956 48.7252 43.3137 48.7761 43.1366 48.8343C41.5173 49.3731 39.8568 49.6582 38.149 49.657C31.4913 49.6558 24.8347 49.657 18.1769 49.657C18.0763 49.657 17.9744 49.6606 17.8749 49.6533C17.3485 49.6157 16.9858 49.2639 16.9725 48.781C16.9592 48.3005 17.3048 47.8904 17.824 47.8552C18.3662 47.8176 18.9132 47.8406 19.4578 47.8406C23.0881 47.8394 26.7184 47.8406 30.5197 47.8406C30.0454 47.5422 29.6949 47.3359 29.3589 47.1078C28.9429 46.8251 28.4674 46.5861 28.1424 46.2185C27.3697 45.3461 26.4273 45.2078 25.3284 45.2393C23.0299 45.3036 20.7289 45.2587 18.4292 45.2587C18.2473 45.2587 18.0641 45.2672 17.8846 45.2478C17.3121 45.1847 16.9579 44.8159 16.9725 44.3099C16.9871 43.8076 17.357 43.4509 17.938 43.44C18.9872 43.4218 20.0364 43.4327 21.0855 43.4315C22.4525 43.4315 23.8207 43.4315 25.2798 43.4315C25.1646 43.2264 25.1028 43.0893 25.0166 42.9704C23.7576 41.2087 22.8783 39.2759 22.4319 37.1575C22.3433 36.7389 22.159 36.6564 21.7806 36.6624C20.5094 36.6806 19.2383 36.6734 17.9683 36.6661C17.4698 36.6624 17.1047 36.4319 16.9943 35.9284C16.8949 35.477 17.0986 35.1252 17.505 34.9383C17.6954 34.851 17.9368 34.8583 18.1563 34.857C19.425 34.8498 20.6938 34.8534 22.0134 34.8534C22.0134 33.9823 22.0134 33.1463 22.0134 32.2205C21.5234 32.2205 21.0079 32.2205 20.4912 32.2205C19.664 32.2205 18.8368 32.2278 18.0096 32.2181C17.3667 32.2108 16.9579 31.8371 16.9713 31.296C16.9846 30.7743 17.3764 30.4151 17.9902 30.4091C19.2201 30.3969 20.4512 30.4054 21.6823 30.4054C21.9006 30.4054 22.1177 30.4054 22.3615 30.4054C22.8673 28.0407 23.8292 25.932 25.349 23.8972C25.0154 23.8972 24.8141 23.8972 24.6115 23.8972C22.5338 23.8972 20.456 23.8985 18.3783 23.896C18.1563 23.896 17.9307 23.9045 17.7148 23.8657C17.2588 23.7856 16.9373 23.4702 17.0028 23.0382C17.0513 22.7191 17.3267 22.3855 17.5911 22.1683C17.7585 22.0312 18.092 22.0736 18.3516 22.0736C21.0552 22.0676 23.7588 22.0809 26.4612 22.0554C26.7669 22.053 27.1114 21.9001 27.3661 21.7181C28.3583 21.0096 29.3213 20.261 30.356 19.482C30.1182 19.482 29.9084 19.482 29.6985 19.482C25.9263 19.482 22.1529 19.482 18.3807 19.482C18.1794 19.482 17.9744 19.4954 17.7767 19.465C17.2648 19.3862 16.9167 18.9712 16.9774 18.4944C17.0429 17.9909 17.34 17.7009 17.8604 17.6705C17.9404 17.6657 18.0217 17.6669 18.103 17.6669C24.8007 17.6669 31.4985 17.6681 38.1963 17.6669C40.0679 17.6669 41.8739 18.0333 43.6872 18.6691C43.6872 16.8006 43.6872 14.9831 43.6872 13.0903C43.4641 13.0903 43.2494 13.0903 43.0347 13.0903C40.4924 13.0903 37.9513 13.0927 35.409 13.0891C33.586 13.0867 32.4677 11.9692 32.464 10.1468C32.4592 7.40354 32.4628 4.65904 32.4628 1.81869C32.2311 1.81869 32.0201 1.81869 31.809 1.81869C22.2669 1.81869 12.7248 1.81869 3.18272 1.81869C2.08988 1.81869 1.8388 2.07348 1.83759 3.17638C1.83637 5.41614 1.83759 7.65591 1.83759 9.89689C1.83759 10.0583 1.84608 10.2208 1.83274 10.381C1.7915 10.9136 1.44339 11.2631 0.953363 11.2752C0.435443 11.2873 0.0315377 10.9306 0.0291119 10.3689C0.0157697 7.74327 -0.0109147 5.1201 0.0424541 2.49693C0.0691385 1.16714 1.23598 0.0933631 2.56898 0.00600496C2.66966 -6.15816e-05 2.77033 -6.15815e-05 2.871 -6.15815e-05C12.9577 -6.15815e-05 23.0456 -0.00491481 33.1323 0.0193513C33.4877 0.0205646 33.9305 0.213481 34.1852 0.464635C37.8421 4.08393 41.4809 7.72143 45.0979 11.3808C45.3477 11.6343 45.5212 12.0796 45.5285 12.4388C45.5673 14.6179 45.5576 16.797 45.5394 18.9773C45.5358 19.3704 45.657 19.5767 46.0027 19.7805C50.0891 22.1962 52.669 25.7196 53.706 30.3605C53.7546 30.5753 53.7946 30.7997 53.7897 31.0181C53.7776 31.4792 53.5289 31.7777 53.0729 31.8578C52.6265 31.9354 52.2614 31.774 52.0892 31.3421C51.9715 31.046 51.9242 30.7209 51.8503 30.4066C50.2953 23.7626 44.4162 19.3219 37.3958 19.4929C30.9382 19.6495 25.2665 24.6119 24.0851 31.1395C22.6308 39.1728 28.2406 46.7802 36.3211 47.7314C44.4017 48.6827 51.5155 42.8685 52.1923 34.7588C52.2505 34.0684 52.6338 33.668 53.1881 33.7165C53.7485 33.7663 54.0602 34.1994 54.002 34.908C53.8019 37.3358 53.102 39.6096 51.8733 41.7159C51.7532 41.9221 51.6331 42.1296 51.5385 42.2922C52.2736 43.025 52.9856 43.7348 53.7376 44.4859C54.3161 44.0927 54.8219 44.3245 55.3362 44.8547C56.8548 46.4174 58.3904 47.9644 59.9575 49.4786C60.9011 50.3898 61.738 51.3423 62.0012 52.6769C62.0012 53.121 62.0012 53.565 62.0012 54.0091C61.9721 54.0625 61.9273 54.1122 61.9176 54.1693C61.2796 57.6078 56.9191 58.8417 54.4229 56.1542C52.749 54.3525 50.9551 52.6623 49.2146 50.9225C48.5729 50.2806 48.5365 50.095 48.8434 49.3876C48.0914 48.6378 47.3685 47.9171 46.6322 47.1842C46.5704 47.2194 46.4564 47.3116 46.3254 47.359C45.6522 47.6028 45.5224 48.076 45.5309 48.764C45.5709 52.1734 45.5527 55.5828 45.5442 58.9934C45.543 59.3331 45.52 59.6813 45.4375 60.0089C45.1622 61.0985 44.3507 61.6505 43.3573 62.0036C29.6367 61.9999 15.9173 61.9999 2.19783 61.9999ZM50.9187 50.0598C52.5501 51.688 54.2118 53.36 55.8881 55.0161C56.9494 56.0644 58.4583 56.0802 59.4565 55.0817C60.4475 54.0904 60.4317 52.5725 59.391 51.5097C58.2484 50.3425 57.0804 49.2008 55.9305 48.0396C55.4223 47.5264 54.9335 46.995 54.4678 46.5072C53.2609 47.7157 52.1244 48.8538 50.9187 50.0598ZM42.1104 11.2655C39.5099 8.66417 36.8645 6.01794 34.281 3.43239C34.281 5.62604 34.2749 7.96287 34.2858 10.2997C34.2883 10.8797 34.6145 11.2534 35.1579 11.2582C37.5292 11.2752 39.9017 11.2655 42.1104 11.2655ZM50.1158 47.979C50.8981 47.1927 51.5895 46.4999 52.179 45.9078C51.5761 45.3048 50.9321 44.6581 50.4154 44.1413C49.7883 44.7734 49.1005 45.465 48.374 46.1978C48.7755 46.5849 49.2716 47.0556 49.758 47.5373C49.9011 47.6793 50.0139 47.8504 50.1158 47.979Z" fill="#0033A0"/>
<path d="M49.9156 33.685C49.8804 38.6681 46.7014 43.1719 42.0316 44.8171C37.2163 46.5145 31.9825 45.027 28.7925 41.0535C28.2976 40.4371 28.2843 39.8778 28.7549 39.5198C29.2025 39.1801 29.7095 39.3209 30.2007 39.9008C32.8279 43.0032 36.1634 44.2821 40.137 43.4412C43.9322 42.638 46.4673 40.2563 47.6256 36.546C49.354 31.0109 45.9008 25.1349 40.2534 23.8827C34.5721 22.6221 28.9599 26.4404 28.1229 32.1381C27.9119 33.5758 28.0101 34.9918 28.391 36.3931C28.4638 36.6576 28.5754 37.0131 28.4626 37.2049C28.2915 37.4936 27.9701 37.7933 27.6572 37.8734C27.229 37.9826 26.8991 37.6756 26.7584 37.2425C26.3205 35.886 26.1046 34.4907 26.2065 33.0687C26.6165 27.3297 30.4651 23.0395 36.1222 21.9815C42.5689 20.7767 49.1005 25.6542 49.781 32.1805C49.8356 32.6804 49.8719 33.1827 49.9156 33.685Z" fill="#0033A0"/>
<path d="M36.9106 32.1442C37.8955 31.2099 38.8598 30.2963 39.824 29.3815C40.6998 28.5516 41.7271 28.3271 42.8382 28.7481C43.9334 29.1631 44.5326 30.0184 44.6272 31.1881C44.6939 32.0131 44.415 32.7423 43.84 33.3368C42.256 34.9736 40.6792 36.6188 39.0648 38.2252C37.921 39.3645 36.2774 39.367 35.0948 38.2653C34.2385 37.4694 33.404 36.6492 32.5841 35.8156C31.4609 34.6739 31.4476 32.9607 32.5295 31.8457C33.592 30.7501 35.278 30.7015 36.4582 31.7328C36.6401 31.8906 36.8148 32.0556 36.9106 32.1442ZM33.9171 33.0978C33.5665 33.4448 33.5326 34.0005 33.8055 34.4118C33.8552 34.4858 33.9074 34.555 33.9656 34.6169C34.4908 35.1726 35.0536 35.6931 35.6018 36.2269C37.0392 37.6295 37.1168 37.6283 38.5214 36.1869C39.8156 34.8607 41.1146 33.5395 42.4015 32.206C42.9473 31.6418 42.9449 30.9842 42.4246 30.5802C41.9867 30.2405 41.4566 30.3108 40.9739 30.801C39.9429 31.8493 38.9253 32.9097 37.8955 33.9605C37.2514 34.6169 36.8305 34.6132 36.1549 33.9665C35.8347 33.6608 35.5545 33.281 35.181 33.0723C34.8898 32.9097 34.4386 32.843 34.1342 32.9498C34.0554 32.9789 33.9838 33.0311 33.9171 33.0978Z" fill="#00AEC7"/>
<path d="M14.2956 20.8119C14.2956 21.4561 14.3101 22.1016 14.2919 22.7459C14.258 23.9143 13.4344 24.7733 12.2663 24.8012C10.9382 24.8328 9.6076 24.8304 8.27944 24.8012C7.12837 24.777 6.29024 23.9786 6.25021 22.8223C6.20291 21.4549 6.2017 20.0815 6.25143 18.7141C6.29388 17.5566 7.12959 16.7752 8.29278 16.7497C9.60153 16.7218 10.9115 16.7218 12.219 16.7485C13.455 16.774 14.2713 17.6318 14.2931 18.8779C14.3053 19.5221 14.2956 20.1664 14.2956 20.8119ZM12.4774 20.7852C12.4774 20.2016 12.4665 19.618 12.481 19.0356C12.4895 18.7044 12.3634 18.5551 12.0262 18.5575C10.8593 18.5636 9.69371 18.5648 8.52688 18.5563C8.19696 18.5539 8.0502 18.6813 8.05141 19.0174C8.05869 20.1846 8.05747 21.3506 8.05141 22.5178C8.0502 22.8357 8.15936 23.0007 8.50747 22.9983C9.67431 22.9873 10.8399 22.9873 12.0068 22.9983C12.3864 23.0019 12.4907 22.8211 12.481 22.4765C12.4665 21.9123 12.4774 21.3482 12.4774 20.7852Z" fill="#00AEC7"/>
<path d="M14.2956 46.5631C14.2956 47.1879 14.304 47.8116 14.2943 48.4364C14.2749 49.6849 13.4683 50.5476 12.2324 50.5791C10.9248 50.6119 9.61366 50.6095 8.30612 50.5791C7.09077 50.5512 6.27205 49.731 6.24172 48.5056C6.20897 47.1976 6.20655 45.8861 6.24294 44.5781C6.27811 43.3333 7.13322 42.5361 8.38739 42.5228C9.63549 42.5106 10.8848 42.5106 12.1329 42.5228C13.4368 42.5361 14.2761 43.383 14.2943 44.6897C14.3028 45.3134 14.2956 45.9382 14.2956 46.5631ZM8.05505 46.551C8.05505 47.1346 8.06111 47.7181 8.05262 48.3005C8.04777 48.6281 8.17998 48.7749 8.51717 48.7725C9.68401 48.764 10.8496 48.7652 12.0165 48.7713C12.344 48.7725 12.4847 48.6403 12.4822 48.3018C12.4713 47.1346 12.4713 45.9686 12.4822 44.8014C12.4847 44.4665 12.3512 44.3306 12.0189 44.333C10.8521 44.3415 9.68643 44.3427 8.5196 44.3318C8.17877 44.3282 8.04898 44.475 8.05383 44.8001C8.06111 45.385 8.05505 45.9674 8.05505 46.551Z" fill="#00AEC7"/>
<path d="M10.2638 37.5531C9.61851 37.5531 8.97202 37.564 8.32675 37.5507C7.15506 37.5276 6.30116 36.779 6.25507 35.6203C6.19927 34.2298 6.20048 32.8345 6.25628 31.4441C6.30237 30.3036 7.13201 29.5452 8.27095 29.5258C9.60153 29.5028 10.9345 29.5016 12.2651 29.5258C13.4441 29.5477 14.2701 30.3836 14.2895 31.5678C14.3113 32.8794 14.3125 34.1922 14.2895 35.5026C14.2689 36.7038 13.415 37.524 12.1996 37.5494C11.5556 37.5628 10.9091 37.5531 10.2638 37.5531ZM8.05384 35.7307C9.48509 35.7307 10.812 35.7404 12.139 35.7137C12.2542 35.7113 12.4592 35.471 12.4616 35.3376C12.4871 34.1485 12.4919 32.9595 12.458 31.7705C12.4543 31.6249 12.196 31.3664 12.0504 31.3616C10.863 31.3276 9.67309 31.3519 8.48443 31.3373C8.11448 31.3325 8.04777 31.5242 8.05141 31.8275C8.05869 32.4523 8.05262 33.0772 8.05262 33.702C8.05384 34.3609 8.05384 35.0185 8.05384 35.7307Z" fill="#00AEC7"/>
</g>
<defs>
<clipPath id="clip0_3_137">
<rect width="62" height="62" fill="white"/>
</clipPath>
</defs>
</svg>
