<svg width="62" height="62" viewBox="0 0 62 62" fill="none" xmlns="http://www.w3.org/2000/svg">
<g clip-path="url(#clip0_3_149)">
<path d="M52.685 36.1163V25.8269C51.7746 25.801 50.8681 25.9432 50.1623 25.2169C49.4708 24.5048 49.6819 23.5821 49.608 22.7589H43.436C42.8817 22.7589 42.4324 23.2073 42.4324 23.7605V23.7876C42.4324 24.3407 42.8817 24.7891 43.436 24.7891H47.6448C48.1019 26.3632 49.1341 27.3389 50.6337 27.8041V34.17C49.0641 34.6198 48.0942 35.6575 47.637 37.1333C47.1074 37.1333 46.6774 37.5623 46.6774 38.0909V38.2486C46.6774 38.7771 47.1074 39.2062 47.637 39.2062H49.6171C49.6391 38.2873 49.5005 37.406 50.196 36.7068C50.9056 35.9961 51.8251 36.1835 52.685 36.1163Z" fill="#00AEC7"/>
<path d="M61.9974 16.4602C61.9624 15.911 61.4794 15.4961 60.9277 15.4961C59.8671 15.4961 58.822 15.4974 57.777 15.4948C56.8912 15.4922 56.1375 15.8102 55.5094 16.424C54.9098 17.0107 54.3426 17.6349 53.7119 18.1867C53.4685 18.4 53.0903 18.5731 52.773 18.5757C48.6588 18.6016 44.5432 18.5925 40.4277 18.5925H39.8152C39.8954 18.4581 39.9162 18.3987 39.955 18.3599C41.5233 16.7923 43.0851 15.2196 44.6715 13.6714C44.8281 13.5189 45.1234 13.4452 45.3565 13.4426C46.6114 13.4284 49.1794 13.4297 50.6311 13.431C51.2009 13.431 51.6632 12.9709 51.6632 12.4023V12.3972C51.6632 11.8285 51.2022 11.3685 50.6324 11.3698C49.0771 11.3724 46.162 11.3736 44.6054 11.3581C44.1806 11.3543 43.8906 11.4874 43.5953 11.7846C41.43 13.9673 39.2454 16.1306 37.0736 18.3082C36.3886 18.9957 35.3849 19.2942 34.4486 19.0371C32.4686 18.4917 31.8832 16.1151 33.3543 14.629C35.2101 12.7551 38.7895 9.29044 40.3163 7.834C40.7139 7.45406 40.7398 6.82858 40.3746 6.41763L40.3604 6.40083C39.9719 5.96273 39.2946 5.93947 38.875 6.34913C36.3989 8.76317 33.9099 11.1255 31.5361 13.599C30.0728 15.1239 30.1103 17.5651 31.3523 19.2684C32.6175 21.0053 34.8786 21.6592 36.8832 20.8838C37.1759 20.7701 37.4984 20.6705 37.8066 20.6693C43.0203 20.6563 48.234 20.6589 53.4477 20.6615C54.454 20.6615 54.7946 21.0078 54.7946 22.0262C54.7959 28.1337 54.7959 34.2411 54.7946 40.3473C54.7946 40.505 54.7725 40.6626 54.7544 40.9043C52.9038 39.6792 51.0869 39.8498 49.2079 40.6329C47.4622 41.3605 45.6738 41.9847 43.9035 42.6541C43.019 42.9875 42.1319 43.3183 41.2474 43.6505C41.1827 43.5871 41.1749 43.5794 41.1115 43.5148C41.2759 43.0818 41.4598 42.6554 41.5984 42.2147C41.7279 41.7986 41.9688 41.6073 42.4091 41.5194C43.1472 41.3708 43.8776 41.1847 44.6274 40.9947C45.1027 40.8746 45.4368 40.4507 45.4407 39.9609L45.4705 36.491C45.4744 35.9896 45.1299 35.5515 44.6417 35.4352C43.8439 35.2465 43.0656 35.063 42.2977 34.8472C42.0542 34.7787 41.8198 34.5409 41.6657 34.3225C41.4974 34.0822 41.4533 33.7591 41.307 33.4993C41.1102 33.1504 41.1801 32.8764 41.386 32.5559C41.9649 31.6565 42.5114 30.7351 43.0164 29.9106C41.7616 28.657 40.5637 27.4616 39.3295 26.2301C38.6937 26.6178 37.9439 26.9744 37.3158 27.4823C36.5297 28.1169 35.8097 28.0755 34.9757 27.6361C34.6196 27.4487 34.4162 27.2613 34.3321 26.8517C34.1184 25.8243 33.8439 24.8098 33.5913 23.7786H28.4281C28.2455 24.5423 28.0008 25.2841 27.9023 26.0453C27.7702 27.0752 27.3105 27.7563 26.2577 27.9308C25.9754 27.9773 25.6218 27.9786 25.3874 27.8481C24.4511 27.3272 23.5485 26.7457 22.7352 26.2495C21.4752 27.5043 20.2657 28.71 19.0276 29.9429C19.5469 30.7894 20.1297 31.6927 20.6555 32.627C20.7785 32.8441 20.7655 33.1776 20.7189 33.4399C20.6671 33.7294 20.5531 34.0356 20.3783 34.267C20.1931 34.5112 19.9328 34.7761 19.6544 34.8576C18.6987 35.1367 17.7235 35.3538 16.7147 35.598C16.5891 35.6291 16.4985 35.7415 16.4985 35.872C16.4985 36.0219 16.6202 36.1434 16.7704 36.1434H21.1411C21.5568 36.1434 21.9323 35.8979 22.0981 35.5166C22.3817 34.8653 22.8116 33.8547 23.0396 33.2357C23.125 33.0031 23.0797 32.649 22.958 32.4267C22.5345 31.6552 22.0502 30.9173 21.5684 30.1316C22.0243 29.7064 22.4749 29.2851 22.9748 28.8186C23.6495 29.2295 24.3916 29.6547 25.1038 30.1264C25.4988 30.3874 25.8238 30.4185 26.2965 30.1613C27.0425 29.7542 27.8363 29.4415 28.6496 29.1933C29.1235 29.0486 29.367 28.8341 29.4564 28.3805C29.6014 27.6439 29.7853 26.9137 29.9847 26.19C30.0236 26.0466 30.1997 25.8514 30.3279 25.8398C30.776 25.7971 31.2344 25.7907 31.6812 25.8411C31.8198 25.8566 32.0011 26.0802 32.0451 26.2417C32.2471 26.9654 32.3727 27.7111 32.6006 28.4257C32.6796 28.6725 32.9296 28.9672 33.164 29.077C34.0821 29.5061 35.0236 29.8912 35.9754 30.2401C36.2073 30.3254 36.575 30.2957 36.7913 30.1768C37.5631 29.7568 38.3 29.2748 39.0796 28.7979C39.5277 29.2593 39.946 29.6896 40.4212 30.1781C39.99 30.8811 39.4953 31.6307 39.0705 32.419C38.9475 32.6477 38.9164 33.0367 39.0045 33.2809C39.3477 34.2269 39.7362 35.1574 40.1596 36.071C40.2632 36.2946 40.5417 36.5414 40.7774 36.6138C41.5168 36.84 42.2847 36.9692 43.0268 37.185C43.1874 37.2315 43.2936 37.4758 43.4166 37.6347C43.4373 37.6619 43.4192 37.7187 43.4205 37.7614C43.4477 39.1623 43.4619 39.2618 42.0801 39.4556C40.7566 39.6404 39.9265 40.1987 39.639 41.5285C39.5587 41.8994 39.3645 42.2509 39.1961 42.5985C38.9074 43.1943 38.6367 43.781 39.3412 44.3793C38.0837 44.8536 36.9208 45.2917 35.7592 45.7324C33.1251 46.73 30.4846 47.7083 27.8622 48.7357C26.575 49.2397 25.4328 49.0859 24.3436 48.2563C23.5938 47.6851 22.8168 47.1487 21.9414 46.5168C22.2431 46.4948 22.4206 46.4703 22.5993 46.469C23.8269 46.4651 25.0559 46.4832 26.2836 46.4638C28.2222 46.4315 29.661 45.5566 30.5338 43.8223C30.6607 43.569 30.7941 43.4424 31.0104 43.3881C31.0829 43.37 31.1632 43.3597 31.2564 43.3558C33.871 43.2382 35.9936 41.1653 36.1697 38.591C36.3484 35.9754 34.5794 33.6635 32.0127 33.1569C29.4408 32.649 26.9259 34.1145 26.101 36.6009C26.0414 36.7818 25.9857 36.9627 25.9236 37.1579H19.4511C19.4498 37.154 19.4485 37.1488 19.4472 37.1449H16.4985V37.154H15.0999C13.4228 37.163 12.3415 37.6851 12.3415 37.6851C10.1918 38.383 9.07675 40.3977 7.22359 41.6887V40.9353C7.22359 34.656 7.22359 28.3766 7.22359 22.0973C7.22359 20.9665 7.53698 20.6615 8.69213 20.6615C15.1776 20.6615 21.6617 20.6615 28.1471 20.6615C28.5589 20.6615 28.893 20.3281 28.893 19.9171V19.3136C28.893 18.9027 28.5589 18.5692 28.1471 18.5692H21.1618C21.3457 18.3689 21.4545 18.2436 21.571 18.1273C26.3846 13.3225 31.2007 8.52022 36.0104 3.71152C37.0594 2.66217 38.4852 2.07416 39.9706 2.07546C45.9846 2.0845 57.4713 2.08192 60.9666 2.08062C61.5364 2.08062 61.9974 1.61927 61.9974 1.05194V1.0416C61.9974 0.472987 61.5364 0.0129237 60.9666 0.0129237C57.4998 0.0168007 46.1788 0.0271392 40.2542 5.89905e-07C37.8959 -0.0116302 35.9625 0.803819 34.3062 2.4709C29.086 7.72286 23.8308 12.9373 18.5977 18.1764C18.3024 18.4723 18.011 18.6041 17.5876 18.6016C14.6142 18.5835 11.6409 18.5912 8.66882 18.5925C6.38054 18.5938 5.15675 19.8124 5.15546 22.0921C5.15416 28.5653 5.15546 35.0372 5.15546 41.5104V42.3439H0.68896C0.317291 42.3439 0.0168484 42.645 0.0168484 43.0146V43.7254C0.0168484 44.0963 0.317291 44.3961 0.68896 44.3961C2.0552 44.4 3.40201 44.4103 4.74882 44.3909C6.56313 44.3638 8.16118 43.7435 9.50411 42.5197C10.1555 41.9252 10.7629 41.2829 11.3987 40.6717C12.3026 39.8019 13.393 39.2721 14.6401 39.2592C18.5821 39.2204 22.5255 39.2295 26.4675 39.2475C27.5397 39.2527 28.4644 39.988 28.8024 40.9883C29.3761 42.6916 28.1419 44.3884 26.2875 44.3935C21.8922 44.4077 17.4969 44.3987 13.1016 44.3987H13.0952C12.7274 44.3987 12.4295 44.6959 12.4295 45.063V45.7905C12.4295 46.1614 12.7313 46.4625 13.1029 46.4612C14.6867 46.4586 16.2498 46.4509 17.8103 46.4754C18.1457 46.4806 18.4734 46.5866 18.7492 46.7791C20.2333 47.8104 21.7044 48.8624 23.1574 49.9363C24.8383 51.1795 26.6203 51.4121 28.5783 50.6664C35.8524 47.8957 43.1343 45.1495 50.4109 42.3853C51.131 42.1113 51.8497 41.9407 52.6138 42.1488C53.8026 42.4719 54.6638 43.4799 54.7842 44.683C54.9111 45.9559 54.2299 47.0971 52.9181 47.707C44.9835 51.3979 37.0503 55.0939 29.1015 58.7563C26.4196 59.993 23.5835 60.3316 20.7137 59.617C17.5228 58.8222 14.3721 57.8672 11.1993 56.9936C10.8108 56.8863 10.4015 56.7959 10.0014 56.7933C7.58619 56.7804 3.06013 56.7816 1.02696 56.7829C0.458448 56.7829 -0.00128174 57.243 -0.00128174 57.8103V57.8155C-0.00128174 58.3854 0.462333 58.8481 1.03343 58.8481C3.00185 58.8468 7.28446 58.8455 9.61159 58.8571C10.0118 58.8584 10.4093 58.9153 10.7965 59.0212C13.2648 59.7036 15.7435 60.3536 18.1859 61.1199C22.3247 62.42 26.3613 62.3308 30.324 60.488C38.1511 56.8476 45.9833 53.2187 53.8052 49.5692C55.6687 48.6995 56.8601 46.8334 56.8627 44.7812C56.8692 37.4267 56.8536 30.0721 56.8756 22.7176C56.8795 21.3891 56.8225 20.1252 55.7011 19.2761C56.5467 17.9373 57.6565 17.2924 59.2054 17.5509C59.5201 17.6039 59.8503 17.5587 60.174 17.5587H60.9653C61.5597 17.5599 62.0363 17.0611 61.9974 16.4602ZM28.0577 37.4848C28.3465 35.9586 29.8902 34.9041 31.439 35.138C33.1018 35.3887 34.2855 36.9072 34.0951 38.5458C33.9112 40.125 32.5268 41.345 30.9961 41.2468C30.684 39.4802 29.7154 38.1982 28.0577 37.4848Z" fill="#0033A0"/>
<path d="M19.5806 23.8264C19.6181 23.2435 19.1558 22.7576 18.5795 22.7576H12.3985C12.3855 23.6584 12.5202 24.5617 11.8053 25.2686C11.0957 25.9703 10.171 25.7648 9.34482 25.8398V36.1512C10.2928 36.0995 11.1941 36.0982 11.8027 36.7211C12.0514 36.9757 12.4347 37.0558 12.7688 36.933C12.8219 36.9136 12.875 36.8955 12.9281 36.8774C13.586 36.6655 13.8035 35.8526 13.3296 35.3499C13.3063 35.3241 13.2817 35.2995 13.257 35.275C12.7416 34.7658 12.0423 34.4427 11.3896 34.0163V27.8041C13.1353 27.1231 13.6248 26.6333 14.42 24.7607H18.5433C19.0781 24.762 19.5456 24.3588 19.5806 23.8264Z" fill="#00AEC7"/>
</g>
<defs>
<clipPath id="clip0_3_149">
<rect width="62" height="62" fill="white"/>
</clipPath>
</defs>
</svg>
